/* XPM */
static char * collecf1_xpm[] = {
"64 64 607 2",
"  	c #9FA394",
". 	c #A1A596",
"+ 	c #A9AC9C",
"@ 	c #AAAD9D",
"# 	c #A0A495",
"$ 	c #ACB09F",
"% 	c #B0B3A2",
"& 	c #A6AA9A",
"* 	c #A8AC9C",
"= 	c #ABAE9D",
"- 	c #A0A394",
"; 	c #ABAE9E",
"> 	c #ADB09F",
", 	c #A9AD9C",
"' 	c #A8AB9B",
") 	c #A5A899",
"! 	c #AEB1A0",
"~ 	c #ACAF9F",
"{ 	c #A6A999",
"] 	c #AAAE9D",
"^ 	c #A0A494",
"/ 	c #AEB1A1",
"( 	c #AEB2A1",
"_ 	c #989B8D",
": 	c #8B8D80",
"< 	c #818377",
"[ 	c #7B7E72",
"} 	c #8A8D80",
"| 	c #999C8E",
"1 	c #A2A697",
"2 	c #909487",
"3 	c #83877B",
"4 	c #868B7F",
"5 	c #989C8F",
"6 	c #AFB2A1",
"7 	c #969A8C",
"8 	c #64675F",
"9 	c #3F3F39",
"0 	c #474228",
"a 	c #817D4D",
"b 	c #A9A34F",
"c 	c #B8B25E",
"d 	c #9D9555",
"e 	c #36352B",
"f 	c #171410",
"g 	c #474224",
"h 	c #7F7A53",
"i 	c #A8A570",
"j 	c #86824F",
"k 	c #464232",
"l 	c #434641",
"m 	c #545852",
"n 	c #505450",
"o 	c #4B4F4C",
"p 	c #454843",
"q 	c #444846",
"r 	c #3F4342",
"s 	c #3E4342",
"t 	c #50534E",
"u 	c #5F6158",
"v 	c #6B6E64",
"w 	c #7B7E74",
"x 	c #96998B",
"y 	c #A2A595",
"z 	c #4F524D",
"A 	c #635D32",
"B 	c #AFA94E",
"C 	c #E0DD5F",
"D 	c #F5F352",
"E 	c #F8F551",
"F 	c #CEC744",
"G 	c #706521",
"H 	c #5C5021",
"I 	c #AFAA4C",
"J 	c #D9D464",
"K 	c #F4F356",
"L 	c #FCFB4E",
"M 	c #FCFD43",
"N 	c #FBFB4F",
"O 	c #F4F264",
"P 	c #DEDA64",
"Q 	c #C6C05F",
"R 	c #BDB95B",
"S 	c #A39F6C",
"T 	c #373220",
"U 	c #B3AC5D",
"V 	c #E6E46F",
"W 	c #E7E466",
"X 	c #E6E064",
"Y 	c #DFDB63",
"Z 	c #CBC661",
"` 	c #B2AD52",
" .	c #8C8755",
"..	c #5C563B",
"+.	c #5A5B52",
"@.	c #86897E",
"#.	c #ADB0A0",
"$.	c #9A9D8F",
"%.	c #454131",
"&.	c #BDB851",
"*.	c #F7F64A",
"=.	c #FDFD3B",
"-.	c #FDFD39",
";.	c #FBFA3A",
">.	c #9D953C",
",.	c #665E2D",
"'.	c #C5BE5D",
").	c #F6F351",
"!.	c #FDFE39",
"~.	c #FDFE2E",
"{.	c #FDFF2B",
"].	c #FDFF2A",
"^.	c #FDFE2F",
"/.	c #FEFE35",
"(.	c #FDFE37",
"_.	c #F8F73B",
":.	c #A8A04C",
"<.	c #5E5729",
"[.	c #E7E33B",
"}.	c #FDFD32",
"|.	c #FEFD30",
"1.	c #FEFD2F",
"2.	c #FEFD31",
"3.	c #FCFD39",
"4.	c #FDFC37",
"5.	c #FBFA51",
"6.	c #F6F460",
"7.	c #D4CF5F",
"8.	c #959059",
"9.	c #55523F",
"0.	c #808377",
"a.	c #A7AA9A",
"b.	c #404039",
"c.	c #CBC751",
"d.	c #FBFC3F",
"e.	c #FEFD39",
"f.	c #CEC955",
"g.	c #655C29",
"h.	c #D9CE49",
"i.	c #D6CD2A",
"j.	c #FDFE30",
"k.	c #FEFD35",
"l.	c #FEFE33",
"m.	c #FCFE32",
"n.	c #FCFD31",
"o.	c #FDFE31",
"p.	c #FDFC3D",
"q.	c #FDFD36",
"r.	c #DED951",
"s.	c #766B2C",
"t.	c #938C41",
"u.	c #EEEB56",
"v.	c #FDFD35",
"w.	c #FDFD2F",
"x.	c #FEFE2F",
"y.	c #FCFD2F",
"z.	c #FCFE2E",
"A.	c #FCFE33",
"B.	c #EDE869",
"C.	c #B5B05D",
"D.	c #57553E",
"E.	c #8A8D7F",
"F.	c #6E7168",
"G.	c #9D9437",
"H.	c #FBFB42",
"I.	c #FDFD30",
"J.	c #FEFE30",
"K.	c #D2CD53",
"L.	c #6C611B",
"M.	c #E4D532",
"N.	c #7B7346",
"O.	c #AAA21F",
"P.	c #F6F435",
"Q.	c #FDFE32",
"R.	c #FBF937",
"S.	c #B7AE33",
"T.	c #5C5227",
"U.	c #C9C351",
"V.	c #FAF949",
"W.	c #FEFF31",
"X.	c #FEFF30",
"Y.	c #FEFE2E",
"Z.	c #FEFF2E",
"`.	c #FCFD32",
" +	c #FCFC42",
".+	c #EBE670",
"++	c #A59F63",
"@+	c #66665B",
"#+	c #A4A797",
"$+	c #A3A797",
"%+	c #A4A898",
"&+	c #AFB3A2",
"*+	c #393628",
"=+	c #E7E341",
"-+	c #FCFC30",
";+	c #FAF74C",
">+	c #78703A",
",+	c #9C8C1E",
"'+	c #DBCC4F",
")+	c #A99E4E",
"!+	c #766927",
"~+	c #CDC829",
"{+	c #F9F739",
"]+	c #FDFD31",
"^+	c #EAE43B",
"/+	c #887D1D",
"(+	c #857D41",
"_+	c #EBE64D",
":+	c #FDFD34",
"<+	c #FDFF2E",
"[+	c #FCFE31",
"}+	c #FDFE34",
"|+	c #FEFF2F",
"1+	c #FCFD34",
"2+	c #FAFA53",
"3+	c #D0CC74",
"4+	c #605E4C",
"5+	c #9B9E8F",
"6+	c #A2A696",
"7+	c #A8AC9B",
"8+	c #A4A899",
"9+	c #7E741E",
"0+	c #FCFD36",
"a+	c #FDFE2C",
"b+	c #FEFE31",
"c+	c #EBE867",
"d+	c #8E874C",
"e+	c #564912",
"f+	c #B4A730",
"g+	c #D5C744",
"h+	c #BBB263",
"i+	c #CCC148",
"j+	c #E8E23E",
"k+	c #AAA039",
"l+	c #514417",
"m+	c #B7AC44",
"n+	c #F8F649",
"o+	c #FEFF2D",
"p+	c #FCFE2C",
"q+	c #FDFF2D",
"r+	c #FDFE33",
"s+	c #FCFA4E",
"t+	c #E0DC79",
"u+	c #67623F",
"v+	c #97998B",
"w+	c #A3A697",
"x+	c #8F9184",
"y+	c #9C941C",
"z+	c #FDFE2D",
"A+	c #FDFE2B",
"B+	c #FEFE2C",
"C+	c #FBFA53",
"D+	c #DFDB6C",
"E+	c #968F4D",
"F+	c #5B512A",
"G+	c #75651D",
"H+	c #756925",
"I+	c #4D421B",
"J+	c #9F9545",
"K+	c #E3DE4C",
"L+	c #FCFD30",
"M+	c #FCFE2D",
"N+	c #FCFE2F",
"O+	c #FEFE32",
"P+	c #FDFF30",
"Q+	c #FDFC39",
"R+	c #DCD871",
"S+	c #46443A",
"T+	c #86897D",
"U+	c #989123",
"V+	c #FBFB30",
"W+	c #FCFB42",
"X+	c #F1EF65",
"Y+	c #D3D06A",
"Z+	c #D1CC52",
"`+	c #F1EB4F",
" @	c #FDFD3A",
".@	c #FDFF2C",
"+@	c #FCFC44",
"@@	c #B9B360",
"#@	c #52544D",
"$@	c #787B71",
"%@	c #2E2509",
"&@	c #5E5514",
"*@	c #8B8220",
"=@	c #C4BE28",
"-@	c #F7F72D",
";@	c #FDFE3D",
">@	c #FDFF2F",
",@	c #F7F55B",
"'@	c #5F5D41",
")@	c #949688",
"!@	c #818378",
"~@	c #606F73",
"{@	c #B3CACE",
"]@	c #CAE1E5",
"^@	c #B2CACE",
"/@	c #646F70",
"(@	c #796E13",
"_@	c #F7F534",
":@	c #FDFE36",
"<@	c #FEFF32",
"[@	c #FCFB31",
"}@	c #BCB449",
"|@	c #707267",
"1@	c #505B5E",
"2@	c #D7EDF0",
"3@	c #CFEDF0",
"4@	c #C8E6EA",
"5@	c #B4D0D7",
"6@	c #BBDBE0",
"7@	c #464D51",
"8@	c #E1DC32",
"9@	c #FDFC2E",
"0@	c #FDFC31",
"a@	c #FDFB2E",
"b@	c #FAF132",
"c@	c #E9DB47",
"d@	c #44443D",
"e@	c #909285",
"f@	c #778A8F",
"g@	c #D3EFF2",
"h@	c #BCDCE1",
"i@	c #AEC7D0",
"j@	c #B7D3DA",
"k@	c #8CA5AA",
"l@	c #766D32",
"m@	c #F7F63B",
"n@	c #FDFD2D",
"o@	c #FDFC33",
"p@	c #FAF22D",
"q@	c #F8E427",
"r@	c #FAD624",
"s@	c #F6CF26",
"t@	c #423711",
"u@	c #989C8D",
"v@	c #343A3D",
"w@	c #9DB6BB",
"x@	c #B8D2D8",
"y@	c #ABC9CE",
"z@	c #798B8F",
"A@	c #6D6432",
"B@	c #EDE951",
"C@	c #FEFF2C",
"D@	c #FCFA2E",
"E@	c #F8EB2A",
"F@	c #F7DD25",
"G@	c #F8D724",
"H@	c #FAD124",
"I@	c #F9CF24",
"J@	c #61500E",
"K@	c #8C9185",
"L@	c #5C5F58",
"M@	c #494E4A",
"N@	c #535651",
"O@	c #3C403D",
"P@	c #A7992D",
"Q@	c #F9F32E",
"R@	c #FCFA32",
"S@	c #FDFD2E",
"T@	c #F9EC2B",
"U@	c #F7DA25",
"V@	c #F7D624",
"W@	c #F9D324",
"X@	c #FBD024",
"Y@	c #816D1B",
"Z@	c #82867C",
"`@	c #493D10",
" #	c #E4D325",
".#	c #F9F333",
"+#	c #FCFA2F",
"@#	c #FDFD33",
"##	c #FCF92E",
"$#	c #F9F02B",
"%#	c #F6DD25",
"&#	c #F9D124",
"*#	c #917A20",
"=#	c #484B49",
"-#	c #A49623",
";#	c #F4E42B",
">#	c #F5EC2C",
",#	c #FBF82D",
"'#	c #F9F42B",
")#	c #FBF832",
"!#	c #FBF82E",
"~#	c #FAF42D",
"{#	c #F8E528",
"]#	c #F8D624",
"^#	c #FAD024",
"/#	c #F8D324",
"(#	c #F8D424",
"_#	c #917A1B",
":#	c #868B80",
"<#	c #342A11",
"[#	c #E1C422",
"}#	c #F5D923",
"|#	c #F6E72B",
"1#	c #F3E023",
"2#	c #FAF42B",
"3#	c #FAF52C",
"4#	c #F7E429",
"5#	c #F8D824",
"6#	c #F9D025",
"7#	c #F9D224",
"8#	c #F8D025",
"9#	c #6C5C25",
"0#	c #60655F",
"a#	c #796712",
"b#	c #F5D325",
"c#	c #F9D524",
"d#	c #F8D526",
"e#	c #F8EC2C",
"f#	c #FCFB2E",
"g#	c #FCF72C",
"h#	c #FBF32C",
"i#	c #F8E428",
"j#	c #F9DF26",
"k#	c #F6D723",
"l#	c #FAD025",
"m#	c #F1C926",
"n#	c #2C2612",
"o#	c #999D8F",
"p#	c #41423D",
"q#	c #BAA21F",
"r#	c #F7D926",
"s#	c #FBFA2D",
"t#	c #FAF52D",
"u#	c #FAF02B",
"v#	c #F8EA2A",
"w#	c #F9E326",
"x#	c #F9D925",
"y#	c #FACF25",
"z#	c #F9D125",
"A#	c #F9D424",
"B#	c #F9D127",
"C#	c #DFCA48",
"D#	c #373933",
"E#	c #A5A999",
"F#	c #8D9185",
"G#	c #483F1F",
"H#	c #E3C722",
"I#	c #FAD526",
"J#	c #F9D326",
"K#	c #F8D524",
"L#	c #F7DF27",
"M#	c #F5E226",
"N#	c #F7E027",
"O#	c #F8E027",
"P#	c #F7DE27",
"Q#	c #F7D723",
"R#	c #F7D423",
"S#	c #F8D423",
"T#	c #F7D524",
"U#	c #F9D22C",
"V#	c #A59945",
"W#	c #7B7D71",
"X#	c #74786E",
"Y#	c #7C6A16",
"Z#	c #F4D12D",
"`#	c #F8D529",
" $	c #F7D623",
".$	c #FAD224",
"+$	c #DAC141",
"@$	c #4D4837",
"#$	c #A1A494",
"$$	c #9CA092",
"%$	c #52524A",
"&$	c #AD9B22",
"*$	c #F9D626",
"=$	c #FBCF25",
"-$	c #E2C439",
";$	c #6A6030",
">$	c #979B8C",
",$	c #444031",
"'$	c #D4B629",
")$	c #F9D229",
"!$	c #D4B832",
"~$	c #5C5126",
"{$	c #8D9082",
"]$	c #53481B",
"^$	c #EDC624",
"/$	c #F6D623",
"($	c #FBD025",
"_$	c #EFD23B",
":$	c #A79730",
"<$	c #504D3F",
"[$	c #9EA191",
"}$	c #7C7E73",
"|$	c #7E6C14",
"1$	c #F4CE26",
"2$	c #F6D823",
"3$	c #F5D823",
"4$	c #F7D32A",
"5$	c #CEB933",
"6$	c #665617",
"7$	c #67695F",
"8$	c #A7AB9B",
"9$	c #64655B",
"0$	c #B69C1E",
"a$	c #FACF27",
"b$	c #FACF26",
"c$	c #F9D126",
"d$	c #F5CE25",
"e$	c #C6AD2B",
"f$	c #786C1A",
"g$	c #1B1309",
"h$	c #7F8276",
"i$	c #A1A595",
"j$	c #4A432A",
"k$	c #EAC72B",
"l$	c #F8D229",
"m$	c #E2BF24",
"n$	c #AA962A",
"o$	c #594D11",
"p$	c #5D521F",
"q$	c #716D56",
"r$	c #5B5E55",
"s$	c #ABAF9E",
"t$	c #A3A798",
"u$	c #77796C",
"v$	c #BEA424",
"w$	c #DBBD28",
"x$	c #C7A81F",
"y$	c #E8C424",
"z$	c #F3CD25",
"A$	c #F9D225",
"B$	c #F6CF25",
"C$	c #ECC724",
"D$	c #D2B121",
"E$	c #AA941D",
"F$	c #706214",
"G$	c #392E12",
"H$	c #817339",
"I$	c #BEAF50",
"J$	c #DCCA49",
"K$	c #71693D",
"L$	c #A3A696",
"M$	c #9B9D8E",
"N$	c #7B6C18",
"O$	c #F7D229",
"P$	c #F7D12C",
"Q$	c #D8BC43",
"R$	c #9D8C43",
"S$	c #6D6334",
"T$	c #73631A",
"U$	c #978217",
"V$	c #B39B1C",
"W$	c #BDA21E",
"X$	c #C4A722",
"Y$	c #C4A51F",
"Z$	c #BFA11D",
"`$	c #AB911B",
" %	c #937C16",
".%	c #62551E",
"+%	c #5D5B4C",
"@%	c #7A7B6F",
"#%	c #75766A",
"$%	c #696345",
"%%	c #BAAE50",
"&%	c #A59735",
"*%	c #796C1B",
"=%	c #4C4631",
"-%	c #4B452E",
";%	c #EFC724",
">%	c #F9D02D",
",%	c #EFD55A",
"'%	c #CBB458",
")%	c #A89A4E",
"!%	c #3C392D",
"~%	c #787A6F",
"{%	c #787B6F",
"]%	c #787B70",
"^%	c #7A7D71",
"/%	c #8B8E81",
"(%	c #A6AA99",
"_%	c #4B4C45",
":%	c #65665D",
"<%	c #808277",
"[%	c #919486",
"}%	c #A1A495",
"|%	c #6D6D62",
"1%	c #C9AE25",
"2%	c #D6BD48",
"3%	c #5E5E53",
"4%	c #AFB2A2",
"5%	c #919385",
"6%	c #8B7514",
"7%	c #FBD026",
"8%	c #F4CC26",
"9%	c #AA993D",
"0%	c #4C4428",
"a%	c #F2CB2B",
"b%	c #ECC525",
"c%	c #C9AD27",
"d%	c #988722",
"e%	c #5F552A",
"f%	c #6D6F63",
"g%	c #6A6B60",
"h%	c #63571A",
"i%	c #413823",
"j%	c #63645A",
"k%	c #898C7E",
"l%	c #9CA091",
"m%	c #AAAD9C",
"n%	c #9EA192",
"o%	c #ACAF9E",
"p%	c #A9AD9D",
"                                        . +                                       @ #                                           ",
"                                      # $ % &                                   * % = -                                         ",
"                                    # $ % % % &                               * % % % =                                         ",
"                                  # $ % % % % % &                           * % % % % % =                                       ",
"                                # $ % % % % % % % &                       * % % % % % % % =                                     ",
"                              # $ % % % % % % % % % &                   * % % % % % % % % % ;                                   ",
"                            # > % % % % % % % % % % % &               * % % % % % % % % % % % ;                                 ",
"                          # > % % % % % % % % % % % % % &           * % % % % % % % % % % % % % ;                               ",
"                        # $ % % % % % % % % % % % % % % % &       * % % % % % % % % % % % % % % % ;                             ",
"                      # $ % % % % % % % % % % % % % % % % % &   * % % % % % % % % % % % % % % % % % ; -                         ",
"                      ; % % % % % % % % % % % % % % % % % % % , % % % % % % % % % % % % % % % % % % % '                         ",
"                  # ; ) ! % % % % % % % % % % % % % % % % % + # ; % % % % % % % % % % % % % % % % % ~ { ] ^                     ",
"                # > % / ) ! % % % % % % % % % % % % % % % +     ^ ; % % % % % % % % % % % % % % % ~ { % % ; -                   ",
"              # > % % % ( ) ! % % % % % % % % % % % % % +         ^ ; % % % % % % % % % % % % % ~ { % % % % ; -                 ",
"            # > % % % % % ( ) ! % % % % % % % % % % % +             ^ ; % % % % % % % % % % % ~ { % % % % % % ;                 ",
"          # > % % % % % % % ( ) ! % ' _ : < [ } | 1 2 3 4 5           ^ ; % % % % % % % % % ~ { % % % % % % % % ;               ",
"        # > % % % % % % % % 6 7 8 9 0 a b c d e f g h i j k l m n o p q r s t u v w x @ % ~ { % % % % % % % % % % ;             ",
"      # > % % % % % % % % y z A B C D E F G H I J K L M N O P Q R S T U V W X Y Z `  ...+.@.#.% % % % % % % % % % % ; -         ",
"    # > % % % % % % % % $.%.&.*.=.-.;.>.,.'.).!.~.{.].].{.^./.(._.:.<.[.}.|.1.2.3.4.5.6.7.8.9.0.' % % % % % % % % % % ; ^       ",
"  # > % % % % % % % % a.b.c.d.~.|.e.f.g.h.i.j.k.2.l.m.n.o.p.q.r.s.t.u.v.w.x.|.~.y.w.z.z.A.5.B.C.D.E.6 % % % % % % % % % ; ^     ",
"# > % % % % % % % % % F.G.H.I.J.m.o.K.L.M.N.O.P.Q.~.z.|.|.R.S.T.U.V.x.x.Q.W.X.~.^.Y.x.Z.~.w.`. +.+++@+#+% % % % % % % % % ; ^ $+",
"%+&+% % % % % % % % @ *+=+|.2.n.-+^.;+>+,+'+)+!+~+{+y.]+^+/+(+_+]+:+Q.x.<+<+3.[+}+|+Z.Z.Z.<+~.z.1+2+3+4+5+% % % % % % % % 6 6+7+",
"  8+% % % % % % % % $.9+0+a+~.1.|.x.b+c+d+e+f+g+h+i+j+k+l+m+n+x.I.|.}.]+Z.o+p+q+q+A.r+|+Z.x.x.z.z.z.s+t+u+v+% % % % % % 6 w+    ",
"    %+% % % % % % % x+y+{.z+{.A+B+x.|.x.C+D+E+F+G+H+I+J+K+L+M+~.N+z+O+Z.Z.o.z+Z.Y.Z.|+P+r+J.Z.z.z.z.N+Q+R+S+w+% % % % 6 w+      ",
"      %+&+% % % % % T+U+V+j.].{.a+x.|.|.~.}.W+X+Y+Z+`+ @~.M+z.o.W.Z.Z.W.Q.z..@Z.|.Z.Z.x.~.m.W.z.z.z.z.z.+@@@#@= % % 6 w+        ",
"        %+&+% % % % $@%@&@*@=@-@j.x.|.x.x.r+<+~.^.~.}.o.;@r+Q.Z.N+>@O+b+.@.@<+Z.Z.Z.Z.Z.Z.^.j.r+Z.Z.Z.Z.N+,@'@)@% 6 w+          ",
"          %+&+% % !@~@{@]@^@/@(@_@|.|.x.|+:@^.Z.Z.Z.Z.<@~.q+<+|+N+z+Y.Y.Z.Z.Z.Z.Z.Z.Z.Z.Z.Z.Z.x.:@Z.Z.Z.z+[@}@|@6 w+            ",
"            %+&+#+1@2@3@4@5@6@7@8@b+Z.Z.Z.Z.9@0@^.^.~.~.>@j.{.{.~.~.Z.Z.Z.Z.Z.Z.Z.Z.Z.Z.Z.Z.Z.Z.|+r+Z.Z.a@b@c@d@w+              ",
"              %+e@f@g@h@i@j@k@l@m@|+Z.Z.Z.Z.n@a+^.z+z+o.P+z+z.<+Z.Z.Z.Z.Z.Z.Z.Z.Z.Z.Z.Z.Z.Z.Z.Z.Z.~.o@p@q@r@s@t@                ",
"                u@v@w@x@y@z@A@B@(.Z.Z.Z.Z.Z.Z..@C@C@q+.@{.{.q+q+Z.Z.Z.Z.Z.Z.Z.Z.Z.Z.Z.Z.Z.Z.Z.Z.Z.D@E@F@G@H@I@J@                ",
"                  K@L@M@N@O@P@Q@R@w.Z.Z.x.x.Y.o+Z.Z.Z.Z.Z.Z.Z.Z.Z.Z.Z.Z.Z.Z.Z.Z.Z.Z.Z.Z.Z.Z.Z.S@T@U@V@W@H@H@X@Y@                ",
"                    6+    Z@`@ #.#+#Z..@~.@#^.o+Z.Z.Z.Z.x.x.Z.Z.Z.Z.Z.Z.Z.Z.Z.Z.Z.Z.Z.Z.Z.##$#%#r@&#&#&#&#&#&#*#                ",
"                    6+      =#-#;#>#,#'#)#z.Z.o+Z.Z.Z.Z.Z.Z.Z.Z.Z.Z.Z.Z.Z.Z.Z.Z.Z.S@!#~#{#U@]#W@^#&#&#/#(#&#&#_#                ",
"                  ) &+'     :#<#[#}#|#1#2#Q..@o+Z.Z.Z.Z.Z.Z.Z.Z.Z.Z.Z.Z.Z.Z.Z.Y.3#4#5#]#W@^#&#&#&#6#&#(#(#7#8#9#                ",
"                ) % % % '     0#a#b#c#d#e#}+{.Z.Z.Z.Z.x.Z.Z.Z.Z.Z.Z.Z.f#g#h#i#j#]#W@H@H@&#^#&#&#&#6#7#k#H@l#m#n#                ",
"              ) % % % % % '   o#p#q#G@c#r#e#s#Z.Z.Z.Z.Z.~.t#p@u#u#v#w#x#G@]#W@&#X@y#X@X@X@H@&#&#&#z#A#&#&#B#C#D#                ",
"            E#% % % % % % % '   F#G#H#I#J#K#5#L#M#N#O#O#P#Q#R#S#T#K#7#H@X@X@H@&#^#H@X@X@X@&#&#&#7#A#H@&#&#U#V#W#$+              ",
"          E#% % % % % % % % % '   X#Y#Z#`#K#&#&#&#H@H@H@&#&#&#^#^#X@X@X@X@^#X@X@X@X@X@X@X@H@&#7# $.$^#X@l#+$@$#$6 $+            ",
"        E#% % % % % % % % % % % ' $$%$&$*$G@K#&#l#&#&#&#&#&#&#H@X@X@X@X@^#H@X@X@X@X@X@X@X@H@/#]#H@=$X@^#-$;$- % % 6 $+          ",
"      E#% % % % % % % % % % % % % ' >$,$'$W@W@ $]#&#&#&#&#&#&#&#&#&#&#&#&#X@X@X@X@X@X@X@.$c#.$X@=$X@)$!$~$v+% % % % 6 $+        ",
"    E#% % % % % % % % % % % % % % % ' {$]$^$&#&#.$]#/$/#&#&#&#&#&#&#&#&#&#&#X@X@X@X@H@7#7#7#l#X@($_$:$<$[$% % % % % % 6 $+      ",
"  E#% % % % % % % % % % % % % % % % % ' }$|$1$&#&#7#K#2$2$3$/$R#7#7#7#7#7#W@K#S#W@A#7#H@y#l#z#4$5$6$7$@ % % % % % % % % 6 $+    ",
"%+% % % % % % % % % % % % % % % % % % % 8$9$0$z#&#a$b$(#(#]#]#(#7#W@A#A#W@.$7#&#&#l#6#&#c$d$e$f$g$h$6 % % % % % % % % % % 6 1 * ",
"i$#.% % % % % % % % % % % % % % % % % 6 ) - j$k$&#&#&#&#&#7#7#&#&#&#&#&#&#&#&#&#&#z#l$m$n$o$p$q$r$6 % % % % % % % % % % % s$# t$",
"  i$#.% % % % % % % % % % % % % % % 6 ) ! % u$v$z#w$x$y$z$A$7#&#&#&#&#&#&#&#B$C$D$E$F$G$H$I$J$K$L$% % % % % % % % % % % s$#     ",
"    i$#.% % % % % % % % % % % % % 6 ) ! % % M$N$O$P$Q$R$S$T$U$V$W$X$Y$Z$`$ %.%+%@%#%$%%%&%*%=%x+% % % % % % % % % % % s$#       ",
"      i$#.% % % % % % % % % % % 6 ) ! % % % ! -%;%X@X@>%,%'%)%!%~%{%{%]%^%/%(%% % { _%:%<%[%s$% % % % % % % % % % % s$#         ",
"        }%#.% % % % % % % % % 6 ) ! % % % % % |%1%X@X@X@X@X@2%3%          ] % % % % 6 % % ~ E#4%% % % % % % % % % s$#           ",
"          }%#.% % % % % % % 6 ) ! % % % % % % 5%6%b$b$=$7%8%9%~%        ] % % % % % % % % % ~ E#4%% % % % % % % s$#             ",
"            }%#.% % % % % 6 ) ! % % % % % % % = 0%a%b%c%d%e%f%u@      ] % % % % % % % % % % % ~ E#4%% % % % % s$#               ",
"              }%#.% % % 6 8+! % % % % % % % % % g%h%i%j%k%l%        ] % % % % % % % % % % % % % ~ E#4%% % % s$#                 ",
"                }%#.% 6 8+! % % % % % % % % % % m%n%s$% % 7+      ] % % % % % % % % % % % % % % % ~ E#4%% ; #                   ",
"                  }%o%8+! % % % % % % % % % % % % % % % % % 7+^ ] % % % % % % % % % % % % % % % % % $ E#; #                     ",
"                      ; % % % % % % % % % % % % % % % % % % % p%% % % % % % % % % % % % % % % % % % % *                         ",
"                      }%#.% % % % % % % % % % % % % % % % % a.  , % % % % % % % % % % % % % % % % % ; #                         ",
"                        }%> % % % % % % % % % % % % % % % a.      , % % % % % % % % % % % % % % % ; #                           ",
"                          }%> % % % % % % % % % % % % % a.          , % % % % % % % % % % % % % ; #                             ",
"                            }%> % % % % % % % % % % % a.              , % % % % % % % % % % % ; #                               ",
"                              }%> % % % % % % % % % a.                  + % % % % % % % % % ; #                                 ",
"                                }%> % % % % % % % a.                      + % % % % % % % ; #                                   ",
"                                  }%> % % % % % a.                          + % % % % % ; #                                     ",
"                                    }%> % % % a.                              + % % % ; #                                       ",
"                                      }%> % a.                                  + % ; #                                         ",
"                                        . +                                       @ #                                           "};
