/* XPM */
static char * collecf4_xpm[] = {
"64 64 569 2",
"  	c #1737EA",
". 	c #1838EB",
"+ 	c #1939EC",
"@ 	c #1636E9",
"# 	c #100E0C",
"$ 	c #3F3926",
"% 	c #4E4731",
"& 	c #4E472F",
"* 	c #312F27",
"= 	c #12181F",
"- 	c #1A252D",
"; 	c #111A22",
"> 	c #413D27",
", 	c #A9A450",
"' 	c #D8D35D",
") 	c #F0EE55",
"! 	c #F8F65E",
"~ 	c #F7F45F",
"{ 	c #F5F266",
"] 	c #D2CD70",
"^ 	c #8B8861",
"/ 	c #2F2B20",
"( 	c #1D1A13",
"_ 	c #9B9545",
": 	c #F0ED51",
"< 	c #FCFD3F",
"[ 	c #FDFE2F",
"} 	c #FDFE33",
"| 	c #FEFE2F",
"1 	c #FEFE32",
"2 	c #FAF845",
"3 	c #E4DD50",
"4 	c #A8A159",
"5 	c #181D21",
"6 	c #080B12",
"7 	c #06070E",
"8 	c #463F26",
"9 	c #AEAA6C",
"0 	c #B7B36B",
"a 	c #A7A470",
"b 	c #A39F64",
"c 	c #8F8A49",
"d 	c #666134",
"e 	c #2B2B27",
"f 	c #0B1019",
"g 	c #1D1D17",
"h 	c #BCB546",
"i 	c #FCFA46",
"j 	c #FDFE38",
"k 	c #FDFF2E",
"l 	c #FEFD34",
"m 	c #FDFD2F",
"n 	c #FCFD30",
"o 	c #EBE740",
"p 	c #B1A931",
"q 	c #655B17",
"r 	c #60583A",
"s 	c #98935E",
"t 	c #BCB75C",
"u 	c #C9C462",
"v 	c #C0BC65",
"w 	c #777246",
"x 	c #615925",
"y 	c #D9D32E",
"z 	c #FCFD39",
"A 	c #FCFD3C",
"B 	c #FDFD45",
"C 	c #FAF85E",
"D 	c #E9E473",
"E 	c #C9C575",
"F 	c #8F8951",
"G 	c #3C3926",
"H 	c #11171D",
"I 	c #141A1E",
"J 	c #B1AC4A",
"K 	c #FCFB40",
"L 	c #FEFD30",
"M 	c #FEFD31",
"N 	c #FDFE32",
"O 	c #F9F737",
"P 	c #B1A82C",
"Q 	c #4F431A",
"R 	c #9A9449",
"S 	c #DBD855",
"T 	c #FAF74E",
"U 	c #FCFB41",
"V 	c #FCFD32",
"W 	c #FDFE30",
"X 	c #FEFE31",
"Y 	c #F9F751",
"Z 	c #B8B36A",
"` 	c #3D3725",
" .	c #BEB724",
"..	c #FCFC2D",
"+.	c #FEFF2F",
"@.	c #FDFE2E",
"#.	c #FEFE36",
"$.	c #FCFC4E",
"%.	c #EFEB63",
"&.	c #B7B05B",
"*.	c #585131",
"=.	c #11161D",
"-.	c #847D39",
";.	c #F9F845",
">.	c #FEFE30",
",.	c #FDFE31",
"'.	c #FDFD31",
").	c #FCFC42",
"!.	c #9C9332",
"~.	c #776E35",
"{.	c #E6E161",
"].	c #FCFB43",
"^.	c #FCFE2E",
"/.	c #FEFF2E",
"(.	c #FDFD3D",
"_.	c #DFDD73",
":.	c #655F3A",
"<.	c #A0961D",
"[.	c #F9F82E",
"}.	c #FDFB42",
"|.	c #F3F070",
"1.	c #B6B270",
"2.	c #4B4733",
"3.	c #0C0E16",
"4.	c #131111",
"5.	c #D7D148",
"6.	c #FEFD2F",
"7.	c #FDFD38",
"8.	c #FBFD31",
"9.	c #F4F25C",
"0.	c #4B401E",
"a.	c #C4B64D",
"b.	c #CAC438",
"c.	c #EAE775",
"d.	c #79734A",
"e.	c #ACA41C",
"f.	c #FEFE2E",
"g.	c #FDFE2D",
"h.	c #FDFC3B",
"i.	c #EEEB6F",
"j.	c #9A9565",
"k.	c #1C1C18",
"l.	c #453A0D",
"m.	c #F6F340",
"n.	c #FEFE33",
"o.	c #FCFC30",
"p.	c #F9F651",
"q.	c #777036",
"r.	c #B0A247",
"s.	c #635932",
"t.	c #ECE830",
"u.	c #FEFF30",
"v.	c #E6E371",
"w.	c #423925",
"x.	c #EAE52A",
"y.	c #FEFE2D",
"z.	c #CCC77B",
"A.	c #4F4C3A",
"B.	c #3C3314",
"C.	c #887E22",
"D.	c #827D15",
"E.	c #BDB428",
"F.	c #F8F734",
"G.	c #FCFD2F",
"H.	c #C9C45E",
"I.	c #675A1D",
"J.	c #A99C4B",
"K.	c #A79F1C",
"L.	c #F7F530",
"M.	c #B0A92F",
"N.	c #534C23",
"O.	c #F1EE31",
"P.	c #FCFB47",
"Q.	c #E3DF74",
"R.	c #676238",
"S.	c #373F44",
"T.	c #97A7AB",
"U.	c #9FB5B9",
"V.	c #91AAB0",
"W.	c #566569",
"X.	c #B8B023",
"Y.	c #FCFE2F",
"Z.	c #F6F45E",
"`.	c #696448",
" +	c #ADA34D",
".+	c #70673D",
"++	c #E6E22D",
"@+	c #FEFE37",
"#+	c #F6F347",
"$+	c #C1BA4A",
"%+	c #5D5422",
"&+	c #7F7A3D",
"*+	c #E3E15A",
"=+	c #FCFD3B",
"-+	c #EBE669",
";+	c #605C40",
">+	c #141C25",
",+	c #B1C6CA",
"'+	c #D4EEF1",
")+	c #BFDDE2",
"!+	c #AFCCD2",
"~+	c #536266",
"{+	c #BEB83F",
"]+	c #F4EF38",
"^+	c #BBB343",
"/+	c #908552",
"(+	c #4E441E",
"_+	c #C6BD68",
":+	c #A49925",
"<+	c #FCFC31",
"[+	c #F2EC41",
"}+	c #B7AF46",
"|+	c #5D511F",
"1+	c #7B753E",
"2+	c #D3CC56",
"3+	c #FBFB45",
"4+	c #DDD76A",
"5+	c #34332C",
"6+	c #252D32",
"7+	c #CDE4E7",
"8+	c #C7E2E7",
"9+	c #9EB6BC",
"0+	c #3C4446",
"a+	c #A7A243",
"b+	c #FCFB3D",
"c+	c #FDFC30",
"d+	c #CEC636",
"e+	c #574D1E",
"f+	c #C1BC4F",
"g+	c #F7F468",
"h+	c #8B865B",
"i+	c #998D32",
"j+	c #DED24F",
"k+	c #FBFA30",
"l+	c #F3EC3F",
"m+	c #D5CA37",
"n+	c #998E23",
"o+	c #443911",
"p+	c #837C41",
"q+	c #D4CF5E",
"r+	c #FAF952",
"s+	c #FCF948",
"t+	c #B8B268",
"u+	c #0D0E12",
"v+	c #49555A",
"w+	c #445157",
"x+	c #2C2816",
"y+	c #C8C257",
"z+	c #FBFB38",
"A+	c #FBFC3A",
"B+	c #B9B133",
"C+	c #534512",
"D+	c #D5CF4D",
"E+	c #EAE666",
"F+	c #554C23",
"G+	c #6D6015",
"H+	c #6E6212",
"I+	c #4C4010",
"J+	c #60582D",
"K+	c #B0AA52",
"L+	c #E3E05D",
"M+	c #FBFA4C",
"N+	c #F2EE63",
"O+	c #544E2D",
"P+	c #312806",
"Q+	c #E0D731",
"R+	c #FBF933",
"S+	c #AFA852",
"T+	c #5E5526",
"U+	c #E3DB4F",
"V+	c #FCFD31",
"W+	c #FDFE3D",
"X+	c #EFEB53",
"Y+	c #CCC84E",
"Z+	c #CEC652",
"`+	c #E9E555",
" @	c #F9F74B",
".@	c #FDFE3A",
"+@	c #FDFC2C",
"@@	c #F9F138",
"#@	c #A8A258",
"$@	c #928520",
"%@	c #C1B648",
"&@	c #4C4228",
"*@	c #E3DC4C",
"=@	c #FCFB2F",
"-@	c #FCFC2C",
";@	c #FCFD2E",
">@	c #FEFD33",
",@	c #FEFF2D",
"'@	c #FBF82E",
")@	c #FAD924",
"!@	c #F9D429",
"~@	c #CBB84D",
"{@	c #121314",
"]@	c #281F0E",
"^@	c #352E14",
"/@	c #D6D04E",
"(@	c #FDFD30",
"_@	c #FDFD2B",
":@	c #FDFF2C",
"<@	c #F9F42C",
"[@	c #F5DF25",
"}@	c #FAD224",
"|@	c #FBD024",
"1@	c #E6CE50",
"2@	c #39321B",
"3@	c #1A3AED",
"4@	c #998F2D",
"5@	c #FDFB3F",
"6@	c #FEFD35",
"7@	c #FDFC2E",
"8@	c #FBF42B",
"9@	c #F7DC25",
"0@	c #F8D524",
"a@	c #FAD024",
"b@	c #FAD124",
"c@	c #ECD54D",
"d@	c #45401E",
"e@	c #332A13",
"f@	c #E5DF3B",
"g@	c #F8E127",
"h@	c #F8D624",
"i@	c #F9D324",
"j@	c #EBD64D",
"k@	c #433E1D",
"l@	c #8A791B",
"m@	c #F6DE29",
"n@	c #F8EA2B",
"o@	c #FDFD2E",
"p@	c #FAEC2B",
"q@	c #F9DA26",
"r@	c #F9D124",
"s@	c #EBD74D",
"t@	c #453F1D",
"u@	c #151115",
"v@	c #CCBB2C",
"w@	c #F8D824",
"x@	c #F6DD29",
"y@	c #FAF02C",
"z@	c #FCFB2C",
"A@	c #F5E928",
"B@	c #F8DD26",
"C@	c #F9D224",
"D@	c #FAD424",
"E@	c #D6BF48",
"F@	c #1B1712",
"G@	c #483E10",
"H@	c #F0CF25",
"I@	c #FBD625",
"J@	c #FAD625",
"K@	c #F8EC2A",
"L@	c #FBF62D",
"M@	c #F9E328",
"N@	c #F6DD24",
"O@	c #FAD025",
"P@	c #F9D52A",
"Q@	c #B3A649",
"R@	c #100B11",
"S@	c #7F721C",
"T@	c #F8D628",
"U@	c #FBD525",
"V@	c #FAD225",
"W@	c #F8DE26",
"X@	c #F7E828",
"Y@	c #F9EC2A",
"Z@	c #FCF82E",
"`@	c #FDFC2F",
" #	c #FBF72E",
".#	c #FAF22D",
"+#	c #F8E628",
"@#	c #F8D424",
"##	c #FAD324",
"$#	c #F1D43E",
"%#	c #61572C",
"&#	c #A99E2C",
"*#	c #F9D92F",
"=#	c #FBD326",
"-#	c #FBD124",
";#	c #F9E329",
">#	c #F9E729",
",#	c #F8EF2B",
"'#	c #F8F12A",
")#	c #F9F12B",
"!#	c #FAF12C",
"~#	c #FBF32C",
"{#	c #F9F12C",
"]#	c #FAE628",
"^#	c #F9D826",
"/#	c #F9D128",
"(#	c #C4AF49",
"_#	c #101011",
":#	c #AF9A24",
"<#	c #F9D42A",
"[#	c #FBD225",
"}#	c #FAD125",
"|#	c #F9D524",
"1#	c #F8D724",
"2#	c #F8D324",
"3#	c #F9D226",
"4#	c #E5C93C",
"5#	c #5A4E23",
"6#	c #A69222",
"7#	c #F9D326",
"8#	c #F9D325",
"9#	c #F9D424",
"0#	c #E5D04B",
"a#	c #71692D",
"b#	c #7B701A",
"c#	c #F8D328",
"d#	c #FAD226",
"e#	c #F8D32A",
"f#	c #EBCE3B",
"g#	c #81742A",
"h#	c #342806",
"i#	c #E3C52D",
"j#	c #F8D32C",
"k#	c #FAD126",
"l#	c #F7D624",
"m#	c #F7D523",
"n#	c #F6D623",
"o#	c #F7D423",
"p#	c #FBD627",
"q#	c #FAD425",
"r#	c #F8D329",
"s#	c #F9D126",
"t#	c #D2BE3B",
"u#	c #62551B",
"v#	c #080202",
"w#	c #8B7E21",
"x#	c #F6D42E",
"y#	c #F9D328",
"z#	c #FACF27",
"A#	c #FACF26",
"B#	c #F9D227",
"C#	c #F7D32E",
"D#	c #FACF28",
"E#	c #FBCF25",
"F#	c #FBD025",
"G#	c #F7CF25",
"H#	c #B7A135",
"I#	c #37301C",
"J#	c #3F4749",
"K#	c #191106",
"L#	c #B6A62E",
"M#	c #F8D528",
"N#	c #F9D025",
"O#	c #F7D32B",
"P#	c #F8D229",
"Q#	c #F8D127",
"R#	c #F9D029",
"S#	c #FAD026",
"T#	c #F7D630",
"U#	c #CCB128",
"V#	c #786713",
"W#	c #5C5332",
"X#	c #B8AB52",
"Y#	c #6A6134",
"Z#	c #2F2605",
"`#	c #AF941C",
" $	c #F5CE25",
".$	c #FAD128",
"+$	c #F9D329",
"@$	c #F9D028",
"#$	c #F9D024",
"$$	c #FAD526",
"%$	c #F8D228",
"&$	c #F9D125",
"*$	c #F4D12A",
"=$	c #CBB32A",
"-$	c #836F15",
";$	c #40361F",
">$	c #A49943",
",$	c #E3CD4B",
"'$	c #DBC743",
")$	c #2B2413",
"!$	c #15130F",
"~$	c #897519",
"{$	c #E0BF25",
"]$	c #F7D12D",
"^$	c #F9D22A",
"/$	c #FAD427",
"($	c #F9D228",
"_$	c #FACF25",
":$	c #F6D432",
"<$	c #E6C82D",
"[$	c #BCA525",
"}$	c #705F10",
"|$	c #140C06",
"1$	c #615628",
"2$	c #B9A848",
"3$	c #AB9C2B",
"4$	c #706518",
"5$	c #342909",
"6$	c #372B07",
"7$	c #887517",
"8$	c #CDB62B",
"9$	c #EFCC24",
"0$	c #FAD227",
"a$	c #FAD027",
"b$	c #F9D127",
"c$	c #F6CF25",
"d$	c #E2C026",
"e$	c #BBAC2D",
"f$	c #807225",
"g$	c #1A1508",
"h$	c #150A04",
"i$	c #1E1204",
"j$	c #413609",
"k$	c #7C6A15",
"l$	c #B59A1C",
"m$	c #CDAD20",
"n$	c #DBB720",
"o$	c #E4BF22",
"p$	c #E3C229",
"q$	c #E1C42D",
"r$	c #E0C42D",
"s$	c #DABA2A",
"t$	c #CFB226",
"u$	c #B4991D",
"v$	c #8E7916",
"w$	c #61520E",
"x$	c #281C05",
"y$	c #0C0A0D",
"z$	c #4D4934",
"A$	c #4D442D",
"B$	c #423715",
"C$	c #3A2D15",
"D$	c #342B19",
"E$	c #2D2110",
"F$	c #160B04",
"G$	c #0F0505",
"H$	c #190C04",
"I$	c #AC9B32",
"J$	c #EDD83E",
"K$	c #CDBE46",
"L$	c #AD9F4B",
"M$	c #7E723C",
"N$	c #433716",
"O$	c #160905",
"P$	c #2B2007",
"Q$	c #4F430B",
"R$	c #231604",
"S$	c #1535E8",
"T$	c #1437E9",
"U$	c #1637E8",
"V$	c #1336E8",
"W$	c #1437EB",
"X$	c #1338EB",
"Y$	c #1637E6",
"Z$	c #1736E6",
"`$	c #1736E8",
" %	c #1536E7",
".%	c #1636ED",
"+%	c #1635EF",
"@%	c #1636EB",
"#%	c #1635E7",
"$%	c #1635E5",
"%%	c #1536E5",
"&%	c #1436EF",
"*%	c #1436F0",
"=%	c #1635F0",
"-%	c #1636E3",
";%	c #1536E3",
">%	c #1438E8",
",%	c #1436ED",
"'%	c #1735E5",
")%	c #1636E1",
"!%	c #1338E8",
"                                          . . . .         . . . . . . . . . . . . . . . . . . . . . . + + + + + + + + + + + + + ",
"                                              . .         . . . . . . . . . . . . . . . . . . . . . . + + + + + + + + + + + + + ",
"@                                       . .                       . . . . . . . . . . . . . . . . . . . . . + + + + + + + + + + ",
"@                                                                 . . . . . . . . . . . . . . . . . . . . . + + + + + + + + + + ",
"@                                                                 . . . . . . . . . . . . . . . . . . . . . + + + + + + + + + + ",
"                                                                        . . . . . . . . . . . . . . . . . . + + + + + + + + + + ",
"                                                                          . . . . . . . . . . . . . . . . . + + + + + + + + + + ",
"                                      @ @ @ @                               . . . . . . . . . . . . . . . . + + + + + + + + + + ",
"                                      @ @ @ @                     @         . . . . . . . . . . . . . . . . + + + + + + + + + + ",
"                                      @ @ @ @                     @ @       . . . . . . . . . . . . . . . . + + + + + + + + + + ",
"                                  @ @ @ @ @ @ @ @                                 . . . . . . . . . . . . . . . . + + + + + + + ",
"                                  @ @ @ @ @ @ @ @                                 . . . . . . . . . . . . . . . . + + + + + + + ",
"                          @ @ @ @ @ @ @ @ @ @ @ @                                 . . . . . . . . . . . . . . . . + + + + + + + ",
"                          @ @ @ @ @ @ @ @ @ @ @ @                                 . . . . . . . . . . . . . . . . + + + + + + + ",
"                        @ @ @ @ @ @ @ # $ % & * = -                                   . . . . . . . . . . . . . . + + + + + + + ",
"                      @ @ @ @ @ ; > , ' ) ! ~ { ] ^ /                                   . . . . . . . . . . . . . + + + + + + + ",
"                  @ @ @ @ @ @ ( _ : < [ } | | 1 2 3 4 5 6 7 8 9 0 a b c d e f             . . . . . . . . . . . . + + + + + + + ",
"                  @ @ @ @ @ g h i j k l m n o p q r s t u v w x y z A B C D E F G H       . . . . . . . . . . . . + + + + + + + ",
"              @ @ @ @ @ @ I J K L M [ N O P Q R S T U V W X Y Z `  ...+.@.@.#.$.%.&.*.=.          . . . . . . . . + + + + + + + ",
"            @ @ @ @ @ @ @ -.;.>.,.l '.).!.~.{.].,.@.^.L L | /.(._.:.<.[././././.L }.|.1.2.3.      . . . . . . . . . + + + + + + ",
"            @ @ @ @ @ @ 4.5.M n 6.7.8.9.0.a.b.L m @.^.m | /././.>.c.d.e.f./.f.g.6.L L h.i.j.k.    . . . . . . . . . . + + + + + ",
"          @ @ @ @ @ @ @ l.m.@.@.n.l o.p.q.r.s.t.| /.k /./././././.u.v.w.x.[ @.y././.L L l C z.A.  . . . . . . . . . . + + + + + ",
"        @ @ @ @ @ @ @ @ B.C.D.E.F.m G.,.H.I.J.K././././././././.1 L.M.N.O.@./././././.| | M P.Q.R.    . . . . . . . . . + + + + ",
"    @ @ @ @ @ @ @ @ @ S.T.U.V.W.X.Y.L 6.Z.`. +.+++/././././.@+#+$+%+&+*+N @././././././././.f.=+-+;+    . . . . . . . + + + + . ",
"  @ @ @ @ @ @ @ @ @ >+,+'+)+!+~+{+[ M ]+^+/+(+_+:+m m m <+[+}+|+1+2+3+X >.[ /./././././././././.,.4+5+    . . . . + + + + + . . ",
"  @ @ @ @ @ @ @ @ @ 6+7+8+9+0+a+b+c+d+e+f+g+h+i+j+k+l+m+n+o+p+q+r+n.L L L | | L L /./././././././.s+t+u+  . . . . + + + + . .   ",
"@ @ @ @ @ @ @ @ @ @ @ v+w+x+y+z+A+B+C+D+b+z E+F+G+H+I+J+K+L+M+N [ /././.| /./././././././././././.f.N+O+          + . . . . . . ",
"@ @ @ @ @ @ @ @ @ @ @ @ @ P+Q+R+S+T+U+V+m @.W+X+Y+Z+`+ @.@Y.@.| @././././././././././././././././.+@@@#@          . . . . . . . ",
"@ @ @ @ @ @ @ @ @ @ @ @ @ @ $@%@&@*@=@-@;@@.| /.L >@/.,@,@k | /./././././././././././././././.| '@)@!@~@{@        . . . . + + + ",
"@ @ @ @ @ @ @ @ @ @ @ @ @ @ ]@^@/@j (@_@g.:@k /.| /././././././././././././././././.k k /./.f.<@[@}@|@1@2@        . . . . + + 3@",
"@ @ @ @ @ @ @ @ @ @ @ @ @ @ @ 4@5@6@[ ^.^.@.^.k /././././././././././././././././.k ^.^.[ 7@8@9@0@a@b@c@d@            . . + + 3@",
"@ @ @ @ @ @ @ @ @ @ @ @ @ @ e@f@L L o.Y.^.^.^.k /././././././././././././././././.^.^.m '@g@h@i@i@a@b@j@k@            . . . + + ",
"@ @ @ @ @ @ @ @ @ @ @ @ @ @ l@m@n@m ^.^.^.^.^./././././././././././././././././././.o@p@q@a@r@r@r@b@b@s@t@              . . . + ",
"@ @ @ @ @ @ @ @ @ @ @ @ @ u@v@w@x@y@f.@.^.^.^./././././././././././././././././.z@A@B@C@r@a@r@r@r@b@D@E@F@                . . . ",
"@ @ @ @ @ @ @ @ @ @ @ @ @ G@H@I@J@0@K@@.k /./.k /./././././././././././.| m L@M@N@O@|@|@|@b@r@r@r@b@P@Q@R@                . . . ",
"@ @ @ @ @ @ @ @ @ @ @ @ @ S@T@U@O@V@i@W@X@Y@Z@`@[ @././././././.>.6.`@ #.#+#@#r@C@b@|@|@|@r@r@r@r@##$#%#                  . . . ",
"@ @ @ @ @ @ @ @ @ @ @ @ @ &#*#=#|@-#O@|@C@0@h@;#>#,#'#'#)#!#~#~#{#]#^#D@-#a@|@|@|@|@|@|@|@b@r@r@r@/#(#_#                    . . ",
"@ @ @ @ @ @ @ @ @ @ @ @ @ :#<#[#|@|@!@}#|#1#@#r@O@C@2#2#2#C@C@C@}@a@|@|@a@b@|@|@|@|@|@|@|@b@2#i@3#4#5#                        . ",
"@ @ @ @ @ @ @ @ @ @ @ @ @ 6#7#|@|@|@-#8#3#i@i@0@2#r@r@r@r@r@r@r@r@r@r@r@r@|@|@|@|@|@|@|@b@9#}@O@0#a#                            ",
"@ @ @ @ @ @ @ @ @ @ @ @ @ b#c#|@|@|@|@d#e#C@r@r@}@9#i@r@r@r@r@r@r@r@r@r@r@r@-#-#|@|@b@C@C@r@r@f#g#                              ",
"@ @ @ @ @ @ @ @ @ @ @ @ @ h#i#}@b@a@|@j#k#k#r@r@r@C@@#l#l#m#n#o#C@C@C@C@C@|#p#q#k#r#b@a@a@s#t#u#v#                              ",
"@ @ @ @ @ @ @ @ @ @ @ @ @ @ w#x#r@r@r@3#y#e#b@r@r@z#A#@#@#h@h@@#C@9#9#9#B#C#D#E#F#C@r@r@G#H#I#J#                                ",
"@ @ @ @ @ @ @ @ @ @ @ @ @ @ K#L#M#N#N#r@O#B#P#Q#r@r@r@r@r@C@C@r@C@8#R#}@a@a@a@a@r@S#T#U#V#W#X#Y#                                ",
"@ @ @ @ @ @ @ @ @ @ @ @ @ @ @ Z#`# $r@N#r@.$+$@$r@k#a@#$N#r@r@$$9#%$&$r@r@b@}###*$=$-$;$>$,$'$)$                                ",
"@ @ @ @ @ @ @ @ @ @ @ @ @ @ @ @ !$~${$]$S#^$/$($s#r@k#|@_$A#O#r@r@r@r@r@7#:$<$[$}$|$1$2$3$4$5$                                  ",
"@ @ @ @ @ @ @ @ @ @ @ @ @ @ @ @ @ @ 6$7$8$9$<#q#0$|@|@|@|@a$b$C@r@}#c$d$e$f$6$      g$h$                                        ",
"@ @ @ @ @ @ @ @ @ @ @ @ @ @ @ @ @ @ @ @ i$j$k$l$m$n$o$p$q$r$s$t$u$v$w$x$@                                                       ",
"@ @ @ @ @ @ @ @ @ @ @ @ @ @ @ @ @ @ @ @ @ @ @ y$z$A$B$C$D$E$F$G$@ @ @ @ @                                                       ",
"@ @ @ @ @ @ @ @ @ @ @ @ @ @ @ @ @ @ @ @ @ @ @ H$I$J$K$L$M$N$O$@ @ @ @ @ @                                                       ",
"@ @ @ @ @ @ @ @ @ @ @ @ @ @ @ @ @ @ @ @ @ @ @ @ P$Q$R$@ @ @ @ @ @ @ @ @ @                                                       ",
"S$@ @ @ @ @ @ @ @ @ @ @ @ @ @ @ @ @ @ @ @ @ @ @ @ @ @ @ @ @ @ @ @ @ @ @ @ @ @ @ @                                               ",
"S$@ @ @ @ @ @ @ @ @ @ @ @ @ @ @ @ @ @ @ @ @ @ @ @ @ @ @ @ @ @ @ @ @ @ @ @ @ @ @ @                                               ",
"S$@ @ @ @ @ @ @ @ @ @ @ @ @ @ @ @ @ @ @ @ @ @ @ @ @ @ @ @ @ @ @ @ @ @ @ @ @ @ @ @                                               ",
"S$@ @ @ @ @ @ @ @ @ @ @ @ @ @ @ @ @ @ @ @ @ @ @ @ @ @ @ @ @ @ @ @ @ @ @ @ @ @ @ @                                               ",
"S$@ @ @ @ @ @ @ @ @ @ @ @ @ @ @ @ @ @ @ @ @ @ @ @ @ @ @ @ @ @ @ @ @ @ @ @ @ @ @ @                                               ",
"S$@ @ @ @ @ @ @ @ @ @ @ @ @ @ @ @ @ @ @ @ @ @ @ @ @ @ @ @ @ @ @ @ @ @ @ @ @ @ @ @                                               ",
"S$@ @ @ @ @ @ @ @ @ @ @ @ @ @ @ @ @ @ @ @ @ @ @ @ @ @ @ @ @ @ @ @ @ @ @ @ @ @ @ @                                               ",
"S$@ T$@ @ @ U$U$U$@ @ @ @ @ @ @ @ @ @ @ @ @ @ @ @ @ @ @ @ @ @ @ @ @ @ @ @ @ @ @ @                                               ",
"V$W$X$W$T$U$Y$Z$Z$U$@ @ @ @ @ @ @ @ @ @ @ @ @ @ @ @ @ @ @ @ @ @ @ @ @ @ @ @ @ @ @                                               ",
"V$W$X$X$T$T$U$`$`$@ @ @ @ @ @ @ @ @ @ @ @ @ @ @ @ @ @ @ @ @ @ @ @ @ @ @ @ @ @ @ @                                               ",
" %S$T$T$W$W$.%+%+%@%@ @ @ @ @ @ @ @ @ @ @ @ @ @ @ @ @ @ @ @ @ @ @ @ @ @ @ @ @ @ @                                               ",
"#%$%%% %T$W$&%*%=%@%@ @ @ @ @ @ @ @ @ @ @ @ @ @ @ @ @ @ @ @ @ @ @ @ @ @ @ @ @ @ @ @                                             ",
"$%-%;%;%%%>%W$,%,%@%@ @ @ @ @ @ @ @ @ @ @ @ @ @ @ @ @ @ @ @ @ @ @ @ @ @ @ @ @ @ @ @ @ @                                         ",
"'%-%)%-%;%%%>%!%!%@ @ @ @ @ @ @ @ @ @ @ @ @ @ @ @ @ @ @ @ @ @ @ @ @ @ @ @ @ @ @ @ @ @ @ @                                       "};
