/* XPM */
static char * collecf2_xpm[] = {
"64 64 554 2",
"  	c #1737EA",
". 	c #1838EB",
"+ 	c #1939EC",
"@ 	c #1636E9",
"# 	c #313028",
"$ 	c #76703C",
"% 	c #A49F51",
"& 	c #BDB958",
"* 	c #C3BF60",
"= 	c #C6C062",
"- 	c #C0BB60",
"; 	c #A9A35F",
"> 	c #7F7945",
", 	c #444237",
"' 	c #121116",
") 	c #131B23",
"! 	c #121922",
"~ 	c #0E141D",
"{ 	c #17140E",
"] 	c #716A36",
"^ 	c #C0BC4B",
"/ 	c #ECE95F",
"( 	c #FBF949",
"_ 	c #FDFD46",
": 	c #FDFE38",
"< 	c #FEFF34",
"[ 	c #FEFE34",
"} 	c #FDFC35",
"| 	c #FCFC3E",
"1 	c #FBFB40",
"2 	c #F3F168",
"3 	c #D5D05E",
"4 	c #958F55",
"5 	c #3A3720",
"6 	c #111315",
"7 	c #36321C",
"8 	c #5A5745",
"9 	c #282A28",
"0 	c #0D101A",
"a 	c #353632",
"b 	c #918D59",
"c 	c #BCB75D",
"d 	c #CBC763",
"e 	c #8E8A62",
"f 	c #221E1A",
"g 	c #827A3A",
"h 	c #D5CF52",
"i 	c #F9F84D",
"j 	c #FCFE2F",
"k 	c #FCFE2D",
"l 	c #FDFD2F",
"m 	c #FEFD30",
"n 	c #FEFD32",
"o 	c #FCFD32",
"p 	c #FBFC30",
"q 	c #FCFC33",
"r 	c #FCFB4C",
"s 	c #E7E363",
"t 	c #95905B",
"u 	c #272418",
"v 	c #191E22",
"w 	c #6B6434",
"x 	c #C6C056",
"y 	c #E6DE5C",
"z 	c #948C4A",
"A 	c #554B26",
"B 	c #B1A950",
"C 	c #EBE864",
"D 	c #FDFC49",
"E 	c #F2EE47",
"F 	c #9E952A",
"G 	c #6D6533",
"H 	c #D4D051",
"I 	c #FAF94A",
"J 	c #FDFF2B",
"K 	c #FCFE2C",
"L 	c #FCFE2E",
"M 	c #FDFE2F",
"N 	c #FDFE2E",
"O 	c #FDFF2E",
"P 	c #FEFE2F",
"Q 	c #FBFB52",
"R 	c #D2CE78",
"S 	c #4D493A",
"T 	c #0A1018",
"U 	c #534E31",
"V 	c #C2BD52",
"W 	c #F9F74B",
"X 	c #D8D13B",
"Y 	c #574E1D",
"Z 	c #A49C4E",
"` 	c #EEE957",
" .	c #FCFC3C",
"..	c #FDFC31",
"+.	c #EEEB2F",
"@.	c #796C26",
"#.	c #A19A43",
"$.	c #F6F44C",
"%.	c #FDFD30",
"&.	c #FCFD2F",
"*.	c #FBFD2F",
"=.	c #FDFF2D",
"-.	c #FDFE2D",
";.	c #FEFE2E",
">.	c #FEFF2E",
",.	c #FEFD2F",
"'.	c #FDFD3F",
").	c #E8E383",
"!.	c #6F6B53",
"~.	c #16181A",
"{.	c #948E42",
"].	c #EFEC55",
"^.	c #FCFD3A",
"/.	c #E6E148",
"(.	c #50461F",
"_.	c #CBC350",
":.	c #C0B63B",
"<.	c #E3E03A",
"[.	c #FCFB36",
"}.	c #ECE84C",
"|.	c #72651E",
"1.	c #C6BF4C",
"2.	c #FCFC3D",
"3.	c #FDFE30",
"4.	c #FDFE32",
"5.	c #FDFE31",
"6.	c #FEFE31",
"7.	c #FCFE30",
"8.	c #FCFE31",
"9.	c #FCFE33",
"0.	c #FDFC41",
"a.	c #EDE969",
"b.	c #716C3A",
"c.	c #1F1B0F",
"d.	c #B6AF4E",
"e.	c #FAF946",
"f.	c #FDFD35",
"g.	c #FDFD38",
"h.	c #CEC94E",
"i.	c #79702E",
"j.	c #EFE133",
"k.	c #C7BE6B",
"l.	c #88825F",
"m.	c #83762C",
"n.	c #5B501A",
"o.	c #CAC449",
"p.	c #FDFF2A",
"q.	c #FDFE36",
"r.	c #FCFE34",
"s.	c #FDFD31",
"t.	c #FEFD31",
"u.	c #FCFD39",
"v.	c #FDFD34",
"w.	c #FCFD33",
"x.	c #FDFE33",
"y.	c #FEFF2F",
"z.	c #FEFE30",
"A.	c #FEFD34",
"B.	c #FDFD36",
"C.	c #EAE466",
"D.	c #524E30",
"E.	c #211C0D",
"F.	c #BAB54F",
"G.	c #FBFB3F",
"H.	c #FEFE37",
"I.	c #F5F355",
"J.	c #6E6740",
"K.	c #978A1D",
"L.	c #D3C52F",
"M.	c #DFCD3C",
"N.	c #665D39",
"O.	c #C4BB3E",
"P.	c #FCFE32",
"Q.	c #FCFD31",
"R.	c #FEFF30",
"S.	c #FDFD33",
"T.	c #FCFC35",
"U.	c #FDFC32",
"V.	c #FCFA30",
"W.	c #FDFC30",
"X.	c #FDFD2E",
"Y.	c #FCFC34",
"Z.	c #D0CB6C",
"`.	c #231D13",
" +	c #A8A03F",
".+	c #FBFB42",
"++	c #FDFE34",
"@+	c #ECEA69",
"#+	c #A6A15F",
"$+	c #5E5944",
"%+	c #453D27",
"&+	c #B1A846",
"*+	c #FBFB3D",
"=+	c #FEFF31",
"-+	c #FCFB2E",
";+	c #F8EF29",
">+	c #F3E225",
",+	c #F4DF26",
"'+	c #F5DF26",
")+	c #F1E225",
"!+	c #F4E627",
"~+	c #FAF22B",
"{+	c #FDFA2D",
"]+	c #FBF94B",
"^+	c #908843",
"/+	c #3C3512",
"(+	c #F1EE45",
"_+	c #FCFC30",
":+	c #FDFC40",
"<+	c #F9F850",
"[+	c #F7F64B",
"}+	c #FCFA34",
"|+	c #FCF830",
"1+	c #F6EA2B",
"2+	c #F5E025",
"3+	c #F6D823",
"4+	c #F8D524",
"5+	c #F8D624",
"6+	c #F6D723",
"7+	c #F7D724",
"8+	c #F7D824",
"9+	c #F8E226",
"0+	c #FAEF2F",
"a+	c #DFD552",
"b+	c #3C3A38",
"c+	c #776A17",
"d+	c #FCFD36",
"e+	c #FDFE2C",
"f+	c #FDFD32",
"g+	c #FEFF2D",
"h+	c #FBFB2C",
"i+	c #F5E927",
"j+	c #F4DB23",
"k+	c #F9D324",
"l+	c #FAD224",
"m+	c #F9D024",
"n+	c #F9D124",
"o+	c #F9D224",
"p+	c #FAD124",
"q+	c #F9D424",
"r+	c #F1DD46",
"s+	c #6C6438",
"t+	c #756916",
"u+	c #FCFD2E",
"v+	c #FDFE2B",
"w+	c #FEFE2C",
"x+	c #FEFE2D",
"y+	c #FDFF2F",
"z+	c #FCFC31",
"A+	c #F6E528",
"B+	c #FAD024",
"C+	c #FBD024",
"D+	c #FACF25",
"E+	c #FACF26",
"F+	c #F9D025",
"G+	c #FAD225",
"H+	c #F9D72B",
"I+	c #A79B4A",
"J+	c #666666",
"K+	c #4F450B",
"L+	c #F5F331",
"M+	c #F9F833",
"N+	c #FCFD2B",
"O+	c #FEFE33",
"P+	c #FEFF33",
"Q+	c #FEFF32",
"R+	c #FBF62E",
"S+	c #F7E028",
"T+	c #F8D424",
"U+	c #FAD525",
"V+	c #D4BD4E",
"W+	c #5B5B5B",
"X+	c #100A05",
"Y+	c #463D10",
"Z+	c #453D18",
"`+	c #837A14",
" @	c #F6F52C",
".@	c #FDFE3D",
"+@	c #FEFE32",
"@@	c #FBF431",
"#@	c #F8D924",
"$@	c #FAD125",
"%@	c #EACE47",
"&@	c #515051",
"*@	c #1E2227",
"=@	c #627377",
"-@	c #ABBFC3",
";@	c #BFD8DC",
">@	c #A6C0C5",
",@	c #333331",
"'@	c #E4DE32",
")@	c #FAF52D",
"!@	c #F8DB24",
"~@	c #EBC830",
"{@	c #323233",
"]@	c #6D6D6D",
"^@	c #A3B7BB",
"/@	c #D0EDF0",
"(@	c #BBD8DE",
"_@	c #98AFB8",
":@	c #536266",
"<@	c #948C45",
"[@	c #FBFA3B",
"}@	c #FBF82E",
"|@	c #F4E727",
"1@	c #FDFC2E",
"2@	c #F9F02C",
"3@	c #F9DB25",
"4@	c #ECC725",
"5@	c #353435",
"6@	c #807F7F",
"7@	c #7F9095",
"8@	c #869B9F",
"9@	c #58686E",
"0@	c #181E22",
"a@	c #A09532",
"b@	c #F7F247",
"c@	c #FCFB30",
"d@	c #FAF22C",
"e@	c #F5DE24",
"f@	c #F2DF22",
"g@	c #FDFD2D",
"h@	c #FDFF30",
"i@	c #F9EE2B",
"j@	c #F9D724",
"k@	c #FBD324",
"l@	c #EDC723",
"m@	c #4E4E4E",
"n@	c #8A7D1D",
"o@	c #F2E229",
"p@	c #F8E328",
"q@	c #F8E529",
"r@	c #F9DF28",
"s@	c #F7DB24",
"t@	c #F9DD27",
"u@	c #FDFF2C",
"v@	c #FEFF2C",
"w@	c #FCFD2D",
"x@	c #F8F02C",
"y@	c #F3DE23",
"z@	c #F8D324",
"A@	c #F9D624",
"B@	c #EDC421",
"C@	c #484848",
"D@	c #241A0A",
"E@	c #B7A521",
"F@	c #F8DD25",
"G@	c #FAD925",
"H@	c #FAD424",
"I@	c #F9DE28",
"J@	c #FDFB2E",
"K@	c #F7E728",
"L@	c #F3DC22",
"M@	c #F7D624",
"N@	c #535353",
"O@	c #1A3AED",
"P@	c #322907",
"Q@	c #D7C029",
"R@	c #F7D923",
"S@	c #FBD424",
"T@	c #FAD324",
"U@	c #F8D825",
"V@	c #FCFB32",
"W@	c #F7E026",
"X@	c #F9D524",
"Y@	c #F8D224",
"Z@	c #F7D524",
"`@	c #FAD524",
" #	c #EBC422",
".#	c #4C4B4C",
"+#	c #584A0E",
"@#	c #E6CC24",
"##	c #F5E928",
"$#	c #FAF42C",
"%#	c #F6DF26",
"&#	c #EAC423",
"*#	c #4C4C4C",
"=#	c #7F7213",
"-#	c #F3D324",
";#	c #FBD625",
">#	c #F4D923",
",#	c #F8E428",
"'#	c #F9F12B",
")#	c #F9F42C",
"!#	c #F8E027",
"~#	c #D3BA45",
"{#	c #636262",
"]#	c #110907",
"^#	c #AD971E",
"/#	c #F7D525",
"(#	c #F8D526",
"_#	c #FBD124",
":#	c #FAD126",
"<#	c #A59433",
"[#	c #332608",
"}#	c #D3B824",
"|#	c #FAD025",
"1#	c #FACE27",
"2#	c #F9D125",
"3#	c #EACF48",
"4#	c #574E32",
"5#	c #56470C",
"6#	c #EBCB25",
"7#	c #F9D326",
"8#	c #F7D423",
"9#	c #F9D325",
"0#	c #F8D423",
"a#	c #F7D42B",
"b#	c #ABA149",
"c#	c #857317",
"d#	c #F4D42B",
"e#	c #E8CA36",
"f#	c #4D431E",
"g#	c #251804",
"h#	c #C2A920",
"i#	c #F8D724",
"j#	c #FBCF25",
"k#	c #F4D133",
"l#	c #968528",
"m#	c #4C400B",
"n#	c #EACB24",
"o#	c #F7D623",
"p#	c #F7D328",
"q#	c #F9D229",
"r#	c #BBA93D",
"s#	c #261C06",
"t#	c #9D8618",
"u#	c #F6D623",
"v#	c #F8D127",
"w#	c #E1BF22",
"x#	c #B1A12C",
"y#	c #796A18",
"z#	c #DCBB29",
"A#	c #FBD025",
"B#	c #F7D52E",
"C#	c #D2C139",
"D#	c #3A2D0A",
"E#	c #352A05",
"F#	c #DEBD24",
"G#	c #F5D823",
"H#	c #F7D426",
"I#	c #E9CE33",
"J#	c #B9A022",
"K#	c #6C5C12",
"L#	c #403829",
"M#	c #91854A",
"N#	c #DCC14B",
"O#	c #F6D231",
"P#	c #F9D126",
"Q#	c #F6D533",
"R#	c #DFCB49",
"S#	c #594C17",
"T#	c #978728",
"U#	c #FACF27",
"V#	c #EFD132",
"W#	c #CAB127",
"X#	c #85771B",
"Y#	c #312607",
"Z#	c #1A110D",
"`#	c #382D11",
" $	c #DEC64C",
".$	c #F7D736",
"+$	c #F8D525",
"@$	c #E4CD41",
"#$	c #605727",
"$$	c #51440C",
"%$	c #EECC29",
"&$	c #F1CE2B",
"*$	c #DCBF29",
"=$	c #B59F25",
"-$	c #857217",
";$	c #150C0D",
">$	c #100709",
",$	c #51460C",
"'$	c #F6CF25",
")$	c #F9D225",
"!$	c #F8D425",
"~$	c #F9D226",
"{$	c #E6C833",
"]$	c #6D5F27",
"^$	c #1B0E04",
"/$	c #C3AE2B",
"($	c #CFB42F",
"_$	c #7A6C19",
":$	c #443909",
"<$	c #1B0F05",
"[$	c #07060A",
"}$	c #03060A",
"|$	c #5D5010",
"1$	c #F7D124",
"2$	c #F9D425",
"3$	c #F4DA2C",
"4$	c #DAC538",
"5$	c #665A14",
"6$	c #8C7D1F",
"7$	c #F7D32B",
"8$	c #F7D22E",
"9$	c #7B6C30",
"0$	c #080407",
"a$	c #6C5C1F",
"b$	c #CAAF2A",
"c$	c #A29221",
"d$	c #786B1A",
"e$	c #3A2E08",
"f$	c #4E420A",
"g$	c #F4CE29",
"h$	c #E8CB40",
"i$	c #352A0A",
"j$	c #0E0706",
"k$	c #1B0C04",
"l$	c #D0B427",
"m$	c #BAA542",
"n$	c #0F0405",
"o$	c #9B8419",
"p$	c #FBD026",
"q$	c #F6D030",
"r$	c #8A7C33",
"s$	c #5F500E",
"t$	c #F5CF27",
"u$	c #F3CD27",
"v$	c #D0B42A",
"w$	c #A4952B",
"x$	c #685913",
"y$	c #201604",
"z$	c #22180A",
"A$	c #786A17",
"B$	c #473B0A",
"C$	c #1C1005",
"D$	c #1535E8",
"E$	c #1437E9",
"F$	c #1637E8",
"G$	c #1336E8",
"H$	c #1437EB",
"I$	c #1338EB",
"J$	c #1637E6",
"K$	c #1736E6",
"L$	c #1736E8",
"M$	c #1536E7",
"N$	c #1636ED",
"O$	c #1635EF",
"P$	c #1636EB",
"Q$	c #1635E7",
"R$	c #1635E5",
"S$	c #1536E5",
"T$	c #1436EF",
"U$	c #1436F0",
"V$	c #1635F0",
"W$	c #1636E3",
"X$	c #1536E3",
"Y$	c #1438E8",
"Z$	c #1436ED",
"`$	c #1735E5",
" %	c #1636E1",
".%	c #1338E8",
"                                          . . . .         . . . . . . . . . . . . . . . . . . . . . . + + + + + + + + + + + + + ",
"                                              . .         . . . . . . . . . . . . . . . . . . . . . . + + + + + + + + + + + + + ",
"@                                       . .                       . . . . . . . . . . . . . . . . . . . . . + + + + + + + + + + ",
"@                                                                 . . . . . . . . . . . . . . . . . . . . . + + + + + + + + + + ",
"@                                                                 . . . . . . . . . . . . . . . . . . . . . + + + + + + + + + + ",
"                                                                        . . . . . . . . . . . . . . . . . . + + + + + + + + + + ",
"                                                                          . . . . . . . . . . . . . . . . . + + + + + + + + + + ",
"                                      @ @ @ @                               . . . . . . . . . . . . . . . . + + + + + + + + + + ",
"                                      @ @ @ @                     @         . . . . . . . . . . . . . . . . + + + + + + + + + + ",
"                                      @ @ @ @                     @ @       . . . . . . . . . . . . . . . . + + + + + + + + + + ",
"                                  @ @ @ @ @ @ @ @                                 . . . . . . . . . . . . . . . . + + + + + + + ",
"                                  @ @ @ @ @ @ @ @                   # $ % & * = - ; > , ' . . . . . . . . . . . . + + + + + + + ",
"                          @ @ @ @ @ @ @ @ @ @ @ @   ) ! ~     { ] ^ / ( _ : < [ } | 1 2 3 4 5 . . . . . . . . . . + + + + + + + ",
"                          @ @ @ @ @ @ 6 7 8 9 0 a b c d e f g h i j k k l m m m m n o p q r s t u . . . . . . . . + + + + + + + ",
"                        @ @ @ @ @ v w x y z A B C D E F G H I j k J J K L M N O N P M N l m n Q R S . . . . . . . + + + + + + + ",
"                      @ @ @ @ T U V W X Y Z `  ...+.@.#.$.%.&.N *.M =.-.;.L L j L >.>.>.>.m m ,.'.).!.. . . . . . + + + + + + + ",
"                  @ @ @ @ @ ~.{.].^./.(._.:.<.[.}.|.1.2.3.4.5.6.7.L L L 8.9.j 8.7.N >.>.>.m m m P 0.a.b.. . . . . + + + + + + + ",
"                  @ @ @ @ c.d.e.f.g.h.i.j.k.l.m.n.o.&.p.J M [ q.q.L L r.s.m ,.t.u.v.w.x.y.m m m z.A.B.C.D.. . . . + + + + + + + ",
"              @ @ @ @ @ E.F.G.N m H.I.J.K.L.M.N.O.f.P.Q.5.6.3.R.>.>.< S.l P m N &.l L L w.T.U.V.W.,.X.Y.Z.`.. . . + + + + + + + ",
"            @ @ @ @ @ @  +.+%.z.P.5.++@+#+$+%+&+*+N L m m P >.>.y.q.P P 5.=+y.N M X.-+;+>+,+'+)+)+!+~+{+]+^+. . . . + + + + + + ",
"            @ @ @ @ @ /+(+m t.Q._+M M m :+<+[+}+l N L l P >.>.P %.v.4.P O O u.Q.|+1+2+3+4+4+5+3+6+7+8+9+0+a+b+. . . . + + + + + ",
"          @ @ @ @ @ @ c+d+e+N ,.m P z.m l 3.q.m P >.O >.>.>.O P %.m f+l >.g+h+i+j+7+4+k+l+m+n+o+n+p+l+q+5+r+s+. . . . + + + + + ",
"        @ @ @ @ @ @ @ t+u+-.J v+w+P m x+++M L >.>.>.>.>.y+L k N j -.6.>.>.z+A+3+k+p+n+B+C+D+E+F+F+F+n+n+G+H+I+J+. . . . + + + + ",
"    @ @ @ @ @ @ @ @ @ K+L+M+N+J e+P m m N s.o O+P+Q+z.y.N k L 5.=+>.>.=+R+S+T+o+o+E+D+B+C+n+n+n+n+n+n+n+F+U+V+W+. . . + + + + . ",
"  @ @ @ @ @ @ @ @ @ @ X+Y+Z+`+ @3.P m P P 4.O N M N f+5..@x.4.>.j y++@@@#@p+o+n+n+$@E+B+C+p+n+n+n+n+n+n+n+F+%@&@. + + + + + . . ",
"  @ @ @ @ @ @ @ @ *@=@-@;@>@,@'@v.m m P y.q.M >.>.>.>.Q+N =.O y.j -.)@!@C+C+C+B+n+n+n+p+C+p+n+n+n+n+n+n+n+F+~@{@. + + + + . .   ",
"@ @ @ @ @ @ @ @ ]@^@/@(@_@:@<@[@+@6.>.}@|@>.1@W.M M N N y+3.J J N 2@3@o+F+B+n+n+n+n+n+n+B+p+n+n+n+n+n+n+p+C+4@5@  + . . . . . . ",
"@ @ @ @ @ @ @ @ 6@7@8@9@0@a@b@-+f+c@d@e@f@>.g@e+M -.-.5.h@-.L O i@j@p+p+n+n+n+n+n+n+n+n+p+n+n+n+n+n+n+n+k+k@l@m@  . . . . . . . ",
"@ @ @ @ @ @ @ @ @ @ @ @ @ n@o@p@q@r@s@q+t@>.>.u@v@v@=.u@J J w@x@y@q+C+B+n+n+n+n+n+n+n+n+n+n+n+n+n+n+z@5+A@p+B@C@  . . . . + + + ",
"@ @ @ @ @ @ @ @ @ @ @ @ @ D@E@F@G@H@5+q+I@P ;.g+>.>.>.>.>.J@K@L@H@C+B+p+n+n+n+n+n+n+n+n+n+n+n+n+o+T+M@k+p+p+B@N@  . . . . + + O@",
"@ @ @ @ @ @ @ @ @ @ @ @ @ @ P@Q@R@S@q+T@U@V@M g+>.>.>.>.J@W@X@z@l+C+p+n+n+n+n+n+n+n+n+n+n+n+Y@Z@`@n+n+n+n+n+ #.#      . . + + O@",
"@ @ @ @ @ @ @ @ @ @ @ @ @ @ @ +#@#H@k@C+T@##N g+>.>.X.$#%#4+o+n+n+n+n+n+n+n+n+n+n+n+n+n+k+4+5+k+B+n+n+z@T+n+&#*#      . . . + + ",
"@ @ @ @ @ @ @ @ @ @ @ @ @ @ @ @ =#-#;#X@l+>#,#'#)#2@!#5+n+n+n+n+n+n+n+n+n+n+n+n+n+z@4+4+k+B+n+n+n+F+n+T+T+o+~#{#        . . . + ",
"@ @ @ @ @ @ @ @ @ @ @ @ @ @ @ @ ]#^#/#(#_#p+o+o+o+p+p+p+B+F+F+n+n+n+n+n+n+n+q+X@4+k+p+p+n+B+n+n+n+F+o+6+p+:#<#            . . . ",
"@ @ @ @ @ @ @ @ @ @ @ @ @ @ @ @ @ [#}#X@X@l+|#n+n+C+C+D+1#1#E+n+n+o+T+X@4+5+k+n+C+D+C+C+C+p+n+n+n+2#q+n+n+3#4#            . . . ",
"@ @ @ @ @ @ @ @ @ @ @ @ @ @ @ @ @ @ 5#6#7#4+T+o+8#z@o+2#9#9#n+0#T+T+o+p+C+C+p+n+B+p+C+C+C+n+n+n+n+q+p+n+a#b#              . . . ",
"@ @ @ @ @ @ @ @ @ @ @ @ @ @ @ @ @ @ @ c#d#4+n+n+n+p+p+p+n+n+n+B+B+C+C+C+C+B+C+C+C+C+C+C+C+p+n+o+k+l+B+C+e#f#                . . ",
"@ @ @ @ @ @ @ @ @ @ @ @ @ @ @ @ @ @ @ g#h#i#4+n+|#n+n+n+n+n+n+p+C+C+C+C+B+p+C+C+C+C+C+C+C+p+z@5+p+j#C+k#l#                    . ",
"@ @ @ @ @ @ @ @ @ @ @ @ @ @ @ @ @ @ @ @ m#n#k+o#5+n+n+n+n+n+n+n+n+n+n+n+n+C+C+C+C+C+C+C+l+p#n+C+j#C+q#r#s#                      ",
"@ @ @ @ @ @ @ @ @ @ @ @ @ @ @ @ @ @ @ @ @ t#n+n+l+5+u#z@n+n+n+n+n+n+n+n+n+n+C+C+C+C+v#w#x#y#z#C+A#B#C#D#                        ",
"@ @ @ @ @ @ @ @ @ @ @ @ @ @ @ @ @ @ @ @ @ E#F#n+n+o+4+3+3+G#u#8#o+o+o+o+o+k+4+H#I#J#K#L#M#N#O#P#Q#R#S#                          ",
"@ @ @ @ @ @ @ @ @ @ @ @ @ @ @ @ @ @ @ @ @ @ T#2#n+U#E+T+T+5+5+T+o+k+k+q+9#V#W#X#Y#Z#`# $.$2#+$+$@$#$                            ",
"@ @ @ @ @ @ @ @ @ @ @ @ @ @ @ @ @ @ @ @ @ @ $$%$n+n+n+n+n+o+o+n+v#&$*$=$-$E#;$>$    ,$'$)$!$~${$]$                              ",
"@ @ @ @ @ @ @ @ @ @ @ @ @ @ @ @ @ @ @ @ @ @ ^$/$2#:#B+m+F+n+2#($_$:$<$[$}$          |$1$2$3$4$5$                                ",
"@ @ @ @ @ @ @ @ @ @ @ @ @ @ @ @ @ @ @ @ @ @ @ 6$7$n+:#C+D+E+8$9$0$@ @ @ @           a$b$c$d$e$                                  ",
"@ @ @ @ @ @ @ @ @ @ @ @ @ @ @ @ @ @ @ @ @ @ @ f$g$C+C+C+C+|#h$i$@ @ @ @ @           j$                                          ",
"@ @ @ @ @ @ @ @ @ @ @ @ @ @ @ @ @ @ @ @ @ @ @ k$l$C+C+C+C+C+m$n$@ @ @ @ @                                                       ",
"@ @ @ @ @ @ @ @ @ @ @ @ @ @ @ @ @ @ @ @ @ @ @ @ o$E+E+j#p$q$r$@ @ @ @ @ @                                                       ",
"@ @ @ @ @ @ @ @ @ @ @ @ @ @ @ @ @ @ @ @ @ @ @ @ s$t$u$v$w$x$y$@ @ @ @ @ @                                                       ",
"@ @ @ @ @ @ @ @ @ @ @ @ @ @ @ @ @ @ @ @ @ @ @ @ z$A$B$C$@ @ @ @ @ @ @ @ @                                                       ",
"D$@ @ @ @ @ @ @ @ @ @ @ @ @ @ @ @ @ @ @ @ @ @ @ @ @ @ @ @ @ @ @ @ @ @ @ @ @ @ @ @                                               ",
"D$@ @ @ @ @ @ @ @ @ @ @ @ @ @ @ @ @ @ @ @ @ @ @ @ @ @ @ @ @ @ @ @ @ @ @ @ @ @ @ @                                               ",
"D$@ @ @ @ @ @ @ @ @ @ @ @ @ @ @ @ @ @ @ @ @ @ @ @ @ @ @ @ @ @ @ @ @ @ @ @ @ @ @ @                                               ",
"D$@ @ @ @ @ @ @ @ @ @ @ @ @ @ @ @ @ @ @ @ @ @ @ @ @ @ @ @ @ @ @ @ @ @ @ @ @ @ @ @                                               ",
"D$@ @ @ @ @ @ @ @ @ @ @ @ @ @ @ @ @ @ @ @ @ @ @ @ @ @ @ @ @ @ @ @ @ @ @ @ @ @ @ @                                               ",
"D$@ @ @ @ @ @ @ @ @ @ @ @ @ @ @ @ @ @ @ @ @ @ @ @ @ @ @ @ @ @ @ @ @ @ @ @ @ @ @ @                                               ",
"D$@ @ @ @ @ @ @ @ @ @ @ @ @ @ @ @ @ @ @ @ @ @ @ @ @ @ @ @ @ @ @ @ @ @ @ @ @ @ @ @                                               ",
"D$@ E$@ @ @ F$F$F$@ @ @ @ @ @ @ @ @ @ @ @ @ @ @ @ @ @ @ @ @ @ @ @ @ @ @ @ @ @ @ @                                               ",
"G$H$I$H$E$F$J$K$K$F$@ @ @ @ @ @ @ @ @ @ @ @ @ @ @ @ @ @ @ @ @ @ @ @ @ @ @ @ @ @ @                                               ",
"G$H$I$I$E$E$F$L$L$@ @ @ @ @ @ @ @ @ @ @ @ @ @ @ @ @ @ @ @ @ @ @ @ @ @ @ @ @ @ @ @                                               ",
"M$D$E$E$H$H$N$O$O$P$@ @ @ @ @ @ @ @ @ @ @ @ @ @ @ @ @ @ @ @ @ @ @ @ @ @ @ @ @ @ @                                               ",
"Q$R$S$M$E$H$T$U$V$P$@ @ @ @ @ @ @ @ @ @ @ @ @ @ @ @ @ @ @ @ @ @ @ @ @ @ @ @ @ @ @ @                                             ",
"R$W$X$X$S$Y$H$Z$Z$P$@ @ @ @ @ @ @ @ @ @ @ @ @ @ @ @ @ @ @ @ @ @ @ @ @ @ @ @ @ @ @ @ @ @                                         ",
"`$W$ %W$X$S$Y$.%.%@ @ @ @ @ @ @ @ @ @ @ @ @ @ @ @ @ @ @ @ @ @ @ @ @ @ @ @ @ @ @ @ @ @ @ @                                       "};
