/* XPM */
static char * collecf4_xpm[] = {
"64 64 630 2",
"  	c #9FA394",
". 	c #A1A596",
"+ 	c #A9AC9C",
"@ 	c #AAAD9D",
"# 	c #A0A495",
"$ 	c #ACB09F",
"% 	c #B0B3A2",
"& 	c #A6AA9A",
"* 	c #A8AC9C",
"= 	c #ABAE9D",
"- 	c #A0A394",
"; 	c #ABAE9E",
"> 	c #ADB09F",
", 	c #A9AD9C",
"' 	c #A8AB9B",
") 	c #A5A899",
"! 	c #AEB1A0",
"~ 	c #ACAF9F",
"{ 	c #A6A999",
"] 	c #AAAE9D",
"^ 	c #A0A494",
"/ 	c #AEB1A1",
"( 	c #AEB2A1",
"_ 	c #AFB2A1",
": 	c #A5A898",
"< 	c #84877A",
"[ 	c #606157",
"} 	c #484433",
"| 	c #4F4933",
"1 	c #4F4931",
"2 	c #3C3B32",
"3 	c #51534D",
"4 	c #818479",
"5 	c #A2A596",
"6 	c #ABAF9E",
"7 	c #6C6F66",
"8 	c #44402B",
"9 	c #A9A450",
"0 	c #D8D35D",
"a 	c #F0EE55",
"b 	c #F8F65E",
"c 	c #F7F45F",
"d 	c #F5F266",
"e 	c #D2CD70",
"f 	c #8B8861",
"g 	c #413F35",
"h 	c #7D8175",
"i 	c #9B9F91",
"j 	c #989C8E",
"k 	c #929688",
"l 	c #8A8D80",
"m 	c #787C71",
"n 	c #7D8176",
"o 	c #83877B",
"p 	c #8F9385",
"q 	c #58584F",
"r 	c #9B9545",
"s 	c #F0ED51",
"t 	c #FCFD3F",
"u 	c #FDFE2F",
"v 	c #FDFE33",
"w 	c #FEFE2F",
"x 	c #FEFE32",
"y 	c #FAF845",
"z 	c #E4DD50",
"A 	c #A8A159",
"B 	c #181D21",
"C 	c #242625",
"D 	c #141618",
"E 	c #463F26",
"F 	c #AEAA6C",
"G 	c #B7B36B",
"H 	c #A7A470",
"I 	c #A39F64",
"J 	c #8F8A49",
"K 	c #666134",
"L 	c #3D3D37",
"M 	c #63655D",
"N 	c #8B8E81",
"O 	c #A6A99A",
"P 	c #A3A697",
"Q 	c #40413A",
"R 	c #BCB546",
"S 	c #FCFA46",
"T 	c #FDFE38",
"U 	c #FDFF2E",
"V 	c #FEFD34",
"W 	c #FDFD2F",
"X 	c #FCFD30",
"Y 	c #EBE740",
"Z 	c #B1A931",
"` 	c #655B17",
" .	c #60583A",
"..	c #98935E",
"+.	c #BCB75C",
"@.	c #C9C462",
"#.	c #C0BC65",
"$.	c #777246",
"%.	c #615925",
"&.	c #D9D32E",
"*.	c #FCFD39",
"=.	c #FCFD3C",
"-.	c #FDFD45",
";.	c #FAF85E",
">.	c #E9E473",
",.	c #C9C575",
"'.	c #8F8951",
").	c #3F3C2A",
"!.	c #676A61",
"~.	c #9DA192",
"{.	c #ADB0A0",
"].	c #4A4D47",
"^.	c #B1AC4A",
"/.	c #FCFB40",
"(.	c #FEFD30",
"_.	c #FEFD31",
":.	c #FDFE32",
"<.	c #F9F737",
"[.	c #B1A82C",
"}.	c #4F431A",
"|.	c #9A9449",
"1.	c #DBD855",
"2.	c #FAF74E",
"3.	c #FCFB41",
"4.	c #FCFD32",
"5.	c #FDFE30",
"6.	c #FEFE31",
"7.	c #F9F751",
"8.	c #B8B36A",
"9.	c #3D3725",
"0.	c #BEB724",
"a.	c #FCFC2D",
"b.	c #FEFF2F",
"c.	c #FDFE2E",
"d.	c #FEFE36",
"e.	c #FCFC4E",
"f.	c #EFEB63",
"g.	c #B7B05B",
"h.	c #595232",
"i.	c #595B55",
"j.	c #9FA293",
"k.	c #888B7E",
"l.	c #847D39",
"m.	c #F9F845",
"n.	c #FEFE30",
"o.	c #FDFE31",
"p.	c #FDFD31",
"q.	c #FCFC42",
"r.	c #9C9332",
"s.	c #776E35",
"t.	c #E6E161",
"u.	c #FCFB43",
"v.	c #FCFE2E",
"w.	c #FEFF2E",
"x.	c #FDFD3D",
"y.	c #DFDD73",
"z.	c #655F3A",
"A.	c #A0961D",
"B.	c #F9F82E",
"C.	c #FDFB42",
"D.	c #F3F070",
"E.	c #B6B270",
"F.	c #4F4B38",
"G.	c #7E8175",
"H.	c #A3A797",
"I.	c #A4A898",
"J.	c #AFB3A2",
"K.	c #5D5E55",
"L.	c #D7D148",
"M.	c #FEFD2F",
"N.	c #FDFD38",
"O.	c #FBFD31",
"P.	c #F4F25C",
"Q.	c #4B401E",
"R.	c #C4B64D",
"S.	c #CAC438",
"T.	c #EAE775",
"U.	c #79734A",
"V.	c #ACA41C",
"W.	c #FEFE2E",
"X.	c #FDFE2D",
"Y.	c #FDFC3B",
"Z.	c #EEEB6F",
"`.	c #9A9565",
" +	c #53544B",
".+	c #9EA192",
"++	c #A2A696",
"@+	c #A8AC9B",
"#+	c #A4A899",
"$+	c #575138",
"%+	c #F6F340",
"&+	c #FEFE33",
"*+	c #FCFC30",
"=+	c #F9F651",
"-+	c #777036",
";+	c #B0A247",
">+	c #635932",
",+	c #ECE830",
"'+	c #FEFF30",
")+	c #E6E371",
"!+	c #423925",
"~+	c #EAE52A",
"{+	c #FEFE2D",
"]+	c #CCC77B",
"^+	c #53503F",
"/+	c #8F9284",
"(+	c #3F371B",
"_+	c #887E22",
":+	c #827D15",
"<+	c #BDB428",
"[+	c #F8F734",
"}+	c #FCFD2F",
"|+	c #C9C45E",
"1+	c #675A1D",
"2+	c #A99C4B",
"3+	c #A79F1C",
"4+	c #F7F530",
"5+	c #B0A92F",
"6+	c #534C23",
"7+	c #F1EE31",
"8+	c #FCFB47",
"9+	c #E3DF74",
"0+	c #69653D",
"a+	c #95988A",
"b+	c #989B8D",
"c+	c #444B4D",
"d+	c #97A7AB",
"e+	c #9FB5B9",
"f+	c #91AAB0",
"g+	c #566569",
"h+	c #B8B023",
"i+	c #FCFE2F",
"j+	c #F6F45E",
"k+	c #696448",
"l+	c #ADA34D",
"m+	c #70673D",
"n+	c #E6E22D",
"o+	c #FEFE37",
"p+	c #F6F347",
"q+	c #C1BA4A",
"r+	c #5D5422",
"s+	c #7F7A3D",
"t+	c #E3E15A",
"u+	c #FCFD3B",
"v+	c #EBE669",
"w+	c #656147",
"x+	c #9B9E8F",
"y+	c #5E615A",
"z+	c #B1C6CA",
"A+	c #D4EEF1",
"B+	c #BFDDE2",
"C+	c #AFCCD2",
"D+	c #536266",
"E+	c #BEB83F",
"F+	c #F4EF38",
"G+	c #BBB343",
"H+	c #908552",
"I+	c #4E441E",
"J+	c #C6BD68",
"K+	c #A49925",
"L+	c #FCFC31",
"M+	c #F2EC41",
"N+	c #B7AF46",
"O+	c #5D511F",
"P+	c #7B753E",
"Q+	c #D3CC56",
"R+	c #FBFB45",
"S+	c #DDD76A",
"T+	c #46463E",
"U+	c #62665F",
"V+	c #CDE4E7",
"W+	c #C7E2E7",
"X+	c #9EB6BC",
"Y+	c #3C4446",
"Z+	c #A7A243",
"`+	c #FCFB3D",
" @	c #FDFC30",
".@	c #CEC636",
"+@	c #574D1E",
"@@	c #C1BC4F",
"#@	c #F7F468",
"$@	c #8B865B",
"%@	c #998D32",
"&@	c #DED24F",
"*@	c #FBFA30",
"=@	c #F3EC3F",
"-@	c #D5CA37",
";@	c #998E23",
">@	c #443911",
",@	c #837C41",
"'@	c #D4CF5E",
")@	c #FAF952",
"!@	c #FCF948",
"~@	c #B8B268",
"{@	c #797B6F",
"]@	c #9EA091",
"^@	c #69706D",
"/@	c #596363",
"(@	c #333021",
"_@	c #C8C257",
":@	c #FBFB38",
"<@	c #FBFC3A",
"[@	c #B9B133",
"}@	c #534512",
"|@	c #D5CF4D",
"1@	c #EAE666",
"2@	c #554C23",
"3@	c #6D6015",
"4@	c #6E6212",
"5@	c #4C4010",
"6@	c #60582D",
"7@	c #B0AA52",
"8@	c #E3E05D",
"9@	c #FBFA4C",
"0@	c #F2EE63",
"a@	c #5D593D",
"b@	c #AFB2A2",
"c@	c #68685A",
"d@	c #E0D731",
"e@	c #FBF933",
"f@	c #AFA852",
"g@	c #5E5526",
"h@	c #E3DB4F",
"i@	c #FCFD31",
"j@	c #FDFE3D",
"k@	c #EFEB53",
"l@	c #CCC84E",
"m@	c #CEC652",
"n@	c #E9E555",
"o@	c #F9F74B",
"p@	c #FDFE3A",
"q@	c #FDFC2C",
"r@	c #F9F138",
"s@	c #A8A258",
"t@	c #878A7D",
"u@	c #928521",
"v@	c #C1B648",
"w@	c #4C4228",
"x@	c #E3DC4C",
"y@	c #FCFB2F",
"z@	c #FCFC2C",
"A@	c #FCFD2E",
"B@	c #FEFD33",
"C@	c #FEFF2D",
"D@	c #FBF82E",
"E@	c #FAD924",
"F@	c #F9D429",
"G@	c #CBB84D",
"H@	c #5F6158",
"I@	c #9EA294",
"J@	c #58584C",
"K@	c #352E14",
"L@	c #D6D04E",
"M@	c #FDFD30",
"N@	c #FDFD2B",
"O@	c #FDFF2C",
"P@	c #F9F42C",
"Q@	c #F5DF25",
"R@	c #FAD224",
"S@	c #FBD024",
"T@	c #E6CE50",
"U@	c #575545",
"V@	c #998F2D",
"W@	c #FDFB3F",
"X@	c #FEFD35",
"Y@	c #FDFC2E",
"Z@	c #FBF42B",
"`@	c #F7DC25",
" #	c #F8D524",
".#	c #FAD024",
"+#	c #FAD124",
"@#	c #ECD54D",
"##	c #4F4C32",
"$#	c #9EA293",
"%#	c #545245",
"&#	c #E5DF3B",
"*#	c #F8E127",
"=#	c #F8D624",
"-#	c #F9D324",
";#	c #EBD64D",
">#	c #464123",
",#	c #9B9F90",
"'#	c #86897D",
")#	c #8A791B",
"!#	c #F6DE29",
"~#	c #F8EA2B",
"{#	c #FDFD2E",
"]#	c #FAEC2B",
"^#	c #F9DA26",
"/#	c #F9D124",
"(#	c #EBD74D",
"_#	c #57533C",
":#	c #5C5E56",
"<#	c #CCBB2C",
"[#	c #F8D824",
"}#	c #F6DD29",
"|#	c #FAF02C",
"1#	c #FCFB2C",
"2#	c #F5E928",
"3#	c #F8DD26",
"4#	c #F9D224",
"5#	c #FAD424",
"6#	c #D6BF48",
"7#	c #5C5D53",
"8#	c #A7AA9B",
"9#	c #4B421C",
"0#	c #F0CF25",
"a#	c #FBD625",
"b#	c #FAD625",
"c#	c #F8EC2A",
"d#	c #FBF62D",
"e#	c #F9E328",
"f#	c #F6DD24",
"g#	c #FAD025",
"h#	c #F9D52A",
"i#	c #B3A649",
"j#	c #717368",
"k#	c #A5A999",
"l#	c #989A8C",
"m#	c #7F721C",
"n#	c #F8D628",
"o#	c #FBD525",
"p#	c #FAD225",
"q#	c #F8DE26",
"r#	c #F7E828",
"s#	c #F9EC2A",
"t#	c #FCF82E",
"u#	c #FDFC2F",
"v#	c #FBF72E",
"w#	c #FAF22D",
"x#	c #F8E628",
"y#	c #F8D424",
"z#	c #FAD324",
"A#	c #F1D43E",
"B#	c #61572C",
"C#	c #979A8B",
"D#	c #8D9082",
"E#	c #A99E2C",
"F#	c #F9D92F",
"G#	c #FBD326",
"H#	c #FBD124",
"I#	c #F9E329",
"J#	c #F9E729",
"K#	c #F8EF2B",
"L#	c #F8F12A",
"M#	c #F9F12B",
"N#	c #FAF12C",
"O#	c #FBF32C",
"P#	c #F9F12C",
"Q#	c #FAE628",
"R#	c #F9D826",
"S#	c #F9D128",
"T#	c #C4AF49",
"U#	c #686A60",
"V#	c #888A7D",
"W#	c #AF9A24",
"X#	c #F9D42A",
"Y#	c #FBD225",
"Z#	c #FAD125",
"`#	c #F9D524",
" $	c #F8D724",
".$	c #F8D324",
"+$	c #F9D226",
"@$	c #E5C93C",
"#$	c #655C3C",
"$$	c #A8AB9A",
"%$	c #8E9183",
"&$	c #A69222",
"*$	c #F9D326",
"=$	c #F9D325",
"-$	c #F9D424",
";$	c #E5D04B",
">$	c #726A2F",
",$	c #929486",
"'$	c #9A9D8E",
")$	c #7B701A",
"!$	c #F8D328",
"~$	c #FAD226",
"{$	c #F8D32A",
"]$	c #EBCE3B",
"^$	c #81752D",
"/$	c #646152",
"($	c #E3C52D",
"_$	c #F8D32C",
":$	c #FAD126",
"<$	c #F7D624",
"[$	c #F7D523",
"}$	c #F6D623",
"|$	c #F7D423",
"1$	c #FBD627",
"2$	c #FAD425",
"3$	c #F8D329",
"4$	c #F9D126",
"5$	c #D2BE3B",
"6$	c #62551B",
"7$	c #808276",
"8$	c #8B7F24",
"9$	c #F6D42E",
"0$	c #F9D328",
"a$	c #FACF27",
"b$	c #FACF26",
"c$	c #F9D227",
"d$	c #F7D32E",
"e$	c #FACF28",
"f$	c #FBCF25",
"g$	c #FBD025",
"h$	c #F7CF25",
"i$	c #B7A135",
"j$	c #37301C",
"k$	c #3F4749",
"l$	c #A3A596",
"m$	c #A2A697",
"n$	c #A1A595",
"o$	c #77786C",
"p$	c #B6A62E",
"q$	c #F8D528",
"r$	c #F9D025",
"s$	c #F7D32B",
"t$	c #F8D229",
"u$	c #F8D127",
"v$	c #F9D029",
"w$	c #FAD026",
"x$	c #F7D630",
"y$	c #CCB128",
"z$	c #786713",
"A$	c #5C5332",
"B$	c #B8AB52",
"C$	c #6C6339",
"D$	c #ACAF9E",
"E$	c #A3A798",
"F$	c #6D6C5E",
"G$	c #AF941C",
"H$	c #F5CE25",
"I$	c #FAD128",
"J$	c #F9D329",
"K$	c #F9D028",
"L$	c #F9D024",
"M$	c #FAD526",
"N$	c #F8D228",
"O$	c #F9D125",
"P$	c #F4D12A",
"Q$	c #CBB32A",
"R$	c #836F15",
"S$	c #40361F",
"T$	c #A49943",
"U$	c #E3CD4B",
"V$	c #DBC743",
"W$	c #59584C",
"X$	c #7E8073",
"Y$	c #8A7724",
"Z$	c #E0BF25",
"`$	c #F7D12D",
" %	c #F9D22A",
".%	c #FAD427",
"+%	c #F9D228",
"@%	c #FACF25",
"#%	c #F6D432",
"$%	c #E6C82D",
"%%	c #BCA525",
"&%	c #726321",
"*%	c #5C5C52",
"=%	c #615628",
"-%	c #B9A848",
";%	c #AB9C2B",
">%	c #716720",
",%	c #636051",
"'%	c #9C9E8F",
")%	c #95978A",
"!%	c #625F4F",
"~%	c #887519",
"{%	c #CDB62B",
"]%	c #EFCC24",
"^%	c #FAD227",
"/%	c #FAD027",
"(%	c #F9D127",
"_%	c #F6CF25",
":%	c #E2C026",
"<%	c #BBAC2D",
"[%	c #807227",
"}%	c #605D4D",
"|%	c #898B7E",
"1%	c #A9AC9B",
"2%	c #6A6B5F",
"3%	c #7B7C70",
"4%	c #949688",
"5%	c #A1A495",
"6%	c #A2A595",
"7%	c #808174",
"8%	c #5B5640",
"9%	c #7C6A18",
"0%	c #B59A1C",
"a%	c #CDAD20",
"b%	c #DBB720",
"c%	c #E4BF22",
"d%	c #E3C229",
"e%	c #E1C42D",
"f%	c #E0C42D",
"g%	c #DABA2A",
"h%	c #CFB226",
"i%	c #B4991D",
"j%	c #8E7916",
"k%	c #63551A",
"l%	c #565449",
"m%	c #77796E",
"n%	c #9DA191",
"o%	c #1A1A19",
"p%	c #4D4934",
"q%	c #4D442D",
"r%	c #423715",
"s%	c #3A2D15",
"t%	c #342B19",
"u%	c #2D2110",
"v%	c #1D150F",
"w%	c #707368",
"x%	c #7D8074",
"y%	c #888C7F",
"z%	c #AC9B32",
"A%	c #EDD83E",
"B%	c #CDBE46",
"C%	c #AD9F4B",
"D%	c #7E723C",
"E%	c #4C432B",
"F%	c #9DA193",
"G%	c #5D5B4E",
"H%	c #625B3E",
"I%	c #707064",
"J%	c #8A8C7E",
"K%	c #989C8C",
"L%	c #A9AD9D",
"M%	c #A7AA9A",
"                                        . +                                       @ #                                           ",
"                                      # $ % &                                   * % = -                                         ",
"                                    # $ % % % &                               * % % % =                                         ",
"                                  # $ % % % % % &                           * % % % % % =                                       ",
"                                # $ % % % % % % % &                       * % % % % % % % =                                     ",
"                              # $ % % % % % % % % % &                   * % % % % % % % % % ;                                   ",
"                            # > % % % % % % % % % % % &               * % % % % % % % % % % % ;                                 ",
"                          # > % % % % % % % % % % % % % &           * % % % % % % % % % % % % % ;                               ",
"                        # $ % % % % % % % % % % % % % % % &       * % % % % % % % % % % % % % % % ;                             ",
"                      # $ % % % % % % % % % % % % % % % % % &   * % % % % % % % % % % % % % % % % % ; -                         ",
"                      ; % % % % % % % % % % % % % % % % % % % , % % % % % % % % % % % % % % % % % % % '                         ",
"                  # ; ) ! % % % % % % % % % % % % % % % % % + # ; % % % % % % % % % % % % % % % % % ~ { ] ^                     ",
"                # > % / ) ! % % % % % % % % % % % % % % % +     ^ ; % % % % % % % % % % % % % % % ~ { % % ; -                   ",
"              # > % % % ( ) ! % % % % % % % % % % % % % +         ^ ; % % % % % % % % % % % % % ~ { % % % % ; -                 ",
"            # > % % % % % ( ) ! % % % % ! ; ; _ % % % +             ^ ; % % % % % % % % % % % ~ { % % % % % % ;                 ",
"          # > % % % % % % % ( ) ! : < [ } | 1 2 3 4 5                 ^ ; % % % % % % % % % ~ { % % % % % % % % ;               ",
"        # > % % % % % % % % % 6 7 8 9 0 a b c d e f g h i j k l 4 m n o p * % % % % % % % ~ { % % % % % % % % % % ;             ",
"      # > % % % % % % % % % ) q r s t u v w w x y z A B C D E F G H I J K L M N O % % % ~ O % % % % % % % % % % % % ; -         ",
"    # > % % % % % % % % % P Q R S T U V W X Y Z `  ...+.@.#.$.%.&.*.=.-.;.>.,.'.).!.~.~ O % % % % % % % % % % % % % % ; ^       ",
"  # > % % % % % % % % % {.].^./.(._.u :.<.[.}.|.1.2.3.4.5.6.7.8.9.0.a.b.c.c.d.e.f.g.h.i.j.% % % % % % % % % % % % % % % ; ^     ",
"# > % % % % % % % % % % k.l.m.n.o.V p.q.r.s.t.u.o.c.v.(.(.w w.x.y.z.A.B.w.w.w.w.(.C.D.E.F.G.{.% % % % % % % % % % % % % % ; ^ H.",
"I.J.% % % % % % % % % % K.L._.X M.N.O.P.Q.R.S.(.W c.v.W w w.w.w.n.T.U.V.W.w.W.X.M.(.(.Y.Z.`. +.+% % % % % % % % % % % % % _ ++@+",
"  #+% % % % % % % % % _ $+%+c.c.&+V *+=+-+;+>+,+w w.U w.w.w.w.w.w.'+)+!+~+u c.{+w.w.(.(.V ;.]+^+/+% % % % % % % % % % % _ P     ",
"    I.% % % % % % % % .+(+_+:+<+[+W }+o.|+1+2+3+w.w.w.w.w.w.w.w.x 4+5+6+7+c.w.w.w.w.w.w w _.8+9+0+a+% % % % % % % % % _ P       ",
"      I.J.% % % % % b+c+d+e+f+g+h+i+(.M.j+k+l+m+n+w.w.w.w.w.o+p+q+r+s+t+:.c.w.w.w.w.w.w.w.w.W.u+v+w+x+% % % % % % % _ P         ",
"        I.J.% % % % y+z+A+B+C+D+E+u _.F+G+H+I+J+K+W W W L+M+N+O+P+Q+R+6.n.u w.w.w.w.w.w.w.w.w.w.o.S+T+: % % % % % _ P           ",
"          I.J.% % % U+V+W+X+Y+Z+`+ @.@+@@@#@$@%@&@*@=@-@;@>@,@'@)@&+(.(.(.w w (.(.w.w.w.w.w.w.w.w.!@~@{@% % % % _ P             ",
"            I.J.% % ]@^@/@(@_@:@<@[@}@|@`+*.1@2@3@4@5@6@7@8@9@:.u w.w.w.w w.w.w.w.w.w.w.w.w.w.w.w.W.0@a@; % % _ P               ",
"              I.b@% % % % c@d@e@f@g@h@i@W c.j@k@l@m@n@o@p@i+c.w c.w.w.w.w.w.w.w.w.w.w.w.w.w.w.w.w.q@r@s@k.% _ P                 ",
"                I.b@% % * t@u@v@w@x@y@z@A@c.w w.(.B@w.C@C@U w w.w.w.w.w.w.w.w.w.w.w.w.w.w.w.w.w D@E@F@G@H@_ P                   ",
"                  I.b@*   I@J@K@L@T M@N@X.O@U w.w w.w.w.w.w.w.w.w.w.w.w.w.w.w.w.w.w.U U w.w.W.P@Q@R@S@T@U@P                     ",
"                    ++      G.V@W@X@u v.v.c.v.U w.w.w.w.w.w.w.w.w.w.w.w.w.w.w.w.w.U v.v.u Y@Z@`@ #.#+#@###~.                    ",
"                    ++    $#%#&#(.(.*+i+v.v.v.U w.w.w.w.w.w.w.w.w.w.w.w.w.w.w.w.w.v.v.W D@*#=#-#-#.#+#;#>#,#                    ",
"                  ) J.'   '#)#!#~#W v.v.v.v.v.w.w.w.w.w.w.w.w.w.w.w.w.w.w.w.w.w.w.w.{#]#^#.#/#/#/#+#+#(#_#++                    ",
"                ) % % % ' :#<#[#}#|#W.c.v.v.v.w.w.w.w.w.w.w.w.w.w.w.w.w.w.w.w.w.1#2#3#4#/#.#/#/#/#+#5#6#7#_ H.                  ",
"              ) % % % % 8#9#0#a#b# #c#c.U w.w.U w.w.w.w.w.w.w.w.w.w.w.w.w W d#e#f#g#S@S@S@+#/#/#/#+#h#i#j#% _ H.                ",
"            k#% % % % % l#m#n#o#g#p#-#q#r#s#t#u#u c.w.w.w.w.w.w.n.M.u#v#w#x#y#/#4#+#S@S@S@/#/#/#/#z#A#B#C#% % _ H.              ",
"          k#% % % % % % D#E#F#G#S@H#g#S@4# #=#I#J#K#L#L#M#N#O#O#P#Q#R#5#H#.#S@S@S@S@S@S@S@+#/#/#/#S#T#U#b@% % % _ H.            ",
"        k#% % % % % % % V#W#X#Y#S@S@F@Z#`# $y#/#g#4#.$.$.$4#4#4#R@.#S@S@.#+#S@S@S@S@S@S@S@+#.$-#+$@$#$$$% % % % % _ H.          ",
"      k#% % % % % % % % %$&$*$S@S@S@H#=$+$-#-# #.$/#/#/#/#/#/#/#/#/#/#/#/#S@S@S@S@S@S@S@+#-$R@g#;$>$,$% % % % % % % _ H.        ",
"    k#% % % % % % % % % '$)$!$S@S@S@S@~${$4#/#/#R@-$-#/#/#/#/#/#/#/#/#/#/#/#H#H#S@S@+#4#4#/#/#]$^$V#% % % % % % % % % _ H.      ",
"  k#% % % % % % % % % % % /$($R@+#.#S@_$:$:$/#/#/#4#y#<$<$[$}$|$4#4#4#4#4#`#1$2$:$3$+#.#.#4$5$6$7$% % % % % % % % % % % _ H.    ",
"I.% % % % % % % % % % % % x+8$9$/#/#/#+$0${$+#/#/#a$b$y#y#=#=#y#4#-$-$-$c$d$e$f$g$4#/#/#h$i$j$k$l$% % % % % % % % % % % % _ m$* ",
"n${.% % % % % % % % % % % % o$p$q$r$r$/#s$c$t$u$/#/#/#/#/#4#4#/#4#=$v$R@.#.#.#.#/#w$x$y$z$A$B$C$D$% % % % % % % % % % % % 6 # E$",
"  n${.% % % % % % % % % % % / F$G$H$/#r$/#I$J$K$/#:$.#L$r$/#/#M$-$N$O$/#/#+#Z#z#P$Q$R$S$T$U$V$W$_ % % % % % % % % % % % 6 #     ",
"    n${.% % % % % % % % % % % > X$Y$Z$`$w$ %.%+%4$/#:$S@@%b$s$/#/#/#/#/#*$#%$%%%&%*%=%-%;%>%,%'%% % % % % % % % % % % 6 #       ",
"      n${.% % % % % % % % % % % _ )%!%~%{%]%X#2$^%S@S@S@S@/%(%4#/#Z#_%:%<%[%}%|%1%! 2%3%4%- J.% % % % % % % % % % % 6 #         ",
"        5%{.% % % % % % % % % _ ) ! % 6%7%8%9%0%a%b%c%d%e%f%g%h%i%j%k%l%m%n%% % % % % % % ~ k#b@% % % % % % % % % 6 #           ",
"          5%{.% % % % % % % _ ) ! % % % % _ C#o%p%q%r%s%t%u%v%w%x%y%b+  ] % % % % % % % % % ~ k#b@% % % % % % % 6 #             ",
"            5%{.% % % % % _ ) ! % % % % % % % X$z%A%B%C%D%E%U#F%      ] % % % % % % % % % % % ~ k#b@% % % % % 6 #               ",
"              5%{.% % % _ #+! % % % % % % % % > G%H%I%J%K%~.        ] % % % % % % % % % % % % % ~ k#b@% % % 6 #                 ",
"                5%{.% _ #+! % % % % % % % % % % _ _ % % % @+      ] % % % % % % % % % % % % % % % ~ k#b@% ; #                   ",
"                  5%D$#+! % % % % % % % % % % % % % % % % % @+^ ] % % % % % % % % % % % % % % % % % $ k#; #                     ",
"                      ; % % % % % % % % % % % % % % % % % % % L%% % % % % % % % % % % % % % % % % % % *                         ",
"                      5%{.% % % % % % % % % % % % % % % % % M%  , % % % % % % % % % % % % % % % % % ; #                         ",
"                        5%> % % % % % % % % % % % % % % % M%      , % % % % % % % % % % % % % % % ; #                           ",
"                          5%> % % % % % % % % % % % % % M%          , % % % % % % % % % % % % % ; #                             ",
"                            5%> % % % % % % % % % % % M%              , % % % % % % % % % % % ; #                               ",
"                              5%> % % % % % % % % % M%                  + % % % % % % % % % ; #                                 ",
"                                5%> % % % % % % % M%                      + % % % % % % % ; #                                   ",
"                                  5%> % % % % % M%                          + % % % % % ; #                                     ",
"                                    5%> % % % M%                              + % % % ; #                                       ",
"                                      5%> % M%                                  + % ; #                                         ",
"                                        . +                                       @ #                                           "};
