/* XPM */
static char * collecf2_xpm[] = {
"64 64 620 2",
"  	c #9FA394",
". 	c #A1A596",
"+ 	c #A9AC9C",
"@ 	c #AAAD9D",
"# 	c #A0A495",
"$ 	c #ACB09F",
"% 	c #B0B3A2",
"& 	c #A6AA9A",
"* 	c #A8AC9C",
"= 	c #ABAE9D",
"- 	c #A0A394",
"; 	c #ABAE9E",
"> 	c #ADB09F",
", 	c #A9AD9C",
"' 	c #A8AB9B",
") 	c #A5A899",
"! 	c #AEB1A0",
"~ 	c #A7AA9A",
"{ 	c #95988A",
"] 	c #8D8F82",
"^ 	c #8B8E80",
"/ 	c #8A8C7F",
"( 	c #898B7E",
"_ 	c #939687",
": 	c #A4A798",
"< 	c #AFB2A1",
"[ 	c #ACAF9F",
"} 	c #A6A999",
"| 	c #AAAE9D",
"1 	c #A0A494",
"2 	c #AEB1A1",
"3 	c #989C8D",
"4 	c #7F8276",
"5 	c #5B5B51",
"6 	c #77713E",
"7 	c #A49F51",
"8 	c #BDB958",
"9 	c #C3BF60",
"0 	c #C6C062",
"a 	c #C0BB60",
"b 	c #A9A35F",
"c 	c #7F7946",
"d 	c #57564B",
"e 	c #73756A",
"f 	c #989B8C",
"g 	c #AEB2A1",
"h 	c #9A9D8E",
"i 	c #7C7F73",
"j 	c #777B70",
"k 	c #797D72",
"l 	c #5F6157",
"m 	c #736C3C",
"n 	c #C0BC4B",
"o 	c #ECE95F",
"p 	c #FBF949",
"q 	c #FDFD46",
"r 	c #FDFE38",
"s 	c #FEFF34",
"t 	c #FEFE34",
"u 	c #FDFC35",
"v 	c #FCFC3E",
"w 	c #FBFB40",
"x 	c #F3F168",
"y 	c #D5D05E",
"z 	c #958F55",
"A 	c #5E5E4E",
"B 	c #939688",
"C 	c #ADB0A0",
"D 	c #8D9184",
"E 	c #696B61",
"F 	c #4C4B3B",
"G 	c #5B5846",
"H 	c #3E403B",
"I 	c #4C4E49",
"J 	c #4C4E47",
"K 	c #918D59",
"L 	c #BCB75D",
"M 	c #CBC763",
"N 	c #8E8A62",
"O 	c #221E1A",
"P 	c #827A3A",
"Q 	c #D5CF52",
"R 	c #F9F84D",
"S 	c #FCFE2F",
"T 	c #FCFE2D",
"U 	c #FDFD2F",
"V 	c #FEFD30",
"W 	c #FEFD32",
"X 	c #FCFD32",
"Y 	c #FBFC30",
"Z 	c #FCFC33",
"` 	c #FCFB4C",
" .	c #E7E363",
"..	c #95905B",
"+.	c #5E5F54",
"@.	c #A2A596",
"#.	c #939789",
"$.	c #4A4C47",
"%.	c #6B6434",
"&.	c #C6C056",
"*.	c #E6DE5C",
"=.	c #948C4A",
"-.	c #554B26",
";.	c #B1A950",
">.	c #EBE864",
",.	c #FDFC49",
"'.	c #F2EE47",
").	c #9E952A",
"!.	c #6D6533",
"~.	c #D4D051",
"{.	c #FAF94A",
"].	c #FDFF2B",
"^.	c #FCFE2C",
"/.	c #FCFE2E",
"(.	c #FDFE2F",
"_.	c #FDFE2E",
":.	c #FDFF2E",
"<.	c #FEFE2F",
"[.	c #FBFB52",
"}.	c #D2CE78",
"|.	c #595749",
"1.	c #9D9F90",
"2.	c #72756A",
"3.	c #544F32",
"4.	c #C2BD52",
"5.	c #F9F74B",
"6.	c #D8D13B",
"7.	c #574E1D",
"8.	c #A49C4E",
"9.	c #EEE957",
"0.	c #FCFC3C",
"a.	c #FDFC31",
"b.	c #EEEB2F",
"c.	c #796C26",
"d.	c #A19A43",
"e.	c #F6F44C",
"f.	c #FDFD30",
"g.	c #FCFD2F",
"h.	c #FBFD2F",
"i.	c #FDFF2D",
"j.	c #FDFE2D",
"k.	c #FEFE2E",
"l.	c #FEFF2E",
"m.	c #FEFD2F",
"n.	c #FDFD3F",
"o.	c #E8E383",
"p.	c #737059",
"q.	c #9B9D8E",
"r.	c #585951",
"s.	c #948E42",
"t.	c #EFEC55",
"u.	c #FCFD3A",
"v.	c #E6E148",
"w.	c #50461F",
"x.	c #CBC350",
"y.	c #C0B63B",
"z.	c #E3E03A",
"A.	c #FCFB36",
"B.	c #ECE84C",
"C.	c #72651E",
"D.	c #C6BF4C",
"E.	c #FCFC3D",
"F.	c #FDFE30",
"G.	c #FDFE32",
"H.	c #FDFE31",
"I.	c #FEFE31",
"J.	c #FCFE30",
"K.	c #FCFE31",
"L.	c #FCFE33",
"M.	c #FDFC41",
"N.	c #EDE969",
"O.	c #767246",
"P.	c #9EA191",
"Q.	c #59594F",
"R.	c #B6AF4E",
"S.	c #FAF946",
"T.	c #FDFD35",
"U.	c #FDFD38",
"V.	c #CEC94E",
"W.	c #79702E",
"X.	c #EFE133",
"Y.	c #C7BE6B",
"Z.	c #88825F",
"`.	c #83762C",
" +	c #5B501A",
".+	c #CAC449",
"++	c #FDFF2A",
"@+	c #FDFE36",
"#+	c #FCFE34",
"$+	c #FDFD31",
"%+	c #FEFD31",
"&+	c #FCFD39",
"*+	c #FDFD34",
"=+	c #FCFD33",
"-+	c #FDFE33",
";+	c #FEFF2F",
">+	c #FEFE30",
",+	c #FEFD34",
"'+	c #FDFD36",
")+	c #EAE466",
"!+	c #5E5B43",
"~+	c #A3A696",
"{+	c #646559",
"]+	c #BAB54F",
"^+	c #FBFB3F",
"/+	c #FEFE37",
"(+	c #F5F355",
"_+	c #6E6740",
":+	c #978A1D",
"<+	c #D3C52F",
"[+	c #DFCD3C",
"}+	c #665D39",
"|+	c #C4BB3E",
"1+	c #FCFE32",
"2+	c #FCFD31",
"3+	c #FEFF30",
"4+	c #FDFD33",
"5+	c #FCFC35",
"6+	c #FDFC32",
"7+	c #FCFA30",
"8+	c #FDFC30",
"9+	c #FDFD2E",
"0+	c #FCFC34",
"a+	c #D0CB6C",
"b+	c #606055",
"c+	c #818478",
"d+	c #A8A03F",
"e+	c #FBFB42",
"f+	c #FDFE34",
"g+	c #ECEA69",
"h+	c #A6A15F",
"i+	c #5E5944",
"j+	c #453D27",
"k+	c #B1A846",
"l+	c #FBFB3D",
"m+	c #FEFF31",
"n+	c #FCFB2E",
"o+	c #F8EF29",
"p+	c #F3E225",
"q+	c #F4DF26",
"r+	c #F5DF26",
"s+	c #F1E225",
"t+	c #F4E627",
"u+	c #FAF22B",
"v+	c #FDFA2D",
"w+	c #FBF94B",
"x+	c #908843",
"y+	c #8F9184",
"z+	c #A3A797",
"A+	c #A4A898",
"B+	c #AFB3A2",
"C+	c #4E4A34",
"D+	c #F1EE45",
"E+	c #FCFC30",
"F+	c #FDFC40",
"G+	c #F9F850",
"H+	c #F7F64B",
"I+	c #FCFA34",
"J+	c #FCF830",
"K+	c #F6EA2B",
"L+	c #F5E025",
"M+	c #F6D823",
"N+	c #F8D524",
"O+	c #F8D624",
"P+	c #F6D723",
"Q+	c #F7D724",
"R+	c #F7D824",
"S+	c #F8E226",
"T+	c #FAEF2F",
"U+	c #DFD552",
"V+	c #4F4F49",
"W+	c #A2A696",
"X+	c #A8AC9B",
"Y+	c #A4A899",
"Z+	c #ACAF9E",
"`+	c #796C23",
" @	c #FCFD36",
".@	c #FDFE2C",
"+@	c #FDFD32",
"@@	c #FEFF2D",
"#@	c #FBFB2C",
"$@	c #F5E927",
"%@	c #F4DB23",
"&@	c #F9D324",
"*@	c #FAD224",
"=@	c #F9D024",
"-@	c #F9D124",
";@	c #F9D224",
">@	c #FAD124",
",@	c #F9D424",
"'@	c #F1DD46",
")@	c #6C6438",
"!@	c #A4A69B",
"~@	c #A3A697",
"{@	c #796E2D",
"]@	c #FCFD2E",
"^@	c #FDFE2B",
"/@	c #FEFE2C",
"(@	c #FEFE2D",
"_@	c #FDFF2F",
":@	c #FCFC31",
"<@	c #F6E528",
"[@	c #FAD024",
"}@	c #FBD024",
"|@	c #FACF25",
"1@	c #FACF26",
"2@	c #F9D025",
"3@	c #FAD225",
"4@	c #F9D72B",
"5@	c #A79B4A",
"6@	c #7D7E78",
"7@	c #5C5533",
"8@	c #F5F331",
"9@	c #F9F833",
"0@	c #FCFD2B",
"a@	c #FEFE33",
"b@	c #FEFF33",
"c@	c #FEFF32",
"d@	c #FBF62E",
"e@	c #F7E028",
"f@	c #F8D424",
"g@	c #FAD525",
"h@	c #D4BD4E",
"i@	c #60605F",
"j@	c #9B9E8F",
"k@	c #2B2923",
"l@	c #463D10",
"m@	c #453D18",
"n@	c #837A14",
"o@	c #F6F52C",
"p@	c #FDFE3D",
"q@	c #FEFE32",
"r@	c #FBF431",
"s@	c #F8D924",
"t@	c #FAD125",
"u@	c #EACE47",
"v@	c #515051",
"w@	c #B2B4A5",
"x@	c #6A6D64",
"y@	c #637478",
"z@	c #ABBFC3",
"A@	c #BFD8DC",
"B@	c #A6C0C5",
"C@	c #333331",
"D@	c #E4DE32",
"E@	c #FAF52D",
"F@	c #F8DB24",
"G@	c #EBC830",
"H@	c #323233",
"I@	c #8A8B83",
"J@	c #A3B7BB",
"K@	c #D0EDF0",
"L@	c #BBD8DE",
"M@	c #98AFB8",
"N@	c #536266",
"O@	c #948C45",
"P@	c #FBFA3B",
"Q@	c #FBF82E",
"R@	c #F4E727",
"S@	c #FDFC2E",
"T@	c #F9F02C",
"U@	c #F9DB25",
"V@	c #ECC725",
"W@	c #353435",
"X@	c #90908A",
"Y@	c #7F9095",
"Z@	c #869B9F",
"`@	c #59696F",
" #	c #1B2024",
".#	c #A09532",
"+#	c #F7F247",
"@#	c #FCFB30",
"##	c #FAF22C",
"$#	c #F5DE24",
"%#	c #F2DF22",
"&#	c #FDFD2D",
"*#	c #FDFF30",
"=#	c #F9EE2B",
"-#	c #F9D724",
";#	c #FBD324",
">#	c #EDC723",
",#	c #4E4E4E",
"'#	c #9C9E92",
")#	c #979A8B",
"!#	c #A4A797",
"~#	c #86897C",
"{#	c #8A7D1D",
"]#	c #F2E229",
"^#	c #F8E328",
"/#	c #F8E529",
"(#	c #F9DF28",
"_#	c #F7DB24",
":#	c #F9DD27",
"<#	c #FDFF2C",
"[#	c #FEFF2C",
"}#	c #FCFD2D",
"|#	c #F8F02C",
"1#	c #F3DE23",
"2#	c #F8D324",
"3#	c #F9D624",
"4#	c #EDC421",
"5#	c #484848",
"6#	c #AFB2A2",
"7#	c #65665A",
"8#	c #B7A521",
"9#	c #F8DD25",
"0#	c #FAD925",
"a#	c #FAD424",
"b#	c #F9DE28",
"c#	c #FDFB2E",
"d#	c #F7E728",
"e#	c #F3DC22",
"f#	c #F7D624",
"g#	c #535353",
"h#	c #9B9F90",
"i#	c #525040",
"j#	c #D7C029",
"k#	c #F7D923",
"l#	c #FBD424",
"m#	c #FAD324",
"n#	c #F8D825",
"o#	c #FCFB32",
"p#	c #F7E026",
"q#	c #F9D524",
"r#	c #F8D224",
"s#	c #F7D524",
"t#	c #FAD524",
"u#	c #EBC422",
"v#	c #5D5D5A",
"w#	c #5E5328",
"x#	c #E6CC24",
"y#	c #F5E928",
"z#	c #FAF42C",
"A#	c #F6DF26",
"B#	c #EAC423",
"C#	c #5F605C",
"D#	c #85887C",
"E#	c #7F7217",
"F#	c #F3D324",
"G#	c #FBD625",
"H#	c #F4D923",
"I#	c #F8E428",
"J#	c #F9F12B",
"K#	c #F9F42C",
"L#	c #F8E027",
"M#	c #D3BA45",
"N#	c #74746F",
"O#	c #707368",
"P#	c #AD971E",
"Q#	c #F7D525",
"R#	c #F8D526",
"S#	c #FBD124",
"T#	c #FAD126",
"U#	c #A59433",
"V#	c #898C83",
"W#	c #9EA293",
"X#	c #605E50",
"Y#	c #D3B824",
"Z#	c #FAD025",
"`#	c #FACE27",
" $	c #F9D125",
".$	c #EACF48",
"+$	c #605941",
"@$	c #A5A89B",
"#$	c #A5A999",
"$$	c #989C8E",
"%$	c #605531",
"&$	c #EBCB25",
"*$	c #F9D326",
"=$	c #F7D423",
"-$	c #F9D325",
";$	c #F8D423",
">$	c #F7D42B",
",$	c #ABA149",
"'$	c #86887B",
")$	c #85887B",
"!$	c #857319",
"~$	c #F4D42B",
"{$	c #E8CA36",
"]$	c #69654F",
"^$	c #656559",
"/$	c #C2A920",
"($	c #F8D724",
"_$	c #FBCF25",
":$	c #F4D133",
"<$	c #96862D",
"[$	c #9DA091",
"}$	c #564E2D",
"|$	c #EACB24",
"1$	c #F7D623",
"2$	c #F7D328",
"3$	c #F9D229",
"4$	c #BBA93D",
"5$	c #7C7C6F",
"6$	c #818477",
"7$	c #9D8618",
"8$	c #F6D623",
"9$	c #F8D127",
"0$	c #E1BF22",
"a$	c #B1A12C",
"b$	c #796A18",
"c$	c #DCBB29",
"d$	c #FBD025",
"e$	c #F7D52E",
"f$	c #D2C139",
"g$	c #696757",
"h$	c #5D5B4B",
"i$	c #DEBD24",
"j$	c #F5D823",
"k$	c #F7D426",
"l$	c #E9CE33",
"m$	c #B9A022",
"n$	c #6C5C12",
"o$	c #403829",
"p$	c #91854A",
"q$	c #DCC14B",
"r$	c #F6D231",
"s$	c #F9D126",
"t$	c #F6D533",
"u$	c #DFCB49",
"v$	c #6C6547",
"w$	c #A7AB9B",
"x$	c #888B7E",
"y$	c #978728",
"z$	c #FACF27",
"A$	c #EFD132",
"B$	c #CAB127",
"C$	c #85771B",
"D$	c #312607",
"E$	c #3B3933",
"F$	c #463F2C",
"G$	c #DEC64C",
"H$	c #F7D736",
"I$	c #F8D525",
"J$	c #E4CD41",
"K$	c #706A4A",
"L$	c #A2A697",
"M$	c #A1A595",
"N$	c #A6A899",
"O$	c #5D5534",
"P$	c #EECC29",
"Q$	c #F1CE2B",
"R$	c #DCBF29",
"S$	c #B59F25",
"T$	c #857217",
"U$	c #352A05",
"V$	c #1E1817",
"W$	c #595B52",
"X$	c #686348",
"Y$	c #F6CF25",
"Z$	c #F9D225",
"`$	c #F8D425",
" %	c #F9D226",
".%	c #E6C833",
"+%	c #786E46",
"@%	c #A6A998",
"#%	c #ABAF9E",
"$%	c #A3A798",
"%%	c #75776A",
"&%	c #C3AE2B",
"*%	c #CFB42F",
"=%	c #7A6C19",
"-%	c #443909",
";%	c #1B0F05",
">%	c #0F0F10",
",%	c #4B4D46",
"'%	c #75786D",
")%	c #94988A",
"!%	c #706948",
"~%	c #F7D124",
"{%	c #F9D425",
"]%	c #F4DA2C",
"^%	c #DAC538",
"/%	c #6E6433",
"(%	c #A2A495",
"_%	c #9C9E8F",
":%	c #8C7D21",
"<%	c #F7D32B",
"[%	c #F7D22E",
"}%	c #7C6E36",
"|%	c #797B70",
"1%	c #86897D",
"2%	c #96998B",
"3%	c #7A704B",
"4%	c #CAAF2A",
"5%	c #A29221",
"6%	c #7D7234",
"7%	c #767565",
"8%	c #5E5738",
"9%	c #F4CE29",
"0%	c #E8CB40",
"a%	c #5F5D4E",
"b%	c #7D7F72",
"c%	c #87887B",
"d%	c #9B9D8F",
"e%	c #A1A495",
"f%	c #78796D",
"g%	c #D0B427",
"h%	c #BAA542",
"i%	c #74766B",
"j%	c #9B9E8E",
"k%	c #9B8419",
"l%	c #FBD026",
"m%	c #F6D030",
"n%	c #8A7C33",
"o%	c #8B8E81",
"p%	c #66592B",
"q%	c #F5CF27",
"r%	c #F3CD27",
"s%	c #D0B42A",
"t%	c #A4952B",
"u%	c #6F6334",
"v%	c #727367",
"w%	c #636257",
"x%	c #786A17",
"y%	c #4D4320",
"z%	c #696A5E",
"A%	c #8E9183",
"B%	c #9DA192",
"C%	c #A9AD9D",
"                                        . +                                       @ #                                           ",
"                                      # $ % &                                   * % = -                                         ",
"                                    # $ % % % &                               * % % % =                                         ",
"                                  # $ % % % % % &                           * % % % % % =                                       ",
"                                # $ % % % % % % % &                       * % % % % % % % =                                     ",
"                              # $ % % % % % % % % % &                   * % % % % % % % % % ;                                   ",
"                            # > % % % % % % % % % % % &               * % % % % % % % % % % % ;                                 ",
"                          # > % % % % % % % % % % % % % &           * % % % % % % % % % % % % % ;                               ",
"                        # $ % % % % % % % % % % % % % % % &       * % % % % % % % % % % % % % % % ;                             ",
"                      # $ % % % % % % % % % % % % % % % % % &   * % % % % % % % % % % % % % % % % % ; -                         ",
"                      ; % % % % % % % % % % % % % % % % % % % , % % % % % % % % % % % % % % % % % % % '                         ",
"                  # ; ) ! % % % % % % % % % % % % % % % % % + # ; % % ~ { ] ^ / ( _ : < % % % % % % [ } | 1                     ",
"                # > % 2 ) ! % % % % % % % % % % % % % % % +     3 4 5 6 7 8 9 0 a b c d e f < % % [ } % % ; -                   ",
"              # > % % % g ) ! % % % % % < > 2 % 2 h 4 4 i j k l m n o p q r s t u v w x y z A B ; } % % % % ; -                 ",
"            # > % % % % % g ) ! % C D E F G H I J K L M N O P Q R S T T U V V V V W X Y Z `  ...+.@.% % % % % ;                 ",
"          # > % % % % % % % g ) #.$.%.&.*.=.-.;.>.,.'.).!.~.{.S T ].].^./.(._.:._.<.(._.U V W [.}.|.1.% % % % % ;               ",
"        # > % % % % % % % % > 2.3.4.5.6.7.8.9.0.a.b.c.d.e.f.g._.h.(.i.j.k././.S /.l.l.l.l.V V m.n.o.p.q.% % % % % ;             ",
"      # > % % % % % % % % + r.s.t.u.v.w.x.y.z.A.B.C.D.E.F.G.H.I.J./././.K.L.S K.J._.l.l.l.V V V <.M.N.O.P.% % % % % ; -         ",
"    # > % % % % % % % % = Q.R.S.T.U.V.W.X.Y.Z.`. +.+g.++].(.t @+@+/./.#+$+V m.%+&+*+=+-+;+V V V >+,+'+)+!+~+% % % % % ; 1       ",
"  # > % % % % % % % % < {+]+^+_.V /+(+_+:+<+[+}+|+T.1+2+H.I.F.3+l.l.s 4+U <.V _.g.U /./.=+5+6+7+8+m.9+0+a+b+< % % % % % ; 1     ",
"# > % % % % % % % % % c+d+e+f.>+1+H.f+g+h+i+j+k+l+_./.V V <.l.l.;+@+<.<.H.m+;+_.(.9+n+o+p+q+r+s+s+t+u+v+w+x+y+% % % % % % ; 1 z+",
"A+B+% % % % % % % % ! C+D+V %+2+E+(.(.V F+G+H+I+U _./.U <.l.l.<.f.*+G.<.:.:.&+2+J+K+L+M+N+N+O+M+P+Q+R+S+T+U+V+% % % % % % < W+X+",
"  Y+% % % % % % % % Z+`+ @.@_.m.V <.>+V U F.@+V <.l.:.l.l.l.:.<.f.V +@U l.@@#@$@%@Q+N+&@*@=@-@;@-@>@*@,@O+'@)@!@% % % % < ~@    ",
"    A+% % % % % % % > {@]@j.].^@/@<.V (@f+(./.l.l.l.l.l._@/.T _.S j.I.l.l.:@<@M+&@>@-@[@}@|@1@2@2@2@-@-@3@4@5@6@% % % < ~@      ",
"      A+B+% % % % % ! 7@8@9@0@]..@<.V V _.$+X a@b@c@>+;+_.T /.H.m+l.l.m+d@e@f@;@;@1@|@[@}@-@-@-@-@-@-@-@2@g@h@i@% % < ~@        ",
"        A+B+% % % % j@k@l@m@n@o@F.<.V <.<.G.:._.(._.+@H.p@-+G.l.S _@q@r@s@>@;@-@-@t@1@[@}@>@-@-@-@-@-@-@-@2@u@v@% < ~@          ",
"          A+B+% w@x@y@z@A@B@C@D@*+V V <.;+@+(.l.l.l.l.c@_.i.:.;+S j.E@F@}@}@}@[@-@-@-@>@}@>@-@-@-@-@-@-@-@2@G@H@< ~@            ",
"            A+B+I@J@K@L@M@N@O@P@q@I.l.Q@R@l.S@8+(.(._._._@F.].]._.T@U@;@2@[@-@-@-@-@-@-@[@>@-@-@-@-@-@-@>@}@V@W@~@              ",
"              A+X@Y@Z@`@ #.#+#n++@@###$#%#l.&#.@(.j.j.H.*#j./.:.=#-#>@>@-@-@-@-@-@-@-@-@>@-@-@-@-@-@-@-@&@;#>#,#                ",
"                A+'#)#!#~#{#]#^#/#(#_#,@:#l.l.<#[#[#i.<#].].}#|#1#,@}@[@-@-@-@-@-@-@-@-@-@-@-@-@-@-@2#O+3#>@4#5#                ",
"                  A+6#*   7#8#9#0#a#O+,@b#<.k.@@l.l.l.l.l.c#d#e#a#}@[@>@-@-@-@-@-@-@-@-@-@-@-@-@;@f@f#&@>@>@4#g#                ",
"                    W+    h#i#j#k#l#,@m#n#o#(.@@l.l.l.l.c#p#q#2#*@}@>@-@-@-@-@-@-@-@-@-@-@-@r#s#t#-@-@-@-@-@u#v#                ",
"                    W+      #.w#x#a#;#}@m#y#_.@@l.l.9+z#A#N+;@-@-@-@-@-@-@-@-@-@-@-@-@-@&@N+O+&@[@-@-@2#f@-@B#C#                ",
"                  ) B+'       D#E#F#G#q#*@H#I#J#K#T@L#O+-@-@-@-@-@-@-@-@-@-@-@-@-@2#N+N+&@[@-@-@-@2@-@f@f@;@M#N#                ",
"                ) % % % '       O#P#Q#R#S#>@;@;@;@>@>@>@[@2@2@-@-@-@-@-@-@-@,@q#N+&@>@>@-@[@-@-@-@2@;@P+>@T#U#V#                ",
"              ) % % % % % '     W#X#Y#q#q#*@Z#-@-@}@}@|@`#`#1@-@-@;@f@q#N+O+&@-@}@|@}@}@}@>@-@-@-@ $,@-@-@.$+$@$                ",
"            #$% % % % % % % '     $$%$&$*$N+f@;@=$2#;@ $-$-$-@;$f@f@;@>@}@}@>@-@[@>@}@}@}@-@-@-@-@,@>@-@>$,$'$< z+              ",
"          #$% % % % % % % % % '     )$!$~$N+-@-@-@>@>@>@-@-@-@[@[@}@}@}@}@[@}@}@}@}@}@}@}@>@-@;@&@*@[@}@{$]$! % < z+            ",
"        #$% % % % % % % % % % % '     ^$/$($N+-@Z#-@-@-@-@-@-@>@}@}@}@}@[@>@}@}@}@}@}@}@}@>@2#O+>@_$}@:$<$[$% % % < z+          ",
"      #$% % % % % % % % % % % % % '   3 }$|$&@1$O+-@-@-@-@-@-@-@-@-@-@-@-@}@}@}@}@}@}@}@*@2$-@}@_$}@3$4$5$% % % % % < z+        ",
"    #$% % % % % % % % % % % % % % % '   6$7$-@-@*@O+8$2#-@-@-@-@-@-@-@-@-@-@}@}@}@}@9$0$a$b$c$}@d$e$f$g$! % % % % % % < z+      ",
"  #$% % % % % % % % % % % % % % % % % ' W#h$i$-@-@;@N+M+M+j$8$=$;@;@;@;@;@&@N+k$l$m$n$o$p$q$r$s$t$u$v$+ % % % % % % % % < z+    ",
"A+% % % % % % % % % % % % % % % % % % % w$x$y$ $-@z$1@f@f@O+O+f@;@&@&@,@-$A$B$C$D$E$F$G$H$ $I$I$J$K$} % % % % % % % % % % < L$* ",
"M$C % % % % % % % % % % % % % % % % % < ) N$O$P$-@-@-@-@-@;@;@-@9$Q$R$S$T$U$V$W$~#} X$Y$Z$`$ %.%+%@%% % % % % % % % % % % #%# $%",
"  M$C % % % % % % % % % % % % % % % < ) ! % %%&% $T#[@=@2@-@ $*%=%-%;%>%,%'%)%  | % !%~%{%]%^%/%(%% % % % % % % % % % % #%#     ",
"    M$C % % % % % % % % % % % % % < ) ! % % _%:%<%-@T#}@|@1@[%}%E |%1%2%      | % % 3%4%5%6%7%} % % % % % % % % % % % #%#       ",
"      M$C % % % % % % % % % % % < ) ! % % % < 8%9%}@}@}@}@Z#0%a%            | % % % b%c%d%!#B+% % % % % % % % % % % #%#         ",
"        e%C % % % % % % % % % < ) ! % % % % % f%g%}@}@}@}@}@h%i%          | % % % % % % % [ #$6#% % % % % % % % % #%#           ",
"          e%C % % % % % % % < ) ! % % % % % % j%k%1@1@_$l%m%n%o%        | % % % % % % % % % [ #$6#% % % % % % % #%#             ",
"            e%C % % % % % < ) ! % % % % % % % > p%q%r%s%t%u%v%W#      | % % % % % % % % % % % [ #$6#% % % % % #%#               ",
"              e%C % % % < Y+! % % % % % % % % % w%x%y%z%A%B%        | % % % % % % % % % % % % % [ #$6#% % % #%#                 ",
"                e%C % < Y+! % % % % % % % % % % @ (%> % % X+      | % % % % % % % % % % % % % % % [ #$6#% ; #                   ",
"                  e%Z+Y+! % % % % % % % % % % % % % % % % % X+1 | % % % % % % % % % % % % % % % % % $ #$; #                     ",
"                      ; % % % % % % % % % % % % % % % % % % % C%% % % % % % % % % % % % % % % % % % % *                         ",
"                      e%C % % % % % % % % % % % % % % % % % ~   , % % % % % % % % % % % % % % % % % ; #                         ",
"                        e%> % % % % % % % % % % % % % % % ~       , % % % % % % % % % % % % % % % ; #                           ",
"                          e%> % % % % % % % % % % % % % ~           , % % % % % % % % % % % % % ; #                             ",
"                            e%> % % % % % % % % % % % ~               , % % % % % % % % % % % ; #                               ",
"                              e%> % % % % % % % % % ~                   + % % % % % % % % % ; #                                 ",
"                                e%> % % % % % % % ~                       + % % % % % % % ; #                                   ",
"                                  e%> % % % % % ~                           + % % % % % ; #                                     ",
"                                    e%> % % % ~                               + % % % ; #                                       ",
"                                      e%> % ~                                   + % ; #                                         ",
"                                        . +                                       @ #                                           "};
