/* XPM */
static char * collecf1_xpm[] = {
"64 64 544 2",
"  	c #1737EA",
". 	c #1838EB",
"+ 	c #1939EC",
"@ 	c #1636E9",
"# 	c #060A13",
"$ 	c #070C15",
"% 	c #0F171E",
"& 	c #1A1917",
"* 	c #443F24",
"= 	c #817D4D",
"- 	c #A9A34F",
"; 	c #B8B25E",
"> 	c #9D9555",
", 	c #36352B",
"' 	c #171410",
") 	c #474224",
"! 	c #7F7A53",
"~ 	c #A8A570",
"{ 	c #86824F",
"] 	c #44402F",
"^ 	c #13171B",
"/ 	c #162027",
"( 	c #162129",
"_ 	c #151E28",
": 	c #0D131B",
"< 	c #1C222A",
"[ 	c #1C222B",
"} 	c #101E27",
"| 	c #0E1721",
"1 	c #0B0D14",
"2 	c #090F19",
"3 	c #121B25",
"4 	c #1A2025",
"5 	c #635D32",
"6 	c #AFA94E",
"7 	c #E0DD5F",
"8 	c #F5F352",
"9 	c #F8F551",
"0 	c #CEC744",
"a 	c #706521",
"b 	c #5C5021",
"c 	c #AFAA4C",
"d 	c #D9D464",
"e 	c #F4F356",
"f 	c #FCFB4E",
"g 	c #FCFD43",
"h 	c #FBFB4F",
"i 	c #F4F264",
"j 	c #DEDA64",
"k 	c #C6C05F",
"l 	c #BDB95B",
"m 	c #A39F6C",
"n 	c #373220",
"o 	c #B3AC5D",
"p 	c #E6E46F",
"q 	c #E7E466",
"r 	c #E6E064",
"s 	c #DFDB63",
"t 	c #CBC661",
"u 	c #B2AD52",
"v 	c #8C8755",
"w 	c #575133",
"x 	c #151412",
"y 	c #36301B",
"z 	c #BDB851",
"A 	c #F7F64A",
"B 	c #FDFD3B",
"C 	c #FDFD39",
"D 	c #FBFA3A",
"E 	c #9D953C",
"F 	c #665E2D",
"G 	c #C5BE5D",
"H 	c #F6F351",
"I 	c #FDFE39",
"J 	c #FDFE2E",
"K 	c #FDFF2B",
"L 	c #FDFF2A",
"M 	c #FDFE2F",
"N 	c #FEFE35",
"O 	c #FDFE37",
"P 	c #F8F73B",
"Q 	c #A8A04C",
"R 	c #5E5729",
"S 	c #E7E33B",
"T 	c #FDFD32",
"U 	c #FEFD30",
"V 	c #FEFD2F",
"W 	c #FEFD31",
"X 	c #FCFD39",
"Y 	c #FDFC37",
"Z 	c #FBFA51",
"` 	c #F6F460",
" .	c #D4CF5F",
"..	c #959059",
"+.	c #423B21",
"@.	c #070A12",
"#.	c #1E1C17",
"$.	c #CBC751",
"%.	c #FBFC3F",
"&.	c #FEFD39",
"*.	c #CEC955",
"=.	c #655C29",
"-.	c #D9CE49",
";.	c #D6CD2A",
">.	c #FDFE30",
",.	c #FEFD35",
"'.	c #FEFE33",
").	c #FCFE32",
"!.	c #FCFD31",
"~.	c #FDFE31",
"{.	c #FDFC3D",
"].	c #FDFD36",
"^.	c #DED951",
"/.	c #766B2C",
"(.	c #938C41",
"_.	c #EEEB56",
":.	c #FDFD35",
"<.	c #FDFD2F",
"[.	c #FEFE2F",
"}.	c #FCFD2F",
"|.	c #FCFE2E",
"1.	c #FCFE33",
"2.	c #EDE869",
"3.	c #B5B05D",
"4.	c #4D4A2F",
"5.	c #19242B",
"6.	c #9D9437",
"7.	c #FBFB42",
"8.	c #FDFD30",
"9.	c #FEFE30",
"0.	c #D2CD53",
"a.	c #6C611B",
"b.	c #E4D532",
"c.	c #7B7346",
"d.	c #AAA21F",
"e.	c #F6F435",
"f.	c #FDFE32",
"g.	c #FBF937",
"h.	c #B7AE33",
"i.	c #5C5227",
"j.	c #C9C351",
"k.	c #FAF949",
"l.	c #FEFF31",
"m.	c #FEFF30",
"n.	c #FEFE2E",
"o.	c #FEFF2E",
"p.	c #FCFD32",
"q.	c #FCFC42",
"r.	c #EBE670",
"s.	c #A59F63",
"t.	c #2E2A21",
"u.	c #2D2818",
"v.	c #E7E341",
"w.	c #FCFC30",
"x.	c #FAF74C",
"y.	c #78703A",
"z.	c #9C8C1E",
"A.	c #DBCC4F",
"B.	c #A99E4E",
"C.	c #766927",
"D.	c #CDC829",
"E.	c #F9F739",
"F.	c #FDFD31",
"G.	c #EAE43B",
"H.	c #887D1D",
"I.	c #857D41",
"J.	c #EBE64D",
"K.	c #FDFD34",
"L.	c #FDFF2E",
"M.	c #FCFE31",
"N.	c #FDFE34",
"O.	c #FEFF2F",
"P.	c #FCFD34",
"Q.	c #FAFA53",
"R.	c #D0CC74",
"S.	c #565340",
"T.	c #7E741E",
"U.	c #FCFD36",
"V.	c #FDFE2C",
"W.	c #FEFE31",
"X.	c #EBE867",
"Y.	c #8E874C",
"Z.	c #564912",
"`.	c #B4A730",
" +	c #D5C744",
".+	c #BBB263",
"++	c #CCC148",
"@+	c #E8E23E",
"#+	c #AAA039",
"$+	c #514417",
"%+	c #B7AC44",
"&+	c #F8F649",
"*+	c #FEFF2D",
"=+	c #FCFE2C",
"-+	c #FDFF2D",
";+	c #FDFE33",
">+	c #FCFA4E",
",+	c #E0DC79",
"'+	c #625D36",
")+	c #9C941C",
"!+	c #FDFE2D",
"~+	c #FDFE2B",
"{+	c #FEFE2C",
"]+	c #FBFA53",
"^+	c #DFDB6C",
"/+	c #968F4D",
"(+	c #5B512A",
"_+	c #75651D",
":+	c #756925",
"<+	c #4D421B",
"[+	c #9F9545",
"}+	c #E3DE4C",
"|+	c #FCFD30",
"1+	c #FCFE2D",
"2+	c #FCFE2F",
"3+	c #FEFE32",
"4+	c #FDFF30",
"5+	c #FDFC39",
"6+	c #DCD871",
"7+	c #353228",
"8+	c #989123",
"9+	c #FBFB30",
"0+	c #FCFB42",
"a+	c #F1EF65",
"b+	c #D3D06A",
"c+	c #D1CC52",
"d+	c #F1EB4F",
"e+	c #FDFD3A",
"f+	c #FDFF2C",
"g+	c #FCFC44",
"h+	c #B9B360",
"i+	c #0E1419",
"j+	c #161F28",
"k+	c #2E2509",
"l+	c #5E5514",
"m+	c #8B8220",
"n+	c #C4BE28",
"o+	c #F7F72D",
"p+	c #FDFE3D",
"q+	c #FDFF2F",
"r+	c #F7F55B",
"s+	c #5E5C40",
"t+	c #131C23",
"u+	c #5F6E73",
"v+	c #B3CACE",
"w+	c #CAE1E5",
"x+	c #B2CACE",
"y+	c #646F70",
"z+	c #796E13",
"A+	c #F7F534",
"B+	c #FDFE36",
"C+	c #FEFF32",
"D+	c #FCFB31",
"E+	c #BCB448",
"F+	c #000000",
"G+	c #4C575C",
"H+	c #D7EDF0",
"I+	c #CFEDF0",
"J+	c #C8E6EA",
"K+	c #B4D0D7",
"L+	c #BBDBE0",
"M+	c #464D51",
"N+	c #E1DC32",
"O+	c #FDFC2E",
"P+	c #FDFC31",
"Q+	c #FDFB2E",
"R+	c #FAF132",
"S+	c #EBDC41",
"T+	c #060300",
"U+	c #778A8F",
"V+	c #D3EFF2",
"W+	c #BCDCE1",
"X+	c #AEC7D0",
"Y+	c #B7D3DA",
"Z+	c #8CA5AA",
"`+	c #766D32",
" @	c #F7F63B",
".@	c #FDFD2D",
"+@	c #FDFC33",
"@@	c #FAF22D",
"#@	c #F8E427",
"$@	c #FAD624",
"%@	c #F6CF25",
"&@	c #3F3303",
"*@	c #202A31",
"=@	c #9DB6BB",
"-@	c #B8D2D8",
";@	c #ABC9CE",
">@	c #798B8F",
",@	c #6D6432",
"'@	c #EDE951",
")@	c #FEFF2C",
"!@	c #FCFA2E",
"~@	c #F8EB2A",
"{@	c #F7DD25",
"]@	c #F8D724",
"^@	c #FAD124",
"/@	c #F9CF24",
"(@	c #604F07",
"_@	c #151E24",
":@	c #172027",
"<@	c #121A23",
"[@	c #11171E",
"}@	c #A7992D",
"|@	c #F9F32E",
"1@	c #FCFA32",
"2@	c #FDFD2E",
"3@	c #F9EC2B",
"4@	c #F7DA25",
"5@	c #F7D624",
"6@	c #F9D324",
"7@	c #FBD024",
"8@	c #806B0D",
"9@	c #1A3AED",
"0@	c #493D10",
"a@	c #E4D325",
"b@	c #F9F333",
"c@	c #FCFA2F",
"d@	c #FDFD33",
"e@	c #FCF92E",
"f@	c #F9F02B",
"g@	c #F6DD25",
"h@	c #F9D124",
"i@	c #907810",
"j@	c #2E3136",
"k@	c #A49623",
"l@	c #F4E42B",
"m@	c #F5EC2C",
"n@	c #FBF82D",
"o@	c #F9F42B",
"p@	c #FBF832",
"q@	c #FBF82E",
"r@	c #FAF42D",
"s@	c #F8E528",
"t@	c #F8D624",
"u@	c #FAD024",
"v@	c #F8D324",
"w@	c #F8D424",
"x@	c #917910",
"y@	c #342A11",
"z@	c #E1C422",
"A@	c #F5D923",
"B@	c #F6E72B",
"C@	c #F3E023",
"D@	c #FAF42B",
"E@	c #FAF52C",
"F@	c #F7E429",
"G@	c #F8D824",
"H@	c #F9D025",
"I@	c #F9D224",
"J@	c #F8D024",
"K@	c #685609",
"L@	c #212C34",
"M@	c #796712",
"N@	c #F5D325",
"O@	c #F9D524",
"P@	c #F8D526",
"Q@	c #F8EC2C",
"R@	c #FCFB2E",
"S@	c #FCF72C",
"T@	c #FBF32C",
"U@	c #F8E428",
"V@	c #F9DF26",
"W@	c #F6D723",
"X@	c #FAD025",
"Y@	c #F1C923",
"Z@	c #251D01",
"`@	c #1C1B1D",
" #	c #BAA21F",
".#	c #F7D926",
"+#	c #FBFA2D",
"@#	c #FAF52D",
"##	c #FAF02B",
"$#	c #F8EA2A",
"%#	c #F9E326",
"&#	c #F9D925",
"*#	c #FACF25",
"=#	c #F9D125",
"-#	c #F9D424",
";#	c #F9D127",
">#	c #DFCA47",
",#	c #43380E",
"'#	c #E3C722",
")#	c #FAD526",
"!#	c #F9D326",
"~#	c #F8D524",
"{#	c #F7DF27",
"]#	c #F5E226",
"^#	c #F7E027",
"/#	c #F8E027",
"(#	c #F7DE27",
"_#	c #F7D723",
":#	c #F7D423",
"<#	c #F8D423",
"[#	c #F7D524",
"}#	c #F9D22C",
"|#	c #A59942",
"1#	c #141B23",
"2#	c #7C6A16",
"3#	c #F4D12D",
"4#	c #F8D529",
"5#	c #F7D623",
"6#	c #FAD224",
"7#	c #DAC141",
"8#	c #372D12",
"9#	c #170A06",
"0#	c #AD9B22",
"a#	c #F9D626",
"b#	c #FBCF25",
"c#	c #E2C439",
"d#	c #645819",
"e#	c #2E2405",
"f#	c #D4B629",
"g#	c #F9D229",
"h#	c #D4B832",
"i#	c #574B17",
"j#	c #504309",
"k#	c #EDC624",
"l#	c #F6D623",
"m#	c #FBD025",
"n#	c #EFD23B",
"o#	c #A79730",
"p#	c #2D2205",
"q#	c #7E6C14",
"r#	c #F4CE26",
"s#	c #F6D823",
"t#	c #F5D823",
"u#	c #F7D32A",
"v#	c #CEB933",
"w#	c #665617",
"x#	c #0B0507",
"y#	c #140604",
"z#	c #B69C1E",
"A#	c #FACF27",
"B#	c #FACF26",
"C#	c #F9D126",
"D#	c #F5CE25",
"E#	c #C6AD2B",
"F#	c #786C1A",
"G#	c #1B1309",
"H#	c #24262A",
"I#	c #3E3309",
"J#	c #EAC72B",
"K#	c #F8D229",
"L#	c #E2BF24",
"M#	c #AA962A",
"N#	c #594D11",
"O#	c #5D521F",
"P#	c #716D56",
"Q#	c #080E13",
"R#	c #150706",
"S#	c #BEA424",
"T#	c #DBBD28",
"U#	c #C7A81F",
"V#	c #E8C424",
"W#	c #F3CD25",
"X#	c #F9D225",
"Y#	c #ECC724",
"Z#	c #D2B121",
"`#	c #AA941D",
" $	c #706214",
".$	c #392E12",
"+$	c #817339",
"@$	c #BEAF50",
"#$	c #DCCA49",
"$$	c #6E6535",
"%$	c #7B6C18",
"&$	c #F7D229",
"*$	c #F7D12C",
"=$	c #D8BC43",
"-$	c #9D8C43",
";$	c #6D6334",
">$	c #73631A",
",$	c #978217",
"'$	c #B39B1C",
")$	c #BDA21E",
"!$	c #C4A722",
"~$	c #C4A51F",
"{$	c #BFA11D",
"]$	c #AB911B",
"^$	c #937C16",
"/$	c #605110",
"($	c #322806",
"_$	c #140904",
":$	c #19110D",
"<$	c #696345",
"[$	c #BAAE50",
"}$	c #A59735",
"|$	c #796C1B",
"1$	c #3A300E",
"2$	c #3C320A",
"3$	c #EFC724",
"4$	c #F9D02D",
"5$	c #EFD55A",
"6$	c #CBB458",
"7$	c #A89A4E",
"8$	c #2E291B",
"9$	c #100D0D",
"0$	c #140D12",
"a$	c #160804",
"b$	c #C9AE25",
"c$	c #D6BD48",
"d$	c #251C0B",
"e$	c #8B7514",
"f$	c #FBD026",
"g$	c #F4CC26",
"h$	c #AA993D",
"i$	c #433912",
"j$	c #F2CB2B",
"k$	c #ECC525",
"l$	c #C9AD27",
"m$	c #988722",
"n$	c #584C10",
"o$	c #241904",
"p$	c #1A110D",
"q$	c #63571A",
"r$	c #372C0E",
"s$	c #160D0C",
"t$	c #1535E8",
"u$	c #1437E9",
"v$	c #1637E8",
"w$	c #1336E8",
"x$	c #1437EB",
"y$	c #1338EB",
"z$	c #1637E6",
"A$	c #1736E6",
"B$	c #1736E8",
"C$	c #1536E7",
"D$	c #1636ED",
"E$	c #1635EF",
"F$	c #1636EB",
"G$	c #1635E7",
"H$	c #1635E5",
"I$	c #1536E5",
"J$	c #1436EF",
"K$	c #1436F0",
"L$	c #1635F0",
"M$	c #1636E3",
"N$	c #1536E3",
"O$	c #1438E8",
"P$	c #1436ED",
"Q$	c #1735E5",
"R$	c #1636E1",
"S$	c #1338E8",
"                                          . . . .         . . . . . . . . . . . . . . . . . . . . . . + + + + + + + + + + + + + ",
"                                              . .         . . . . . . . . . . . . . . . . . . . . . . + + + + + + + + + + + + + ",
"@                                       . .                       . . . . . . . . . . . . . . . . . . . . . + + + + + + + + + + ",
"@                                                                 . . . . . . . . . . . . . . . . . . . . . + + + + + + + + + + ",
"@                                                                 . . . . . . . . . . . . . . . . . . . . . + + + + + + + + + + ",
"                                                                        . . . . . . . . . . . . . . . . . . + + + + + + + + + + ",
"                                                                          . . . . . . . . . . . . . . . . . + + + + + + + + + + ",
"                                      @ @ @ @                               . . . . . . . . . . . . . . . . + + + + + + + + + + ",
"                                      @ @ @ @                     @         . . . . . . . . . . . . . . . . + + + + + + + + + + ",
"                                      @ @ @ @                     @ @       . . . . . . . . . . . . . . . . + + + + + + + + + + ",
"                                  @ @ @ @ @ @ @ @                                 . . . . . . . . . . . . . . . . + + + + + + + ",
"                                  @ @ @ @ @ @ @ @                                 . . . . . . . . . . . . . . . . + + + + + + + ",
"                          @ @ @ @ @ @ @ @ @ @ @ @                                 . . . . . . . . . . . . . . . . + + + + + + + ",
"                          @ @ @ @ @ @ @ @ @ @ @ @                                 . . . . . . . . . . . . . . . . + + + + + + + ",
"                        @ @ @ @ @ @ @ @ @ # $ @ @                                     . . . . . . . . . . . . . . + + + + + + + ",
"                      @ @ @ @ @ % & * = - ; > , ' ) ! ~ { ] ^ / ( _ : < [ } | 1 2 3     . . . . . . . . . . . . . + + + + + + + ",
"                  @ @ @ @ @ 4 5 6 7 8 9 0 a b c d e f g h i j k l m n o p q r s t u v w x . . . . . . . . . . . . + + + + + + + ",
"                  @ @ @ @ y z A B C D E F G H I J K L L K M N O P Q R S T U V W X Y Z `  ...+.@.. . . . . . . . . + + + + + + + ",
"              @ @ @ @ @ #.$.%.J U &.*.=.-.;.>.,.W '.).!.~.{.].^./.(._.:.<.[.U J }.<.|.|.1.Z 2.3.4.. . . . . . . . + + + + + + + ",
"            @ @ @ @ @ 5.6.7.8.9.).~.0.a.b.c.d.e.f.J |.U U g.h.i.j.k.[.[.f.l.m.J M n.[.o.J <.p.q.r.s.t.. . . . . . . + + + + + + ",
"            @ @ @ @ @ u.v.U W !.w.M x.y.z.A.B.C.D.E.}.F.G.H.I.J.F.K.f.[.L.L.X M.N.O.o.o.o.L.J |.P.Q.R.S.. . . . . . . + + + + + ",
"          @ @ @ @ @ @ T.U.V.J V U [.W.X.Y.Z.`. +.+++@+#+$+%+&+[.8.U T F.o.*+=+-+-+1.;+O.o.[.[.|.|.|.>+,+'+. . . . . . + + + + + ",
"        @ @ @ @ @ @ @ )+K !+K ~+{+[.U [.]+^+/+(+_+:+<+[+}+|+1+J 2+!+3+o.o.~.!+o.n.o.O.4+;+9.o.|.|.|.2+5+6+7+. . . . . . + + + + ",
"    @ @ @ @ @ @ @ @ @ 8+9+>.L K V.[.U U J T 0+a+b+c+d+e+J 1+|.~.l.o.o.l.f.|.f+o.U o.o.[.J ).l.|.|.|.|.|.g+h+i+. . . . + + + + . ",
"  @ @ @ @ @ @ @ @ @ j+k+l+m+n+o+>.[.U [.[.;+L.J M J T ~.p+;+f.o.2+q+3+W.f+f+L.o.o.o.o.o.o.M >.;+o.o.o.o.2+r+s+. . + + + + + . . ",
"  @ @ @ @ @ @ @ @ t+u+v+w+x+y+z+A+U U [.O.B+M o.o.o.o.C+J -+L.O.2+!+n.n.o.o.o.o.o.o.o.o.o.o.o.[.B+o.o.o.!+D+E+F+. + + + + . .   ",
"@ @ @ @ @ @ @ @ @ G+H+I+J+K+L+M+N+W.o.o.o.o.O+P+M M J J q+>.K K J J o.o.o.o.o.o.o.o.o.o.o.o.o.o.O.;+o.o.Q+R+S+T+  + . . . . . . ",
"@ @ @ @ @ @ @ @ @ U+V+W+X+Y+Z+`+ @O.o.o.o.o..@V.M !+!+~.4+!+|.L.o.o.o.o.o.o.o.o.o.o.o.o.o.o.o.o.o.J +@@@#@$@%@&@  . . . . . . . ",
"@ @ @ @ @ @ @ @ @ *@=@-@;@>@,@'@O o.o.o.o.o.o.f+)@)@-+f+K K -+-+o.o.o.o.o.o.o.o.o.o.o.o.o.o.o.o.o.!@~@{@]@^@/@(@  . . . . + + + ",
"@ @ @ @ @ @ @ @ @ @ _@:@<@[@}@|@1@<.o.o.[.[.n.*+o.o.o.o.o.o.o.o.o.o.o.o.o.o.o.o.o.o.o.o.o.o.o.2@3@4@5@6@^@^@7@8@  . . . . + + 9@",
"@ @ @ @ @ @ @ @ @ @ @ @ @ @ 0@a@b@c@o.f+J d@M *+o.o.o.o.[.[.o.o.o.o.o.o.o.o.o.o.o.o.o.o.o.e@f@g@$@h@h@h@h@h@h@i@      . . + + 9@",
"@ @ @ @ @ @ @ @ @ @ @ @ @ @ j@k@l@m@n@o@p@|.o.*+o.o.o.o.o.o.o.o.o.o.o.o.o.o.o.o.o.2@q@r@s@4@t@6@u@h@h@v@w@h@h@x@      . . . + + ",
"@ @ @ @ @ @ @ @ @ @ @ @ @ @ @ y@z@A@B@C@D@f.f+*+o.o.o.o.o.o.o.o.o.o.o.o.o.o.o.n.E@F@G@t@6@u@h@h@h@H@h@w@w@I@J@K@        . . . + ",
"@ @ @ @ @ @ @ @ @ @ @ @ @ @ @ L@M@N@O@P@Q@N.K o.o.o.o.[.o.o.o.o.o.o.o.R@S@T@U@V@t@6@^@^@h@u@h@h@h@H@I@W@^@X@Y@Z@          . . . ",
"@ @ @ @ @ @ @ @ @ @ @ @ @ @ @ @ `@ #]@O@.#Q@+#o.o.o.o.o.J @#@@####$#%#&#]@t@6@h@7@*#7@7@7@^@h@h@h@=#-#h@h@;#>#F+          . . . ",
"@ @ @ @ @ @ @ @ @ @ @ @ @ @ @ @ @ ,#'#)#!#~#G@{#]#^#/#/#(#_#:#<#[#~#I@^@7@7@^@h@u@^@7@7@7@h@h@h@I@-#^@h@h@}#|#F+          . . . ",
"@ @ @ @ @ @ @ @ @ @ @ @ @ @ @ @ @ 1#2#3#4#~#h@h@h@^@^@^@h@h@h@u@u@7@7@7@7@u@7@7@7@7@7@7@7@^@h@I@5#6#u@7@X@7#8#              . . ",
"@ @ @ @ @ @ @ @ @ @ @ @ @ @ @ @ @ @ 9#0#a#]@~#h@X@h@h@h@h@h@h@^@7@7@7@7@u@^@7@7@7@7@7@7@7@^@v@t@^@b#7@u@c#d#                  . ",
"@ @ @ @ @ @ @ @ @ @ @ @ @ @ @ @ @ @ @ e#f#6@6@5#t@h@h@h@h@h@h@h@h@h@h@h@h@7@7@7@7@7@7@7@6#O@6#7@b#7@g#h#i#                      ",
"@ @ @ @ @ @ @ @ @ @ @ @ @ @ @ @ @ @ @ @ j#k#h@h@6#t@l#v@h@h@h@h@h@h@h@h@h@h@7@7@7@7@^@I@I@I@X@7@m#n#o#p#                        ",
"@ @ @ @ @ @ @ @ @ @ @ @ @ @ @ @ @ @ @ @ @ q#r#h@h@I@~#s#s#t#l#:#I@I@I@I@I@6@~#<#6@-#I@^@*#X@=#u#v#w#x#                          ",
"@ @ @ @ @ @ @ @ @ @ @ @ @ @ @ @ @ @ @ @ @ y#z#=#h@A#B#w@w@t@t@w@I@6@-#-#6@6#I@h@h@X@H@h@C#D#E#F#G#H#                            ",
"@ @ @ @ @ @ @ @ @ @ @ @ @ @ @ @ @ @ @ @ @ @ I#J#h@h@h@h@h@I@I@h@h@h@h@h@h@h@h@h@h@=#K#L#M#N#O#P#Q#                              ",
"@ @ @ @ @ @ @ @ @ @ @ @ @ @ @ @ @ @ @ @ @ @ R#S#=#T#U#V#W#X#I@h@h@h@h@h@h@h@%@Y#Z#`# $.$+$@$#$$$                                ",
"@ @ @ @ @ @ @ @ @ @ @ @ @ @ @ @ @ @ @ @ @ @ @ %$&$*$=$-$;$>$,$'$)$!$~${$]$^$/$($_$:$<$[$}$|$1$                                  ",
"@ @ @ @ @ @ @ @ @ @ @ @ @ @ @ @ @ @ @ @ @ @ @ 2$3$7@7@4$5$6$7$8$@ @ @ @ @           9$0$                                        ",
"@ @ @ @ @ @ @ @ @ @ @ @ @ @ @ @ @ @ @ @ @ @ @ a$b$7@7@7@7@7@c$d$@ @ @ @ @                                                       ",
"@ @ @ @ @ @ @ @ @ @ @ @ @ @ @ @ @ @ @ @ @ @ @ @ e$B#B#b#f$g$h$@ @ @ @ @ @                                                       ",
"@ @ @ @ @ @ @ @ @ @ @ @ @ @ @ @ @ @ @ @ @ @ @ @ i$j$k$l$m$n$o$@ @ @ @ @ @                                                       ",
"@ @ @ @ @ @ @ @ @ @ @ @ @ @ @ @ @ @ @ @ @ @ @ @ p$q$r$s$@ @ @ @ @ @ @ @ @                                                       ",
"t$@ @ @ @ @ @ @ @ @ @ @ @ @ @ @ @ @ @ @ @ @ @ @ @ @ @ @ @ @ @ @ @ @ @ @ @ @ @ @ @                                               ",
"t$@ @ @ @ @ @ @ @ @ @ @ @ @ @ @ @ @ @ @ @ @ @ @ @ @ @ @ @ @ @ @ @ @ @ @ @ @ @ @ @                                               ",
"t$@ @ @ @ @ @ @ @ @ @ @ @ @ @ @ @ @ @ @ @ @ @ @ @ @ @ @ @ @ @ @ @ @ @ @ @ @ @ @ @                                               ",
"t$@ @ @ @ @ @ @ @ @ @ @ @ @ @ @ @ @ @ @ @ @ @ @ @ @ @ @ @ @ @ @ @ @ @ @ @ @ @ @ @                                               ",
"t$@ @ @ @ @ @ @ @ @ @ @ @ @ @ @ @ @ @ @ @ @ @ @ @ @ @ @ @ @ @ @ @ @ @ @ @ @ @ @ @                                               ",
"t$@ @ @ @ @ @ @ @ @ @ @ @ @ @ @ @ @ @ @ @ @ @ @ @ @ @ @ @ @ @ @ @ @ @ @ @ @ @ @ @                                               ",
"t$@ @ @ @ @ @ @ @ @ @ @ @ @ @ @ @ @ @ @ @ @ @ @ @ @ @ @ @ @ @ @ @ @ @ @ @ @ @ @ @                                               ",
"t$@ u$@ @ @ v$v$v$@ @ @ @ @ @ @ @ @ @ @ @ @ @ @ @ @ @ @ @ @ @ @ @ @ @ @ @ @ @ @ @                                               ",
"w$x$y$x$u$v$z$A$A$v$@ @ @ @ @ @ @ @ @ @ @ @ @ @ @ @ @ @ @ @ @ @ @ @ @ @ @ @ @ @ @                                               ",
"w$x$y$y$u$u$v$B$B$@ @ @ @ @ @ @ @ @ @ @ @ @ @ @ @ @ @ @ @ @ @ @ @ @ @ @ @ @ @ @ @                                               ",
"C$t$u$u$x$x$D$E$E$F$@ @ @ @ @ @ @ @ @ @ @ @ @ @ @ @ @ @ @ @ @ @ @ @ @ @ @ @ @ @ @                                               ",
"G$H$I$C$u$x$J$K$L$F$@ @ @ @ @ @ @ @ @ @ @ @ @ @ @ @ @ @ @ @ @ @ @ @ @ @ @ @ @ @ @ @                                             ",
"H$M$N$N$I$O$x$P$P$F$@ @ @ @ @ @ @ @ @ @ @ @ @ @ @ @ @ @ @ @ @ @ @ @ @ @ @ @ @ @ @ @ @ @                                         ",
"Q$M$R$M$N$I$O$S$S$@ @ @ @ @ @ @ @ @ @ @ @ @ @ @ @ @ @ @ @ @ @ @ @ @ @ @ @ @ @ @ @ @ @ @ @                                       "};
