/* XPM */
static char * collecf3_xpm[] = {
"64 64 463 2",
"  	c #1737EA",
". 	c #1838EB",
"+ 	c #1939EC",
"@ 	c #1636E9",
"# 	c #1F1C13",
"$ 	c #58543D",
"% 	c #746F45",
"& 	c #5D5A49",
"* 	c #39372F",
"= 	c #3D361D",
"- 	c #ACA750",
"; 	c #E1DD68",
"> 	c #F7F459",
", 	c #F7F550",
"' 	c #C4BD5A",
") 	c #635E42",
"! 	c #353020",
"~ 	c #827D51",
"{ 	c #A19C68",
"] 	c #5E5C44",
"^ 	c #070D15",
"/ 	c #0A0B13",
"( 	c #25211D",
"_ 	c #383528",
": 	c #666240",
"< 	c #726F46",
"[ 	c #7C7545",
"} 	c #777244",
"| 	c #5E5833",
"1 	c #363121",
"2 	c #181614",
"3 	c #1B1A19",
"4 	c #979141",
"5 	c #ECE94E",
"6 	c #FCFD3F",
"7 	c #FCFE2F",
"8 	c #DED73C",
"9 	c #71671C",
"0 	c #776E35",
"a 	c #C5BD55",
"b 	c #DDD555",
"c 	c #B2A942",
"d 	c #676036",
"e 	c #58502D",
"f 	c #928C4C",
"g 	c #BFBA5B",
"h 	c #D6D158",
"i 	c #EBE763",
"j 	c #F4F25D",
"k 	c #FAFA4A",
"l 	c #FBFC4A",
"m 	c #FBFC46",
"n 	c #FCFC4C",
"o 	c #FAF949",
"p 	c #F2EF69",
"q 	c #DEDA69",
"r 	c #B7B162",
"s 	c #6A643A",
"t 	c #181718",
"u 	c #38494F",
"v 	c #33301F",
"w 	c #C0B94B",
"x 	c #FBFA44",
"y 	c #FDFE38",
"z 	c #FDFF2E",
"A 	c #E0DC3A",
"B 	c #4F4312",
"C 	c #BFB960",
"D 	c #D6CD54",
"E 	c #958B2C",
"F 	c #4D4426",
"G 	c #948D44",
"H 	c #D0CE5C",
"I 	c #F6F557",
"J 	c #FCFD47",
"K 	c #FEFE34",
"L 	c #FDFE36",
"M 	c #FCFE2E",
"N 	c #FCFE33",
"O 	c #FDFD31",
"P 	c #FEFD30",
"Q 	c #FEFD2F",
"R 	c #FCFC42",
"S 	c #F7F464",
"T 	c #C2BE77",
"U 	c #433F2B",
"V 	c #4C4524",
"W 	c #D8D34F",
"X 	c #FDFD36",
"Y 	c #FEFD31",
"Z 	c #FCFC36",
"` 	c #9A9344",
" .	c #7E7434",
"..	c #817624",
"+.	c #5C562D",
"@.	c #B7B04B",
"#.	c #EEEB55",
"$.	c #FDFD3C",
"%.	c #FCFE32",
"&.	c #FCFD31",
"*.	c #FDFE30",
"=.	c #FEFE31",
"-.	c #FEFF30",
";.	c #FEFF2E",
">.	c #FEFF2F",
",.	c #FDFE2E",
"'.	c #FDFE2F",
").	c #FEFE2E",
"!.	c #FEFF2D",
"~.	c #FBFA3B",
"{.	c #DCD673",
"].	c #524E3B",
"^.	c #443F20",
"/.	c #E3DF5E",
"(.	c #FEFE30",
"_.	c #FDFE31",
":.	c #FEFD34",
"<.	c #FCFB39",
"[.	c #908539",
"}.	c #484121",
"|.	c #BFBB50",
"1.	c #F6F552",
"2.	c #FDFE35",
"3.	c #FEFE2F",
"4.	c #FEFC3E",
"5.	c #DFDA6A",
"6.	c #4D472E",
"7.	c #141A21",
"8.	c #C1BB48",
"9.	c #FEFD36",
"0.	c #FCFB43",
"a.	c #B6AD37",
"b.	c #665F2C",
"c.	c #E7E358",
"d.	c #FDFE3D",
"e.	c #FDFE3A",
"f.	c #FDFD2F",
"g.	c #FDFE2D",
"h.	c #FDFA2D",
"i.	c #FAF12C",
"j.	c #F9EF2C",
"k.	c #FAF22D",
"l.	c #F7EC3B",
"m.	c #C2BA60",
"n.	c #181612",
"o.	c #38300E",
"p.	c #F1EF41",
"q.	c #FDFE2C",
"r.	c #FDFD2E",
"s.	c #FEFD35",
"t.	c #C5BD4C",
"u.	c #635A2C",
"v.	c #EBE755",
"w.	c #FDFD30",
"x.	c #FAF52D",
"y.	c #F8E826",
"z.	c #F5DC23",
"A.	c #F7D724",
"B.	c #F8D524",
"C.	c #F9D424",
"D.	c #F7D623",
"E.	c #EEDD44",
"F.	c #8B8244",
"G.	c #3A320D",
"H.	c #C3BB32",
"I.	c #CDC72B",
"J.	c #ECE92B",
"K.	c #FCFD2C",
"L.	c #E4DF4C",
"M.	c #514A23",
"N.	c #E1DA48",
"O.	c #FDFE32",
"P.	c #FDFE34",
"Q.	c #FDFB2E",
"R.	c #F9ED2A",
"S.	c #F5DA23",
"T.	c #F6D623",
"U.	c #F9D324",
"V.	c #FAD124",
"W.	c #F9D124",
"X.	c #FAD024",
"Y.	c #FBD024",
"Z.	c #F6D726",
"`.	c #D6C553",
" +	c #1D1C1A",
".+	c #0C121B",
"++	c #3F4A4F",
"@+	c #708386",
"#+	c #627277",
"$+	c #423E2F",
"%+	c #CBC33C",
"&+	c #847934",
"*+	c #BAB23C",
"=+	c #FCFD32",
"-+	c #FEFE33",
";+	c #FDFC31",
">+	c #F9ED2B",
",+	c #F9DC25",
"'+	c #F9D524",
")+	c #F8D424",
"!+	c #F9D224",
"~+	c #FACF26",
"{+	c #FACF25",
"]+	c #F1D955",
"^+	c #696443",
"/+	c #7E8F92",
"(+	c #D9F1F3",
"_+	c #C2DFE4",
":+	c #ABC8CE",
"<+	c #5E6E73",
"[+	c #685F31",
"}+	c #5A5022",
"|+	c #F5F242",
"1+	c #FCFC2F",
"2+	c #F9DE27",
"3+	c #FBD124",
"4+	c #FAD324",
"5+	c #FAD125",
"6+	c #F6D334",
"7+	c #A49850",
"8+	c #657478",
"9+	c #7C8F93",
"0+	c #47555B",
"a+	c #4A472D",
"b+	c #AEA84F",
"c+	c #918B5B",
"d+	c #B4AC29",
"e+	c #FCFC37",
"f+	c #FCF92F",
"g+	c #F9F02D",
"h+	c #F9E729",
"i+	c #F5E026",
"j+	c #F5DF26",
"k+	c #F6DF27",
"l+	c #F6DE26",
"m+	c #FAD724",
"n+	c #F8D129",
"o+	c #C7BA53",
"p+	c #0F1017",
"q+	c #0D0D10",
"r+	c #BEB53C",
"s+	c #F8F74F",
"t+	c #565131",
"u+	c #E0DB33",
"v+	c #FBF62D",
"w+	c #F7EA29",
"x+	c #F8D925",
"y+	c #F9D724",
"z+	c #F9D824",
"A+	c #FAD424",
"B+	c #F9D025",
"C+	c #E3CD50",
"D+	c #2A261B",
"E+	c #675C0F",
"F+	c #E2D644",
"G+	c #423811",
"H+	c #F2F035",
"I+	c #FAEE2B",
"J+	c #F4DE24",
"K+	c #F6D823",
"L+	c #FAD025",
"M+	c #EDD04B",
"N+	c #4E472A",
"O+	c #1D1305",
"P+	c #ADA048",
"Q+	c #4C3E0C",
"R+	c #F5F032",
"S+	c #F7E529",
"T+	c #F2D240",
"U+	c #645931",
"V+	c #3C310E",
"W+	c #46370B",
"X+	c #EEDC28",
"Y+	c #F4DB22",
"Z+	c #F7D723",
"`+	c #F9D125",
" @	c #F9D225",
".@	c #F8D624",
"+@	c #F4D33E",
"@@	c #766C36",
"#@	c #1A3AED",
"$@	c #160604",
"%@	c #3C310A",
"&@	c #EED625",
"*@	c #FAD524",
"=@	c #FACE27",
"-@	c #FAD226",
";@	c #F8D324",
">@	c #FAD224",
",@	c #F8D224",
"'@	c #F5D737",
")@	c #8E8844",
"!@	c #231B10",
"~@	c #E0C622",
"{@	c #FAD625",
"]@	c #F9D026",
"^@	c #F7D52B",
"/@	c #948740",
"(@	c #151B21",
"_@	c #CAB724",
":@	c #F8D425",
"<@	c #F7D32A",
"[@	c #978B41",
"}@	c #1D222A",
"|@	c #A08F21",
"1@	c #978F4B",
"2@	c #5D5010",
"3@	c #F7D025",
"4@	c #F7D435",
"5@	c #918442",
"6@	c #201F1D",
"7@	c #DCBE22",
"8@	c #F7D423",
"9@	c #F9D325",
"0@	c #F5D337",
"a@	c #8A7D43",
"b@	c #141D25",
"c@	c #A6931B",
"d@	c #F4D137",
"e@	c #80753A",
"f@	c #564B0E",
"g@	c #F4D12A",
"h@	c #F8D724",
"i@	c #F4D337",
"j@	c #62572C",
"k@	c #160A04",
"l@	c #CDB326",
"m@	c #F9D226",
"n@	c #F7D523",
"o@	c #ECD34A",
"p@	c #473D1B",
"q@	c #7A6E1A",
"r@	c #F8D228",
"s@	c #F8D32A",
"t@	c #E7C943",
"u@	c #312A16",
"v@	c #271E07",
"w@	c #D4BC2F",
"x@	c #FAD126",
"y@	c #F7D624",
"z@	c #F6D724",
"A@	c #F5D823",
"B@	c #F9D626",
"C@	c #EBCC24",
"D@	c #F3D525",
"E@	c #F8D329",
"F@	c #CCB644",
"G@	c #100601",
"H@	c #806E17",
"I@	c #F4D129",
"J@	c #F8D42C",
"K@	c #FACF27",
"L@	c #F8D426",
"M@	c #F7D027",
"N@	c #CBB432",
"O@	c #736314",
"P@	c #322807",
"Q@	c #827314",
"R@	c #F6D024",
"S@	c #F8D525",
"T@	c #B1A042",
"U@	c #1B0F03",
"V@	c #C7AF2A",
"W@	c #F9D227",
"X@	c #F8D32B",
"Y@	c #F8D127",
"Z@	c #F9D425",
"`@	c #F7D02B",
" #	c #D4B625",
".#	c #7B6712",
"+#	c #1A0D04",
"@#	c #1C1305",
"##	c #C5AC22",
"$#	c #FBD324",
"%#	c #F6D330",
"&#	c #958C47",
"*#	c #5A4B0C",
"=#	c #ECCA2C",
"-#	c #F9D329",
";#	c #F9D028",
">#	c #F9D024",
",#	c #F9D729",
"'#	c #E8CB25",
")#	c #BDA729",
"!#	c #7B6B17",
"~#	c #211604",
"{#	c #5F5211",
"]#	c #F6D02A",
"^#	c #FBD225",
"/#	c #F6D828",
"(#	c #ECD137",
"_#	c #5C5126",
":#	c #A28E1F",
"<#	c #F9D427",
"[#	c #F9D228",
"}#	c #F9D126",
"|#	c #F0D13A",
"1#	c #877924",
"2#	c #302806",
"3#	c #B19920",
"4#	c #CDB52A",
"5#	c #A89824",
"6#	c #7D711C",
"7#	c #46380A",
"8#	c #131115",
"9#	c #271905",
"0#	c #C6AD26",
"a#	c #FAD425",
"b#	c #FAD227",
"c#	c #FAD027",
"d#	c #D1B842",
"e#	c #130C04",
"f#	c #151007",
"g#	c #130805",
"h#	c #483D0B",
"i#	c #E5C424",
"j#	c #FBD125",
"k#	c #F7D42F",
"l#	c #B5A143",
"m#	c #756312",
"n#	c #F3D228",
"o#	c #FBCF25",
"p#	c #FBD026",
"q#	c #F5D132",
"r#	c #958540",
"s#	c #918022",
"t#	c #F5D42A",
"u#	c #F2CE29",
"v#	c #D2B62A",
"w#	c #A3922D",
"x#	c #655618",
"y#	c #251C09",
"z#	c #180F05",
"A#	c #74681A",
"B#	c #45380B",
"C#	c #1C1512",
"D#	c #151216",
"E#	c #1535E8",
"F#	c #1437E9",
"G#	c #1637E8",
"H#	c #1336E8",
"I#	c #1437EB",
"J#	c #1338EB",
"K#	c #1637E6",
"L#	c #1736E6",
"M#	c #1736E8",
"N#	c #1536E7",
"O#	c #1636ED",
"P#	c #1635EF",
"Q#	c #1636EB",
"R#	c #1635E7",
"S#	c #1635E5",
"T#	c #1536E5",
"U#	c #1436EF",
"V#	c #1436F0",
"W#	c #1635F0",
"X#	c #1636E3",
"Y#	c #1536E3",
"Z#	c #1438E8",
"`#	c #1436ED",
" $	c #1735E5",
".$	c #1636E1",
"+$	c #1338E8",
"                                          . . . .         . . . . . . . . . . . . . . . . . . . . . . + + + + + + + + + + + + + ",
"                                              . .         . . . . . . . . . . . . . . . . . . . . . . + + + + + + + + + + + + + ",
"@                                       . .                       . . . . . . . . . . . . . . . . . . . . . + + + + + + + + + + ",
"@                                                                 . . . . . . . . . . . . . . . . . . . . . + + + + + + + + + + ",
"@                                                                 . . . . . . . . . . . . . . . . . . . . . + + + + + + + + + + ",
"                                                                        . . . . . . . . . . . . . . . . . . + + + + + + + + + + ",
"                                                                          . . . . . . . . . . . . . . . . . + + + + + + + + + + ",
"                                      @ @ @ @                               . . . . . . . . . . . . . . . . + + + + + + + + + + ",
"                                      @ @ @ @                     @         . . . . . . . . . . . . . . . . + + + + + + + + + + ",
"                                      @ @ @ @                     @ @       . . . . . . . . . . . . . . . . + + + + + + + + + + ",
"                                  @ @ @ @ @ @ @ @                                 . . . . . . . . . . . . . . . . + + + + + + + ",
"                                  @ @ @ @ @ @ @ @                                 . . . . . . . . . . . . . . . . + + + + + + + ",
"                          @ @ @ @ @ @ @ @ @ @ @ @                                 . . . . . . . . . . . . . . . . + + + + + + + ",
"                          @ @ @ @ @ @ @ @ @ @ @ @                                 . . . . . . . . . . . . . . . . + + + + + + + ",
"                        @ @ @ @ @ @ @ # $ % & * @                                     . . . . . . . . . . . . . . + + + + + + + ",
"                      @ @ @ @ @ @ = - ; > , ' ) ! ~ { ] ^   / ( _ : < [ } | 1 2         . . . . . . . . . . . . . + + + + + + + ",
"                  @ @ @ @ @ @ 3 4 5 6 7 8 9 0 a b c d e f g h i j k l m n o p q r s t     . . . . . . . . . . . . + + + + + + + ",
"                  @ @ @ @ u v w x y z A B C D E F G H I J y K L L M M N O P Q P R S T U   . . . . . . . . . . . . + + + + + + + ",
"              @ @ @ @ @ @ V W X P Y Z `  ...+.@.#.$.%.&.*.=.*.-.;.z ;.>.,.'.).!.).).~.{.].        . . . . . . . . + + + + + + + ",
"            @ @ @ @ @ @ ^./.X (._.:.<.[.}.|.1.2._.,.M P P 3.;.;.z M ;.;.;.;.;.;.P Q ).4.5.6.      . . . . . . . . . + + + + + + ",
"            @ @ @ @ @ 7.8.9.Y &.P 0.a.b.c.d.e.P f.,.M f.3.;.;.;.;.;.;.;.;.;.).g.h.i.j.k.l.m.n.    . . . . . . . . . . + + + + + ",
"          @ @ @ @ @ @ o.p.q.,.r.s.t.u.v.w.*.L P 3.;.z ;.;.;.;.;.;.;.z ;.;.'.x.y.z.A.B.C.D.E.F.    . . . . . . . . . . + + + + + ",
"        @ @ @ @ @ @ @ G.H.I.J.K.L.M.N.O.P.'.M ;.;.;.;.;.;.;.;.;.;.;.'.r.Q.R.S.T.U.V.W.X.Y.Z.`. +      . . . . . . . . . + + + + ",
"    @ @ @ @ @ @ @ @ .+++@+#+$+%+&+*+:.P ,.O =+-+-.;.;.;.;.;.;.;.;.3.;+>+,+'+)+!+!+~+{+X.Y.V.]+^+        . . . . . . . + + + + . ",
"  @ @ @ @ @ @ @ @ @ /+(+_+:+<+[+}+|+P 3.3.O.z ,.1+f.f.f.f.r.r.r.r.i.2+3+4+V.!+W.W.5+~+X.Y.V.6+7+          . . . . + + + + + . . ",
"  @ @ @ @ @ @ @ @ @ 8+9+0+a+b+c+d+P P 3.>.e+f+g+h+i+j+j+k+l+j+l+m+4+V.C.Y.Y.Y.X.W.W.W.V.Y.V.n+o+p+        . . . . + + + + . .   ",
"@ @ @ @ @ @ @ @ @ @ @ @ q+r+s+t+u+=.;.v+w+x+y+z+V.Y.Y.Y.X.W.V.Y.Y.3+A+!+B+X.W.W.W.W.W.W.X.V.W.C+D+                + . . . . . . ",
"@ @ @ @ @ @ @ @ @ @ @ @ @ E+F+G+H+f.I+J+K+V.!+'+X.Y.Y.Y.X.W.W.L+{+C.V.V.W.W.W.W.W.W.W.W.V.W.W.M+N+                . . . . . . . ",
"@ @ @ @ @ @ @ @ @ @ @ @ @ O+P+Q+R+S+z.B.U.W.B.!+W.V.V.X.Y.W.W.W.B.C.Y.X.W.W.W.W.W.W.W.W.W.W.W.T+U+                . . . . + + + ",
"@ @ @ @ @ @ @ @ @ @ @ @ @ @ V+W+X+Y+Z+`+B+ @.@X.!+W.V.X.Y.Y.V.D.A+Y.X.V.W.W.W.W.W.W.W.W.W.W.W.+@@@                . . . . + + #@",
"@ @ @ @ @ @ @ @ @ @ @ @ @ @ $@%@&@*@V.~+=@-@U.V.!+V.Y.Y.Y.4+C.;@>@Y.V.W.W.W.W.W.W.W.W.W.W.W.,@'@)@                    . . + + #@",
"@ @ @ @ @ @ @ @ @ @ @ @ @ @ @ !@~@{@W.~+=@]@W.Y.Y.Y.Y.Y.>@B.!+W.W.W.W.W.W.W.W.W.W.W.W.W.U.U..@^@/@                    . . . + + ",
"@ @ @ @ @ @ @ @ @ @ @ @ @ @ @ (@_@.@W.~+=@:@C.Y.W.W.)+;@W.W.W.W.W.W.W.W.W.W.W.W.W.U.B.B.U.X.W.<@[@                      . . . + ",
"@ @ @ @ @ @ @ @ @ @ @ @ @ @ @ }@|@C.W.W.`+V.!+!+U.V.V.V.X.B+B+W.W.W.W.W.W.W.C.U.B.U.V.V.W.X.W.<@1@                        . . . ",
"@ @ @ @ @ @ @ @ @ @ @ @ @ @ @ @ 2@3@W.W.U.>@L+W.W.Y.Y.{+=@=@~+W.W.!+U.'+B..@U.W.Y.{+Y.Y.Y.V.W.4@5@                        . . . ",
"@ @ @ @ @ @ @ @ @ @ @ @ @ @ @ @ 6@7@X.X.V.B.;@W.8@;@!+`+9@9@W.;@;@)+!+V.Y.Y.V.W.X.V.Y.Y.Y.W.W.0@a@                        . . . ",
"@ @ @ @ @ @ @ @ @ @ @ @ @ @ @ @ b@c@L+Y.!+)+W.W.W.V.V.V.W.W.W.X.X.Y.Y.Y.Y.X.Y.Y.Y.Y.Y.Y.Y.V.W.d@e@                          . . ",
"@ @ @ @ @ @ @ @ @ @ @ @ @ @ @ @ @ f@g@5+'+h@)+W.L+W.W.W.W.W.W.V.Y.Y.Y.Y.X.V.Y.Y.Y.Y.Y.Y.Y.V.;@i@j@                            . ",
"@ @ @ @ @ @ @ @ @ @ @ @ @ @ @ @ @ k@l@9@m@U.U.n@)+W.W.W.W.W.W.W.W.W.W.W.W.Y.Y.Y.Y.Y.Y.Y.>@C.>@o@p@                              ",
"@ @ @ @ @ @ @ @ @ @ @ @ @ @ @ @ @ @ q@r@s@!+W.W.>@C.U.;@W.W.W.W.W.W.W.W.W.W.3+3+Y.Y.V.!+!+W.W.t@u@                              ",
"@ @ @ @ @ @ @ @ @ @ @ @ @ @ @ @ @ @ v@w@x@x@W.W.W.!+)+y@z@A@T.8@!+!+!+!+!+'+B@C@D@E@V.X.X.W.W.F@G@                              ",
"@ @ @ @ @ @ @ @ @ @ @ @ @ @ @ @ @ @ @ H@I@J@V.W.W.K@~+)+)+.@.@)+!+C.L@C.M@N@O@P@Q@R@W.W.W.W.S@T@                                ",
"@ @ @ @ @ @ @ @ @ @ @ @ @ @ @ @ @ @ @ U@V@W@X@Y@W.W.W.W.W.!+!+W.!+Z@`@ #.#+#    @###$#V.V.)+%#&#                                ",
"@ @ @ @ @ @ @ @ @ @ @ @ @ @ @ @ @ @ @ @ *#=#-#;#W.x@X.>#B+W.W.,#'#)#!#~#@         {#]#^#Z@/#(#_#                                ",
"@ @ @ @ @ @ @ @ @ @ @ @ @ @ @ @ @ @ @ @ @ :#<#[#}#W.x@Y.{+~+|#1#2#@ @ @ @           3#4#5#6#7#8#                                ",
"@ @ @ @ @ @ @ @ @ @ @ @ @ @ @ @ @ @ @ @ @ 9#0#a#b#Y.Y.Y.Y.c#d#e#@ @ @ @ @           f#g#                                        ",
"@ @ @ @ @ @ @ @ @ @ @ @ @ @ @ @ @ @ @ @ @ @ h#i#j#Y.Y.Y.Y.k#l#@ @ @ @ @ @                                                       ",
"@ @ @ @ @ @ @ @ @ @ @ @ @ @ @ @ @ @ @ @ @ @ @ m#n#~+~+o#p#q#r#@ @ @ @ @ @                                                       ",
"@ @ @ @ @ @ @ @ @ @ @ @ @ @ @ @ @ @ @ @ @ @ @ @ s#t#u#v#w#x#y#@ @ @ @ @ @                                                       ",
"@ @ @ @ @ @ @ @ @ @ @ @ @ @ @ @ @ @ @ @ @ @ @ @ z#A#B#C#D#@ @ @ @ @ @ @ @                                                       ",
"E#@ @ @ @ @ @ @ @ @ @ @ @ @ @ @ @ @ @ @ @ @ @ @ @ @ @ @ @ @ @ @ @ @ @ @ @ @ @ @ @                                               ",
"E#@ @ @ @ @ @ @ @ @ @ @ @ @ @ @ @ @ @ @ @ @ @ @ @ @ @ @ @ @ @ @ @ @ @ @ @ @ @ @ @                                               ",
"E#@ @ @ @ @ @ @ @ @ @ @ @ @ @ @ @ @ @ @ @ @ @ @ @ @ @ @ @ @ @ @ @ @ @ @ @ @ @ @ @                                               ",
"E#@ @ @ @ @ @ @ @ @ @ @ @ @ @ @ @ @ @ @ @ @ @ @ @ @ @ @ @ @ @ @ @ @ @ @ @ @ @ @ @                                               ",
"E#@ @ @ @ @ @ @ @ @ @ @ @ @ @ @ @ @ @ @ @ @ @ @ @ @ @ @ @ @ @ @ @ @ @ @ @ @ @ @ @                                               ",
"E#@ @ @ @ @ @ @ @ @ @ @ @ @ @ @ @ @ @ @ @ @ @ @ @ @ @ @ @ @ @ @ @ @ @ @ @ @ @ @ @                                               ",
"E#@ @ @ @ @ @ @ @ @ @ @ @ @ @ @ @ @ @ @ @ @ @ @ @ @ @ @ @ @ @ @ @ @ @ @ @ @ @ @ @                                               ",
"E#@ F#@ @ @ G#G#G#@ @ @ @ @ @ @ @ @ @ @ @ @ @ @ @ @ @ @ @ @ @ @ @ @ @ @ @ @ @ @ @                                               ",
"H#I#J#I#F#G#K#L#L#G#@ @ @ @ @ @ @ @ @ @ @ @ @ @ @ @ @ @ @ @ @ @ @ @ @ @ @ @ @ @ @                                               ",
"H#I#J#J#F#F#G#M#M#@ @ @ @ @ @ @ @ @ @ @ @ @ @ @ @ @ @ @ @ @ @ @ @ @ @ @ @ @ @ @ @                                               ",
"N#E#F#F#I#I#O#P#P#Q#@ @ @ @ @ @ @ @ @ @ @ @ @ @ @ @ @ @ @ @ @ @ @ @ @ @ @ @ @ @ @                                               ",
"R#S#T#N#F#I#U#V#W#Q#@ @ @ @ @ @ @ @ @ @ @ @ @ @ @ @ @ @ @ @ @ @ @ @ @ @ @ @ @ @ @ @                                             ",
"S#X#Y#Y#T#Z#I#`#`#Q#@ @ @ @ @ @ @ @ @ @ @ @ @ @ @ @ @ @ @ @ @ @ @ @ @ @ @ @ @ @ @ @ @ @                                         ",
" $X#.$X#Y#T#Z#+$+$@ @ @ @ @ @ @ @ @ @ @ @ @ @ @ @ @ @ @ @ @ @ @ @ @ @ @ @ @ @ @ @ @ @ @ @                                       "};
