/* XPM */
static char * collecf3_xpm[] = {
"64 64 528 2",
"  	c #9FA394",
". 	c #A1A596",
"+ 	c #A9AC9C",
"@ 	c #AAAD9D",
"# 	c #A0A495",
"$ 	c #ACB09F",
"% 	c #B0B3A2",
"& 	c #A6AA9A",
"* 	c #A8AC9C",
"= 	c #ABAE9D",
"- 	c #A0A394",
"; 	c #ABAE9E",
"> 	c #ADB09F",
", 	c #A9AD9C",
"' 	c #A8AB9B",
") 	c #A5A899",
"! 	c #AEB1A0",
"~ 	c #ACAF9F",
"{ 	c #A6A999",
"] 	c #AAAE9D",
"^ 	c #A0A494",
"/ 	c #AEB1A1",
"( 	c #AEB2A1",
"_ 	c #AFB2A1",
": 	c #85877B",
"< 	c #68695E",
"[ 	c #6B6956",
"} 	c #78744D",
"| 	c #615E4D",
"1 	c #505047",
"2 	c #8A8D7F",
"3 	c #A1A495",
"4 	c #8D8F82",
"5 	c #8C9083",
"6 	c #999D8F",
"7 	c #95998B",
"8 	c #919486",
"9 	c #999C8E",
"0 	c #9EA192",
"a 	c #ABAF9E",
"b 	c #7B7E73",
"c 	c #494531",
"d 	c #ACA750",
"e 	c #E1DD68",
"f 	c #F7F459",
"g 	c #F7F550",
"h 	c #C4BD5A",
"i 	c #635E42",
"j 	c #353020",
"k 	c #827D51",
"l 	c #A19C68",
"m 	c #5F5D45",
"n 	c #4F524C",
"o 	c #76796F",
"p 	c #6E7167",
"q 	c #5B5C53",
"r 	c #47453A",
"s 	c #686443",
"t 	c #727047",
"u 	c #7C7545",
"v 	c #777244",
"w 	c #5E5833",
"x 	c #3E3A2C",
"y 	c #5D5E55",
"z 	c #84877A",
"A 	c #A2A596",
"B 	c #979A8D",
"C 	c #494A43",
"D 	c #979141",
"E 	c #ECE94E",
"F 	c #FCFD3F",
"G 	c #FCFE2F",
"H 	c #DED73C",
"I 	c #71671C",
"J 	c #776E35",
"K 	c #C5BD55",
"L 	c #DDD555",
"M 	c #B2A942",
"N 	c #676036",
"O 	c #58502D",
"P 	c #928C4C",
"Q 	c #BFBA5B",
"R 	c #D6D158",
"S 	c #EBE763",
"T 	c #F4F25D",
"U 	c #FAFA4A",
"V 	c #FBFC4A",
"W 	c #FBFC46",
"X 	c #FCFC4C",
"Y 	c #FAF949",
"Z 	c #F2EF69",
"` 	c #DEDA69",
" .	c #B7B162",
"..	c #6B653C",
"+.	c #5B5D54",
"@.	c #A4A798",
"#.	c #A6A99A",
"$.	c #7E847B",
"%.	c #373424",
"&.	c #C0B94B",
"*.	c #FBFA44",
"=.	c #FDFE38",
"-.	c #FDFF2E",
";.	c #E0DC3A",
">.	c #4F4312",
",.	c #BFB960",
"'.	c #D6CD54",
").	c #958B2C",
"!.	c #4D4426",
"~.	c #948D44",
"{.	c #D0CE5C",
"].	c #F6F557",
"^.	c #FCFD47",
"/.	c #FEFE34",
"(.	c #FDFE36",
"_.	c #FCFE2E",
":.	c #FCFE33",
"<.	c #FDFD31",
"[.	c #FEFD30",
"}.	c #FEFD2F",
"|.	c #FCFC42",
"1.	c #F7F464",
"2.	c #C2BE77",
"3.	c #504D3C",
"4.	c #939688",
"5.	c #86897D",
"6.	c #4C4524",
"7.	c #D8D34F",
"8.	c #FDFD36",
"9.	c #FEFD31",
"0.	c #FCFC36",
"a.	c #9A9344",
"b.	c #7E7434",
"c.	c #817624",
"d.	c #5C562D",
"e.	c #B7B04B",
"f.	c #EEEB55",
"g.	c #FDFD3C",
"h.	c #FCFE32",
"i.	c #FCFD31",
"j.	c #FDFE30",
"k.	c #FEFE31",
"l.	c #FEFF30",
"m.	c #FEFF2E",
"n.	c #FEFF2F",
"o.	c #FDFE2E",
"p.	c #FDFE2F",
"q.	c #FEFE2E",
"r.	c #FEFF2D",
"s.	c #FBFA3B",
"t.	c #DCD673",
"u.	c #5D5B49",
"v.	c #A2A595",
"w.	c #9FA293",
"x.	c #484428",
"y.	c #E3DF5E",
"z.	c #FEFE30",
"A.	c #FDFE31",
"B.	c #FEFD34",
"C.	c #FCFB39",
"D.	c #908539",
"E.	c #484121",
"F.	c #BFBB50",
"G.	c #F6F552",
"H.	c #FDFE35",
"I.	c #FEFE2F",
"J.	c #FEFC3E",
"K.	c #DFDA6A",
"L.	c #615E4A",
"M.	c #A7AA9A",
"N.	c #A3A797",
"O.	c #A4A898",
"P.	c #AFB3A2",
"Q.	c #5C5E57",
"R.	c #C1BB48",
"S.	c #FEFD36",
"T.	c #FCFB43",
"U.	c #B6AD37",
"V.	c #665F2C",
"W.	c #E7E358",
"X.	c #FDFE3D",
"Y.	c #FDFE3A",
"Z.	c #FDFD2F",
"`.	c #FDFE2D",
" +	c #FDFA2D",
".+	c #FAF12C",
"++	c #F9EF2C",
"@+	c #FAF22D",
"#+	c #F7EC3B",
"$+	c #C2BA60",
"%+	c #595B51",
"&+	c #A2A696",
"*+	c #A8AC9B",
"=+	c #A4A899",
"-+	c #4E4A37",
";+	c #F1EF41",
">+	c #FDFE2C",
",+	c #FDFD2E",
"'+	c #FEFD35",
")+	c #C5BD4C",
"!+	c #635A2C",
"~+	c #EBE755",
"{+	c #FDFD30",
"]+	c #FAF52D",
"^+	c #F8E826",
"/+	c #F5DC23",
"(+	c #F7D724",
"_+	c #F8D524",
":+	c #F9D424",
"<+	c #F7D623",
"[+	c #EEDD44",
"}+	c #8B8244",
"|+	c #A3A697",
"1+	c #4B4630",
"2+	c #C3BB32",
"3+	c #CDC72B",
"4+	c #ECE92B",
"5+	c #FCFD2C",
"6+	c #E4DF4C",
"7+	c #514A23",
"8+	c #E1DA48",
"9+	c #FDFE32",
"0+	c #FDFE34",
"a+	c #FDFB2E",
"b+	c #F9ED2A",
"c+	c #F5DA23",
"d+	c #F6D623",
"e+	c #F9D324",
"f+	c #FAD124",
"g+	c #F9D124",
"h+	c #FAD024",
"i+	c #FBD024",
"j+	c #F6D726",
"k+	c #D6C553",
"l+	c #505149",
"m+	c #797C71",
"n+	c #3F4A4F",
"o+	c #708386",
"p+	c #627277",
"q+	c #423E2F",
"r+	c #CBC33C",
"s+	c #847934",
"t+	c #BAB23C",
"u+	c #FCFD32",
"v+	c #FEFE33",
"w+	c #FDFC31",
"x+	c #F9ED2B",
"y+	c #F9DC25",
"z+	c #F9D524",
"A+	c #F8D424",
"B+	c #F9D224",
"C+	c #FACF26",
"D+	c #FACF25",
"E+	c #F1D955",
"F+	c #696443",
"G+	c #989A8C",
"H+	c #7E8F92",
"I+	c #D9F1F3",
"J+	c #C2DFE4",
"K+	c #ABC8CE",
"L+	c #5E6E73",
"M+	c #685F31",
"N+	c #5A5022",
"O+	c #F5F242",
"P+	c #FCFC2F",
"Q+	c #F9DE27",
"R+	c #FBD124",
"S+	c #FAD324",
"T+	c #FAD125",
"U+	c #F6D334",
"V+	c #A49850",
"W+	c #86897C",
"X+	c #989B8C",
"Y+	c #687679",
"Z+	c #7C8F93",
"`+	c #47555B",
" @	c #4A472D",
".@	c #AEA84F",
"+@	c #918B5B",
"@@	c #B4AC29",
"#@	c #FCFC37",
"$@	c #FCF92F",
"%@	c #F9F02D",
"&@	c #F9E729",
"*@	c #F5E026",
"=@	c #F5DF26",
"-@	c #F6DF27",
";@	c #F6DE26",
">@	c #FAD724",
",@	c #F8D129",
"'@	c #C7BA53",
")@	c #64665D",
"!@	c #AAAD9C",
"~@	c #7D8073",
"{@	c #BEB53C",
"]@	c #F8F74F",
"^@	c #565131",
"/@	c #E0DB33",
"(@	c #FBF62D",
"_@	c #F7EA29",
":@	c #F8D925",
"<@	c #F9D724",
"[@	c #F9D824",
"}@	c #FAD424",
"|@	c #F9D025",
"1@	c #E3CD50",
"2@	c #3E3D33",
"3@	c #ADB0A0",
"4@	c #AFB2A2",
"5@	c #ACAF9E",
"6@	c #6E6530",
"7@	c #E2D644",
"8@	c #423811",
"9@	c #F2F035",
"0@	c #FAEE2B",
"a@	c #F4DE24",
"b@	c #F6D823",
"c@	c #FAD025",
"d@	c #EDD04B",
"e@	c #4E472A",
"f@	c #9EA193",
"g@	c #74766A",
"h@	c #ADA048",
"i@	c #4C3E0C",
"j@	c #F5F032",
"k@	c #F7E529",
"l@	c #F2D240",
"m@	c #645931",
"n@	c #919487",
"o@	c #989C8D",
"p@	c #443B22",
"q@	c #46370B",
"r@	c #EEDC28",
"s@	c #F4DB22",
"t@	c #F7D723",
"u@	c #F9D125",
"v@	c #F9D225",
"w@	c #F8D624",
"x@	c #F4D33E",
"y@	c #766C36",
"z@	c #919587",
"A@	c #6B6C62",
"B@	c #3C310A",
"C@	c #EED625",
"D@	c #FAD524",
"E@	c #FACE27",
"F@	c #FAD226",
"G@	c #F8D324",
"H@	c #FAD224",
"I@	c #F8D224",
"J@	c #F5D737",
"K@	c #8E8844",
"L@	c #929688",
"M@	c #939789",
"N@	c #272117",
"O@	c #E0C622",
"P@	c #FAD625",
"Q@	c #F9D026",
"R@	c #F7D52B",
"S@	c #948740",
"T@	c #949789",
"U@	c #424542",
"V@	c #CAB724",
"W@	c #F8D425",
"X@	c #F7D32A",
"Y@	c #978B41",
"Z@	c #676A63",
"`@	c #A08F21",
" #	c #978F4B",
".#	c #969A8C",
"+#	c #868A7F",
"@#	c #5D5010",
"##	c #F7D025",
"$#	c #F7D435",
"%#	c #918444",
"&#	c #A3A696",
"*#	c #A5A999",
"=#	c #9DA192",
"-#	c #383833",
";#	c #DCBE22",
">#	c #F7D423",
",#	c #F9D325",
"'#	c #F5D337",
")#	c #8B7F49",
"!#	c #6A6D65",
"~#	c #A6931B",
"{#	c #F4D137",
"]#	c #847A47",
"^#	c #9B9E8F",
"/#	c #574D16",
"(#	c #F4D12A",
"_#	c #F8D724",
":#	c #F4D337",
"<#	c #6D6645",
"[#	c #67685D",
"}#	c #CDB326",
"|#	c #F9D226",
"1#	c #F7D523",
"2#	c #ECD34A",
"3#	c #64604C",
"4#	c #A1A394",
"5#	c #7B6F1F",
"6#	c #F8D228",
"7#	c #F8D32A",
"8#	c #E7C943",
"9#	c #605F52",
"0#	c #717164",
"a#	c #D4BC2F",
"b#	c #FAD126",
"c#	c #F7D624",
"d#	c #F6D724",
"e#	c #F5D823",
"f#	c #F9D626",
"g#	c #EBCC24",
"h#	c #F3D525",
"i#	c #F8D329",
"j#	c #CCB644",
"k#	c #75776B",
"l#	c #A3A596",
"m#	c #817023",
"n#	c #F4D129",
"o#	c #F8D42C",
"p#	c #FACF27",
"q#	c #F8D426",
"r#	c #F7D027",
"s#	c #CBB432",
"t#	c #74641C",
"u#	c #585647",
"v#	c #83741E",
"w#	c #F6D024",
"x#	c #F8D525",
"y#	c #B1A042",
"z#	c #A2A697",
"A#	c #A1A595",
"B#	c #77776B",
"C#	c #C7AF2A",
"D#	c #F9D227",
"E#	c #F8D32B",
"F#	c #F8D127",
"G#	c #F9D425",
"H#	c #F7D02B",
"I#	c #D4B625",
"J#	c #7B6712",
"K#	c #4E4D45",
"L#	c #8F9284",
"M#	c #74776B",
"N#	c #C5AC22",
"O#	c #FBD324",
"P#	c #F6D330",
"Q#	c #958C47",
"R#	c #9B9E8E",
"S#	c #A3A798",
"T#	c #A0A395",
"U#	c #695F3D",
"V#	c #ECCA2C",
"W#	c #F9D329",
"X#	c #F9D028",
"Y#	c #F9D024",
"Z#	c #F9D729",
"`#	c #E8CB25",
" $	c #BDA729",
".$	c #7E7132",
"+$	c #6C6D61",
"@$	c #8A8D80",
"#$	c #9EA293",
"$$	c #A5A898",
"%$	c #6B623A",
"&$	c #F6D02A",
"*$	c #FBD225",
"=$	c #F6D828",
"-$	c #ECD137",
";$	c #5C5126",
">$	c #989A8B",
",$	c #A28E23",
"'$	c #F9D427",
")$	c #F9D228",
"!$	c #F9D126",
"~$	c #F0D13A",
"{$	c #877924",
"]$	c #5F5F50",
"^$	c #888B7E",
"/$	c #8F9183",
"($	c #B19920",
"_$	c #CDB52A",
":$	c #A89824",
"<$	c #7F7327",
"[$	c #67624D",
"}$	c #7D7F73",
"|$	c #767669",
"1$	c #C6AD26",
"2$	c #FAD425",
"3$	c #FAD227",
"4$	c #FAD027",
"5$	c #D1B842",
"6$	c #6E7065",
"7$	c #727368",
"8$	c #7C7E71",
"9$	c #919386",
"0$	c #5F5940",
"a$	c #E5C424",
"b$	c #FBD125",
"c$	c #F7D42F",
"d$	c #B5A143",
"e$	c #76796E",
"f$	c #9D9F90",
"g$	c #776620",
"h$	c #F3D228",
"i$	c #FBCF25",
"j$	c #FBD026",
"k$	c #F5D132",
"l$	c #958540",
"m$	c #777A70",
"n$	c #848578",
"o$	c #918022",
"p$	c #F5D42A",
"q$	c #F2CE29",
"r$	c #D2B62A",
"s$	c #A3922D",
"t$	c #66581F",
"u$	c #606155",
"v$	c #636359",
"w$	c #74681A",
"x$	c #45380B",
"y$	c #484740",
"z$	c #797C70",
"A$	c #96998B",
"B$	c #8E9183",
"C$	c #A9AD9D",
"                                        . +                                       @ #                                           ",
"                                      # $ % &                                   * % = -                                         ",
"                                    # $ % % % &                               * % % % =                                         ",
"                                  # $ % % % % % &                           * % % % % % =                                       ",
"                                # $ % % % % % % % &                       * % % % % % % % =                                     ",
"                              # $ % % % % % % % % % &                   * % % % % % % % % % ;                                   ",
"                            # > % % % % % % % % % % % &               * % % % % % % % % % % % ;                                 ",
"                          # > % % % % % % % % % % % % % &           * % % % % % % % % % % % % % ;                               ",
"                        # $ % % % % % % % % % % % % % % % &       * % % % % % % % % % % % % % % % ;                             ",
"                      # $ % % % % % % % % % % % % % % % % % &   * % % % % % % % % % % % % % % % % % ; -                         ",
"                      ; % % % % % % % % % % % % % % % % % % % , % % % % % % % % % % % % % % % % % % % '                         ",
"                  # ; ) ! % % % % % % % % % % % % % % % % % + # ; % % % % % % % % % % % % % % % % % ~ { ] ^                     ",
"                # > % / ) ! % % % % % % % % % % % % % % % +     ^ ; % % % % % % % % % % % % % % % ~ { % % ; -                   ",
"              # > % % % ( ) ! % % % % % % % % % % % % % +         ^ ; % % % % % % % % % % % % % ~ { % % % % ; -                 ",
"            # > % % % % % ( ) ! % % % % % _ _ % % % % +             ^ ; % % % % % % % % % % % ~ { % % % % % % ;                 ",
"          # > % % % % % % % ( ) ! ' : < [ } | 1 2 3 4 5           6 7 8 9 0 ] % % % % % % % ~ { % % % % % % % % ;               ",
"        # > % % % % % % % % % a b c d e f g h i j k l m n o p q r s t u v w x y z A % % % ~ { % % % % % % % % % % ;             ",
"      # > % % % % % % % % % B C D E F G H I J K L M N O P Q R S T U V W X Y Z `  ...+.@.~ #.% % % % % % % % % % % % ; -         ",
"    # > % % % % % % % % % $.%.&.*.=.-.;.>.,.'.).!.~.{.].^.=./.(.(._._.:.<.[.}.[.|.1.2.3.4.% % % % % % % % % % % % % % ; ^       ",
"  # > % % % % % % % % % 5.6.7.8.[.9.0.a.b.c.d.e.f.g.h.i.j.k.j.l.m.-.m.n.o.p.q.r.q.q.s.t.u.v.% % % % % % % % % % % % % % ; ^     ",
"# > % % % % % % % % % w.x.y.8.z.A.B.C.D.E.F.G.H.A.o._.[.[.I.m.m.-._.m.m.m.m.m.m.[.}.q.J.K.L.M.% % % % % % % % % % % % % % ; ^ N.",
"O.P.% % % % % % % % % Q.R.S.9.i.[.T.U.V.W.X.Y.[.Z.o._.Z.I.m.m.m.m.m.m.m.m.m.q.`. +.+++@+#+$+%+/ % % % % % % % % % % % % % _ &+*+",
"  =+% % % % % % % % _ -+;+>+o.,+'+)+!+~+{+j.(.[.I.m.-.m.m.m.m.m.m.m.-.m.m.p.]+^+/+(+_+:+<+[+}+5.% % % % % % % % % % % % _ |+    ",
"    O.% % % % % % % ! 1+2+3+4+5+6+7+8+9+0+p._.m.m.m.m.m.m.m.m.m.m.m.p.,+a+b+c+d+e+f+g+h+i+j+k+l+_ % % % % % % % % % % _ |+      ",
"      O.P.% % % % _ m+n+o+p+q+r+s+t+B.[.o.<.u+v+l.m.m.m.m.m.m.m.m.I.w+x+y+z+A+B+B+C+D+h+i+f+E+F+v.% % % % % % % % % _ |+        ",
"        O.P.% % % G+H+I+J+K+L+M+N+O+[.I.I.9+-.o.P+Z.Z.Z.Z.,+,+,+,+.+Q+R+S+f+B+g+g+T+C+h+i+f+U+V+W+% % % % % % % % _ |+          ",
"          O.P.% % X+Y+Z+`+ @.@+@@@[.[.I.n.#@$@%@&@*@=@=@-@;@=@;@>@S+f+:+i+i+i+h+g+g+g+f+i+f+,@'@)@% % % % % % % _ |+            ",
"            O.P.% % !@w.~@{@]@^@/@k.m.(@_@:@<@[@f+i+i+i+h+g+f+i+i+R+}@B+|@h+g+g+g+g+g+g+h+f+g+1@2@3@% % % % % _ |+              ",
"              O.4@% % % 5@6@7@8@9@Z.0@a@b@f+B+z+h+i+i+i+h+g+g+c@D+:+f+f+g+g+g+g+g+g+g+g+f+g+g+d@e@f@% % % % _ |+                ",
"                O.4@% % * g@h@i@j@k@/+_+e+g+_+B+g+f+f+h+i+g+g+g+_+:+i+h+g+g+g+g+g+g+g+g+g+g+g+l@m@n@; % % _ |+                  ",
"                  O.4@*   o@p@q@r@s@t@u@|@v@w@h+B+g+f+h+i+i+f+<+}@i+h+f+g+g+g+g+g+g+g+g+g+g+g+x@y@z@  ; _ |+                    ",
"                    &+      A@B@C@D@f+C+E@F@e+f+B+f+i+i+i+S+:+G@H@i+f+g+g+g+g+g+g+g+g+g+g+g+I@J@K@L@    .                       ",
"                    &+      M@N@O@P@g+C+E@Q@g+i+i+i+i+i+H@_+B+g+g+g+g+g+g+g+g+g+g+g+g+g+e+e+w@R@S@T@    .                       ",
"                  ) P.'       U@V@w@g+C+E@W@:+i+g+g+A+G@g+g+g+g+g+g+g+g+g+g+g+g+g+e+_+_+e+h+g+X@Y@7   @ _ N.                    ",
"                ) % % % '     Z@`@:+g+g+u@f+B+B+e+f+f+f+h+|@|@g+g+g+g+g+g+g+:+e+_+e+f+f+g+h+g+X@ #.#@ % % _ N.                  ",
"              ) % % % % % '   +#@###g+g+e+H@c@g+g+i+i+D+E@E@C+g+g+B+e+z+_+w@e+g+i+D+i+i+i+f+g+$#%#&#% % % % _ N.                ",
"            *#% % % % % % % ' =#-#;#h+h+f+_+G@g+>#G@B+u@,#,#g+G@G@A+B+f+i+i+f+g+h+f+i+i+i+g+g+'#)#; % % % % % _ N.              ",
"          *#% % % % % % % % % ' !#~#c@i+B+A+g+g+g+f+f+f+g+g+g+h+h+i+i+i+i+h+i+i+i+i+i+i+i+f+g+{#]#! % % % % % % _ N.            ",
"        *#% % % % % % % % % % % ^#/#(#T+z+_#A+g+c@g+g+g+g+g+g+f+i+i+i+i+h+f+i+i+i+i+i+i+i+f+G@:#<#% % % % % % % % _ N.          ",
"      *#% % % % % % % % % % % % % [#}#,#|#e+e+1#A+g+g+g+g+g+g+g+g+g+g+g+g+i+i+i+i+i+i+i+H@:+H@2#3#% % % % % % % % % _ N.        ",
"    *#% % % % % % % % % % % % % % 4#5#6#7#B+g+g+H@:+e+G@g+g+g+g+g+g+g+g+g+g+R+R+i+i+f+B+B+g+g+8#9#% % % % % % % % % % _ N.      ",
"  *#% % % % % % % % % % % % % % % % 0#a#b#b#g+g+g+B+A+c#d#e#d+>#B+B+B+B+B+z+f#g#h#i#f+h+h+g+g+j#k#% % % % % % % % % % % _ N.    ",
"O.% % % % % % % % % % % % % % % % % l#m#n#o#f+g+g+p#C+A+A+w@w@A+B+:+q#:+r#s#t#u#v#w#g+g+g+g+x#y#4 % % % % % % % % % % % % _ z#* ",
"A#3@% % % % % % % % % % % % % % % % % B#C#D#E#F#g+g+g+g+g+B+B+g+B+G#H#I#J#K#L#  M#N#O#f+f+A+P#Q#R#% % % % % % % % % % % % a # S#",
"  A#3@% % % % % % % % % % % % % % % _ T#U#V#W#X#g+b#h+Y#|@g+g+Z#`# $.$+$@$#$    $$%$&$*$G#=$-$;${ % % % % % % % % % % % a #     ",
"    A#3@% % % % % % % % % % % % % _ ) ! >$,$'$)$!$g+b#i+D+C+~${$]$^$=#        ] % /$($_$:$<$[$}$_ % % % % % % % % % % a #       ",
"      A#3@% % % % % % % % % % % _ ) ! % % |$1$2$3$i+i+i+i+4$5$6$            ] % % / 7$8$9$- P.% % % % % % % % % % % a #         ",
"        3 3@% % % % % % % % % _ ) ! % % % = 0$a$b$i+i+i+i+c$d$e$          ] % % % % % % % ~ *#4@% % % % % % % % % a #           ",
"          3 3@% % % % % % % _ ) ! % % % % % f$g$h$C+C+i$j$k$l$m$        ] % % % % % % % % % ~ *#4@% % % % % % % a #             ",
"            3 3@% % % % % _ ) ! % % % % % % % n$o$p$q$r$s$t$u$n@      ] % % % % % % % % % % % ~ *#4@% % % % % a #               ",
"              3 3@% % % _ =+! % % % % % % % % _ v$w$x$y$z$A$        ] % % % % % % % % % % % % % ~ *#4@% % % a #                 ",
"                3 3@% _ =+! % % % % % % % % % % ~ B$w._ % *+      ] % % % % % % % % % % % % % % % ~ *#4@% ; #                   ",
"                  3 5@=+! % % % % % % % % % % % % % % % % % *+^ ] % % % % % % % % % % % % % % % % % $ *#; #                     ",
"                      ; % % % % % % % % % % % % % % % % % % % C$% % % % % % % % % % % % % % % % % % % *                         ",
"                      3 3@% % % % % % % % % % % % % % % % % M.  , % % % % % % % % % % % % % % % % % ; #                         ",
"                        3 > % % % % % % % % % % % % % % % M.      , % % % % % % % % % % % % % % % ; #                           ",
"                          3 > % % % % % % % % % % % % % M.          , % % % % % % % % % % % % % ; #                             ",
"                            3 > % % % % % % % % % % % M.              , % % % % % % % % % % % ; #                               ",
"                              3 > % % % % % % % % % M.                  + % % % % % % % % % ; #                                 ",
"                                3 > % % % % % % % M.                      + % % % % % % % ; #                                   ",
"                                  3 > % % % % % M.                          + % % % % % ; #                                     ",
"                                    3 > % % % M.                              + % % % ; #                                       ",
"                                      3 > % M.                                  + % ; #                                         ",
"                                        . +                                       @ #                                           "};
