/* XPM */
static char * enemy_xpm[] = {
"64 64 127 2",
"  	c #1737EA",
". 	c #1838EB",
"+ 	c #1939EC",
"@ 	c #1636E9",
"# 	c #7A7B7C",
"$ 	c #454A4B",
"% 	c #061819",
"& 	c #010101",
"* 	c #131A1D",
"= 	c #575A5A",
"- 	c #070A04",
"; 	c #182328",
"> 	c #5D7F86",
", 	c #74A1AB",
"' 	c #81A8AF",
") 	c #272929",
"! 	c #636363",
"~ 	c #455B66",
"{ 	c #86BAC6",
"] 	c #B6D3DA",
"^ 	c #8FC7D3",
"/ 	c #2C4346",
"( 	c #1B2224",
"_ 	c #000B0B",
": 	c #208173",
"< 	c #415558",
"[ 	c #8EC5D1",
"} 	c #CAE1E6",
"| 	c #FFFFFF",
"1 	c #333333",
"2 	c #0A2E2E",
"3 	c #2AC3AF",
"4 	c #23998D",
"5 	c #9BC7D1",
"6 	c #EBEBEC",
"7 	c #4D7078",
"8 	c #0C1E24",
"9 	c #2ED5BB",
"0 	c #34F1D2",
"a 	c #485F6A",
"b 	c #FAFAFA",
"c 	c #618891",
"d 	c #000000",
"e 	c #3B3C3C",
"f 	c #28B5A4",
"g 	c #35F6D4",
"h 	c #115447",
"i 	c #51636B",
"j 	c #218F82",
"k 	c #272020",
"l 	c #33ECD0",
"m 	c #2B4B4F",
"n 	c #31E4CD",
"o 	c #0B3538",
"p 	c #186A5D",
"q 	c #35F7D4",
"r 	c #25A08F",
"s 	c #197370",
"t 	c #BFC2C3",
"u 	c #2B3A40",
"v 	c #051C18",
"w 	c #9E9999",
"x 	c #767777",
"y 	c #494142",
"z 	c #5C0000",
"A 	c #670000",
"B 	c #12555D",
"C 	c #155F5D",
"D 	c #860000",
"E 	c #0E434B",
"F 	c #28BCBF",
"G 	c #BB0000",
"H 	c #23A4B8",
"I 	c #2DD0C4",
"J 	c #CF0000",
"K 	c #239DAD",
"L 	c #1B7882",
"M 	c #23A6BB",
"N 	c #6B6D6E",
"O 	c #770B0B",
"P 	c #AE0000",
"Q 	c #1A3AED",
"R 	c #22A0B7",
"S 	c #810000",
"T 	c #E30000",
"U 	c #FF0000",
"V 	c #1B6E75",
"W 	c #A9ACAC",
"X 	c #24ACBA",
"Y 	c #470B0B",
"Z 	c #9A0000",
"` 	c #3C0101",
" .	c #020B1B",
"..	c #165C6B",
"+.	c #218D9D",
"@.	c #ADAEAE",
"#.	c #2AC4C0",
"$.	c #898D8E",
"%.	c #00161D",
"&.	c #2A0C0C",
"*.	c #1D6772",
"=.	c #1535E8",
"-.	c #1437E9",
";.	c #1637E8",
">.	c #1336E8",
",.	c #1437EB",
"'.	c #1338EB",
").	c #1637E6",
"!.	c #1736E6",
"~.	c #1736E8",
"{.	c #1536E7",
"].	c #1636ED",
"^.	c #1635EF",
"/.	c #1636EB",
"(.	c #1635E7",
"_.	c #1635E5",
":.	c #1536E5",
"<.	c #1436EF",
"[.	c #1436F0",
"}.	c #1635F0",
"|.	c #1636E3",
"1.	c #1536E3",
"2.	c #1438E8",
"3.	c #1436ED",
"4.	c #1735E5",
"5.	c #1636E1",
"6.	c #1338E8",
"                                          . . . .         . . . . . . . . . . . . . . . . . . . . . . + + + + + + + + + + + + + ",
"                                              . .         . . . . . . . . . . . . . . . . . . . . . . + + + + + + + + + + + + + ",
"@                                       . .                       . . . . . . . . . . . . . . . . . . . . . + + + + + + + + + + ",
"@                                                                 . . . . . . . . . . . . . . . . . . . . . + + + + + + + + + + ",
"@                                                                 . . . . . . . . . . . . . . . . . . . . . + + + + + + + + + + ",
"                                                                        . . . . . . . . . . . . . . . . . . + + + + + + + + + + ",
"                                                                          . . . . . . . . . . . . . . . . . + + + + + + + + + + ",
"                                      @ @ @ @                               . . . . . . . . . . . . . . . . + + + + + + + + + + ",
"                                      @ @ @ @                     @         . . . . . . . . . . . . . . . . + + + + + + + + + + ",
"                                      @ @ @ @     #               @ @       . . . . . . . . . . . . . . . . + + + + + + + + + + ",
"                                  @ @ @ @ @ $ % & & & * $                         . . . . . . . . . . . . . . . . + + + + + + + ",
"                                  @ @ = $ - ; > , ' , > * )                       . . . . . . . . . . . . . . . . + + + + + + + ",
"                          @ @ @ @ ! * & & ~ { ] ] ^ ^ ^ { / (                     . . . . . . . . . . . . . . . . + + + + + + + ",
"                          @ @ @ ( _ : & < [ } | ] ^ ^ ^ ^ , & !                   . . . . . . . . . . . . . . . . + + + + + + + ",
"                        @ @ @ 1 2 3 4 _ ' 5 | 6 ^ ^ ^ ^ [ 7 % - $                     . . . . . . . . . . . . . . + + + + + + + ",
"                      @ @ @ 1 8 9 0 2 a ^ ] b 5 ^ ^ ^ ^ c a * d & e                     . . . . . . . . . . . . . + + + + + + + ",
"                  @ @ @ @ e & f g 9 & > ^ ^ 5 ^ ^ ^ ^ ' a ~ - : : & =                     . . . . . . . . . . . . + + + + + + + ",
"                  @ @ @ @ ) h 0 g 3 d < { ^ ^ ^ ^ ^ { i a < & 3 0 j & k                   . . . . . . . . . . . . + + + + + + + ",
"              @ @ @ @ @ @ d f g g f d < > [ ^ ^ ^ ' i a a ) 2 l g g h *                           . . . . . . . . + + + + + + + ",
"            @ @ @ @ @ @ $ _ 9 g g 9 & m a 7 , , c a a a < & 4 g g n % $                           . . . . . . . . . + + + + + + ",
"            @ @ @ @ @ @ = 2 g g g l 2 ) a a a a a a a ~ ; o n g g f & = $                         . . . . . . . . . . + + + + + ",
"          @ @ @ @ @ @ @ * p q g q g r d / a a a a a ~ ; % 3 g g g s ( t !                         $ 1 = . . . . . . . + + + + + ",
"        @ @ @ @ @ @ @ @ ) : g g g g 0 : d ; m < < u _ v 3 q g g l % e w # 1                     1 k   . . . . . . . . . + + + + ",
"    @ @ @ @ @ @ @ @ @ @ ) : g q q g g 0 f o & & & _ : 9 q g g g 3 & e     x                   y z       . . . . . . . + + + + . ",
"  @ @ @ @ @ @ @ @ @ @ @ ) s q g q g q g q 0 9 3 3 n g q q g g g 4 &                         = A =         . . . . + + + + + . . ",
"  @ @ @ @ @ @ @ @ @ @ @ ) B n q g g g g g q g g g g q g g g q q C ) e                       y D           . . . . + + + + . .   ",
"@ @ @ @ @ @ @ @ @ @ @ @ * E F g g g g q g g q g g g q g g g g l % x t $                     G =                   + . . . . . . ",
"@ @ @ @ @ @ @ @ @ @ @ @ $ 8 H I q q g g g q g g g g g g g g g 9 d = ! $ !                 ! J $                   . . . . . . . ",
"@ @ @ @ @ @ @ @ @ @ @ @ $ & K H n g q g g g g g g q q g g g g 3 & $                       y J                     . . . . + + + ",
"@ @ @ @ @ @ @ @ @ @ @ @ @ & L H M n g g g g g g g g g g g g g f d       = N $             O P                     . . . . + + Q ",
"@ @ @ @ @ @ @ @ @ @ @ @ @ ) o R H M n q g g g g q g q q q q g r & e 1 S T U J y           G =                         . . + + Q ",
"@ @ @ @ @ @ @ @ @ @ @ @ @ ! & V H H H I 0 g g q q g g g g g g r - t W = A T U U y       y T x =                       . . . + + ",
"@ @ @ @ @ @ @ @ @ @ @ @ @ N & & L H H H X n g g g g g g g g g r & t # Y D Z P T T O y y T Z   (                         . . . + ",
"@ @ @ @ @ @ @ @ @ @ @ @ @ k 2 h & B K H H H F n g g g q q q g f & ) A A )   # y G T J ` P !   = =                         . . . ",
"@ @ @ @ @ @ @ @ @ @ @ @ = & 3 l j d  ...+.H H H X I l g q g g 9 d z S 1     e     $ ) ! $     x @.$                       . . . ",
"@ @ @ @ @ @ @ @ @ @ @ @ = 8 0 g I +.E & & E L K H H H X #.n 0 l 2 ` z     $ #         w $.    N t ! $                     . . . ",
"@ @ @ @ @ @ @ @ @ @ @ @ $ o g g F H H +...%.& d 2 B V H H H n q j & &.  $ W @.1     % N x - e d d & &                       . . ",
"@ @ @ @ @ @ @ @ @ @ @ @ $ & 4 n H H H H H R +.2 % ..L X F F 0 g n o & * & * * & & & & d d o p j r f & =                       . ",
"@ @ @ @ @ @ @ @ @ @ @ @ @ e & 2 V K H H H H H ..& +.H F 0 q g g g n f j : : j 4 r f 3 9 l 0 q q g n % !                         ",
"@ @ @ @ @ @ @ @ @ @ @ @ @ @ @ ) & %...+.+.L +.+._ E R H M F I I n n n n l l l n n n n n I I I #.F X _ =                         ",
"@ @ @ @ @ @ @ @ @ @ @ @ @ @ @ @ = $ & & & & B H L d B L B B R H H H H H H H H H H H H H H H H H H +.& !                         ",
"@ @ @ @ @ @ @ @ @ @ @ @ @ @ @ @ @ @ @ @ * & +.H H *.& & & _ K H H H H H H H H H H H H H H H H H H L & e                         ",
"@ @ @ @ @ @ @ @ @ @ @ @ @ @ @ @ @ @ @ @ @ & V H H R 8 o L +.H H H H H H H H H H H H H H H H H H H B & =                         ",
"@ @ @ @ @ @ @ @ @ @ @ @ @ @ @ @ @ @ @ @ @ 1 & ..+.+.8 B H H H H H H H H K K +.+.+.+.+.+.L V K H R % &                           ",
"@ @ @ @ @ @ @ @ @ @ @ @ @ @ @ @ @ @ @ @ @ @ = - & d & E H H H H H H H K _ d d d & & d & o +.H H +.& -                           ",
"@ @ @ @ @ @ @ @ @ @ @ @ @ @ @ @ @ @ @ @ @ @ @ @ ! ) ) E H H H H H H H +.& 1 ( e = ( o L R H H H L & 1                           ",
"@ @ @ @ @ @ @ @ @ @ @ @ @ @ @ @ @ @ @ @ @ @ @ @ @ @ ( 2 H H H H H H H +.& =       * ..H H H H H V & $                           ",
"@ @ @ @ @ @ @ @ @ @ @ @ @ @ @ @ @ @ @ @ @ @ @ @ @ @ = & R H H H H H H +.d e       * ..H H H H H ..& $                           ",
"@ @ @ @ @ @ @ @ @ @ @ @ @ @ @ @ @ @ @ @ @ @ @ @ @ @ = d K H H H H H H +.d e       ) B H H H H H *.& x                           ",
"@ @ @ @ @ @ @ @ @ @ @ @ @ @ @ @ @ @ @ @ @ @ @ @ @ @ $ & +.H H H H H H +.& !       1 o H H H H H *.&                             ",
"=.@ @ @ @ @ @ @ @ @ @ @ @ @ @ @ @ @ @ @ @ @ @ @ @ @ @ & *.H H H H H H L & @ @ @ @ $ & L K K K L 8 (                             ",
"=.@ @ @ @ @ @ @ @ @ @ @ @ @ @ @ @ @ @ @ @ @ @ @ @ @ @ 1 8 K H H H H K o * @ @ @ @   1 d d & d & ( !                             ",
"=.@ @ @ @ @ @ @ @ @ @ @ @ @ @ @ @ @ @ @ @ @ @ @ @ @ @ @ & o L L L B  .- e @ @ @ @       $.x $.                                  ",
"=.@ @ @ @ @ @ @ @ @ @ @ @ @ @ @ @ @ @ @ @ @ @ @ @ @ @ @ = ( & & & - $ @ @ @ @ @ @                                               ",
"=.@ @ @ @ @ @ @ @ @ @ @ @ @ @ @ @ @ @ @ @ @ @ @ @ @ @ @ @ @ @ x @ @ @ @ @ @ @ @ @                                               ",
"=.@ @ @ @ @ @ @ @ @ @ @ @ @ @ @ @ @ @ @ @ @ @ @ @ @ @ @ @ @ @ @ @ @ @ @ @ @ @ @ @                                               ",
"=.@ @ @ @ @ @ @ @ @ @ @ @ @ @ @ @ @ @ @ @ @ @ @ @ @ @ @ @ @ @ @ @ @ @ @ @ @ @ @ @                                               ",
"=.@ -.@ @ @ ;.;.;.@ @ @ @ @ @ @ @ @ @ @ @ @ @ @ @ @ @ @ @ @ @ @ @ @ @ @ @ @ @ @ @                                               ",
">.,.'.,.-.;.).!.!.;.@ @ @ @ @ @ @ @ @ @ @ @ @ @ @ @ @ @ @ @ @ @ @ @ @ @ @ @ @ @ @                                               ",
">.,.'.'.-.-.;.~.~.@ @ @ @ @ @ @ @ @ @ @ @ @ @ @ @ @ @ @ @ @ @ @ @ @ @ @ @ @ @ @ @                                               ",
"{.=.-.-.,.,.].^.^./.@ @ @ @ @ @ @ @ @ @ @ @ @ @ @ @ @ @ @ @ @ @ @ @ @ @ @ @ @ @ @                                               ",
"(._.:.{.-.,.<.[.}./.@ @ @ @ @ @ @ @ @ @ @ @ @ @ @ @ @ @ @ @ @ @ @ @ @ @ @ @ @ @ @ @                                             ",
"_.|.1.1.:.2.,.3.3./.@ @ @ @ @ @ @ @ @ @ @ @ @ @ @ @ @ @ @ @ @ @ @ @ @ @ @ @ @ @ @ @ @ @                                         ",
"4.|.5.|.1.:.2.6.6.@ @ @ @ @ @ @ @ @ @ @ @ @ @ @ @ @ @ @ @ @ @ @ @ @ @ @ @ @ @ @ @ @ @ @ @                                       "};
