/* XPM */
static char * exitopen_xpm[] = {
"64 64 365 2",
"  	c #9FA394",
". 	c #A1A596",
"+ 	c #A9AC9C",
"@ 	c #AAAD9D",
"# 	c #A0A495",
"$ 	c #ACB09F",
"% 	c #B0B3A2",
"& 	c #A6AA9A",
"* 	c #A8AC9C",
"= 	c #ABAE9D",
"- 	c #A0A394",
"; 	c #9EA294",
"> 	c #95998C",
", 	c #909386",
"' 	c #919487",
") 	c #9B9F90",
"! 	c #9FA292",
"~ 	c #969A8B",
"{ 	c #989B8D",
"] 	c #9A9D8F",
"^ 	c #919588",
"/ 	c #A0A396",
"( 	c #4D4E4A",
"_ 	c #040406",
": 	c #020204",
"< 	c #010103",
"[ 	c #363735",
"} 	c #878A80",
"| 	c #9A9E91",
"1 	c #363634",
"2 	c #050609",
"3 	c #141518",
"4 	c #141618",
"5 	c #0B0C0F",
"6 	c #141415",
"7 	c #8E9186",
"8 	c #81837B",
"9 	c #2D2F33",
"0 	c #B6C2D0",
"a 	c #CAD6E5",
"b 	c #C1CEDC",
"c 	c #5D636A",
"d 	c #60625B",
"e 	c #70736A",
"f 	c #6E757E",
"g 	c #D3E0F0",
"h 	c #9BA4B0",
"i 	c #4F504D",
"j 	c #707269",
"k 	c #727982",
"l 	c #D3E0EF",
"m 	c #D3DFEF",
"n 	c #D2DFEF",
"o 	c #D2E0EF",
"p 	c #9EA8B4",
"q 	c #4C4D4A",
"r 	c #6F7269",
"s 	c #737A83",
"t 	c #4D4E4B",
"u 	c #D2E0F0",
"v 	c #C5D0DE",
"w 	c #B2BCC6",
"x 	c #B2BBC6",
"y 	c #B1BBC5",
"z 	c #B2BCC7",
"A 	c #B2BBC5",
"B 	c #B4BDC8",
"C 	c #CCD8E7",
"D 	c #D2DFF0",
"E 	c #737B83",
"F 	c #BFCAD7",
"G 	c #A7AFB7",
"H 	c #AAB2BB",
"I 	c #C7D3E1",
"J 	c #4C4D49",
"K 	c #707369",
"L 	c #B9C3CF",
"M 	c #A6AFB7",
"N 	c #C1CCDA",
"O 	c #797B70",
"P 	c #D0DCEC",
"Q 	c #B3BCC7",
"R 	c #A7AEB6",
"S 	c #A7AFB6",
"T 	c #A7AEB7",
"U 	c #BBC6D2",
"V 	c #ADB09F",
"W 	c #7B7D72",
"X 	c #727A82",
"Y 	c #CEDAE9",
"Z 	c #C9D5E4",
"` 	c #C9D5E3",
" .	c #D0DDED",
"..	c #4E4F4C",
"+.	c #7A7C72",
"@.	c #D3DFF0",
"#.	c #52524F",
"$.	c #ABAE9E",
"%.	c #51524E",
"&.	c #A0A494",
"*.	c #C5D1DF",
"=.	c #C6D1DF",
"-.	c #C6D2DF",
";.	c #C6D2E0",
">.	c #50514D",
",.	c #CEDAEA",
"'.	c #AEB8C1",
").	c #A6AEB6",
"!.	c #A6AFB6",
"~.	c #B6C1CC",
"{.	c #D1DEEE",
"].	c #A3A797",
"^.	c #A4A898",
"/.	c #AFB3A2",
"(.	c #CAD6E4",
"_.	c #ABB4BD",
":.	c #B0B9C3",
"<.	c #CFDBEB",
"[.	c #AFB2A1",
"}.	c #A2A696",
"|.	c #A8AC9B",
"1.	c #A4A899",
"2.	c #A9B1B9",
"3.	c #ADB5BF",
"4.	c #CBD7E6",
"5.	c #A3A697",
"6.	c #B6C0CB",
"7.	c #B6BFCA",
"8.	c #B8C2CE",
"9.	c #CFDCEB",
"0.	c #50504C",
"a.	c #7A7D72",
"b.	c #4E4E4B",
"c.	c #73756B",
"d.	c #C2CEDB",
"e.	c #AEB8C2",
"f.	c #AFB9C2",
"g.	c #AFB9C3",
"h.	c #AFB8C2",
"i.	c #B0BAC4",
"j.	c #BCC7D4",
"k.	c #A8B0B9",
"l.	c #C4D0DD",
"m.	c #4B4C49",
"n.	c #BEC9D6",
"o.	c #CEDBEA",
"p.	c #B1BAC5",
"q.	c #7A7C73",
"r.	c #4B4F55",
"s.	c #CFDCEC",
"t.	c #808891",
"u.	c #5E5F5B",
"v.	c #919488",
"w.	c #070709",
"x.	c #4D5158",
"y.	c #7C848C",
"z.	c #636971",
"A.	c #07080A",
"B.	c #80827A",
"C.	c #A5A999",
"D.	c #8B8C83",
"E.	c #08080A",
"F.	c #62645E",
"G.	c #9DA192",
"H.	c #9B9E91",
"I.	c #494A46",
"J.	c #232324",
"K.	c #8F9186",
"L.	c #898B80",
"M.	c #050508",
"N.	c #6A6B65",
"O.	c #AFB2A3",
"P.	c #373837",
"Q.	c #2F2E31",
"R.	c #5D6268",
"S.	c #80888F",
"T.	c #757D84",
"U.	c #4F5154",
"V.	c #3B3D41",
"W.	c #030204",
"X.	c #030305",
"Y.	c #9FA194",
"Z.	c #999B8E",
"`.	c #060406",
" +	c #616569",
".+	c #72777C",
"++	c #8F969D",
"@+	c #696D71",
"#+	c #70767A",
"$+	c #3C3E42",
"%+	c #84867D",
"&+	c #808178",
"*+	c #31373C",
"=+	c #9FA7AF",
"-+	c #82898F",
";+	c #7D848A",
">+	c #6C7278",
",+	c #595955",
"'+	c #484844",
")+	c #6F757B",
"!+	c #6E7378",
"~+	c #9299A0",
"{+	c #A6AEB7",
"]+	c #757A7F",
"^+	c #8A9298",
"/+	c #8D949B",
"(+	c #020203",
"_+	c #09090C",
":+	c #A8AB9C",
"<+	c #A2A697",
"[+	c #A1A595",
"}+	c #ADB0A0",
"|+	c #A7AA9C",
"1+	c #09090B",
"2+	c #020103",
"3+	c #9198A0",
"4+	c #7D8389",
"5+	c #686D71",
"6+	c #A2AAB2",
"7+	c #6A6F73",
"8+	c #686C70",
"9+	c #989FA7",
"0+	c #A3ABB3",
"a+	c #28282B",
"b+	c #909287",
"c+	c #ABAF9E",
"d+	c #A3A798",
"e+	c #8A8C81",
"f+	c #2D3033",
"g+	c #A5ADB5",
"h+	c #8C939A",
"i+	c #71767B",
"j+	c #98A0A7",
"k+	c #696C71",
"l+	c #696E72",
"m+	c #5D6267",
"n+	c #6B6D65",
"o+	c #666761",
"p+	c #62666B",
"q+	c #9BA2AA",
"r+	c #686C71",
"s+	c #8C949A",
"t+	c #72787D",
"u+	c #81878D",
"v+	c #2B2C2A",
"w+	c #A2A598",
"x+	c #232422",
"y+	c #878D94",
"z+	c #6D7176",
"A+	c #7F868C",
"B+	c #81888E",
"C+	c #9CA4AB",
"D+	c #909389",
"E+	c #898C81",
"F+	c #100F12",
"G+	c #9DA5AD",
"H+	c #7C8288",
"I+	c #71777C",
"J+	c #8E959C",
"K+	c #474A4D",
"L+	c #72746D",
"M+	c #70726B",
"N+	c #4F5459",
"O+	c #A7AFB8",
"P+	c #A1A9B1",
"Q+	c #99A1A8",
"R+	c #73787E",
"S+	c #484947",
"T+	c #3F3F3E",
"U+	c #797E84",
"V+	c #9AA2AA",
"W+	c #A0A8B0",
"X+	c #959DA4",
"Y+	c #6A6F74",
"Z+	c #A4ACB4",
"`+	c #92989F",
" @	c #9A9D91",
".@	c #979A8F",
"+@	c #959CA4",
"@@	c #6C7175",
"#@	c #929AA1",
"$@	c #899097",
"%@	c #767C82",
"&@	c #28282C",
"*@	c #7D7F76",
"=@	c #7B7D74",
"-@	c #34373B",
";@	c #838A90",
">@	c #7C8388",
",@	c #848B91",
"'@	c #62686E",
")@	c #60615D",
"!@	c #585955",
"~@	c #6A6E74",
"{@	c #72787E",
"]@	c #6F7479",
"^@	c #90979E",
"/@	c #868B92",
"(@	c #1E1E1F",
"_@	c #9DA193",
":@	c #9B9F91",
"<@	c #1D1D1D",
"[@	c #8A9198",
"}@	c #9BA3AA",
"|@	c #9FA8B0",
"1@	c #9BA3AB",
"2@	c #9FA7AE",
"3@	c #0F0A0D",
"4@	c #8B8E83",
"5@	c #8C8F85",
"6@	c #191A1C",
"7@	c #A4ADB5",
"8@	c #6D7276",
"9@	c #696D70",
"0@	c #939BA2",
"a@	c #686D70",
"b@	c #4D5256",
"c@	c #6D6F67",
"d@	c #686A63",
"e@	c #54595E",
"f@	c #878E94",
"g@	c #787F84",
"h@	c #787E84",
"i@	c #434341",
"j@	c #A1A597",
"k@	c #464647",
"l@	c #7B8086",
"m@	c #A7B0B8",
"n@	c #798085",
"o@	c #969CA3",
"p@	c #96998C",
"q@	c #2C2F32",
"r@	c #565A5F",
"s@	c #595D62",
"t@	c #4D5257",
"u@	c #35373B",
"v@	c #36373B",
"w@	c #575B60",
"x@	c #595E63",
"y@	c #39393D",
"z@	c #35363A",
"A@	c #4B5156",
"B@	c #585C61",
"C@	c #3A393D",
"D@	c #9A9E90",
"E@	c #909387",
"F@	c #363736",
"G@	c #83867E",
"H@	c #9DA093",
"I@	c #80837A",
"J@	c #6C6E67",
"K@	c #696B64",
"L@	c #686B63",
"M@	c #696B63",
"N@	c #6A6B64",
"O@	c #72746B",
"P@	c #72736A",
"Q@	c #6F7068",
"R@	c #72746A",
"S@	c #6F7168",
"T@	c #6A6C64",
"U@	c #7D7F77",
"V@	c #96998D",
"W@	c #A1A495",
"X@	c #A7AA9A",
"                                        . +                                       @ #                                           ",
"                                      # $ % &                                   * % = -                                         ",
"                                    # $ % % % &                               * % % % =                                         ",
"                                  # $ % % % % % &                           * % % % % % =                                       ",
"                                # $ % % % % % % % &                       * % % % % % % % =                                     ",
"                ; > , , , , , ' ) ! ! ! ! ! ! ! ! ! ~ , , , , , , , , , { ! ! ! ! ! ! ! ! ! ] , , , , , , , ^ /                 ",
"              ^ ( _ : : : : : : : : : : : : : : : : : : : : : : : : : : : : : : : : : : : : : : : : : : : : < [ }               ",
"            | 1 : 2 3 4 4 4 4 4 4 4 4 4 4 4 4 4 4 4 4 4 4 4 4 4 4 4 4 4 4 4 4 4 4 4 4 4 4 4 4 4 4 4 4 4 4 4 5 : 6 7             ",
"            8 : 9 0 a a a a a a a a a a a a a a a a a a a a a a a a a a a a a a a a a a a a a a a a a a a a b c : d             ",
"            e : f g g g g g g g g g g g g g g g g g g g g g g g g g g g g g g g g g g g g g g g g g g g g g g h : i             ",
"            j : k g l l m m l n m l m m n m l m l l m m m l m m l l m o l m l l m l l m l n m l m l l m m l l p : q             ",
"            r : s g g g g g g g g g g g g g g g g g g g g g g g g g g g g g g g g g g g g g g g g g g g g g g p : t             ",
"            j : k g u o o o u u v w x x w x w x w y w y z A z y z y w x w x w x x x x w x w B C u u o D u u D p : q             ",
"            j : E g g g g g n F G G G G G G G G G G G G G G G G G G G G G G G G G G G G G G G H I g g u g g g p : J             ",
"            K : k g g g g n L G G G G G G G M G G G G G G G M G G G M G G G M G G G G G G G G M G N g g g u g p : t             ",
"          # O : s g n o P Q R R S R R R G R G S S R G S S G T S S R S S R R S S S R R G R S S S R G U n g o o p : (             ",
"        # V W : X g l o Y Z Z Z Z Z Z Z Z Z Z Z Z Z Z Z Z Z Z Z Z Z Z Z Z Z Z Z Z Z Z Z Z Z Z Z Z Z `  .l l o p : ..            ",
"      # V % +.: s g g g g g g g g g g g g g g g g g g g g g g g g g g g g g g g @.g g g g g g g g g g g g g g p : #.$.-         ",
"    # V % % W : X g g l g g l g g g g l u l g l g g l g o l g g g g l g g l l l g g u l g l g g g l g g l g g p : %.% $.&.      ",
"  # V % % % W : X g g g g g g g  .*.*.*.=.*.-.*.;.*.;.*.;.*.;.*.;.*.;.*.;.*.*.*.*.*.*.=.*.-.I n g g u g g g g p : >.% % $.&.    ",
"# V % % % % W : X g D u u u u ,.'.).).).).!.).!.).!.).).).).).!.).).).!.).).!.!.).).).).).).!.~.{.u u u u g g p : %.% % % $.&.].",
"^./.% % % % W : X g g l l l (._.G G G G G G G G G G G G G G G G G G G G G G G G G G G G G T G G :.<.l g l l l p : %.% % % [.}.|.",
"  1.% % % % W : s g u u g v 2.G G G G G G G G G G G G G G G G G G G G G T G G G G G G G G G G G G 3.4.u g u g p : >.% % [.5.    ",
"    ^.% % % W : X g g g a 6.7.7.7.7.7.7.7.7.7.7.7.7.7.7.7.7.7.7.7.7.7.7.7.7.7.7.7.7.7.7.7.7.7.7.7.7.8.9.g g g p : %.% [.5.      ",
"      ^./.% W : s g l o l g g g g g g g g g g g g g u g g g g g l g g g l g g g g g g g g g g g g g g o l o l p : %.[.5.        ",
"        ^./.W : k g g g g g g g g g g g g g g g g g g g g g g g g g g g g g g g g g l g g g g g g g g g g g g p : 0.5.          ",
"          ^.a.: s g u g u u u u g u u u u u u u u u u u u u u u u u u u u u u u u u u u u u u u u u g u u g u p : b.            ",
"            c.: k g l l l l l o d.e.f.e.g.h.g.'.f.e.g.h.g.h.h.h.h.h.h.h.h.f.h.h.h.f.h.g.e.g.i.a g l o l l l l p : t             ",
"            K : s g u u g u n j.G G G G G G G G G G G G G G G G G G G G G G G G G G G G G G G k.l.g g g u u u p : m.            ",
"            j : k g g g g {.6.R G G G G G G G G S G G G G G G G G G G G G G G G G G S G G G G G G n.n g g g g p : (             ",
"            r : E g l l o.p.G G G G G G G G G G G G G G G G G G G G G G G G G G G G G G G G G G G G L {.l l l p : t             ",
"            j : k g u g  .,.,.,.,.,.,.,.,.,.,.,.,.,.,.,.,.,.,.,.,.Y ,.,.Y Y ,.,.,.,.,.,.,.,.,.,.Y ,.Y {.l o l p : J             ",
"            j : E g g g g g g u g g u u u g u u g g u u u g u g g g g g u g g g g u u u g u g u u g g u u g g p : q             ",
"            r : k g g l l l l l g l l l m l l l l l l l l l l l l l l g l l l l l l l l l l l l l l l l l l l p : t             ",
"            q.: r.s.@.@.g g g g g g @.g @.g g g g g @.g g g @.g g g g g @.g @.g g g g g g g @.g g @.g @.g g g t.: u.            ",
"            v.w.: x.y.y.y.y.y.y.y.y.y.y.y.y.y.y.y.y.y.y.y.y.y.y.y.y.y.y.y.y.y.y.y.y.y.y.y.y.y.y.y.y.y.y.y.y.z.A.: B.            ",
"            C.D.E.: : : : : : : : : : : : : : : : : : : : : : : : : : : : : : : : : : : : : : : : : : : : : : : F.G.            ",
"          C.% H.I.: : : : : : : : : : : : : : : : : : : : : : : : : : : : : : : : : : : : : : : : : : : : : : J.K.1.            ",
"        C.% L.M.: : : : : : : : : : : : : : : : : : : : : : : : : : : : : : : : : : : : : : : : : : : : : : : : : N.].          ",
"      C.% O.P.: Q.R.S.S.S.S.S.S.S.S.S.S.S.S.S.S.S.S.S.S.S.S.S.S.S.S.S.S.S.S.S.S.S.S.S.S.S.S.S.S.S.S.S.S.S.T.U.V.W.X.Y.].        ",
"    C.% % Z.: `. +.+).G G G G G G G G G G G G G G G G G G G G G G G G G G G G G G G G G G G G G G G G G G ++@+#+$+: %+[.].      ",
"  C.% % % &+: *+@+@+=+G G G G G G G G G G G G G G G G G G G G G G G G G G G G G G G G G G G G G G G G G G -+@+;+>+: ,+% [.].    ",
"^.% % % % '+: )+!+@+~+G T T T G T {+M G {+T M G G G {+T G G T T G G {+T G M M M T T T T G T G {+T T M {+G ]+@+^+/+(+_+:+% [.<+* ",
"[+}+% % |+1+2+3+4+5+-+G G T G G G T G G T G G G G G T G T G T S G G G G G G G G G G T T T R G G G G G G 6+7+8+9+0+a+: b+% c+# d+",
"  [+}+% e+: f+g+h+@+i+{+G G G G G G G G G G G G G G G G G G G G G G G G G G G G G G G G G G G G G G G G j+k+l+6+G m+: n+c+#     ",
"    [+}+o+: p+G q+r+@+=+G G G G G G G G G G G G G G G G G G G G G G G G G G G G G G G G G G G G G G G G s+5+t+G G u+: v+w+      ",
"      # x+: y+G g+z+@+~+G G G G G G G G G G G G G G G G G G G G G G G G G G G G G G G G G G G G G G G G A+@+B+G G C+_+: D+      ",
"      E+: F+G+G G H+@+-+G G G G G G G G G G G G G G G G G G G G G G G G G G G G G G G G G G G G G G G G I+5+J+G G G K+: L+      ",
"      M+: N+O+G G s+k+t+M M G G G G G G G G M G G G G G G G G G G G G G G G G G G G G G G G G G G G G P+l+r+Q+G G G R+: S+      ",
"      T+: U+G G G V+@+@+W+G G G G M M G G G G G G G G G G G G G G G M G G G G G G G M G G G G G G G G X+r+Y+Z+G G G `+: _  @    ",
"    .@_ X.+@G G G g+@@k+#@G G G G G G G G G G G G G G G G G G G G G G G G G G G G G G G G G G G G G G $@@+%@G G G G ).&@: *@    ",
"    =@: -@).G G G G H+@+;@G G G G G G G G G G G G G G G G G G G G G G G G G G G G G G G G G G G G G G >@@+,@G G G G G '@: )@    ",
"    !@: ~@G G G G G h+k+{@).G G G G G G G G G G G G G G G G G G G G G G G G G G G G G G G T G G G G ).]@@+^@G G G G G /@: (@_@  ",
"  :@<@: [@G G G G G }@8+@+|@G G G M G G G G G G G G G G G G G G G G G G G G G G G G G M G G G G M G |@@+8+1@M M G G G 2@3@: 4@  ",
"  5@: 6@P+G G G G M 7@8@9@0@G G G M G G G M G G G M G G G G G G G G M G G G M G G G {+M G G M G G G #@a@8@g+G T G G G G b@: c@  ",
"  d@: e@G G G G G G G H+9@,@G G G G G G G G G G G G G G G G G G G G G G G G G G G G G G G G G G G G f@9@g@G G G G G G G h@: i@; ",
"j@k@: l@m@G G G G G G /+@+t+G G G G G G G G G G G G G G G G G G G G G G G G G G G G G G G G G G G G n@@+f@G G G G G G G o@W.w.p@",
"# >.: q@r@s@s@s@s@s@s@t@u@v@w@s@s@s@s@s@s@s@s@s@s@s@s@s@s@s@s@s@s@s@s@s@s@s@s@s@s@s@s@s@s@s@s@s@s@x@y@z@A@s@s@s@s@s@s@B@C@: J.D@",
"  E@F@: : : : : : : : : : : : : : : : : : : : : : : : : : : : : : : : : : : : : : : : : : : : : : : : : : : : : : : : : : 6 G@  ",
"    H@I@J@K@K@L@M@K@L@M@K@L@M@K@N@j O@P@P@O@O@P@O@c@L@K@M@L@K@K@L@M@K@L@M@Q@P@O@O@P@P@O@R@S@T@M@L@K@M@L@K@M@L@K@K@L@M@K@U@V@    ",
"                                  W@V % % % % % X@                          + % % % % % $.#                                     ",
"                                    W@V % % % X@                              + % % % $.#                                       ",
"                                      W@V % X@                                  + % $.#                                         ",
"                                        . +                                       @ #                                           "};
