/* XPM */
static char * exitopen_xpm[] = {
"64 64 334 2",
"  	c #1737EA",
". 	c #1838EB",
"+ 	c #1939EC",
"@ 	c #1636E9",
"# 	c #1D39E8",
"$ 	c #3243D7",
"% 	c #1D35D3",
"& 	c #1D34D2",
"* 	c #1C34D2",
"= 	c #1E36D4",
"- 	c #1D36D4",
"; 	c #253AD5",
"> 	c #3749E7",
", 	c #3040D2",
"' 	c #353864",
") 	c #040406",
"! 	c #020204",
"~ 	c #010103",
"{ 	c #282A45",
"] 	c #444DBD",
"^ 	c #3244DF",
"/ 	c #272945",
"( 	c #050609",
"_ 	c #141518",
": 	c #141618",
"< 	c #0B0C0F",
"[ 	c #141415",
"} 	c #404CCB",
"| 	c #474EB1",
"1 	c #2D2F33",
"2 	c #B6C2D0",
"3 	c #CAD6E5",
"4 	c #C1CEDC",
"5 	c #5D636A",
"6 	c #303788",
"7 	c #2B35A2",
"8 	c #6E757E",
"9 	c #D3E0F0",
"0 	c #9BA4B0",
"a 	c #3B3E65",
"b 	c #2934A1",
"c 	c #727982",
"d 	c #D3E0EF",
"e 	c #D3DFEF",
"f 	c #D2DFEF",
"g 	c #D2E0EF",
"h 	c #9EA8B4",
"i 	c #373963",
"j 	c #2833A1",
"k 	c #737A83",
"l 	c #393B63",
"m 	c #D2E0F0",
"n 	c #C5D0DE",
"o 	c #B2BCC6",
"p 	c #B2BBC6",
"q 	c #B1BBC5",
"r 	c #B2BCC7",
"s 	c #B2BBC5",
"t 	c #B4BDC8",
"u 	c #CCD8E7",
"v 	c #D2DFF0",
"w 	c #737B83",
"x 	c #BFCAD7",
"y 	c #A7AFB7",
"z 	c #AAB2BB",
"A 	c #C7D3E1",
"B 	c #373962",
"C 	c #2733A0",
"D 	c #B9C3CF",
"E 	c #A6AFB7",
"F 	c #C1CCDA",
"G 	c #383B63",
"H 	c #D0DCEC",
"I 	c #B3BCC7",
"J 	c #A7AEB6",
"K 	c #A7AFB6",
"L 	c #A7AEB7",
"M 	c #BBC6D2",
"N 	c #383A62",
"O 	c #2A34A1",
"P 	c #727A82",
"Q 	c #CEDAE9",
"R 	c #C9D5E4",
"S 	c #C9D5E3",
"T 	c #D0DDED",
"U 	c #363862",
"V 	c #D3DFF0",
"W 	c #383A63",
"X 	c #C5D1DF",
"Y 	c #C6D1DF",
"Z 	c #C6D2DF",
"` 	c #C6D2E0",
" .	c #CEDAEA",
"..	c #AEB8C1",
"+.	c #A6AEB6",
"@.	c #A6AFB6",
"#.	c #B6C1CC",
"$.	c #D1DEEE",
"%.	c #CAD6E4",
"&.	c #ABB4BD",
"*.	c #B0B9C3",
"=.	c #CFDBEB",
"-.	c #A9B1B9",
";.	c #ADB5BF",
">.	c #CBD7E6",
",.	c #B6C0CB",
"'.	c #B6BFCA",
").	c #B8C2CE",
"!.	c #CFDCEB",
"~.	c #1A3AED",
"{.	c #363861",
"].	c #373A62",
"^.	c #C2CEDB",
"/.	c #AEB8C2",
"(.	c #AFB9C2",
"_.	c #AFB9C3",
":.	c #AFB8C2",
"<.	c #B0BAC4",
"[.	c #BCC7D4",
"}.	c #A8B0B9",
"|.	c #C4D0DD",
"1.	c #BEC9D6",
"2.	c #CEDBEA",
"3.	c #B1BAC5",
"4.	c #373961",
"5.	c #383B62",
"6.	c #4249A7",
"7.	c #4B4F55",
"8.	c #CFDCEC",
"9.	c #808891",
"0.	c #43457A",
"a.	c #3644CE",
"b.	c #070709",
"c.	c #4D5158",
"d.	c #7C848C",
"e.	c #636971",
"f.	c #07080A",
"g.	c #4B51AE",
"h.	c #565BAA",
"i.	c #08080A",
"j.	c #404380",
"k.	c #1C39E6",
"l.	c #1736E9",
"m.	c #454FC7",
"n.	c #2F315A",
"o.	c #232324",
"p.	c #4A51B6",
"q.	c #3245E7",
"r.	c #4148AF",
"s.	c #050508",
"t.	c #434783",
"u.	c #1938E9",
"v.	c #3A4AE5",
"w.	c #31313D",
"x.	c #2F2E31",
"y.	c #5D6268",
"z.	c #80888F",
"A.	c #757D84",
"B.	c #4F5154",
"C.	c #3B3D41",
"D.	c #030204",
"E.	c #030305",
"F.	c #424DCF",
"G.	c #3140C7",
"H.	c #060406",
"I.	c #616569",
"J.	c #72777C",
"K.	c #8F969D",
"L.	c #696D71",
"M.	c #70767A",
"N.	c #3C3E42",
"O.	c #4E53A5",
"P.	c #454BA0",
"Q.	c #31373C",
"R.	c #9FA7AF",
"S.	c #82898F",
"T.	c #7D848A",
"U.	c #6C7278",
"V.	c #40426A",
"W.	c #1A38E9",
"X.	c #2C2F58",
"Y.	c #6F757B",
"Z.	c #6E7378",
"`.	c #9299A0",
" +	c #A6AEB7",
".+	c #757A7F",
"++	c #8A9298",
"@+	c #8D949B",
"#+	c #020203",
"$+	c #09090C",
"%+	c #424FDA",
"&+	c #4752D7",
"*+	c #09090B",
"=+	c #020103",
"-+	c #9198A0",
";+	c #7D8389",
">+	c #686D71",
",+	c #A2AAB2",
"'+	c #6A6F73",
")+	c #686C70",
"!+	c #989FA7",
"~+	c #A3ABB3",
"{+	c #28282B",
"]+	c #434CB9",
"^+	c #3943B2",
"/+	c #2D3033",
"(+	c #A5ADB5",
"_+	c #8C939A",
":+	c #71767B",
"<+	c #98A0A7",
"[+	c #696C71",
"}+	c #696E72",
"|+	c #5D6267",
"1+	c #373C89",
"2+	c #1535E8",
"3+	c #474A7A",
"4+	c #62666B",
"5+	c #9BA2AA",
"6+	c #686C71",
"7+	c #8C949A",
"8+	c #72787D",
"9+	c #81878D",
"0+	c #1F2036",
"a+	c #3A4AE7",
"b+	c #3546E3",
"c+	c #15162E",
"d+	c #878D94",
"e+	c #6D7176",
"f+	c #7F868C",
"g+	c #81888E",
"h+	c #9CA4AB",
"i+	c #4751C9",
"j+	c #3743C3",
"k+	c #100F12",
"l+	c #9DA5AD",
"m+	c #7C8288",
"n+	c #71777C",
"o+	c #8E959C",
"p+	c #474A4D",
"q+	c #42489B",
"r+	c #424797",
"s+	c #4F5459",
"t+	c #A7AFB8",
"u+	c #A1A9B1",
"v+	c #99A1A8",
"w+	c #73787E",
"x+	c #37395B",
"y+	c #1B38E8",
"z+	c #32334D",
"A+	c #797E84",
"B+	c #9AA2AA",
"C+	c #A0A8B0",
"D+	c #959DA4",
"E+	c #6A6F74",
"F+	c #A4ACB4",
"G+	c #92989F",
"H+	c #414EDA",
"I+	c #4853D3",
"J+	c #959CA4",
"K+	c #6C7175",
"L+	c #929AA1",
"M+	c #899097",
"N+	c #767C82",
"O+	c #28282C",
"P+	c #3640B1",
"Q+	c #3E46AA",
"R+	c #34373B",
"S+	c #838A90",
"T+	c #7C8388",
"U+	c #848B91",
"V+	c #62686E",
"W+	c #42457D",
"X+	c #3F4171",
"Y+	c #6A6E74",
"Z+	c #72787E",
"`+	c #6F7479",
" @	c #90979E",
".@	c #868B92",
"+@	c #1C1C21",
"@@	c #3647E3",
"#@	c #1336E8",
"$@	c #3144E1",
"%@	c #191923",
"&@	c #8A9198",
"*@	c #9BA3AA",
"=@	c #9FA8B0",
"-@	c #9BA3AB",
";@	c #9FA7AE",
">@	c #0F0A0D",
",@	c #3E49C4",
"'@	c #4E56C1",
")@	c #191A1C",
"!@	c #A4ADB5",
"~@	c #6D7276",
"{@	c #696D70",
"]@	c #939BA2",
"^@	c #686D70",
"/@	c #4D5256",
"(@	c #393F97",
"_@	c #1536E7",
":@	c #383E8F",
"<@	c #54595E",
"[@	c #878E94",
"}@	c #787F84",
"|@	c #787E84",
"1@	c #393A4E",
"2@	c #213BE8",
"3@	c #3546E6",
"4@	c #454548",
"5@	c #7B8086",
"6@	c #A7B0B8",
"7@	c #798085",
"8@	c #969CA3",
"9@	c #2C3FD9",
"0@	c #233BE5",
"a@	c #3A3C64",
"b@	c #2C2F32",
"c@	c #565A5F",
"d@	c #595D62",
"e@	c #4D5257",
"f@	c #35373B",
"g@	c #36373B",
"h@	c #575B60",
"i@	c #595E63",
"j@	c #39393D",
"k@	c #35363A",
"l@	c #4B5156",
"m@	c #585C61",
"n@	c #3A393D",
"o@	c #3143DF",
"p@	c #1735E5",
"q@	c #3D48C6",
"r@	c #2D2E40",
"s@	c #4F55B2",
"                                          . . . .         . . . . . . . . . . . . . . . . . . . . . . + + + + + + + + + + + + + ",
"                                              . .         . . . . . . . . . . . . . . . . . . . . . . + + + + + + + + + + + + + ",
"@                                       . .                       . . . . . . . . . . . . . . . . . . . . . + + + + + + + + + + ",
"@                                                                 . . . . . . . . . . . . . . . . . . . . . + + + + + + + + + + ",
"@                                                                 . . . . . . . . . . . . . . . . . . . . . + + + + + + + + + + ",
"                                                                        . . . . . . . . . . . . . . . . . . + + + + + + + + + + ",
"                                                                          . . . . . . . . . . . . . . . . . + + + + + + + + + + ",
"                                      @ @ @ @                               . . . . . . . . . . . . . . . . + + + + + + + + + + ",
"                                      @ @ @ @                     @         . . . . . . . . . . . . . . . . + + + + + + + + + + ",
"                                      @ @ @ @                     @ @       . . . . . . . . . . . . . . . . + + + + + + + + + + ",
"                # $ % % % % % % % & * & & * & & * % % % % % % % % % % % % % % % % = = - = = - = = - = = - - ; > . + + + + + + + ",
"              , ' ) ! ! ! ! ! ! ! ! ! ! ! ! ! ! ! ! ! ! ! ! ! ! ! ! ! ! ! ! ! ! ! ! ! ! ! ! ! ! ! ! ! ! ! ! ~ { ] + + + + + + + ",
"            ^ / ! ( _ : : : : : : : : : : : : : : : : : : : : : : : : : : : : : : : : : : : : : : : : : : : < ! [ } + + + + + + ",
"            | ! 1 2 3 3 3 3 3 3 3 3 3 3 3 3 3 3 3 3 3 3 3 3 3 3 3 3 3 3 3 3 3 3 3 3 3 3 3 3 3 3 3 3 3 3 3 3 4 5 ! 6 + + + + + + ",
"            7 ! 8 9 9 9 9 9 9 9 9 9 9 9 9 9 9 9 9 9 9 9 9 9 9 9 9 9 9 9 9 9 9 9 9 9 9 9 9 9 9 9 9 9 9 9 9 9 9 0 ! a + + + + + + ",
"            b ! c 9 d d e e d f e d e e f e d e d d e e e d e e d d e g d e d d e d d e d f e d e d d e e d d h ! i + + + + + + ",
"            j ! k 9 9 9 9 9 9 9 9 9 9 9 9 9 9 9 9 9 9 9 9 9 9 9 9 9 9 9 9 9 9 9 9 9 9 9 9 9 9 9 9 9 9 9 9 9 9 h ! l + + + + + + ",
"            b ! c 9 m g g g m m n o p p o p o p o q o q r s r q r q o p o p o p p p p o p o t u m m g v m m v h ! i + + + + + + ",
"            b ! w 9 9 9 9 9 f x y y y y y y y y y y y y y y y y y y y y y y y y y y y y y y y z A 9 9 m 9 9 9 h ! B + + + + + + ",
"            C ! c 9 9 9 9 f D y y y y y y y E y y y y y y y E y y y E y y y E y y y y y y y y E y F 9 9 9 m 9 h ! G + + + + + + ",
"            j ! k 9 f g H I J J K J J J y J y K K J y K K y L K K J K K J J K K K J J y J K K K J y M f 9 g g h ! N . + + + + + ",
"          @ O ! P 9 d g Q R R R R R R R R R R R R R R R R R R R R R R R R R R R R R R R R R R R R R S T d d g h ! U . + + + + + ",
"        @ @ C ! k 9 9 9 9 9 9 9 9 9 9 9 9 9 9 9 9 9 9 9 9 9 9 9 9 9 9 9 9 9 9 9 V 9 9 9 9 9 9 9 9 9 9 9 9 9 9 h ! G . . + + + + ",
"    @ @ @ @ j ! P 9 9 d 9 9 d 9 9 9 9 d m d 9 d 9 9 d 9 g d 9 9 9 9 d 9 9 d d d 9 9 m d 9 d 9 9 9 d 9 9 d 9 9 h ! W . + + + + . ",
"  @ @ @ @ @ O ! P 9 9 9 9 9 9 9 T X X X Y X Z X ` X ` X ` X ` X ` X ` X ` X X X X X X Y X Z A f 9 9 m 9 9 9 9 h ! U + + + + . . ",
"  @ @ @ @ @ j ! P 9 v m m m m  ...+.+.+.+.@.+.@.+.@.+.+.+.+.+.@.+.+.+.@.+.+.@.@.+.+.+.+.+.+.@.#.$.m m m m 9 9 h ! W + + + . .   ",
"@ @ @ @ @ @ j ! P 9 9 d d d %.&.y y y y y y y y y y y y y y y y y y y y y y y y y y y y y L y y *.=.d 9 d d d h ! W . . . . . . ",
"@ @ @ @ @ @ O ! k 9 m m 9 n -.y y y y y y y y y y y y y y y y y y y y y L y y y y y y y y y y y y ;.>.m 9 m 9 h ! U . . . . . . ",
"@ @ @ @ @ @ j ! P 9 9 9 3 ,.'.'.'.'.'.'.'.'.'.'.'.'.'.'.'.'.'.'.'.'.'.'.'.'.'.'.'.'.'.'.'.'.'.'.'.'.).!.9 9 9 h ! W . . . + + + ",
"@ @ @ @ @ @ j ! k 9 d g d 9 9 9 9 9 9 9 9 9 9 9 9 9 m 9 9 9 9 9 d 9 9 9 d 9 9 9 9 9 9 9 9 9 9 9 9 9 9 g d g d h ! W . . . + + ~.",
"@ @ @ @ @ @ O ! c 9 9 9 9 9 9 9 9 9 9 9 9 9 9 9 9 9 9 9 9 9 9 9 9 9 9 9 9 9 9 9 9 9 d 9 9 9 9 9 9 9 9 9 9 9 9 h ! {.  . . + + ~.",
"@ @ @ @ @ @ j ! k 9 m 9 m m m m 9 m m m m m m m m m m m m m m m m m m m m m m m m m m m m m m m m m 9 m m 9 m h ! ].  . . . + + ",
"@ @ @ @ @ @ C ! c 9 d d d d d g ^./.(./._.:._...(./._.:._.:.:.:.:.:.:.:.:.(.:.:.:.(.:._./._.<.3 9 d g d d d d h ! G     . . . + ",
"@ @ @ @ @ @ O ! k 9 m m 9 m f [.y y y y y y y y y y y y y y y y y y y y y y y y y y y y y y y }.|.9 9 9 m m m h ! {.      . . . ",
"@ @ @ @ @ @ j ! c 9 9 9 9 $.,.J y y y y y y y y K y y y y y y y y y y y y y y y y y K y y y y y y 1.f 9 9 9 9 h ! ].      . . . ",
"@ @ @ @ @ @ C ! w 9 d d 2.3.y y y y y y y y y y y y y y y y y y y y y y y y y y y y y y y y y y y y D $.d d d h ! G       . . . ",
"@ @ @ @ @ @ b ! c 9 m 9 T  . . . . . . . . . . . . . . . . . . . .Q  . .Q Q  . . . . . . . . . .Q  .Q $.d g d h ! 4.        . . ",
"@ @ @ @ @ @ b ! w 9 9 9 9 9 9 m 9 9 m m m 9 m m 9 9 m m m 9 m 9 9 9 9 9 m 9 9 9 9 m m m 9 m 9 m m 9 9 m m 9 9 h ! B           . ",
"@ @ @ @ @ @ C ! c 9 9 d d d d d 9 d d d e d d d d d d d d d d d d d d 9 d d d d d d d d d d d d d d d d d d d h ! 5.            ",
"@ @ @ @ @ @ 6.! 7.8.V V 9 9 9 9 9 9 V 9 V 9 9 9 9 9 V 9 9 9 V 9 9 9 9 9 V 9 V 9 9 9 9 9 9 9 V 9 9 V 9 V 9 9 9 9.! 0.            ",
"@ @ @ @ @ @ a.b.! c.d.d.d.d.d.d.d.d.d.d.d.d.d.d.d.d.d.d.d.d.d.d.d.d.d.d.d.d.d.d.d.d.d.d.d.d.d.d.d.d.d.d.d.d.e.f.! g.            ",
"@ @ @ @ @ @ @ h.i.! ! ! ! ! ! ! ! ! ! ! ! ! ! ! ! ! ! ! ! ! ! ! ! ! ! ! ! ! ! ! ! ! ! ! ! ! ! ! ! ! ! ! ! ! ! ! j.k.            ",
"@ @ @ @ @ @ l.m.n.! ! ! ! ! ! ! ! ! ! ! ! ! ! ! ! ! ! ! ! ! ! ! ! ! ! ! ! ! ! ! ! ! ! ! ! ! ! ! ! ! ! ! ! ! ! o.p.q.            ",
"@ @ @ @ @ @ r.s.! ! ! ! ! ! ! ! ! ! ! ! ! ! ! ! ! ! ! ! ! ! ! ! ! ! ! ! ! ! ! ! ! ! ! ! ! ! ! ! ! ! ! ! ! ! ! ! ! t.u.          ",
"@ @ @ @ @ v.w.! x.y.z.z.z.z.z.z.z.z.z.z.z.z.z.z.z.z.z.z.z.z.z.z.z.z.z.z.z.z.z.z.z.z.z.z.z.z.z.z.z.z.z.z.z.A.B.C.D.E.F.          ",
"@ @ @ @ @ G.! H.I.J.+.y y y y y y y y y y y y y y y y y y y y y y y y y y y y y y y y y y y y y y y y y y K.L.M.N.! O.          ",
"@ @ @ @ @ P.! Q.L.L.R.y y y y y y y y y y y y y y y y y y y y y y y y y y y y y y y y y y y y y y y y y y S.L.T.U.! V.          ",
"@ @ @ @ W.X.! Y.Z.L.`.y L L L y L  +E y  +L E y y y  +L y y L L y y  +L y E E E L L L L y L y  +L L E  +y .+L.++@+#+$+%+        ",
"@ @ @ @ &+*+=+-+;+>+S.y y L y y y L y y L y y y y y L y L y L K y y y y y y y y y y L L L J y y y y y y ,+'+)+!+~+{+! ]+        ",
"@ @ @ @ ^+! /+(+_+L.:+ +y y y y y y y y y y y y y y y y y y y y y y y y y y y y y y y y y y y y y y y y <+[+}+,+y |+! 1+        ",
"2+@ @ @ 3+! 4+y 5+6+L.R.y y y y y y y y y y y y y y y y y y y y y y y y y y y y y y y y y y y y y y y y 7+>+8+y y 9+! 0+a+      ",
"2+@ @ b+c+! d+y (+e+L.`.y y y y y y y y y y y y y y y y y y y y y y y y y y y y y y y y y y y y y y y y f+L.g+y y h+$+! i+      ",
"2+@ @ j+! k+l+y y m+L.S.y y y y y y y y y y y y y y y y y y y y y y y y y y y y y y y y y y y y y y y y n+>+o+y y y p+! q+      ",
"2+@ @ r+! s+t+y y 7+[+8+E E y y y y y y y y E y y y y y y y y y y y y y y y y y y y y y y y y y y y y u+}+6+v+y y y w+! x+W.    ",
"2+@ y+z+! A+y y y B+L.L.C+y y y y E E y y y y y y y y y y y y y y y E y y y y y y y E y y y y y y y y D+6+E+F+y y y G+! ) H+    ",
"2+@ I+) E.J+y y y (+K+[+L+y y y y y y y y y y y y y y y y y y y y y y y y y y y y y y y y y y y y y y M+L.N+y y y y +.O+! P+    ",
"2+@ Q+! R++.y y y y m+L.S+y y y y y y y y y y y y y y y y y y y y y y y y y y y y y y y y y y y y y y T+L.U+y y y y y V+! W+    ",
"2+@ X+! Y+y y y y y _+[+Z++.y y y y y y y y y y y y y y y y y y y y y y y y y y y y y y y L y y y y +.`+L. @y y y y y .@! +@@@  ",
"#@$@%@! &@y y y y y *@)+L.=@y y y E y y y y y y y y y y y y y y y y y y y y y y y y y E y y y y E y =@L.)+-@E E y y y ;@>@! ,@  ",
"#@'@! )@u+y y y y E !@~@{@]@y y y E y y y E y y y E y y y y y y y y E y y y E y y y  +E y y E y y y L+^@~@(+y L y y y y /@! (@  ",
"_@:@! <@y y y y y y y m+{@U+y y y y y y y y y y y y y y y y y y y y y y y y y y y y y y y y y y y y [@{@}@y y y y y y y |@! 1@2@",
"3@4@! 5@6@y y y y y y @+L.8+y y y y y y y y y y y y y y y y y y y y y y y y y y y y y y y y y y y y 7@L.[@y y y y y y y 8@D.b.9@",
"0@a@! b@c@d@d@d@d@d@d@e@f@g@h@d@d@d@d@d@d@d@d@d@d@d@d@d@d@d@d@d@d@d@d@d@d@d@d@d@d@d@d@d@d@d@d@d@d@i@j@k@l@d@d@d@d@d@d@m@n@! o.o@",
"p@q@r@! ! ! ! ! ! ! ! ! ! ! ! ! ! ! ! ! ! ! ! ! ! ! ! ! ! ! ! ! ! ! ! ! ! ! ! ! ! ! ! ! ! ! ! ! ! ! ! ! ! ! ! ! ! ! ! ! ! [ s@  "};
