/* XPM */
static char * exitclose_xpm[] = {
"64 64 215 2",
"  	c #1737EA",
". 	c #1838EB",
"+ 	c #1939EC",
"@ 	c #1636E9",
"# 	c #3F42CD",
"$ 	c #19279A",
"% 	c #0C2199",
"& 	c #0C219A",
"* 	c #0D229B",
"= 	c #0D239B",
"- 	c #3C44A6",
"; 	c #4551D2",
"> 	c #565DBE",
", 	c #0F1028",
"' 	c #020204",
") 	c #1B1B1C",
"! 	c #535BC2",
"~ 	c #4C58DC",
"{ 	c #222335",
"] 	c #030305",
"^ 	c #3B4045",
"/ 	c #54595E",
"( 	c #42484D",
"_ 	c #070609",
": 	c #333450",
"< 	c #3245E4",
"[ 	c #6A6DB7",
"} 	c #838A94",
"| 	c #CFDCEB",
"1 	c #D2DFEF",
"2 	c #D3DFEF",
"3 	c #D0DDED",
"4 	c #939DA7",
"5 	c #6065B9",
"6 	c #676BB2",
"7 	c #010002",
"8 	c #B6C2D0",
"9 	c #D3E0F0",
"0 	c #D2E0F0",
"a 	c #D3E0EF",
"b 	c #C3CFDD",
"c 	c #050507",
"d 	c #686CB4",
"e 	c #6669B1",
"f 	c #000001",
"g 	c #BBC7D4",
"h 	c #C7D4E2",
"i 	c #060608",
"j 	c #696DB5",
"k 	c #6468B1",
"l 	c #BBC6D4",
"m 	c #D2DFF0",
"n 	c #D3DFF0",
"o 	c #C7D3E2",
"p 	c #6B6FB6",
"q 	c #6367B0",
"r 	c #000002",
"s 	c #BAC6D4",
"t 	c #D2DEEE",
"u 	c #D2DFEE",
"v 	c #D1DEEE",
"w 	c #6C70B7",
"x 	c #6166AF",
"y 	c #D2E0EF",
"z 	c #CAD7E5",
"A 	c #AEB8C1",
"B 	c #ABB4BD",
"C 	c #ABB3BD",
"D 	c #ABB4BE",
"E 	c #BCC7D3",
"F 	c #6D71B7",
"G 	c #6165AF",
"H 	c #C8D3E2",
"I 	c #A9B2BA",
"J 	c #A7AFB7",
"K 	c #A6AEB7",
"L 	c #A6AFB7",
"M 	c #A6AFB6",
"N 	c #B6C1CC",
"O 	c #D1DDED",
"P 	c #6F72B7",
"Q 	c #5F63AE",
"R 	c #C2CDDA",
"S 	c #A8B0B8",
"T 	c #AFB9C3",
"U 	c #CEDBEB",
"V 	c #6B65B7",
"W 	c #5D62AE",
"X 	c #BDC8D4",
"Y 	c #ADB5BF",
"Z 	c #CCD8E7",
"` 	c #262EB8",
" .	c #5C60AD",
"..	c #B8C2CD",
"+.	c #ABB3BC",
"@.	c #C8D5E3",
"#.	c #112AB9",
"$.	c #5B60AC",
"%.	c #D0DDEC",
"&.	c #595DAC",
"*.	c #575CAB",
"=.	c #1029B8",
"-.	c #565BAA",
";.	c #555AAA",
">.	c #BBC6D2",
",.	c #B7C1CD",
"'.	c #B7C2CD",
").	c #B7C1CC",
"!.	c #C8D4E2",
"~.	c #5358A9",
"{.	c #B0B9C4",
"].	c #A6AEB6",
"^.	c #A7B0B8",
"/.	c #C2CDDB",
"(.	c #5157A8",
"_.	c #CBD7E6",
":.	c #ADB6BF",
"<.	c #A7AEB7",
"[.	c #BBC5D1",
"}.	c #5055A8",
"|.	c #AAB2BB",
"1.	c #A7AFB6",
"2.	c #B6C0CB",
"3.	c #132BB8",
"4.	c #4E54A7",
"5.	c #B0BAC4",
"6.	c #CFDBEB",
"7.	c #1A2EB9",
"8.	c #4C51A6",
"9.	c #D1DEED",
"0.	c #C5D0DE",
"a.	c #CAD6E5",
"b.	c #2032B9",
"c.	c #4A50A6",
"d.	c #BBC7D5",
"e.	c #2435BA",
"f.	c #494FA5",
"g.	c #2837BB",
"h.	c #474DA5",
"i.	c #2D3BBB",
"j.	c #454BA4",
"k.	c #C7D3E1",
"l.	c #303DBC",
"m.	c #4349A2",
"n.	c #BEC9D6",
"o.	c #AFB8C2",
"p.	c #CCD9E8",
"q.	c #3340BD",
"r.	c #4148A2",
"s.	c #B9C3CF",
"t.	c #C8D4E3",
"u.	c #3642BD",
"v.	c #3E45A1",
"w.	c #B3BDC8",
"x.	c #A7AEB6",
"y.	c #A8B0B9",
"z.	c #C4D0DE",
"A.	c #3944BE",
"B.	c #3B42A0",
"C.	c #CDDAE9",
"D.	c #A7AFB8",
"E.	c #C0CBD8",
"F.	c #3C47BE",
"G.	c #3A41A0",
"H.	c #BCC6D2",
"I.	c #B8C1CD",
"J.	c #3E49BF",
"K.	c #383F9F",
"L.	c #404AC0",
"M.	c #353D9E",
"N.	c #434DC0",
"O.	c #31399D",
"P.	c #C7D4E3",
"Q.	c #464FC1",
"R.	c #323B9E",
"S.	c #010102",
"T.	c #B0BAC8",
"U.	c #BECAD8",
"V.	c #040406",
"W.	c #4851C2",
"X.	c #585EB4",
"Y.	c #5B6269",
"Z.	c #B8C3D0",
"`.	c #C6D2E1",
" +	c #C6D2E0",
".+	c #BCC8D5",
"++	c #6E757E",
"@+	c #4952C5",
"#+	c #4250E0",
"$+	c #484966",
"%+	c #020203",
"&+	c #4C4F80",
"*+	c #223CE8",
"=+	c #1635E7",
"-+	c #434FD8",
";+	c #393B5A",
">+	c #494B65",
",+	c #2F42E2",
"'+	c #1635E5",
")+	c #1636E3",
"!+	c #3C4BD6",
"~+	c #1029B3",
"{+	c #0F29B4",
"]+	c #0E2AB7",
"^+	c #0E29B9",
"/+	c #0E29BB",
"(+	c #0F29B9",
"_+	c #0F29B8",
":+	c #3747DC",
"<+	c #1735E5",
"[+	c #1636E1",
"}+	c #1536E3",
"|+	c #1536E5",
"1+	c #1438E8",
"2+	c #1338E8",
"                                          . . . .         . . . . . . . . . . . . . . . . . . . . . . + + + + + + + + + + + + + ",
"                                              . .         . . . . . . . . . . . . . . . . . . . . . . + + + + + + + + + + + + + ",
"@                                       . .                       . . . . . . . . . . . . . . . . . . . . . + + + + + + + + + + ",
"@                                                                 . . . . . . . . . . . . . . . . . . . . . + + + + + + + + + + ",
"@                                                                 . . . . . . . . . . . . . . . . . . . . . + + + + + + + + + + ",
"                                                                        . . . . . . . . . . . . . . . . . . + + + + + + + + + + ",
"                                                                          . . . . . . . . . . . . . . . . . + + + + + + + + + + ",
"                                      @ @ @ @                               . . . . . . . . . . . . . . . . + + + + + + + + + + ",
"                                      @ @ @ @                     @         . . . . . . . . . . . . . . . . + + + + + + + + + + ",
"                                      @ @ @ @                     @ @       . . . . . . . . . . . . . . . . + + + + + + + + + + ",
"                                  @ @ @ @ @ @ @ @                                 . . . . . . . . . . . . . . . . + + + + + + + ",
"                                  @ @ @ @ @ @ @ @                                 . . . . . . . . . . . . . . . . + + + + + + + ",
"                          @ @ @ @ @ @ @ @ @ @ @ @                                 . . . . . . . . . . . . . . . . + + + + + + + ",
"                          @ @ @ @ @ @ @ @ @ @ @ @                                 . . . . . . . . . . . . . . . . + + + + + + + ",
"                        @ @ @ @ @ @ @ @ @ @ @ @ @                                     . . . . . . . . . . . . . . + + + + + + + ",
"                      @ @ @ @ @ @ @ @ @ @ @ @ @ @                                       . . . . . . . . . . . . . + + + + + + + ",
"                  @ @ @ @ @ @ @ @ @ @ @ @ @ @ @ @                                         . . . . . . . . . . . . + + + + + + + ",
"                  @ @ @ @ @ @ @ @ @ @ @ @ @ @ @ @                                         . . . . . . . . . . . . + + + + + + + ",
"              @ @ @ @ @ @ @ @ @ @ @ @ @ @ @ @ @ @ @ @ @                                           . . . . . . . . + + + + + + + ",
"            @ @ @ @ @ @ @ @ @ @ @ @ @ @ @ @ @ @ @ @ @ @                                           . . . . . . . . . + + + + + + ",
"            @ @ @ @ @ @ @ @ @ @ @ @ @ @ @ @ @ @ @ @ @ @                                           . . . . . . . . . . + + + + + ",
"          @ @ @ @ @ @ @ @ @ @ @ @ @ @ @ @ @ @ @ @ @ @ @                                           . . . . . . . . . . + + + + + ",
"        @ @ @ @ @ @ @ @ @ @ @ @ @ @ @ @ @ @ @ @ @ @ @ @                                               . . . . . . . . . + + + + ",
"    # $ % % % % % % % % % % % % % % % % % % % % % % % % & & & & & & & & & & & & & & & & & & & & & & & & * * * * * * * = - ; + . ",
"  > , ' ' ' ' ' ' ' ' ' ' ' ' ' ' ' ' ' ' ' ' ' ' ' ' ' ' ' ' ' ' ' ' ' ' ' ' ' ' ' ' ' ' ' ' ' ' ' ' ' ' ' ' ' ' ' ' ' ' ) ! . ",
"~ { ' ] ^ / / / / / / / / / / / / / / / / / / / / / / / / / / / / / / / / / / / / / / / / / / / / / / / / / / / / / / ( _ ' : < ",
"[ ' ' } | 1 1 1 1 1 1 1 1 1 1 1 1 1 1 1 1 2 1 1 1 1 1 1 1 1 1 1 1 1 1 1 1 1 1 1 1 1 1 1 1 1 1 1 1 1 1 1 1 1 1 1 1 1 1 3 4 ' ' 5 ",
"6 ' 7 8 9 9 9 9 9 0 9 9 9 9 9 a 9 9 9 a 9 0 9 9 9 9 9 0 a 9 9 0 9 9 9 9 0 9 9 9 9 a 9 9 a 0 9 9 9 0 9 9 9 9 9 9 9 9 a 9 b c ' d ",
"e ' f g a a a a a a a a a a a a a a a a a a a a 9 a a a a a a a a a a 9 9 a a a a a 9 a a 9 a a a a a 9 a a a a 9 a a a h i ' j ",
"k ' f l m 1 2 1 1 m 1 1 1 1 1 m m 1 m 1 m m 2 m 1 1 n 1 m 2 n 1 m 1 m m m n 1 n n m n m 2 1 1 m m 1 1 1 m m 1 1 1 2 n 1 o i ' p ",
"q ' r s 9 9 9 9 9 9 9 9 9 1 t u t v t u t v t u t v t u t v t t t t v t 1 t v v t t t t t t t v t t 9 9 9 9 9 9 9 9 9 9 h i ' w ",
"x ' f s y 9 y a n y 0 9 z A B B B C B D B B B B B B B B B B C B B B C B B B C B B B B B B B B B B B E u 0 9 a m 0 a 9 1 h i ' F ",
"G ' f g 9 9 9 9 9 9 9 H I J J J J J J J K J J J J J J J J J L J J J J J J J J J J J J J J J J J J J M N O 9 9 9 0 9 9 9 h i ' P ",
"Q ' f g y 9 9 a 9 9 R S J J J J J J J J J J J J L K J J J J J J J J J J J J J J L J J J J J J J J J L L T U 9 9 a 9 a a h i ' V ",
"W ' r s 0 9 0 9 1 X J J J J L J J J J L L J J J J J J J J L K J J J J L J J J L J J J J J J J J J J L J J Y Z 9 0 0 0 0 h i ' ` ",
" .' r s y 1 y v ..S S S S S S S S S S S S S S S S S S S S S S S S S S S S S S S S S S S S S S S S S S S S S +.@.9 y y y o i ' #.",
"$.' f l a 2 y u | | | | | | | | | | | | | | | | | | | | | | | | | | | | | | | | | | | | | | | | | | | | | | | %.a a a a h i ' #.",
"&.' f g 9 n 9 9 9 9 9 9 9 9 9 9 9 9 9 9 9 9 9 9 n 9 9 9 9 9 9 9 9 9 9 9 9 9 9 9 9 9 n 9 9 9 9 9 9 9 9 9 9 9 9 n 9 9 9 9 h i ' #.",
"*.' f l 0 0 y 0 9 0 0 0 0 9 0 0 0 0 0 0 9 0 9 0 0 0 0 0 0 9 9 0 0 9 0 0 9 0 0 0 a 0 9 0 0 0 9 0 9 0 9 9 0 0 0 9 9 y 0 y h i ' =.",
"-.' r s y y y a y y y y y a a 9 9 9 9 9 a a 9 a 9 9 9 a 9 9 9 9 9 9 a 9 a 9 a a 9 9 9 9 9 9 a 9 9 9 a y y a y y y a a a h i ' =.",
";.' r l 9 9 9 9 9 9 9 9 3 >.,.'.,.).,.'.,.).,.'.'.).).'.'.,.).'.'.,.).,.'.,.).,.'.'.).).'.'.,.).,.'.!.9 9 9 9 9 9 9 9 9 h i ' =.",
"~.' f g 9 m 9 9 9 9 9 | {.].L L L L L L L L L L L K J L L L M L L L L L L L L L L L L L L L L L M L ^./.9 9 0 0 9 0 9 9 h i ' =.",
"(.' f g a 9 9 a 9 9 _.:.J J J J J J J J J J J J J J J J J J J J J J J J J J J J J J J J J J J J <.J J J [.1 a 9 9 9 a a h i ' =.",
"}.' r s 9 n 9 9 9 !.|.<.J J 1.J J 1.J 1.J 1.J J J J J J J J 1.J J J J J J J J 1.J 1.J 1.1.1.J J J J 1.J <.2.v 9 0 9 0 9 o i ' 3.",
"4.' r s y 0 y 9 /.S K K ].K ].K M K L L L ].].L ].K K K ].L K L ].K ].K K ].L L L K K K L ].K K ].K K ].L ].5.6.9 y y y h i ' 7.",
"8.' f l 9 9 9 9.0.0.0.0.0.0.0.0.0.0.0.0.0.0.0.0.0.0.0.0.0.0.0.0.0.0.0.0.0.0.0.0.0.0.0.0.0.0.0.0.0.0.0.0.0.0.0.a.9 9 9 9 h i ' b.",
"c.' f d.a y y y y a y y a y y a y y y y a y y a y y y y a y y y 1 a y y y y y y a 1 y y a y y a y a y a a a y y y a y y h i ' e.",
"f.' f l 9 9 9 9 9 9 9 9 9 9 9 9 9 a 9 9 9 9 9 9 9 9 a 9 9 9 9 9 9 9 9 9 9 9 9 9 9 9 9 9 a 9 9 9 a 9 9 9 9 9 9 9 9 9 9 a h i ' g.",
"h.' r s 0 0 0 0 m 0 0 0 0 0 m 0 0 0 0 0 0 0 0 0 0 0 0 0 0 0 0 0 0 m 0 m 0 0 0 0 0 0 0 0 0 0 0 m 0 0 0 0 0 0 0 0 0 0 0 0 h i ' i.",
"j.' r s 0 0 0 9 9 9 9 y 9 a.h o k.k.h h k.k.h h k.k.o h o k.k.!.o k.k.h h k.k.h h k.k.o !.k.k.k.h o %.9 9 0 0 0 0 0 9 y h i ' l.",
"m.' f l a 9 a a a a a 1 n.S ].].].].].].].].].].].].].].].].].].].].].].].].].].].].].].].].].].].].o.p.a n a 2 1 a a 2 h i ' q.",
"r.' f g 0 0 0 9 9 0 v s.J J J J J J J J J J J J J J J <.J J J J J J J J J J J J J J J J J <.<.J J J J B t.9 9 9 0 0 0 0 h i ' u.",
"v.' r l 9 9 9 9 9 %.w.x.1.J L J 1.1.J M J 1.1.1.M J J J 1.J 1.1.1.J x.L J J x.J x.1.J J M 1.J 1.x.J 1.M y.z.9 9 9 9 9 9 h i ' A.",
"B.' r s 0 n 0 9 C.5.L J J J J J J J J J L J J J J J J J J J J J J J J J J J J J J J J J J J J J J J J J J D.E.1 0 y 9 a h i ' F.",
"G.' f l a a a t H.I.I.I.I.I.I.I.I.I.I.I.I.I.I.I.I.I.I.I.I.I.I.I.I.I.I.I.I.I.I.I.I.I.I.I.I.I.I.I.I.I.I.I.I.I.I.o a a a a h i ' J.",
"K.' f g 9 9 9 9 9 9 9 9 9 9 9 9 9 9 9 9 9 9 9 9 9 9 9 9 9 9 9 9 9 9 9 9 9 9 9 9 9 9 9 9 9 9 9 9 9 9 9 9 9 9 9 9 9 0 9 9 h i ' L.",
"M.' f g y 9 9 9 9 9 0 n 9 0 0 0 0 0 9 0 9 y 9 9 0 9 0 0 9 9 0 9 9 9 0 9 9 9 0 9 9 0 9 9 0 0 9 y 9 0 9 9 9 9 9 9 0 9 9 9 h i ' N.",
"O.' r s 9 n a a a a a 9 9 9 a a 9 2 n 9 a 9 a a 9 a a 9 9 a 9 a 2 a a a 9 9 a 9 a a 2 a 9 a a 9 a 9 9 a 9 a 9 9 a a a a P.i ' Q.",
"R.' S.T.2 2 n 2 2 2 1 1 9 2 n 2 n 1 1 m n m m n m 2 n 1 n m n 9 1 m n m m n 1 n m m n n m 2 n 1 1 1 m 2 9 n n n 1 n m 2 U.V.' W.",
"X.' ' Y.Z.`.`.`.`. + + + +`.`. +`.`.`.`.`.`. +`. + +`.`.`. + + +`.`.`. +`.`. +`.`.`.`.`.`. + + +`. + +`. +`.`.`. + + +.+++' ' @+",
"#+$+' ' %+%+%+%+%+%+%+%+%+%+%+%+%+%+%+%+%+%+%+%+%+%+%+%+%+%+%+%+%+%+%+%+%+%+%+%+%+%+%+%+%+%+%+%+%+%+%+%+%+%+%+%+%+%+%+%+' ' &+*+",
"=+-+;+' ' ' ' ' ' ' ' ' ' ' ' ' ' ' ' ' ' ' ' ' ' ' ' ' ' ' ' ' ' ' ' ' ' ' ' ' ' ' ' ' ' ' ' ' ' ' ' ' ' ' ' ' ' ' ' ' ' >+,+  ",
"'+)+!+~+{+]+^+/+/+(+_+_+_+_+_+_+_+_+_+_+_+_+_+_+_+_+_+_+_+_+_+_+_+_+_+_+_+_+_+_+_+_+_+_+=.=.=.=.=.=.=.=.=.=.=.=.=.=.=.=.=.:+    ",
"<+)+[+)+}+|+1+2+2+@ @ @ @ @ @ @ @ @ @ @ @ @ @ @ @ @ @ @ @ @ @ @ @ @ @ @ @ @ @ @ @ @ @ @ @                                       "};
