/* XPM */
static char * exitclose_xpm[] = {
"64 64 233 2",
"  	c #9FA394",
". 	c #A1A596",
"+ 	c #A9AC9C",
"@ 	c #AAAD9D",
"# 	c #A0A495",
"$ 	c #ACB09F",
"% 	c #B0B3A2",
"& 	c #A6AA9A",
"* 	c #A8AC9C",
"= 	c #ABAE9D",
"- 	c #A0A394",
"; 	c #ABAE9E",
"> 	c #ADB09F",
", 	c #A9AD9C",
"' 	c #A8AB9B",
") 	c #A5A899",
"! 	c #AEB1A0",
"~ 	c #ACAF9F",
"{ 	c #A6A999",
"] 	c #AAAE9D",
"^ 	c #A0A494",
"/ 	c #AEB1A1",
"( 	c #AEB2A1",
"_ 	c #A6A99A",
": 	c #A7AB9B",
"< 	c #A3A797",
"[ 	c #A4A898",
"} 	c #AFB3A2",
"| 	c #AFB2A1",
"1 	c #A2A696",
"2 	c #A8AC9B",
"3 	c #A4A899",
"4 	c #A3A697",
"5 	c #94978A",
"6 	c #74766B",
"7 	c #737569",
"8 	c #6E7065",
"9 	c #676A60",
"0 	c #686A60",
"a 	c #6F7167",
"b 	c #727469",
"c 	c #797A72",
"d 	c #94988C",
"e 	c #8E9188",
"f 	c #1B1C1B",
"g 	c #020204",
"h 	c #1B1B1C",
"i 	c #8F9188",
"j 	c #9EA195",
"k 	c #2B2B2A",
"l 	c #030305",
"m 	c #3B4045",
"n 	c #54595E",
"o 	c #42484D",
"p 	c #070609",
"q 	c #40413F",
"r 	c #9EA193",
"s 	c #90928B",
"t 	c #838A94",
"u 	c #CFDCEB",
"v 	c #D2DFEF",
"w 	c #D3DFEF",
"x 	c #D0DDED",
"y 	c #939DA7",
"z 	c #8D9088",
"A 	c #8D8F88",
"B 	c #010002",
"C 	c #B6C2D0",
"D 	c #D3E0F0",
"E 	c #D2E0F0",
"F 	c #D3E0EF",
"G 	c #C3CFDD",
"H 	c #050507",
"I 	c #8D8F89",
"J 	c #8C8E87",
"K 	c #000001",
"L 	c #BBC7D4",
"M 	c #C7D4E2",
"N 	c #060608",
"O 	c #8E9089",
"P 	c #8B8D86",
"Q 	c #BBC6D4",
"R 	c #D2DFF0",
"S 	c #D3DFF0",
"T 	c #C7D3E2",
"U 	c #8F918A",
"V 	c #8A8C85",
"W 	c #000002",
"X 	c #BAC6D4",
"Y 	c #D2DEEE",
"Z 	c #D2DFEE",
"` 	c #D1DEEE",
" .	c #90928C",
"..	c #898B84",
"+.	c #D2E0EF",
"@.	c #CAD7E5",
"#.	c #AEB8C1",
"$.	c #ABB4BD",
"%.	c #ABB3BD",
"&.	c #ABB4BE",
"*.	c #BCC7D3",
"=.	c #91938C",
"-.	c #C8D3E2",
";.	c #A9B2BA",
">.	c #A7AFB7",
",.	c #A6AEB7",
"'.	c #A6AFB7",
").	c #A6AFB6",
"!.	c #B6C1CC",
"~.	c #D1DDED",
"{.	c #92948D",
"].	c #888A83",
"^.	c #C2CDDA",
"/.	c #A8B0B8",
"(.	c #AFB9C3",
"_.	c #CEDBEB",
":.	c #878981",
"<.	c #BDC8D4",
"[.	c #ADB5BF",
"}.	c #CCD8E7",
"|.	c #7D8074",
"1.	c #868881",
"2.	c #B8C2CD",
"3.	c #ABB3BC",
"4.	c #C8D5E3",
"5.	c #7C7F73",
"6.	c #858780",
"7.	c #D0DDEC",
"8.	c #84867F",
"9.	c #83857E",
"0.	c #82847D",
"a.	c #81837C",
"b.	c #BBC6D2",
"c.	c #B7C1CD",
"d.	c #B7C2CD",
"e.	c #B7C1CC",
"f.	c #C8D4E2",
"g.	c #80827B",
"h.	c #B0B9C4",
"i.	c #A6AEB6",
"j.	c #A7B0B8",
"k.	c #C2CDDB",
"l.	c #82847C",
"m.	c #CBD7E6",
"n.	c #ADB6BF",
"o.	c #A7AEB7",
"p.	c #BBC5D1",
"q.	c #83867A",
"r.	c #7F8279",
"s.	c #AAB2BB",
"t.	c #A7AFB6",
"u.	c #B6C0CB",
"v.	c #808377",
"w.	c #7D8078",
"x.	c #B0BAC4",
"y.	c #CFDBEB",
"z.	c #7D8175",
"A.	c #7C7E76",
"B.	c #D1DEED",
"C.	c #C5D0DE",
"D.	c #CAD6E5",
"E.	c #7F8276",
"F.	c #7B7D76",
"G.	c #BBC7D5",
"H.	c #7B7D75",
"I.	c #818478",
"J.	c #7A7C74",
"K.	c #828579",
"L.	c #787B72",
"M.	c #C7D3E1",
"N.	c #83867B",
"O.	c #787A72",
"P.	c #BEC9D6",
"Q.	c #AFB8C2",
"R.	c #CCD9E8",
"S.	c #84877C",
"T.	c #777971",
"U.	c #B9C3CF",
"V.	c #C8D4E3",
"W.	c #85887D",
"X.	c #757870",
"Y.	c #B3BDC8",
"Z.	c #A7AEB6",
"`.	c #A8B0B9",
" +	c #C4D0DE",
".+	c #86897E",
"++	c #74766E",
"@+	c #CDDAE9",
"#+	c #A7AFB8",
"$+	c #C0CBD8",
"%+	c #878A7F",
"&+	c #73766D",
"*+	c #BCC6D2",
"=+	c #B8C1CD",
"-+	c #888B80",
";+	c #73756D",
">+	c #898B81",
",+	c #71746B",
"'+	c #8A8C82",
")+	c #707269",
"!+	c #C7D4E3",
"~+	c #8B8D83",
"{+	c #70736A",
"]+	c #010102",
"^+	c #B0BAC8",
"/+	c #BECAD8",
"(+	c #040406",
"_+	c #8C8E84",
":+	c #5B6269",
"<+	c #B8C3D0",
"[+	c #C6D2E1",
"}+	c #C6D2E0",
"|+	c #BCC8D5",
"1+	c #6E757E",
"2+	c #8E9186",
"3+	c #A0A396",
"4+	c #565755",
"5+	c #020203",
"6+	c #666763",
"7+	c #9EA294",
"8+	c #9C9F93",
"9+	c #494A48",
"0+	c #565655",
"a+	c #9CA092",
"b+	c #9B9E91",
"c+	c #7C8074",
"d+	c #7E8074",
"e+	c #888A7C",
"f+	c #8A8C7F",
"g+	c #838578",
"h+	c #84877A",
"i+	c #86887C",
"j+	c #999C90",
"                                        . +                                       @ #                                           ",
"                                      # $ % &                                   * % = -                                         ",
"                                    # $ % % % &                               * % % % =                                         ",
"                                  # $ % % % % % &                           * % % % % % =                                       ",
"                                # $ % % % % % % % &                       * % % % % % % % =                                     ",
"                              # $ % % % % % % % % % &                   * % % % % % % % % % ;                                   ",
"                            # > % % % % % % % % % % % &               * % % % % % % % % % % % ;                                 ",
"                          # > % % % % % % % % % % % % % &           * % % % % % % % % % % % % % ;                               ",
"                        # $ % % % % % % % % % % % % % % % &       * % % % % % % % % % % % % % % % ;                             ",
"                      # $ % % % % % % % % % % % % % % % % % &   * % % % % % % % % % % % % % % % % % ; -                         ",
"                      ; % % % % % % % % % % % % % % % % % % % , % % % % % % % % % % % % % % % % % % % '                         ",
"                  # ; ) ! % % % % % % % % % % % % % % % % % + # ; % % % % % % % % % % % % % % % % % ~ { ] ^                     ",
"                # > % / ) ! % % % % % % % % % % % % % % % +     ^ ; % % % % % % % % % % % % % % % ~ { % % ; -                   ",
"              # > % % % ( ) ! % % % % % % % % % % % % % +         ^ ; % % % % % % % % % % % % % ~ { % % % % ; -                 ",
"            # > % % % % % ( ) ! % % % % % % % % % % % +             ^ ; % % % % % % % % % % % ~ { % % % % % % ;                 ",
"          # > % % % % % % % ( ) ! % % % % % % % % % +                 ^ ; % % % % % % % % % ~ { % % % % % % % % ;               ",
"        # > % % % % % % % % % ( ) ! % % % % % % % +                     ^ ; % % % % % % % ~ { % % % % % % % % % % ;             ",
"      # > % % % % % % % % % % % / ) ! % % % % % +                         ^ ; % % % % % ~ _ % % % % % % % % % % % % ; -         ",
"    # > % % % % % % % % % % % % % / ) ! % % % +                             ^ ; % % % ~ _ % % % % % % % % % % % % % % ; ^       ",
"  # > % % % % % % % % % % % % % % % ( ) ! % +                                 ^ ; % ~ _ % % % % % % % % % % % % % % % % ; ^     ",
"# > % % % % % % % % % % % % % % % % % ( ) :                                     - ' _ % % % % % % % % % % % % % % % % % % ; ^ < ",
"[ } % % % % % % % % % % % % % % % % % % '                                           ] % % % % % % % % % % % % % % % % % % | 1 2 ",
"  3 % % % % % % % % % % % % % % % % % +                                             - ; % % % % % % % % % % % % % % % % | 4     ",
"    5 6 7 7 7 7 7 7 7 7 7 7 7 7 7 7 8 9 9 9 9 9 9 9 9 9 9 9 9 9 9 9 9 9 9 9 9 9 9 9 9 0 a 7 7 7 7 7 7 7 7 7 7 7 7 7 7 b c d     ",
"  e f g g g g g g g g g g g g g g g g g g g g g g g g g g g g g g g g g g g g g g g g g g g g g g g g g g g g g g g g g g h i   ",
"j k g l m n n n n n n n n n n n n n n n n n n n n n n n n n n n n n n n n n n n n n n n n n n n n n n n n n n n n n n o p g q r ",
"s g g t u v v v v v v v v v v v v v v v v w v v v v v v v v v v v v v v v v v v v v v v v v v v v v v v v v v v v v v x y g g z ",
"A g B C D D D D D E D D D D D F D D D F D E D D D D D E F D D E D D D D E D D D D F D D F E D D D E D D D D D D D D F D G H g I ",
"J g K L F F F F F F F F F F F F F F F F F F F F D F F F F F F F F F F D D F F F F F D F F D F F F F F D F F F F D F F F M N g O ",
"P g K Q R v w v v R v v v v v R R v R v R R w R v v S v R w S v R v R R R S v S S R S R w v v R R v v v R R v v v w S v T N g U ",
"V g W X D D D D D D D D D v Y Z Y ` Y Z Y ` Y Z Y ` Y Z Y ` Y Y Y Y ` Y v Y ` ` Y Y Y Y Y Y Y ` Y Y D D D D D D D D D D M N g  .",
"..g K X +.D +.F S +.E D @.#.$.$.$.%.$.&.$.$.$.$.$.$.$.$.$.$.%.$.$.$.%.$.$.$.%.$.$.$.$.$.$.$.$.$.$.$.*.Z E D F R E F D v M N g =.",
"..g K L D D D D D D D -.;.>.>.>.>.>.>.>.,.>.>.>.>.>.>.>.>.>.'.>.>.>.>.>.>.>.>.>.>.>.>.>.>.>.>.>.>.>.).!.~.D D D E D D D M N g {.",
"].g K L +.D D F D D ^./.>.>.>.>.>.>.>.>.>.>.>.>.'.,.>.>.>.>.>.>.>.>.>.>.>.>.>.>.'.>.>.>.>.>.>.>.>.>.'.'.(._.D D F D F F M N g A ",
":.g W X E D E D v <.>.>.>.>.'.>.>.>.>.'.'.>.>.>.>.>.>.>.>.'.,.>.>.>.>.'.>.>.>.'.>.>.>.>.>.>.>.>.>.>.'.>.>.[.}.D E E E E M N g |.",
"1.g W X +.v +.` 2./././././././././././././././././././././././././././././././././././././././././././././.3.4.D +.+.+.T N g 5.",
"6.g K Q F w +.Z u u u u u u u u u u u u u u u u u u u u u u u u u u u u u u u u u u u u u u u u u u u u u u u 7.F F F F M N g 5.",
"8.g K L D S D D D D D D D D D D D D D D D D D D S D D D D D D D D D D D D D D D D D S D D D D D D D D D D D D S D D D D M N g 5.",
"9.g K Q E E +.E D E E E E D E E E E E E D E D E E E E E E D D E E D E E D E E E F E D E E E D E D E D D E E E D D +.E +.M N g 5.",
"0.g W X +.+.+.F +.+.+.+.+.F F D D D D D F F D F D D D F D D D D D D F D F D F F D D D D D D F D D D F +.+.F +.+.+.F F F M N g 5.",
"a.g W Q D D D D D D D D x b.c.d.c.e.c.d.c.e.c.d.d.e.e.d.d.c.e.d.d.c.e.c.d.c.e.c.d.d.e.e.d.d.c.e.c.d.f.D D D D D D D D D M N g 5.",
"g.g K L D R D D D D D u h.i.'.'.'.'.'.'.'.'.'.'.'.,.>.'.'.'.).'.'.'.'.'.'.'.'.'.'.'.'.'.'.'.'.'.).'.j.k.D D E E D E D D M N g 5.",
"l.g K L F D D F D D m.n.>.>.>.>.>.>.>.>.>.>.>.>.>.>.>.>.>.>.>.>.>.>.>.>.>.>.>.>.>.>.>.>.>.>.>.>.o.>.>.>.p.v F D D D F F M N g q.",
"r.g W X D S D D D f.s.o.>.>.t.>.>.t.>.t.>.t.>.>.>.>.>.>.>.>.t.>.>.>.>.>.>.>.>.t.>.t.>.t.t.t.>.>.>.>.t.>.o.u.` D E D E D T N g v.",
"w.g W X +.E +.D k./.,.,.i.,.i.,.).,.'.'.'.i.i.'.i.,.,.,.i.'.,.'.i.,.i.,.,.i.'.'.'.,.,.,.'.i.,.,.i.,.,.i.'.i.x.y.D +.+.+.M N g z.",
"A.g K Q D D D B.C.C.C.C.C.C.C.C.C.C.C.C.C.C.C.C.C.C.C.C.C.C.C.C.C.C.C.C.C.C.C.C.C.C.C.C.C.C.C.C.C.C.C.C.C.C.C.D.D D D D M N g E.",
"F.g K G.F +.+.+.+.F +.+.F +.+.F +.+.+.+.F +.+.F +.+.+.+.F +.+.+.v F +.+.+.+.+.+.F v +.+.F +.+.F +.F +.F F F +.+.+.F +.+.M N g v.",
"H.g K Q D D D D D D D D D D D D D F D D D D D D D D F D D D D D D D D D D D D D D D D D F D D D F D D D D D D D D D D F M N g I.",
"J.g W X E E E E R E E E E E R E E E E E E E E E E E E E E E E E E R E R E E E E E E E E E E E R E E E E E E E E E E E E M N g K.",
"L.g W X E E E D D D D +.D D.M T M.M.M M M.M.M M M.M.T M T M.M.f.T M.M.M M M.M.M M M.M.T f.M.M.M.M T 7.D D E E E E E D +.M N g N.",
"O.g K Q F D F F F F F v P./.i.i.i.i.i.i.i.i.i.i.i.i.i.i.i.i.i.i.i.i.i.i.i.i.i.i.i.i.i.i.i.i.i.i.i.i.Q.R.F S F w v F F w M N g S.",
"T.g K L E E E D D E ` U.>.>.>.>.>.>.>.>.>.>.>.>.>.>.>.o.>.>.>.>.>.>.>.>.>.>.>.>.>.>.>.>.>.o.o.>.>.>.>.$.V.D D D E E E E M N g W.",
"X.g W Q D D D D D 7.Y.Z.t.>.'.>.t.t.>.).>.t.t.t.).>.>.>.t.>.t.t.t.>.Z.'.>.>.Z.>.Z.t.>.>.).t.>.t.Z.>.t.).`. +D D D D D D M N g .+",
"++g W X E S E D @+x.'.>.>.>.>.>.>.>.>.>.'.>.>.>.>.>.>.>.>.>.>.>.>.>.>.>.>.>.>.>.>.>.>.>.>.>.>.>.>.>.>.>.>.#+$+v E +.D F M N g %+",
"&+g K Q F F F Y *+=+=+=+=+=+=+=+=+=+=+=+=+=+=+=+=+=+=+=+=+=+=+=+=+=+=+=+=+=+=+=+=+=+=+=+=+=+=+=+=+=+=+=+=+=+=+T F F F F M N g -+",
";+g K L D D D D D D D D D D D D D D D D D D D D D D D D D D D D D D D D D D D D D D D D D D D D D D D D D D D D D E D D M N g >+",
",+g K L +.D D D D D E S D E E E E E D E D +.D D E D E E D D E D D D E D D D E D D E D D E E D +.D E D D D D D D E D D D M N g '+",
")+g W X D S F F F F F D D D F F D w S D F D F F D F F D D F D F w F F F D D F D F F w F D F F D F D D F D F D D F F F F !+N g ~+",
"{+g ]+^+w w S w w w v v D w S w S v v R S R R S R w S v S R S D v R S R R S v S R R S S R w S v v v R w D S S S v S R w /+(+g _+",
"..g g :+<+[+[+[+[+}+}+}+}+[+[+}+[+[+[+[+[+[+}+[+}+}+[+[+[+}+}+}+[+[+[+}+[+[+}+[+[+[+[+[+[+}+}+}+[+}+}+[+}+[+[+[+}+}+}+|+1+g g 2+",
"3+4+g g 5+5+5+5+5+5+5+5+5+5+5+5+5+5+5+5+5+5+5+5+5+5+5+5+5+5+5+5+5+5+5+5+5+5+5+5+5+5+5+5+5+5+5+5+5+5+5+5+5+5+5+5+5+5+5+5+g g 6+7+",
"  8+9+g g g g g g g g g g g g g g g g g g g g g g g g g g g g g g g g g g g g g g g g g g g g g g g g g g g g g g g g g g 0+a+  ",
"    b+|.c+c+c+c+c+c+c+c+c+c+c+c+c+c+c+d+e+f+g+c+c+c+c+c+c+c+c+c+c+c+c+c+c+c+c+c+h+f+i+|.c+c+c+c+c+c+c+c+c+c+c+c+c+c+c+c+c+j+    ",
"                                        . +                                       @ #                                           "};
