/* XPM */
static char * floor_xpm[] = {
"64 64 44 1",
" 	c #9FA394",
".	c #A1A596",
"+	c #A9AC9C",
"@	c #AAAD9D",
"#	c #A0A495",
"$	c #ACB09F",
"%	c #B0B3A2",
"&	c #A6AA9A",
"*	c #A8AC9C",
"=	c #ABAE9D",
"-	c #A0A394",
";	c #ABAE9E",
">	c #ADB09F",
",	c #A9AD9C",
"'	c #A8AB9B",
")	c #A5A899",
"!	c #AEB1A0",
"~	c #ACAF9F",
"{	c #A6A999",
"]	c #AAAE9D",
"^	c #A0A494",
"/	c #AEB1A1",
"(	c #AEB2A1",
"_	c #A6A99A",
":	c #A7AB9B",
"<	c #A3A797",
"[	c #A4A898",
"}	c #AFB3A2",
"|	c #AFB2A1",
"1	c #A2A696",
"2	c #A8AC9B",
"3	c #A4A899",
"4	c #A3A697",
"5	c #AFB2A2",
"6	c #A5A999",
"7	c #A2A697",
"8	c #A1A595",
"9	c #ADB0A0",
"0	c #A7AA9A",
"a	c #ABAF9E",
"b	c #A3A798",
"c	c #A1A495",
"d	c #ACAF9E",
"e	c #A9AD9D",
"                    .+                   @#                     ",
"                   #$%&                 *%=-                    ",
"                  #$%%%&               *%%%=                    ",
"                 #$%%%%%&             *%%%%%=                   ",
"                #$%%%%%%%&           *%%%%%%%=                  ",
"               #$%%%%%%%%%&         *%%%%%%%%%;                 ",
"              #>%%%%%%%%%%%&       *%%%%%%%%%%%;                ",
"             #>%%%%%%%%%%%%%&     *%%%%%%%%%%%%%;               ",
"            #$%%%%%%%%%%%%%%%&   *%%%%%%%%%%%%%%%;              ",
"           #$%%%%%%%%%%%%%%%%%& *%%%%%%%%%%%%%%%%%;-            ",
"           ;%%%%%%%%%%%%%%%%%%%,%%%%%%%%%%%%%%%%%%%'            ",
"         #;)!%%%%%%%%%%%%%%%%%+#;%%%%%%%%%%%%%%%%%~{]^          ",
"        #>%/)!%%%%%%%%%%%%%%%+  ^;%%%%%%%%%%%%%%%~{%%;-         ",
"       #>%%%()!%%%%%%%%%%%%%+    ^;%%%%%%%%%%%%%~{%%%%;-        ",
"      #>%%%%%()!%%%%%%%%%%%+      ^;%%%%%%%%%%%~{%%%%%%;        ",
"     #>%%%%%%%()!%%%%%%%%%+        ^;%%%%%%%%%~{%%%%%%%%;       ",
"    #>%%%%%%%%%()!%%%%%%%+          ^;%%%%%%%~{%%%%%%%%%%;      ",
"   #>%%%%%%%%%%%/)!%%%%%+            ^;%%%%%~_%%%%%%%%%%%%;-    ",
"  #>%%%%%%%%%%%%%/)!%%%+              ^;%%%~_%%%%%%%%%%%%%%;^   ",
" #>%%%%%%%%%%%%%%%()!%+                ^;%~_%%%%%%%%%%%%%%%%;^  ",
"#>%%%%%%%%%%%%%%%%%():                  -'_%%%%%%%%%%%%%%%%%%;^<",
"[}%%%%%%%%%%%%%%%%%%'                     ]%%%%%%%%%%%%%%%%%%|12",
" 3%%%%%%%%%%%%%%%%%+                      -;%%%%%%%%%%%%%%%%|4  ",
"  [%%%%%%%%%%%%%%%+                        -;%%%%%%%%%%%%%%|4   ",
"   [}%%%%%%%%%%%%+                          -;%%%%%%%%%%%%|4    ",
"    [}%%%%%%%%%%*                            -;%%%%%%%%%%|4     ",
"     [}%%%%%%%%*                              -;%%%%%%%%|4      ",
"      [}%%%%%%*                                -;%%%%%%|4       ",
"       [5%%%%*                                  -;%%%%|4        ",
"        [5%%*                                    -;%%|4         ",
"         [5*                                       ;|4          ",
"          1                                         .           ",
"          1                                         .           ",
"         )}'                                       @|<          ",
"        )%%%'                                     @%%|<         ",
"       )%%%%%'                                   @%%%%|<        ",
"      6%%%%%%%'                                 ]%%%%%%|<       ",
"     6%%%%%%%%%'                               ]%%%%%%%%|<      ",
"    6%%%%%%%%%%%'                             ]%%%%%%%%%%|<     ",
"   6%%%%%%%%%%%%%'                           ]%%%%%%%%%%%%|<    ",
"  6%%%%%%%%%%%%%%%'                         ]%%%%%%%%%%%%%%|<   ",
" 6%%%%%%%%%%%%%%%%%'                       ]%%%%%%%%%%%%%%%%|<  ",
"[%%%%%%%%%%%%%%%%%%%:                     @%%%%%%%%%%%%%%%%%%|7*",
"89%%%%%%%%%%%%%%%%%|)0                   '{5%%%%%%%%%%%%%%%%%a#b",
" 89%%%%%%%%%%%%%%%|)!%2                 ]%~{}%%%%%%%%%%%%%%%a#  ",
"  89%%%%%%%%%%%%%|)!%%%2               ]%%%~{%%%%%%%%%%%%%%a#   ",
"   89%%%%%%%%%%%|)!%%%%%2             ]%%%%%~{}%%%%%%%%%%%a#    ",
"    c9%%%%%%%%%|)!%%%%%%%2           ]%%%%%%%~65%%%%%%%%%a#     ",
"     c9%%%%%%%|)!%%%%%%%%%2         ]%%%%%%%%%~65%%%%%%%a#      ",
"      c9%%%%%|)!%%%%%%%%%%%2       ]%%%%%%%%%%%~65%%%%%a#       ",
"       c9%%%|3!%%%%%%%%%%%%%2     ]%%%%%%%%%%%%%~65%%%a#        ",
"        c9%|3!%%%%%%%%%%%%%%%2   ]%%%%%%%%%%%%%%%~65%;#         ",
"         cd3!%%%%%%%%%%%%%%%%%2^]%%%%%%%%%%%%%%%%%$6;#          ",
"           ;%%%%%%%%%%%%%%%%%%%e%%%%%%%%%%%%%%%%%%%*            ",
"           c9%%%%%%%%%%%%%%%%%0 ,%%%%%%%%%%%%%%%%%;#            ",
"            c>%%%%%%%%%%%%%%%0   ,%%%%%%%%%%%%%%%;#             ",
"             c>%%%%%%%%%%%%%0     ,%%%%%%%%%%%%%;#              ",
"              c>%%%%%%%%%%%0       ,%%%%%%%%%%%;#               ",
"               c>%%%%%%%%%0         +%%%%%%%%%;#                ",
"                c>%%%%%%%0           +%%%%%%%;#                 ",
"                 c>%%%%%0             +%%%%%;#                  ",
"                  c>%%%0               +%%%;#                   ",
"                   c>%0                 +%;#                    ",
"                    .+                   @#                     "};
