/* XPM */
static char * floor_xpm[] = {
"64 64 31 1",
" 	c #1737EA",
".	c #1838EB",
"+	c #1939EC",
"@	c #1636E9",
"#	c #1A3AED",
"$	c #1535E8",
"%	c #1437E9",
"&	c #1637E8",
"*	c #1336E8",
"=	c #1437EB",
"-	c #1338EB",
";	c #1637E6",
">	c #1736E6",
",	c #1736E8",
"'	c #1536E7",
")	c #1636ED",
"!	c #1635EF",
"~	c #1636EB",
"{	c #1635E7",
"]	c #1635E5",
"^	c #1536E5",
"/	c #1436EF",
"(	c #1436F0",
"_	c #1635F0",
":	c #1636E3",
"<	c #1536E3",
"[	c #1438E8",
"}	c #1436ED",
"|	c #1735E5",
"1	c #1636E1",
"2	c #1338E8",
"                     ....    ......................+++++++++++++",
"                       ..    ......................+++++++++++++",
"@                   ..           .....................++++++++++",
"@                                .....................++++++++++",
"@                                .....................++++++++++",
"                                    ..................++++++++++",
"                                     .................++++++++++",
"                   @@@@               ................++++++++++",
"                   @@@@          @    ................++++++++++",
"                   @@@@          @@   ................++++++++++",
"                 @@@@@@@@                ................+++++++",
"                 @@@@@@@@                ................+++++++",
"             @@@@@@@@@@@@                ................+++++++",
"             @@@@@@@@@@@@                ................+++++++",
"            @@@@@@@@@@@@@                  ..............+++++++",
"           @@@@@@@@@@@@@@                   .............+++++++",
"         @@@@@@@@@@@@@@@@                    ............+++++++",
"         @@@@@@@@@@@@@@@@                    ............+++++++",
"       @@@@@@@@@@@@@@@@@@@@@                     ........+++++++",
"      @@@@@@@@@@@@@@@@@@@@@@                     .........++++++",
"      @@@@@@@@@@@@@@@@@@@@@@                     ..........+++++",
"     @@@@@@@@@@@@@@@@@@@@@@@                     ..........+++++",
"    @@@@@@@@@@@@@@@@@@@@@@@@                       .........++++",
"  @@@@@@@@@@@@@@@@@@@@@@@@@@                        .......++++.",
" @@@@@@@@@@@@@@@@@@@@@@@@@@@                         ....+++++..",
" @@@@@@@@@@@@@@@@@@@@@@@@@@@                         ....++++.. ",
"@@@@@@@@@@@@@@@@@@@@@@@@@@@@@@@                          +......",
"@@@@@@@@@@@@@@@@@@@@@@@@@@@@@@@                          .......",
"@@@@@@@@@@@@@@@@@@@@@@@@@@@@@@@                          ....+++",
"@@@@@@@@@@@@@@@@@@@@@@@@@@@@@@@                          ....++#",
"@@@@@@@@@@@@@@@@@@@@@@@@@@@@@@@                            ..++#",
"@@@@@@@@@@@@@@@@@@@@@@@@@@@@@@@                            ...++",
"@@@@@@@@@@@@@@@@@@@@@@@@@@@@@@@                             ...+",
"@@@@@@@@@@@@@@@@@@@@@@@@@@@@@@@                              ...",
"@@@@@@@@@@@@@@@@@@@@@@@@@@@@@@@@@@@                          ...",
"@@@@@@@@@@@@@@@@@@@@@@@@@@@@@@@@@@@                          ...",
"@@@@@@@@@@@@@@@@@@@@@@@@@@@@@@@@@@@                           ..",
"@@@@@@@@@@@@@@@@@@@@@@@@@@@@@@@@@@@                            .",
"@@@@@@@@@@@@@@@@@@@@@@@@@@@@@@@@@@@                             ",
"@@@@@@@@@@@@@@@@@@@@@@@@@@@@@@@@@@@                             ",
"@@@@@@@@@@@@@@@@@@@@@@@@@@@@@@@@@@@                             ",
"@@@@@@@@@@@@@@@@@@@@@@@@@@@@@@@@@@@                             ",
"@@@@@@@@@@@@@@@@@@@@@@@@@@@@@@@@@@@@@                           ",
"@@@@@@@@@@@@@@@@@@@@@@@@@@@@@@@@@@@@@                           ",
"@@@@@@@@@@@@@@@@@@@@@@@@@@@@@@@@@@@@@                           ",
"@@@@@@@@@@@@@@@@@@@@@@@@@@@@@@@@@@@@@                           ",
"@@@@@@@@@@@@@@@@@@@@@@@@@@@@@@@@@@@@@                           ",
"@@@@@@@@@@@@@@@@@@@@@@@@@@@@@@@@@@@@@                           ",
"@@@@@@@@@@@@@@@@@@@@@@@@@@@@@@@@@@@@@                           ",
"@@@@@@@@@@@@@@@@@@@@@@@@@@@@@@@@@@@@@                           ",
"$@@@@@@@@@@@@@@@@@@@@@@@@@@@@@@@@@@@@@@@@                       ",
"$@@@@@@@@@@@@@@@@@@@@@@@@@@@@@@@@@@@@@@@@                       ",
"$@@@@@@@@@@@@@@@@@@@@@@@@@@@@@@@@@@@@@@@@                       ",
"$@@@@@@@@@@@@@@@@@@@@@@@@@@@@@@@@@@@@@@@@                       ",
"$@@@@@@@@@@@@@@@@@@@@@@@@@@@@@@@@@@@@@@@@                       ",
"$@@@@@@@@@@@@@@@@@@@@@@@@@@@@@@@@@@@@@@@@                       ",
"$@@@@@@@@@@@@@@@@@@@@@@@@@@@@@@@@@@@@@@@@                       ",
"$@%@@@&&&@@@@@@@@@@@@@@@@@@@@@@@@@@@@@@@@                       ",
"*=-=%&;>>&@@@@@@@@@@@@@@@@@@@@@@@@@@@@@@@                       ",
"*=--%%&,,@@@@@@@@@@@@@@@@@@@@@@@@@@@@@@@@                       ",
"'$%%==)!!~@@@@@@@@@@@@@@@@@@@@@@@@@@@@@@@                       ",
"{]^'%=/(_~@@@@@@@@@@@@@@@@@@@@@@@@@@@@@@@@                      ",
"]:<<^[=}}~@@@@@@@@@@@@@@@@@@@@@@@@@@@@@@@@@@                    ",
"|:1:<^[22@@@@@@@@@@@@@@@@@@@@@@@@@@@@@@@@@@@@                   "};
