/* XPM */
static char * mcl_xpm[] = {
"64 64 667 2",
"  	c #1737EA",
". 	c #1838EB",
"+ 	c #1939EC",
"@ 	c #1636E9",
"# 	c #1735E0",
"$ 	c #132AB6",
"% 	c #0F218F",
"& 	c #081979",
"* 	c #05105C",
"= 	c #03083C",
"- 	c #04115E",
"; 	c #05156D",
"> 	c #081A82",
", 	c #102BBE",
"' 	c #1736E8",
") 	c #1736E5",
"! 	c #0D23A1",
"~ 	c #020426",
"{ 	c #3B0503",
"] 	c #730B07",
"^ 	c #8D0D0A",
"/ 	c #9B0F0E",
"( 	c #A40E0B",
"_ 	c #A50E0B",
": 	c #9E100D",
"< 	c #860D0A",
"[ 	c #450603",
"} 	c #051266",
"| 	c #1533DA",
"1 	c #3D42E5",
"2 	c #1636E5",
"3 	c #061777",
"4 	c #480504",
"5 	c #9F0F0C",
"6 	c #C0110F",
"7 	c #C4100E",
"8 	c #C51111",
"9 	c #C41111",
"0 	c #C5110F",
"a 	c #C0120C",
"b 	c #730A10",
"c 	c #030C4D",
"d 	c #1533D9",
"e 	c #584FDF",
"f 	c #9477CB",
"g 	c #1636E7",
"h 	c #07197D",
"i 	c #5E0805",
"j 	c #BB120E",
"k 	c #C4100D",
"l 	c #C3110F",
"m 	c #C41110",
"n 	c #C51112",
"o 	c #C31110",
"p 	c #BB1016",
"q 	c #450517",
"r 	c #08197C",
"s 	c #3B41E5",
"t 	c #D2AEB5",
"u 	c #E6CAC2",
"v 	c #102ABE",
"w 	c #2B0404",
"x 	c #AF110E",
"y 	c #AF120F",
"z 	c #AB1311",
"A 	c #B1110F",
"B 	c #C0120E",
"C 	c #C3110D",
"D 	c #C3110E",
"E 	c #C3120E",
"F 	c #8C0B24",
"G 	c #0D0104",
"H 	c #142FC8",
"I 	c #896BCE",
"J 	c #EFD5C4",
"K 	c #F8E6D0",
"L 	c #A681A2",
"M 	c #1534E1",
"N 	c #061676",
"O 	c #080101",
"P 	c #070100",
"Q 	c #010100",
"R 	c #000000",
"S 	c #080100",
"T 	c #2D0402",
"U 	c #5C0A07",
"V 	c #820B08",
"W 	c #AB110E",
"X 	c #C4110F",
"Y 	c #C51110",
"Z 	c #A80E21",
"` 	c #42051C",
" .	c #0C2094",
"..	c #886F9E",
"+.	c #F1DDC2",
"@.	c #53535E",
"#.	c #303DBB",
"$.	c #1330D2",
"%.	c #030A48",
"&.	c #41585D",
"*.	c #6E94A0",
"=.	c #7DACBA",
"-.	c #89B6C3",
";.	c #8DBBC9",
">.	c #85B4C2",
",.	c #729BA5",
"'.	c #5E7F89",
").	c #3E5258",
"!.	c #0E0201",
"~.	c #94100D",
"{.	c #C5120E",
"].	c #B60F18",
"^.	c #5E0629",
"/.	c #060C41",
"(.	c #1837EA",
"_.	c #535691",
":.	c #F8F2EA",
"<.	c #68686A",
"[.	c #4D4E54",
"}.	c #333CA3",
"|.	c #1736E7",
"1.	c #1535E5",
"2.	c #030D54",
"3.	c #62838D",
"4.	c #93C7D5",
"5.	c #C2DFE6",
"6.	c #E6F3F2",
"7.	c #F6FBF9",
"8.	c #F8FCF9",
"9.	c #EDF6F5",
"0.	c #B8D9E1",
"a.	c #93C9D8",
"b.	c #92C9D9",
"c.	c #8FC6D4",
"d.	c #314449",
"e.	c #280201",
"f.	c #BA1210",
"g.	c #B91017",
"h.	c #700730",
"i.	c #020000",
"j.	c #1734DA",
"k.	c #555890",
"l.	c #F2F2F2",
"m.	c #6F6F6F",
"n.	c #656566",
"o.	c #B1B1B5",
"p.	c #353A8A",
"q.	c #1A36E3",
"r.	c #0D25AA",
"s.	c #4A646C",
"t.	c #92C7D8",
"u.	c #C6E1E7",
"v.	c #FBFEFA",
"w.	c #FBFEFB",
"x.	c #D5E8EB",
"y.	c #93CADA",
"z.	c #8ABECC",
"A.	c #446067",
"B.	c #020403",
"C.	c #B91116",
"D.	c #780734",
"E.	c #160105",
"F.	c #142EC6",
"G.	c #54589B",
"H.	c #EBEBEB",
"I.	c #858585",
"J.	c #7D7D7D",
"K.	c #FEFEFE",
"L.	c #77777C",
"M.	c #383B72",
"N.	c #1D36DA",
"O.	c #040D53",
"P.	c #7AA3AF",
"Q.	c #92C8D7",
"R.	c #A6D1DD",
"S.	c #C8E2E8",
"T.	c #C1DDE3",
"U.	c #B1D5E0",
"V.	c #A6D1DC",
"W.	c #94C7D6",
"X.	c #6C949F",
"Y.	c #476469",
"Z.	c #121919",
"`.	c #90120F",
" +	c #B71016",
".+	c #7A0735",
"++	c #23030C",
"@+	c #0D24A6",
"#+	c #1432D9",
"$+	c #1635E4",
"%+	c #4D53AF",
"&+	c #DADADA",
"*+	c #A1A1A1",
"=+	c #989898",
"-+	c #E8E8E8",
";+	c #7F7F7F",
">+	c #7E7E82",
",+	c #3F4161",
"'+	c #2136CE",
")+	c #020840",
"!+	c #537077",
"~+	c #86B9C5",
"{+	c #92CAD9",
"]+	c #93C9D9",
"^+	c #92C9DA",
"/+	c #90C4D2",
"(+	c #6E97A3",
"_+	c #46646A",
":+	c #476369",
"<+	c #0B1112",
"[+	c #97100E",
"}+	c #C41112",
"|+	c #AF0E1D",
"1+	c #2F0512",
"2+	c #1E0202",
"3+	c #280302",
"4+	c #0A0101",
"5+	c #0E24A5",
"6+	c #3E49C9",
"7+	c #BBBBBB",
"8+	c #C5C5C5",
"9+	c #AFAFAF",
"0+	c #C7C7C7",
"a+	c #8B8B8B",
"b+	c #CBCBCC",
"c+	c #72727B",
"d+	c #2636BC",
"e+	c #030E59",
"f+	c #3C5358",
"g+	c #47656B",
"h+	c #5E818B",
"i+	c #749DA9",
"j+	c #83B3C1",
"k+	c #84B4C3",
"l+	c #7DADBA",
"m+	c #6F97A3",
"n+	c #4F6F77",
"o+	c #476569",
"p+	c #4A636D",
"q+	c #435E61",
"r+	c #010101",
"s+	c #A5100E",
"t+	c #C31210",
"u+	c #A80D21",
"v+	c #7A0736",
"w+	c #3C0418",
"x+	c #790A09",
"y+	c #C11211",
"z+	c #BA1110",
"A+	c #9D110C",
"B+	c #150101",
"C+	c #1431D4",
"D+	c #223AE3",
"E+	c #848489",
"F+	c #EAEAEA",
"G+	c #C0C0C0",
"H+	c #9E9E9E",
"I+	c #808080",
"J+	c #878787",
"K+	c #F4F4F4",
"L+	c #F7F7F8",
"M+	c #808084",
"N+	c #2A35A5",
"O+	c #091D8E",
"P+	c #29383B",
"Q+	c #48656A",
"R+	c #47646A",
"S+	c #47636C",
"T+	c #47636B",
"U+	c #48646A",
"V+	c #48646B",
"W+	c #34494F",
"X+	c #290302",
"Y+	c #BE120F",
"Z+	c #9C0B27",
"`+	c #43051C",
" @	c #700906",
".@	c #C2110E",
"+@	c #C1120D",
"@@	c #500806",
"#@	c #102ABC",
"$@	c #54589F",
"%@	c #E2E2E2",
"&@	c #E3E3E3",
"*@	c #727272",
"=@	c #949494",
"-@	c #FFFFFF",
";@	c #ABABAB",
">@	c #76767B",
",@	c #2E358B",
"'@	c #1836E4",
")@	c #132FCC",
"!@	c #00000B",
"~@	c #2F3E44",
"{@	c #456165",
"]@	c #48646C",
"^@	c #47646B",
"/@	c #3F575A",
"(@	c #0B1111",
"_@	c #800D0B",
":@	c #900B2B",
"<@	c #790735",
"[@	c #46061E",
"}@	c #56070A",
"|@	c #A30E23",
"1@	c #A30D22",
"2@	c #B81015",
"3@	c #6C0A07",
"4@	c #0E26AC",
"5@	c #3645D3",
"6@	c #EEEEEE",
"7@	c #707070",
"8@	c #B3B3B3",
"9@	c #FBFBFB",
"0@	c #959595",
"a@	c #AAAAAA",
"b@	c #8C8C90",
"c@	c #343874",
"d@	c #1C36DB",
"e@	c #14259C",
"f@	c #070D0F",
"g@	c #263538",
"h@	c #34464C",
"i@	c #395055",
"j@	c #3E5459",
"k@	c #3E565C",
"l@	c #3C5458",
"m@	c #354A50",
"n@	c #263739",
"o@	c #030404",
"p@	c #680907",
"q@	c #850930",
"r@	c #4B0622",
"s@	c #310412",
"t@	c #790835",
"u@	c #7A0837",
"v@	c #7B0733",
"w@	c #640618",
"x@	c #0C23A2",
"y@	c #1A3AED",
"z@	c #565A9E",
"A@	c #D8D8D8",
"B@	c #CDCDCD",
"C@	c #AEAEAE",
"D@	c #87878B",
"E@	c #2E3055",
"F@	c #091D8D",
"G@	c #100C4E",
"H@	c #460303",
"I@	c #240201",
"J@	c #690908",
"K@	c #3E0604",
"L@	c #1E0201",
"M@	c #0A0100",
"N@	c #050100",
"O@	c #0D0101",
"P@	c #2D0302",
"Q@	c #640806",
"R@	c #9A0F0B",
"S@	c #C2130E",
"T@	c #C3120F",
"U@	c #C21110",
"V@	c #7F0833",
"W@	c #7B0835",
"X@	c #520523",
"Y@	c #2A030F",
"Z@	c #790836",
"`@	c #7C0839",
" #	c #530523",
".#	c #0A1F95",
"+#	c #273DE0",
"@#	c #727386",
"##	c #B5B5B5",
"$#	c #D1D1D1",
"%#	c #ACACAC",
"&#	c #A3A3A3",
"*#	c #474747",
"=#	c #161616",
"-#	c #5E0404",
";#	c #C31010",
">#	c #C30F0F",
",#	c #5F0000",
"'#	c #950A09",
")#	c #BF1211",
"!#	c #BA1514",
"~#	c #B81512",
"{#	c #BB1513",
"]#	c #C11210",
"^#	c #C41210",
"/#	c #BD1111",
"(#	c #7C0836",
"_#	c #7C0837",
":#	c #550525",
"<#	c #26030D",
"[#	c #790837",
"}#	c #570725",
"|#	c #081B87",
"1#	c #3745D3",
"2#	c #87888D",
"3#	c #F5F5F5",
"4#	c #B8B8B8",
"5#	c #A9A9A9",
"6#	c #5C5C5C",
"7#	c #1E1E1E",
"8#	c #7B0707",
"9#	c #6F0505",
"0#	c #560303",
"a#	c #530101",
"b#	c #6A0000",
"c#	c #4C0101",
"d#	c #BE1011",
"e#	c #B71015",
"f#	c #7B0838",
"g#	c #7C0838",
"h#	c #5B0527",
"i#	c #22030A",
"j#	c #5B0628",
"k#	c #07197F",
"l#	c #3E49CA",
"m#	c #F3F3F3",
"n#	c #A4A4A4",
"o#	c #A6A6A6",
"p#	c #717171",
"q#	c #2C327D",
"r#	c #340202",
"s#	c #C21111",
"t#	c #A20606",
"u#	c #770000",
"v#	c #720000",
"w#	c #350000",
"x#	c #2E0000",
"y#	c #A00C0C",
"z#	c #A80D1F",
"A#	c #7B0839",
"B#	c #5D0629",
"C#	c #210409",
"D#	c #7A0836",
"E#	c #5C0629",
"F#	c #3A47CE",
"G#	c #7A7A86",
"H#	c #E4E4E4",
"I#	c #F7F7F7",
"J#	c #909090",
"K#	c #4148AC",
"L#	c #730606",
"M#	c #920303",
"N#	c #AA0909",
"O#	c #950303",
"P#	c #8C0000",
"Q#	c #7A0000",
"R#	c #7E0707",
"S#	c #C2120E",
"T#	c #8F0B2A",
"U#	c #200409",
"V#	c #7A0937",
"W#	c #2D40DB",
"X#	c #5E608A",
"Y#	c #A5A5A5",
"Z#	c #51559A",
"`#	c #1837E8",
" $	c #112DC8",
".$	c #840808",
"+$	c #C61111",
"@$	c #B60C0C",
"#$	c #8B0000",
"$$	c #9C0000",
"%$	c #340101",
"&$	c #B20E0F",
"*$	c #B41019",
"=$	c #5D0628",
"-$	c #7A0936",
";$	c #5D0528",
">$	c #1B38E7",
",$	c #3946CE",
"'$	c #1F39E5",
")$	c #122FD1",
"!$	c #740606",
"~$	c #B30B0B",
"{$	c #8A0000",
"]$	c #7D0000",
"^$	c #1A1A1A",
"/$	c #280E0E",
"($	c #B40F0F",
"_$	c #B91015",
":$	c #85082F",
"<$	c #7B0837",
"[$	c #580626",
"}$	c #5B0626",
"|$	c #1635E7",
"1$	c #16136A",
"2$	c #950A0A",
"3$	c #950404",
"4$	c #890000",
"5$	c #340505",
"6$	c #313131",
"7$	c #171413",
"8$	c #B20E0D",
"9$	c #C1110F",
"0$	c #AB0E1D",
"a$	c #810931",
"b$	c #550625",
"c$	c #24030C",
"d$	c #590726",
"e$	c #091D8C",
"f$	c #1534E3",
"g$	c #0C23A3",
"h$	c #37093C",
"i$	c #710404",
"j$	c #630000",
"k$	c #450000",
"l$	c #0E0E0E",
"m$	c #111111",
"n$	c #5D0422",
"o$	c #9C0C26",
"p$	c #AA0D1E",
"q$	c #AD0E1C",
"r$	c #AC0E1C",
"s$	c #A50D21",
"t$	c #980B28",
"u$	c #830831",
"v$	c #510523",
"w$	c #28030E",
"x$	c #0B229C",
"y$	c #0F26AE",
"z$	c #040001",
"A$	c #600628",
"B$	c #46031D",
"C$	c #5B0428",
"D$	c #7B0836",
"E$	c #780835",
"F$	c #7A0738",
"G$	c #7C0738",
"H$	c #4E0622",
"I$	c #2E0412",
"J$	c #3F051A",
"K$	c #0E26AE",
"L$	c #1733DA",
"M$	c #010000",
"N$	c #6C0931",
"O$	c #7A0839",
"P$	c #7A0838",
"Q$	c #48061F",
"R$	c #370415",
"S$	c #720832",
"T$	c #150105",
"U$	c #1330D0",
"V$	c #04072D",
"W$	c #63062C",
"X$	c #6D0731",
"Y$	c #67072D",
"Z$	c #720933",
"`$	c #770835",
" %	c #790737",
".%	c #740935",
"+%	c #6D0931",
"@%	c #45051E",
"#%	c #5B0627",
"$%	c #590526",
"%%	c #360315",
"&%	c #07187B",
"*%	c #0E1866",
"=%	c #560625",
"-%	c #770833",
";%	c #590624",
">%	c #29030E",
",%	c #170206",
"'%	c #190207",
")%	c #070101",
"!%	c #000100",
"~%	c #60072A",
"{%	c #41051B",
"]%	c #04105C",
"^%	c #071672",
"/%	c #1634E0",
"(%	c #102293",
"_%	c #44051C",
":%	c #60082A",
"<%	c #1732D3",
"[%	c #0B186E",
"}%	c #560523",
"|%	c #7C0735",
"1%	c #380516",
"2%	c #1029B9",
"3%	c #1028B3",
"4%	c #29030F",
"5%	c #790834",
"6%	c #6C082E",
"7%	c #000001",
"8%	c #1835E0",
"9%	c #10208C",
"0%	c #4A051F",
"a%	c #780937",
"b%	c #7C0835",
"c%	c #2C0612",
"d%	c #1029B8",
"e%	c #142FCC",
"f%	c #120104",
"g%	c #770A33",
"h%	c #6B082D",
"i%	c #1C37E1",
"j%	c #0C219A",
"k%	c #40061C",
"l%	c #790838",
"m%	c #20030A",
"n%	c #122DC8",
"o%	c #1432D8",
"p%	c #020101",
"q%	c #710831",
"r%	c #5D0627",
"s%	c #070E4C",
"t%	c #1736E9",
"u%	c #1327A7",
"v%	c #340315",
"w%	c #740A33",
"x%	c #110103",
"y%	c #040C4A",
"z%	c #580624",
"A%	c #560623",
"B%	c #290310",
"C%	c #0D229C",
"D%	c #132CC2",
"E%	c #760832",
"F%	c #6C092F",
"G%	c #01010B",
"H%	c #1530CD",
"I%	c #101F85",
"J%	c #061673",
"K%	c #0D24A7",
"L%	c #050F55",
"M%	c #350314",
"N%	c #62072A",
"O%	c #6D0730",
"P%	c #60062B",
"Q%	c #320313",
"R%	c #071878",
"S%	c #1834DC",
"T%	c #0E2298",
"U%	c #030627",
"V%	c #03093C",
"W%	c #0D25A7",
"X%	c #1735E1",
"Y%	c #1535E8",
"Z%	c #1636E8",
"`%	c #1635E5",
" &	c #1737E9",
".&	c #1437E9",
"+&	c #1637E8",
"@&	c #1336E8",
"#&	c #1437EB",
"$&	c #1338EB",
"%&	c #1637E6",
"&&	c #1736E6",
"*&	c #1536E7",
"=&	c #1636ED",
"-&	c #1635EF",
";&	c #1636EB",
">&	c #1536E5",
",&	c #1436EF",
"'&	c #1436F0",
")&	c #1635F0",
"!&	c #1636E3",
"~&	c #1536E3",
"{&	c #1438E8",
"]&	c #1436ED",
"^&	c #1735E5",
"/&	c #1636E1",
"(&	c #1338E8",
"                                          . . . .         . . . . . . . . . . . . . . . . . . . . . . + + + + + + + + + + + + + ",
"                                              . .         . . . . . . . . . . . . . . . . . . . . . . + + + + + + + + + + + + + ",
"@                                       . .                       . . . . . . . . . . . . . . . . . . . . . + + + + + + + + + + ",
"@                                                                 . . . . . . . . . . . . . . . . . . . . . + + + + + + + + + + ",
"@                                                                 . . . . . . . . . . . . . . . . . . . . . + + + + + + + + + + ",
"                                                                        . . . . . . . . . . . . . . . . . . + + + + + + + + + + ",
"                                                                          . . . . . . . . . . . . . . . . . + + + + + + + + + + ",
"                                      @ @ @ @                               . . . . . . . . . . . . . . . . + + + + + + + + + + ",
"                                      @ @ @ @                     @         . . . . . . . . . . . . . . . . + + + + + + + + + + ",
"                                      @ @ @ @                     @ @       . . . . . . . . . . . . . . . . + + + + + + + + + + ",
"                                  @ @ @ @ @ @ @ @                                 . . . . . . . . . . . . . . . . + + + + + + + ",
"                                  @ @ @ @ @ @ @ @                                 . . . . . . . . . . . . . . . . + + + + + + + ",
"                          @ @ @ @ @ @ @ @ @ @ @ @                                 . . . . . . . . . . . . . . . . + + + + + + + ",
"                          @ @ @ @ @ @ @ @ @ @ @ @                                 . . . . . . . . . . . . . . . . + + + + + + + ",
"                        @ @ @ @ @ @ @ @ @ @ @ @ @                                     . . . . . . . . . . . . . . + + + + + + + ",
"                      @ @ @ @ @ @ @ @ @ @ @ @ @ @           # $ % & * = - ; > , '       . . . . . . . . . . . . . + + + + + + + ",
"                  @ @ @ @ @ @ @ @ @ @ @ @ @ @ @ @       ) ! ~ { ] ^ / ( _ : < [ } |       . . . . . . . . . . . . + + + + + + + ",
"                  @ 1 @ @ @ @ @ @ @ @ @ @ @ @ @ @     2 3 4 5 6 7 8 8 8 9 9 0 a b c d     . . . . . . . . . . . . + + + + + + + ",
"              @ @ e f @ @ @ @ @ @ @ @ @ @ @ @ @ @ @ g h i j k l 9 m m m m 9 n o p q r             . . . . . . . . + + + + + + + ",
"            @ @ s t u e @ @ @ @ @ @ @ @ @ @ @ @ @ @ v w x y z A j B C D E 9 n n m F G H           . . . . . . . . . + + + + + + ",
"            @ @ I J K L @ @ @ @ @ @ @ @ @ @ @ @ @ M N O P Q R Q S T U V W X Y 8 9 Z `  .          . . . . . . . . . . + + + + + ",
"          @ @ @ @ ..+.@.#.@ @ @ @ @ @ @ @ @ @ @ $.%.&.*.=.-.;.>.=.,.'.).!.~.{.m 9 ].^./.(.        . . . . . . . . . . + + + + + ",
"        @ @ @ @ @ _.:.<.[.}.|.@ @ @ @ @ @ @ @ 1.2.3.4.5.6.7.8.9.0.a.b.c.d.e.f.o 9 g.h.i.j.            . . . . . . . . . + + + + ",
"    @ @ @ @ @ @ @ k.l.m.n.o.p.q.@ @ @ @ @ @ @ r.s.t.u.v.w.w.v.v.x.y.y.z.A.B.: m 8 C.D.E.F.              . . . . . . . + + + + . ",
"  @ @ @ @ @ @ @ @ G.H.I.J.K.L.M.N.@ @ @ @ @ @ O.P.Q.R.S.T.0.U.V.W.y.a.X.Y.Z.`.o 9  +.+++@+#+$+            . . . . + + + + + . . ",
"  @ @ @ @ @ @ @ @ %+&+*+=+-+;+>+,+'+@ @ @ @ @ )+!+~+Q.{+]+{+y.^+b./+(+_+:+<+[+}+m |+.+1+2+3+4+c 5+        . . . . + + + + . .   ",
"@ @ @ @ @ @ @ @ @ 6+7+8+9+0+;+a+b+c+d+@ @ @ @ e+f+g+h+i+=.j+k+l+m+n+o+p+q+r+s+t+9 u+v+w+x+y+z+A+B+C+              + . . . . . . ",
"@ @ @ @ @ @ @ @ @ D+E+F+G+H+I+J+K+L+M+N+' @ @ O+P+Y.Q+R+R+R+S+T+U+V+R+V+W+X+Y+m m Z+v+`+ @.@.@+@@@#@              . . . . . . . ",
"@ @ @ @ @ @ @ @ @ @ $@%@&@*@I+=@-@-@;@>@,@'@@ )@!@~@{@R+V+]@V+V+V+]@^@/@(@_@X 8 m :@<@[@}@|@1@2@3@4@              . . . . + + + ",
"@ @ @ @ @ @ @ @ @ @ 5@H+6@7@;+8@-@9@0@a@b@c@d@@ e@R f@g@h@i@j@k@l@m@n@o@p@6 8 8 9 q@v+r@s@t@u@v@w@x@              . . . . + + y@",
"@ @ @ @ @ @ @ @ @ @ @ z@A@G+;+B@-@-+=+;@C@D@E@F@G@H@I@J@K@L@M@N@O@P@Q@R@+@m S@T@U@V@W@X@Y@Z@`@u@ #.#                  . . + + y@",
"@ @ @ @ @ @ @ @ @ @ @ +#@#6@##&@-@$#H+%#&#*#=#-#;#>#,#'#l )#!#~#{#]#X m Y 9 ^#m /#(#_#:#<#[#`@`@}#|#                  . . . + + ",
"@ @ @ @ @ @ @ @ @ @ @ @ 1#2#3#9@-@4#&#5#6#7#8#9#0#a#b#c#d#n n n n n n n n n n 9 e#f#g#h#i#[#`@`@j#k#                    . . . + ",
"@ @ @ @ @ @ @ @ @ @ @ @ @ l#b@m#-@n#o#p#q#r#s#t#u#v#w#x#y#n n n n n n n n n n 8 z#A#`@B#C#D#`@`@E#k#                      . . . ",
"@ @ @ @ @ @ @ @ @ @ @ @ @ @ F#G#H#I#J#K#$.L#8 M#N#O#P#Q#R#n n n n n n n n n n S#T#f#`@B#U#V#`@`@B#k#                      . . . ",
"@ @ @ @ @ @ @ @ @ @ @ @ @ @ @ W#X#Y#Z#`# $.$+$+$+$@$#$$$%$&$n n n n n n n n Y *$W@`@`@=$U#-$`@`@;$k#                      . . . ",
"@ @ @ @ @ @ @ @ @ @ @ @ @ @ @ @ >$,$'$@ )$!$+$+$+$~${$]$^$/$($n n n n 8 9 m _$:$<$`@g#[$i#D#`@`@}$k#                        . . ",
"@ @ @ @ @ @ @ @ @ @ @ @ @ @ @ @ @ @ @ @ |$1$2$s#+$3$4$5$6$7$8$m m m m X 9$0$a$D#`@`@g#b$c$Z@`@`@d$e$                          . ",
"@ @ @ @ @ @ @ @ @ @ @ @ @ @ @ @ @ @ @ @ @ f$g$h$i$j$k$l$m$n$o$p$q$r$s$t$u$.+_#g#`@`@g#v$w$V#`@A#v$x$                            ",
"@ @ @ @ @ @ @ @ @ @ @ @ @ @ @ @ @ @ @ @ @ @ @ 1.y$z$A$B$C$D$Z@E$F$[#D#v+D$(#`@`@`@`@G$H$I$Z@`@u@J$K$                            ",
"@ @ @ @ @ @ @ @ @ @ @ @ @ @ @ @ @ @ @ @ @ @ @ @ L$M$N$O$f#<$P$u@A#P$<$P$O$A#`@`@`@`@G$Q$R$D#P$S$T$U$                            ",
"@ @ @ @ @ @ @ @ @ @ @ @ @ @ @ @ @ @ @ @ @ @ @ @ ' V$W$u@X$Y$Z$`$ %.%+%X$Z@f#`@`@`@`@G$@%Y@#%$%%%&%                              ",
"@ @ @ @ @ @ @ @ @ @ @ @ @ @ @ @ @ @ @ @ @ @ @ @ @ *%=%D#-%;%>%,%'%)%M$!%~%f#`@`@`@`@G${%]%^%&%@+/%                              ",
"@ @ @ @ @ @ @ @ @ @ @ @ @ @ @ @ @ @ @ @ @ @ @ @ @ (%_%D#D#t@E$:%R <%| [%}%u@`@`@`@`@|%1%2%                                      ",
"@ @ @ @ @ @ @ @ @ @ @ @ @ @ @ @ @ @ @ @ @ @ @ @ @ 3%4%5%f#`@f#6%7%8%@ 9%0%a%`@`@`@`@b%c%d%                                      ",
"@ @ @ @ @ @ @ @ @ @ @ @ @ @ @ @ @ @ @ @ @ @ @ @ @ e%f%g%f#`@<$h%7%i%@ j%k%l%`@`@`@`@Z@m%n%                                      ",
"@ @ @ @ @ @ @ @ @ @ @ @ @ @ @ @ @ @ @ @ @ @ @ @ @ o%p%q%D#<$D#r%s%t%@ u%v%<$g#`@`@`@w%x%C+                                      ",
"@ @ @ @ @ @ @ @ @ @ @ @ @ @ @ @ @ @ @ @ @ @ @ @ @ g y%J$z%j#A%B%C%@ @ D%'%E%D#`@`@A#F%G%$+                                      ",
"@ @ @ @ @ @ @ @ @ @ @ @ @ @ @ @ @ @ @ @ @ @ @ @ @ @ H%I%J%J%^%K%f$@ @ ) L%M%N%O%N$P%Q%R%                                        ",
"@ @ @ @ @ @ @ @ @ @ @ @ @ @ @ @ @ @ @ @ @ @ @ @ @ @ @ @ @ @ @ @ @ @ @ @ S%T%U%!%R V%W%X%                                        ",
"Y%@ @ @ @ @ @ @ @ @ @ @ @ @ @ @ @ @ @ @ @ @ @ @ @ @ @ @ @ @ @ @ @ @ @ @ @ @ Z%`%`% &                                            ",
"Y%@ @ @ @ @ @ @ @ @ @ @ @ @ @ @ @ @ @ @ @ @ @ @ @ @ @ @ @ @ @ @ @ @ @ @ @ @ @ @ @                                               ",
"Y%@ @ @ @ @ @ @ @ @ @ @ @ @ @ @ @ @ @ @ @ @ @ @ @ @ @ @ @ @ @ @ @ @ @ @ @ @ @ @ @                                               ",
"Y%@ @ @ @ @ @ @ @ @ @ @ @ @ @ @ @ @ @ @ @ @ @ @ @ @ @ @ @ @ @ @ @ @ @ @ @ @ @ @ @                                               ",
"Y%@ @ @ @ @ @ @ @ @ @ @ @ @ @ @ @ @ @ @ @ @ @ @ @ @ @ @ @ @ @ @ @ @ @ @ @ @ @ @ @                                               ",
"Y%@ @ @ @ @ @ @ @ @ @ @ @ @ @ @ @ @ @ @ @ @ @ @ @ @ @ @ @ @ @ @ @ @ @ @ @ @ @ @ @                                               ",
"Y%@ @ @ @ @ @ @ @ @ @ @ @ @ @ @ @ @ @ @ @ @ @ @ @ @ @ @ @ @ @ @ @ @ @ @ @ @ @ @ @                                               ",
"Y%@ .&@ @ @ +&+&+&@ @ @ @ @ @ @ @ @ @ @ @ @ @ @ @ @ @ @ @ @ @ @ @ @ @ @ @ @ @ @ @                                               ",
"@&#&$&#&.&+&%&&&&&+&@ @ @ @ @ @ @ @ @ @ @ @ @ @ @ @ @ @ @ @ @ @ @ @ @ @ @ @ @ @ @                                               ",
"@&#&$&$&.&.&+&' ' @ @ @ @ @ @ @ @ @ @ @ @ @ @ @ @ @ @ @ @ @ @ @ @ @ @ @ @ @ @ @ @                                               ",
"*&Y%.&.&#&#&=&-&-&;&@ @ @ @ @ @ @ @ @ @ @ @ @ @ @ @ @ @ @ @ @ @ @ @ @ @ @ @ @ @ @                                               ",
"|$`%>&*&.&#&,&'&)&;&@ @ @ @ @ @ @ @ @ @ @ @ @ @ @ @ @ @ @ @ @ @ @ @ @ @ @ @ @ @ @ @                                             ",
"`%!&~&~&>&{&#&]&]&;&@ @ @ @ @ @ @ @ @ @ @ @ @ @ @ @ @ @ @ @ @ @ @ @ @ @ @ @ @ @ @ @ @ @                                         ",
"^&!&/&!&~&>&{&(&(&@ @ @ @ @ @ @ @ @ @ @ @ @ @ @ @ @ @ @ @ @ @ @ @ @ @ @ @ @ @ @ @ @ @ @ @                                       "};
