/* XPM */
static char * mcl_xpm[] = {
"64 64 663 2",
"  	c #9FA394",
". 	c #A1A596",
"+ 	c #A9AC9C",
"@ 	c #AAAD9D",
"# 	c #A0A495",
"$ 	c #ACB09F",
"% 	c #B0B3A2",
"& 	c #A6AA9A",
"* 	c #A8AC9C",
"= 	c #ABAE9D",
"- 	c #A0A394",
"; 	c #ABAE9E",
"> 	c #ADB09F",
", 	c #A9AD9C",
"' 	c #A8AB9B",
") 	c #A5A899",
"! 	c #AEB1A0",
"~ 	c #ACAF9F",
"{ 	c #A6A999",
"] 	c #AAAE9D",
"^ 	c #A0A494",
"/ 	c #AEB1A1",
"( 	c #AEB2A1",
"_ 	c #989C8E",
": 	c #7B7E72",
"< 	c #606259",
"[ 	c #50534A",
"} 	c #3C3E37",
"| 	c #262723",
"1 	c #43443D",
"2 	c #505249",
"3 	c #606258",
"4 	c #8E9183",
"5 	c #9CA091",
"6 	c #6C6F64",
"7 	c #171815",
"8 	c #3B0503",
"9 	c #730B07",
"0 	c #8D0D0A",
"a 	c #9B0F0E",
"b 	c #A40E0B",
"c 	c #A50E0B",
"d 	c #9E100D",
"e 	c #860D0A",
"f 	c #450603",
"g 	c #4B4C44",
"h 	c #A4A697",
"i 	c #B4B39F",
"j 	c #9C9F91",
"k 	c #4F5149",
"l 	c #480504",
"m 	c #9F0F0C",
"n 	c #C0110F",
"o 	c #C4100E",
"p 	c #C51111",
"q 	c #C41111",
"r 	c #C5110F",
"s 	c #C0120C",
"t 	c #730A10",
"u 	c #383933",
"v 	c #A3A696",
"w 	c #A6A99A",
"x 	c #B9B49B",
"y 	c #CBB88F",
"z 	c #9EA293",
"A 	c #53564D",
"B 	c #5E0805",
"C 	c #BB120E",
"D 	c #C4100D",
"E 	c #C3110F",
"F 	c #C41110",
"G 	c #C51112",
"H 	c #C31110",
"I 	c #BB1016",
"J 	c #450517",
"K 	c #5B5D54",
"L 	c #E7C795",
"M 	c #F1D7B2",
"N 	c #818578",
"O 	c #2B0404",
"P 	c #AF110E",
"Q 	c #AF120F",
"R 	c #AB1311",
"S 	c #B1110F",
"T 	c #C0120E",
"U 	c #C3110D",
"V 	c #C3110E",
"W 	c #C3120E",
"X 	c #8C0B24",
"Y 	c #0D0104",
"Z 	c #8E9083",
"` 	c #C7B58F",
" .	c #F5DCBA",
"..	c #F8E6D0",
"+.	c #C4A775",
"@.	c #A7AB9B",
"#.	c #9A9D8F",
"$.	c #080101",
"%.	c #070100",
"&.	c #010100",
"*.	c #000000",
"=.	c #080100",
"-.	c #2D0402",
";.	c #5C0A07",
">.	c #820B08",
",.	c #AB110E",
"'.	c #C4110F",
").	c #C51110",
"!.	c #A80E21",
"~.	c #42051C",
"{.	c #6E7065",
"].	c #A3A797",
"^.	c #A4A898",
"/.	c #AFB3A2",
"(.	c #AA9775",
"_.	c #F2DEC2",
":.	c #595958",
"<.	c #909285",
"[.	c #8F9285",
"}.	c #2E302A",
"|.	c #41585D",
"1.	c #6E94A0",
"2.	c #7DACBA",
"3.	c #89B6C3",
"4.	c #8DBBC9",
"5.	c #85B4C2",
"6.	c #729BA5",
"7.	c #5E7F89",
"8.	c #3E5258",
"9.	c #0E0201",
"0.	c #94100D",
"a.	c #C5120E",
"b.	c #B60F18",
"c.	c #5E0629",
"d.	c #2F302B",
"e.	c #AFB2A1",
"f.	c #A2A696",
"g.	c #A8AC9B",
"h.	c #A4A899",
"i.	c #797A73",
"j.	c #F8F2EA",
"k.	c #696969",
"l.	c #515150",
"m.	c #7E8076",
"n.	c #373833",
"o.	c #62838D",
"p.	c #93C7D5",
"q.	c #C2DFE6",
"r.	c #E6F3F2",
"s.	c #F6FBF9",
"t.	c #F8FCF9",
"u.	c #EDF6F5",
"v.	c #B8D9E1",
"w.	c #93C9D8",
"x.	c #92C9D9",
"y.	c #8FC6D4",
"z.	c #314449",
"A.	c #280201",
"B.	c #BA1210",
"C.	c #B91017",
"D.	c #700730",
"E.	c #020000",
"F.	c #A4A797",
"G.	c #A3A697",
"H.	c #797A74",
"I.	c #F2F2F2",
"J.	c #6F6F6F",
"K.	c #656565",
"L.	c #B3B3B3",
"M.	c #6C6E65",
"N.	c #73766A",
"O.	c #4A646C",
"P.	c #92C7D8",
"Q.	c #C6E1E7",
"R.	c #FBFEFA",
"S.	c #FBFEFB",
"T.	c #D5E8EB",
"U.	c #93CADA",
"V.	c #8ABECC",
"W.	c #446067",
"X.	c #020403",
"Y.	c #B91116",
"Z.	c #780734",
"`.	c #160105",
" +	c #909385",
".+	c #80817A",
"++	c #EBEBEB",
"@+	c #858585",
"#+	c #7D7D7D",
"$+	c #FEFEFE",
"%+	c #7A7A79",
"&+	c #5C5D57",
"*+	c #A5A898",
"=+	c #363832",
"-+	c #7AA3AF",
";+	c #92C8D7",
">+	c #A6D1DD",
",+	c #C8E2E8",
"'+	c #C1DDE3",
")+	c #B1D5E0",
"!+	c #A6D1DC",
"~+	c #94C7D6",
"{+	c #6C949F",
"]+	c #476469",
"^+	c #121919",
"/+	c #90120F",
"(+	c #B71016",
"_+	c #7A0735",
":+	c #23030C",
"<+	c #707268",
"[+	c #9EA192",
"}+	c #ACAF9E",
"|+	c #8C8D83",
"1+	c #DADADA",
"2+	c #A1A1A1",
"3+	c #989898",
"4+	c #E8E8E8",
"5+	c #7F7F7F",
"6+	c #808080",
"7+	c #52524F",
"8+	c #8D9184",
"9+	c #292A25",
"0+	c #537077",
"a+	c #86B9C5",
"b+	c #92CAD9",
"c+	c #93C9D9",
"d+	c #92C9DA",
"e+	c #90C4D2",
"f+	c #6E97A3",
"g+	c #46646A",
"h+	c #476369",
"i+	c #0B1112",
"j+	c #97100E",
"k+	c #C41112",
"l+	c #AF0E1D",
"m+	c #2F0512",
"n+	c #1E0202",
"o+	c #280302",
"p+	c #0A0101",
"q+	c #7B7E71",
"r+	c #9C9E91",
"s+	c #BBBBBB",
"t+	c #C5C5C5",
"u+	c #AFAFAF",
"v+	c #C7C7C7",
"w+	c #8B8B8B",
"x+	c #CCCCCB",
"y+	c #767675",
"z+	c #828579",
"A+	c #3A3C35",
"B+	c #3C5358",
"C+	c #47656B",
"D+	c #5E818B",
"E+	c #749DA9",
"F+	c #83B3C1",
"G+	c #84B4C3",
"H+	c #7DADBA",
"I+	c #6F97A3",
"J+	c #4F6F77",
"K+	c #476569",
"L+	c #4A636D",
"M+	c #435E61",
"N+	c #010101",
"O+	c #A5100E",
"P+	c #C31210",
"Q+	c #A80D21",
"R+	c #7A0736",
"S+	c #3C0418",
"T+	c #790A09",
"U+	c #C11211",
"V+	c #BA1110",
"W+	c #9D110C",
"X+	c #150101",
"Y+	c #9FA292",
"Z+	c #868686",
"`+	c #EAEAEA",
" @	c #C0C0C0",
".@	c #9E9E9E",
"+@	c #878787",
"@@	c #F4F4F4",
"#@	c #F7F7F7",
"$@	c #828281",
"%@	c #73766C",
"&@	c #5F6258",
"*@	c #29383B",
"=@	c #48656A",
"-@	c #47646A",
";@	c #47636C",
">@	c #47636B",
",@	c #48646A",
"'@	c #48646B",
")@	c #34494F",
"!@	c #290302",
"~@	c #BE120F",
"{@	c #9C0B27",
"]@	c #43051C",
"^@	c #700906",
"/@	c #C2110E",
"(@	c #C1120D",
"_@	c #500806",
":@	c #8D8F81",
"<@	c #AFB2A2",
"[@	c #82847C",
"}@	c #E2E2E2",
"|@	c #E3E3E3",
"1@	c #727272",
"2@	c #949494",
"3@	c #FFFFFF",
"4@	c #ABABAB",
"5@	c #787878",
"6@	c #63655D",
"7@	c #8B8E81",
"8@	c #040504",
"9@	c #2F3E44",
"0@	c #456165",
"a@	c #48646C",
"b@	c #47646B",
"c@	c #3F575A",
"d@	c #0B1111",
"e@	c #800D0B",
"f@	c #900B2B",
"g@	c #790735",
"h@	c #46061E",
"i@	c #56070A",
"j@	c #A30E23",
"k@	c #A30D22",
"l@	c #B81015",
"m@	c #6C0A07",
"n@	c #7D7F73",
"o@	c #A2A596",
"p@	c #EEEEEE",
"q@	c #707070",
"r@	c #FBFBFB",
"s@	c #959595",
"t@	c #AAAAAA",
"u@	c #8D8D8D",
"v@	c #565752",
"w@	c #969A8C",
"x@	c #6A6D62",
"y@	c #070D0F",
"z@	c #263538",
"A@	c #34464C",
"B@	c #395055",
"C@	c #3E5459",
"D@	c #3E565C",
"E@	c #3C5458",
"F@	c #354A50",
"G@	c #263739",
"H@	c #030404",
"I@	c #680907",
"J@	c #850930",
"K@	c #4B0622",
"L@	c #310412",
"M@	c #790835",
"N@	c #7A0837",
"O@	c #7B0733",
"P@	c #640618",
"Q@	c #6D7065",
"R@	c #7F8079",
"S@	c #D8D8D8",
"T@	c #CDCDCD",
"U@	c #AEAEAE",
"V@	c #888988",
"W@	c #41423F",
"X@	c #5F6158",
"Y@	c #36342F",
"Z@	c #460303",
"`@	c #240201",
" #	c #690908",
".#	c #3E0604",
"+#	c #1E0201",
"@#	c #0A0100",
"##	c #050100",
"$#	c #0D0101",
"%#	c #2D0302",
"&#	c #640806",
"*#	c #9A0F0B",
"=#	c #C2130E",
"-#	c #C3120F",
";#	c #C21110",
">#	c #7F0833",
",#	c #7B0835",
"'#	c #520523",
")#	c #2A030F",
"!#	c #790836",
"~#	c #7C0839",
"{#	c #530523",
"]#	c #64665C",
"^#	c #9B9E90",
"/#	c #7B7C7A",
"(#	c #B5B5B5",
"_#	c #D1D1D1",
":#	c #ACACAC",
"<#	c #A3A3A3",
"[#	c #474747",
"}#	c #161616",
"|#	c #5E0404",
"1#	c #C31010",
"2#	c #C30F0F",
"3#	c #5F0000",
"4#	c #950A09",
"5#	c #BF1211",
"6#	c #BA1514",
"7#	c #B81512",
"8#	c #BB1513",
"9#	c #C11210",
"0#	c #C41210",
"a#	c #BD1111",
"b#	c #7C0836",
"c#	c #7C0837",
"d#	c #550525",
"e#	c #26030D",
"f#	c #790837",
"g#	c #570725",
"h#	c #5A5C53",
"i#	c #94978A",
"j#	c #8A8A89",
"k#	c #F5F5F5",
"l#	c #B8B8B8",
"m#	c #A9A9A9",
"n#	c #5C5C5C",
"o#	c #1E1E1E",
"p#	c #7B0707",
"q#	c #6F0505",
"r#	c #560303",
"s#	c #530101",
"t#	c #6A0000",
"u#	c #4C0101",
"v#	c #BE1011",
"w#	c #B71015",
"x#	c #7B0838",
"y#	c #7C0838",
"z#	c #5B0527",
"A#	c #22030A",
"B#	c #5B0628",
"C#	c #54574E",
"D#	c #8F9287",
"E#	c #F3F3F3",
"F#	c #A4A4A4",
"G#	c #A6A6A6",
"H#	c #717171",
"I#	c #5A5B55",
"J#	c #340202",
"K#	c #C21111",
"L#	c #A20606",
"M#	c #770000",
"N#	c #720000",
"O#	c #350000",
"P#	c #2E0000",
"Q#	c #A00C0C",
"R#	c #A80D1F",
"S#	c #7B0839",
"T#	c #5D0629",
"U#	c #210409",
"V#	c #7A0836",
"W#	c #5C0629",
"X#	c #919488",
"Y#	c #7F7F7E",
"Z#	c #E4E4E4",
"`#	c #909090",
" $	c #7D7F76",
".$	c #8F9385",
"+$	c #730606",
"@$	c #920303",
"#$	c #AA0909",
"$$	c #950303",
"%$	c #8C0000",
"&$	c #7A0000",
"*$	c #7E0707",
"=$	c #C2120E",
"-$	c #8F0B2A",
";$	c #200409",
">$	c #7A0937",
",$	c #989B8E",
"'$	c #737571",
")$	c #A5A5A5",
"!$	c #777872",
"~$	c #888B7E",
"{$	c #840808",
"]$	c #C61111",
"^$	c #B60C0C",
"/$	c #8B0000",
"($	c #9C0000",
"_$	c #340101",
":$	c #B20E0F",
"<$	c #B41019",
"[$	c #5D0628",
"}$	c #7A0936",
"|$	c #5D0528",
"1$	c #5B5C53",
"2$	c #A5A999",
"3$	c #9DA192",
"4$	c #8E9284",
"5$	c #740606",
"6$	c #B30B0B",
"7$	c #8A0000",
"8$	c #7D0000",
"9$	c #1A1A1A",
"0$	c #280E0E",
"a$	c #B40F0F",
"b$	c #B91015",
"c$	c #85082F",
"d$	c #7B0837",
"e$	c #580626",
"f$	c #5B0626",
"g$	c #5E6056",
"h$	c #4A4841",
"i$	c #950A0A",
"j$	c #950404",
"k$	c #890000",
"l$	c #340505",
"m$	c #313131",
"n$	c #171413",
"o$	c #B20E0D",
"p$	c #C1110F",
"q$	c #AB0E1D",
"r$	c #810931",
"s$	c #550625",
"t$	c #24030C",
"u$	c #590726",
"v$	c #686A5F",
"w$	c #9B9F90",
"x$	c #6E7166",
"y$	c #432723",
"z$	c #710404",
"A$	c #630000",
"B$	c #450000",
"C$	c #0E0E0E",
"D$	c #111111",
"E$	c #5D0422",
"F$	c #9C0C26",
"G$	c #AA0D1E",
"H$	c #AD0E1C",
"I$	c #AC0E1C",
"J$	c #A50D21",
"K$	c #980B28",
"L$	c #830831",
"M$	c #510523",
"N$	c #28030E",
"O$	c #74766B",
"P$	c #76796E",
"Q$	c #040001",
"R$	c #600628",
"S$	c #46031D",
"T$	c #5B0428",
"U$	c #7B0836",
"V$	c #780835",
"W$	c #7A0738",
"X$	c #7C0738",
"Y$	c #4E0622",
"Z$	c #2E0412",
"`$	c #3F051A",
" %	c #828477",
".%	c #95998B",
"+%	c #010000",
"@%	c #6C0931",
"#%	c #7A0839",
"$%	c #7A0838",
"%%	c #48061F",
"&%	c #370415",
"*%	c #720832",
"=%	c #150105",
"-%	c #9C9F8F",
";%	c #1C1D1A",
">%	c #63062C",
",%	c #6D0731",
"'%	c #67072D",
")%	c #720933",
"!%	c #770835",
"~%	c #790737",
"{%	c #740935",
"]%	c #6D0931",
"^%	c #45051E",
"/%	c #5B0627",
"(%	c #590526",
"_%	c #360315",
":%	c #454740",
"<%	c #560625",
"[%	c #770833",
"}%	c #590624",
"|%	c #29030E",
"1%	c #170206",
"2%	c #190207",
"3%	c #070101",
"4%	c #000100",
"5%	c #60072A",
"6%	c #41051B",
"7%	c #54564D",
"8%	c #7C7E72",
"9%	c #A2A697",
"0%	c #A1A595",
"a%	c #ADB0A0",
"b%	c #A7AA9A",
"c%	c #63665C",
"d%	c #44051C",
"e%	c #60082A",
"f%	c #909486",
"g%	c #494C44",
"h%	c #560523",
"i%	c #7C0735",
"j%	c #380516",
"k%	c #8A8D7F",
"l%	c #ABAF9E",
"m%	c #A3A798",
"n%	c #797C70",
"o%	c #29030F",
"p%	c #790834",
"q%	c #6C082E",
"r%	c #000001",
"s%	c #999D8E",
"t%	c #5E6158",
"u%	c #4A051F",
"v%	c #780937",
"w%	c #7C0835",
"x%	c #2C0612",
"y%	c #898C7E",
"z%	c #120104",
"A%	c #770A33",
"B%	c #6B082D",
"C%	c #9A9E90",
"D%	c #686B60",
"E%	c #40061C",
"F%	c #790838",
"G%	c #20030A",
"H%	c #8D9082",
"I%	c #939789",
"J%	c #020101",
"K%	c #710831",
"L%	c #5D0627",
"M%	c #31332E",
"N%	c #717469",
"O%	c #340315",
"P%	c #740A33",
"Q%	c #110103",
"R%	c #9C9F90",
"S%	c #A1A495",
"T%	c #A7AB9A",
"U%	c #30312C",
"V%	c #580624",
"W%	c #560623",
"X%	c #290310",
"Y%	c #696C62",
"Z%	c #84877B",
"`%	c #760832",
" &	c #6C092F",
".&	c #070605",
"+&	c #949788",
"@&	c #595C53",
"#&	c #4D4F47",
"$&	c #4C4E46",
"%&	c #9CA092",
"&&	c #3C3D37",
"*&	c #350314",
"=&	c #62072A",
"-&	c #6D0730",
";&	c #60062B",
">&	c #320313",
",&	c #595A51",
"'&	c #717368",
")&	c #1B1C18",
"!&	c #2B2C27",
"~&	c #A9AC9B",
"{&	c #A9AD9D",
"                                        . +                                       @ #                                           ",
"                                      # $ % &                                   * % = -                                         ",
"                                    # $ % % % &                               * % % % =                                         ",
"                                  # $ % % % % % &                           * % % % % % =                                       ",
"                                # $ % % % % % % % &                       * % % % % % % % =                                     ",
"                              # $ % % % % % % % % % &                   * % % % % % % % % % ;                                   ",
"                            # > % % % % % % % % % % % &               * % % % % % % % % % % % ;                                 ",
"                          # > % % % % % % % % % % % % % &           * % % % % % % % % % % % % % ;                               ",
"                        # $ % % % % % % % % % % % % % % % &       * % % % % % % % % % % % % % % % ;                             ",
"                      # $ % % % % % % % % % % % % % % % % % &   * % % % % % % % % % % % % % % % % % ; -                         ",
"                      ; % % % % % % % % % % % % % % % % % % % , % % % % % % % % % % % % % % % % % % % '                         ",
"                  # ; ) ! % % % % % % % % % % % % % % % % % + # ; % % % % % % % % % % % % % % % % % ~ { ] ^                     ",
"                # > % / ) ! % % % % % % % % % % % % % % % +     ^ ; % % % % % % % % % % % % % % % ~ { % % ; -                   ",
"              # > % % % ( ) ! % % % % % % % % % % % % % +         ^ ; % % % % % % % % % % % % % ~ { % % % % ; -                 ",
"            # > % % % % % ( ) ! % % % % % % % % % % % +             ^ ; % % % % % % % % % % % ~ { % % % % % % ;                 ",
"          # > % % % % % % % ( ) ! % % % % % % % % % +       _ : < [ } | 1 2 3 4 / % % % % % ~ { % % % % % % % % ;               ",
"        # > % % % % % % % % % ( ) ! % % % % % % % +     5 6 7 8 9 0 a b c d e f g h % % % ~ { % % % % % % % % % % ;             ",
"      # > % % % % % i % % % % % / ) ! % % % % % +     j k l m n o p p p q q r s t u v % ~ w % % % % % % % % % % % % ; -         ",
"    # > % % % % % x y % % % % % % / ) ! % % % +     z A B C D E q F F F F q G H I J K ~ w % % % % % % % % % % % % % % ; ^       ",
"  # > % % % % % i L M x % % % % % % ( ) ! % +       N O P Q R S C T U V W q G G F X Y Z % % % % % % % % % % % % % % % % ; ^     ",
"# > % % % % % % `  ...+.% % % % % % % ( ) @.      #.k $.%.&.*.&.=.-.;.>.,.'.).p q !.~.{.% % % % % % % % % % % % % % % % % ; ^ ].",
"^./.% % % % % % % (._.:.<.% % % % % % % '       [.}.|.1.2.3.4.5.2.6.7.8.9.0.a.F q b.c.d.% % % % % % % % % % % % % % % % % e.f.g.",
"  h.% % % % % % % i.j.k.l.m.e.% % % % +       5 n.o.p.q.r.s.t.u.v.w.x.y.z.A.B.H q C.D.E.F.% % % % % % % % % % % % % % % e.G.    ",
"    ^.% % % % % % H.I.J.K.L.M.; % % +         N.O.P.Q.R.S.S.R.R.T.U.U.V.W.X.d F p Y.Z.`. +% % % % % % % % % % % % % % e.G.      ",
"      ^./.% % % % .+++@+#+$+%+&+*++           =+-+;+>+,+'+v.)+!+~+U.w.{+]+^+/+H q (+_+:+<+[+}+% % % % % % % % % % % e.G.        ",
"        ^./.% % % |+1+2+3+4+5+6+7+8+          9+0+a+;+b+c+b+U.d+x.e+f+g+h+i+j+k+F l+_+m+n+o+p+u q+% % % % % % % % e.G.          ",
"          ^./.% % r+s+t+u+v+5+w+x+y+z+        A+B+C+D+E+2.F+G+H+I+J+K+L+M+N+O+P+q Q+R+S+T+U+V+W+X+Y+% % % % % % e.G.            ",
"            ^./.% ~ Z+`+ @.@6++@@@#@$@%@z     &@*@]+=@-@-@-@;@>@,@'@-@'@)@!@~@F F {@R+]@^@/@/@(@_@:@% % % % % e.G.              ",
"              ^.<@% [@}@|@1@6+2@3@3@4@5@6@5   7@8@9@0@-@'@a@'@'@'@a@b@c@d@e@'.p F f@g@h@i@j@k@l@m@n@% % % % e.G.                ",
"                ^.<@o@.@p@q@5+L.3@r@s@t@u@v@w@  x@*.y@z@A@B@C@D@E@F@G@H@I@n p p q J@R+K@L@M@N@O@P@Q@; % % e.G.                  ",
"                  ^.<@R@S@ @5+T@3@4+3+4@U@V@W@X@Y@Z@`@ #.#+#@###$#%#&#*#(@F =#-#;#>#,#'#)#!#~#N@{#]#  ; e.G.                    ",
"                    f.^#/#p@(#|@3@_#.@:#<#[#}#|#1#2#3#4#E 5#6#7#8#9#'.F ).q 0#F a#b#c#d#e#f#~#~#g#h#    .                       ",
"                    f.  i#j#k#r@3@l#<#m#n#o#p#q#r#s#t#u#v#G G G G G G G G G G q w#x#y#z#A#f#~#~#B#C#    .                       ",
"                  ) /.'   D#u@E#3@F#G#H#I#J#K#L#M#N#O#P#Q#G G G G G G G G G G p R#S#~#T#U#V#~#~#W#C#  @ e.].                    ",
"                ) % % % '   X#Y#Z##@`# $.$+$p @$#$$$%$&$*$G G G G G G G G G G =$-$x#~#T#;$>$~#~#T#C#@ % % e.].                  ",
"              ) % % % % % '   ,$'$)$!$z ~${$]$]$]$^$/$($_$:$G G G G G G G G ).<$,#~#~#[$;$}$~#~#|$1$% % % % e.].                ",
"            2$% % % % % % % '   z X#3$  4$5$]$]$]$6$7$8$9$0$a$G G G G p q F b$c$d$~#y#e$A#V#~#~#f$g$% % % % % e.].              ",
"          2$% % % % % % % % % '         z h$i$K#]$j$k$l$m$n$o$F F F F '.p$q$r$V#~#~#y#s$t$!#~#~#u$v$% % % % % % e.].            ",
"        2$% % % % % % % % % % % '         w$x$y$z$A$B$C$D$E$F$G$H$I$J$K$L$_+c#y#~#~#y#M$N$>$~#S#M$O$% % % % % % % e.].          ",
"      2$% % % % % % % % % % % % % '           5 P$Q$R$S$T$U$!#V$W$f#V#R+U$b#~#~#~#~#X$Y$Z$!#~#N@`$ %% % % % % % % % e.].        ",
"    2$% % % % % % % % % % % % % % % '           .%+%@%#%x#d$$%N@S#$%d$$%#%S#~#~#~#~#X$%%&%V#$%*%=%-%% % % % % % % % % e.].      ",
"  2$% % % % % % % % % % % % % % % % % '         z ;%>%N@,%'%)%!%~%{%]%,%!#x#~#~#~#~#X$^%)#/%(%_%1$% % % % % % % % % % % e.].    ",
"^.% % % % % % % % % % % % % % % % % % % @.        :%<%V#[%}%|%1%2%3%+%4%5%x#~#~#~#~#X$6%1 7%1$8%' % % % % % % % % % % % % e.9%* ",
"0%a%% % % % % % % % % % % % % % % % % e.) b%      c%d%V#V#M@V$e%*.f%.%g%h%N@~#~#~#~#i%j%k%% % % % % % % % % % % % % % % % l%# m%",
"  0%a%% % % % % % % % % % % % % % % e.) ! % g.    n%o%p%x#~#x#q%r%s%  t%u%v%~#~#~#~#w%x%y%% % % % % % % % % % % % % % % l%#     ",
"    0%a%% % % % % % % % % % % % % e.) ! % % % g.  7@z%A%x#~#d$B%r%C%  D%E%F%~#~#~#~#!#G%H%% % % % % % % % % % % % % % l%#       ",
"      0%a%% % % % % % % % % % % e.) ! % % % % % g.I%J%K%V#d$V#L%M%    N%O%d$y#~#~#~#P%Q%R%{ /.% % % % % % % % % % % l%#         ",
"        S%a%% % % % % % % % % e.) ! % % % % % % % T%U%`$V%B#W%X%Y%    Z%2%`%V#~#~#S# &.&; ~ 2$<@% % % % % % % % % l%#           ",
"          S%a%% % % % % % % e.) ! % % % % % % % % % +&@&#&#&$&N%w$    %&&&*&=&-&@%;&>&,&% % ~ 2$<@% % % % % % % l%#             ",
"            S%a%% % % % % e.) ! % % % % % % % % % % % g.              ] { '&)&4%*.!&n@~&% % % ~ 2$<@% % % % % l%#               ",
"              S%a%% % % e.h.! % % % % % % % % % % % % % g.          ] % % % e.> > e.% % % % % % ~ 2$<@% % % l%#                 ",
"                S%a%% e.h.! % % % % % % % % % % % % % % % g.      ] % % % % % % % % % % % % % % % ~ 2$<@% ; #                   ",
"                  S%}+h.! % % % % % % % % % % % % % % % % % g.^ ] % % % % % % % % % % % % % % % % % $ 2$; #                     ",
"                      ; % % % % % % % % % % % % % % % % % % % {&% % % % % % % % % % % % % % % % % % % *                         ",
"                      S%a%% % % % % % % % % % % % % % % % % b%  , % % % % % % % % % % % % % % % % % ; #                         ",
"                        S%> % % % % % % % % % % % % % % % b%      , % % % % % % % % % % % % % % % ; #                           ",
"                          S%> % % % % % % % % % % % % % b%          , % % % % % % % % % % % % % ; #                             ",
"                            S%> % % % % % % % % % % % b%              , % % % % % % % % % % % ; #                               ",
"                              S%> % % % % % % % % % b%                  + % % % % % % % % % ; #                                 ",
"                                S%> % % % % % % % b%                      + % % % % % % % ; #                                   ",
"                                  S%> % % % % % b%                          + % % % % % ; #                                     ",
"                                    S%> % % % b%                              + % % % ; #                                       ",
"                                      S%> % b%                                  + % ; #                                         ",
"                                        . +                                       @ #                                           "};
