/* XPM */
static char * mcr_xpm[] = {
"64 64 662 2",
"  	c #9FA394",
". 	c #A1A596",
"+ 	c #A9AC9C",
"@ 	c #AAAD9D",
"# 	c #A0A495",
"$ 	c #ACB09F",
"% 	c #B0B3A2",
"& 	c #A6AA9A",
"* 	c #A8AC9C",
"= 	c #ABAE9D",
"- 	c #A0A394",
"; 	c #ABAE9E",
"> 	c #ADB09F",
", 	c #A9AD9C",
"' 	c #A8AB9B",
") 	c #A5A899",
"! 	c #AEB1A0",
"~ 	c #ACAF9F",
"{ 	c #A6A999",
"] 	c #AAAE9D",
"^ 	c #A0A494",
"/ 	c #AEB1A1",
"( 	c #AEB2A1",
"_ 	c #8E9183",
": 	c #606258",
"< 	c #4C4E46",
"[ 	c #3E4039",
"} 	c #262723",
"| 	c #3C3E37",
"1 	c #50534A",
"2 	c #606259",
"3 	c #7B7E72",
"4 	c #989C8E",
"5 	c #A4A697",
"6 	c #4B4C44",
"7 	c #450603",
"8 	c #860D0A",
"9 	c #9E100D",
"0 	c #A50E0B",
"a 	c #A40E0B",
"b 	c #9B0F0E",
"c 	c #8D0D0A",
"d 	c #730B07",
"e 	c #3B0503",
"f 	c #171815",
"g 	c #6C6F64",
"h 	c #9CA091",
"i 	c #A3A696",
"j 	c #383933",
"k 	c #730A10",
"l 	c #C0120C",
"m 	c #C5110F",
"n 	c #C41111",
"o 	c #C51111",
"p 	c #C4100E",
"q 	c #C0110F",
"r 	c #9F0F0C",
"s 	c #480504",
"t 	c #4F5149",
"u 	c #9C9F91",
"v 	c #A6A99A",
"w 	c #B4B39F",
"x 	c #5B5D54",
"y 	c #450517",
"z 	c #BB1016",
"A 	c #C31110",
"B 	c #C51112",
"C 	c #C41110",
"D 	c #C3110F",
"E 	c #C4100D",
"F 	c #BB120E",
"G 	c #5E0805",
"H 	c #53564D",
"I 	c #9EA293",
"J 	c #CBB88F",
"K 	c #B9B49B",
"L 	c #949788",
"M 	c #0D0104",
"N 	c #8C0B24",
"O 	c #C3120E",
"P 	c #C3110E",
"Q 	c #C3110D",
"R 	c #C0120E",
"S 	c #B1110F",
"T 	c #AB1311",
"U 	c #AF120F",
"V 	c #AF110E",
"W 	c #2B0404",
"X 	c #818578",
"Y 	c #F1D7B2",
"Z 	c #E7C795",
"` 	c #67695F",
" .	c #42051C",
"..	c #A80E21",
"+.	c #C51110",
"@.	c #C4110F",
"#.	c #AB110E",
"$.	c #820B08",
"%.	c #5C0A07",
"&.	c #2D0402",
"*.	c #080100",
"=.	c #010100",
"-.	c #000000",
";.	c #070100",
">.	c #080101",
",.	c #9A9D8F",
"'.	c #C4A775",
").	c #F8E6D0",
"!.	c #F5DCBA",
"~.	c #C7B58F",
"{.	c #A3A797",
"].	c #A4A898",
"^.	c #AFB3A2",
"/.	c #2D2E29",
"(.	c #5E0629",
"_.	c #B60F18",
":.	c #C5120E",
"<.	c #94100D",
"[.	c #0E0201",
"}.	c #3E5258",
"|.	c #5E7F89",
"1.	c #729BA5",
"2.	c #7DACBA",
"3.	c #85B4C2",
"4.	c #8DBBC9",
"5.	c #89B6C3",
"6.	c #6E94A0",
"7.	c #41585D",
"8.	c #2E302A",
"9.	c #8F9285",
"0.	c #909285",
"a.	c #595958",
"b.	c #F2DEC2",
"c.	c #AA9775",
"d.	c #AFB2A1",
"e.	c #A2A696",
"f.	c #A8AC9B",
"g.	c #A4A899",
"h.	c #9DA091",
"i.	c #020000",
"j.	c #700730",
"k.	c #B91017",
"l.	c #BA1210",
"m.	c #280201",
"n.	c #314449",
"o.	c #8FC6D4",
"p.	c #92C9D9",
"q.	c #93C9D8",
"r.	c #B8D9E1",
"s.	c #EDF6F5",
"t.	c #F8FCF9",
"u.	c #F6FBF9",
"v.	c #E6F3F2",
"w.	c #C2DFE6",
"x.	c #93C7D5",
"y.	c #62838D",
"z.	c #373833",
"A.	c #7E8076",
"B.	c #515150",
"C.	c #696969",
"D.	c #F8F2EA",
"E.	c #797A73",
"F.	c #A3A697",
"G.	c #86897D",
"H.	c #160105",
"I.	c #780734",
"J.	c #B91116",
"K.	c #020403",
"L.	c #446067",
"M.	c #8ABECC",
"N.	c #93CADA",
"O.	c #D5E8EB",
"P.	c #FBFEFA",
"Q.	c #FBFEFB",
"R.	c #C6E1E7",
"S.	c #92C7D8",
"T.	c #4A646C",
"U.	c #73766A",
"V.	c #6C6E65",
"W.	c #B3B3B3",
"X.	c #656565",
"Y.	c #6F6F6F",
"Z.	c #F2F2F2",
"`.	c #797A74",
" +	c #A5A898",
".+	c #939789",
"++	c #707268",
"@+	c #23030C",
"#+	c #7A0735",
"$+	c #B71016",
"%+	c #90120F",
"&+	c #121919",
"*+	c #476469",
"=+	c #6C949F",
"-+	c #94C7D6",
";+	c #A6D1DC",
">+	c #B1D5E0",
",+	c #C1DDE3",
"'+	c #C8E2E8",
")+	c #A6D1DD",
"!+	c #92C8D7",
"~+	c #7AA3AF",
"{+	c #363832",
"]+	c #5C5D57",
"^+	c #7A7A79",
"/+	c #FEFEFE",
"(+	c #7D7D7D",
"_+	c #858585",
":+	c #EBEBEB",
"<+	c #80817A",
"[+	c #7B7E71",
"}+	c #353630",
"|+	c #0A0101",
"1+	c #280302",
"2+	c #1E0202",
"3+	c #2F0512",
"4+	c #AF0E1D",
"5+	c #C41112",
"6+	c #97100E",
"7+	c #0B1112",
"8+	c #476369",
"9+	c #46646A",
"0+	c #6E97A3",
"a+	c #90C4D2",
"b+	c #92C9DA",
"c+	c #92CAD9",
"d+	c #93C9D9",
"e+	c #86B9C5",
"f+	c #537077",
"g+	c #292A25",
"h+	c #989A8C",
"i+	c #535450",
"j+	c #808080",
"k+	c #7F7F7F",
"l+	c #E8E8E8",
"m+	c #989898",
"n+	c #A1A1A1",
"o+	c #DADADA",
"p+	c #8C8D83",
"q+	c #9FA292",
"r+	c #150101",
"s+	c #9D110C",
"t+	c #BA1110",
"u+	c #C11211",
"v+	c #790A09",
"w+	c #3C0418",
"x+	c #7A0736",
"y+	c #A80D21",
"z+	c #C31210",
"A+	c #A5100E",
"B+	c #010101",
"C+	c #435E61",
"D+	c #4A636D",
"E+	c #476569",
"F+	c #4F6F77",
"G+	c #6F97A3",
"H+	c #7DADBA",
"I+	c #84B4C3",
"J+	c #83B3C1",
"K+	c #749DA9",
"L+	c #5E818B",
"M+	c #47656B",
"N+	c #3C5358",
"O+	c #3A3C35",
"P+	c #828579",
"Q+	c #767675",
"R+	c #CCCCCC",
"S+	c #8B8B8B",
"T+	c #C7C7C7",
"U+	c #AFAFAF",
"V+	c #C5C5C5",
"W+	c #BBBBBB",
"X+	c #9C9E91",
"Y+	c #868A7D",
"Z+	c #500806",
"`+	c #C1120D",
" @	c #C2110E",
".@	c #700906",
"+@	c #43051C",
"@@	c #9C0B27",
"#@	c #BE120F",
"$@	c #290302",
"%@	c #34494F",
"&@	c #48646B",
"*@	c #47646A",
"=@	c #48646A",
"-@	c #47636B",
";@	c #47636C",
">@	c #48656A",
",@	c #29383B",
"'@	c #5F6258",
")@	c #73766C",
"!@	c #828281",
"~@	c #F7F7F7",
"{@	c #F4F4F4",
"]@	c #878787",
"^@	c #9E9E9E",
"/@	c #C0C0C0",
"(@	c #EAEAEA",
"_@	c #868686",
":@	c #AFB2A2",
"<@	c #74776C",
"[@	c #6C0A07",
"}@	c #B81015",
"|@	c #A30D22",
"1@	c #A30E23",
"2@	c #56070A",
"3@	c #46061E",
"4@	c #790735",
"5@	c #900B2B",
"6@	c #800D0B",
"7@	c #0B1111",
"8@	c #3F575A",
"9@	c #47646B",
"0@	c #48646C",
"a@	c #456165",
"b@	c #2F3E44",
"c@	c #040504",
"d@	c #8B8E81",
"e@	c #63655D",
"f@	c #787878",
"g@	c #ABABAB",
"h@	c #FFFFFF",
"i@	c #949494",
"j@	c #727272",
"k@	c #E3E3E3",
"l@	c #E2E2E2",
"m@	c #82847C",
"n@	c #6D7065",
"o@	c #640618",
"p@	c #7B0733",
"q@	c #7A0837",
"r@	c #790835",
"s@	c #310412",
"t@	c #4B0622",
"u@	c #850930",
"v@	c #680907",
"w@	c #030404",
"x@	c #263739",
"y@	c #354A50",
"z@	c #3C5458",
"A@	c #3E565C",
"B@	c #3E5459",
"C@	c #395055",
"D@	c #34464C",
"E@	c #263538",
"F@	c #070D0F",
"G@	c #6A6D62",
"H@	c #969A8C",
"I@	c #565752",
"J@	c #8D8D8D",
"K@	c #AAAAAA",
"L@	c #959595",
"M@	c #FBFBFB",
"N@	c #707070",
"O@	c #EEEEEE",
"P@	c #A1A496",
"Q@	c #64665C",
"R@	c #530523",
"S@	c #7C0839",
"T@	c #790836",
"U@	c #2A030F",
"V@	c #520523",
"W@	c #7B0835",
"X@	c #7F0833",
"Y@	c #C21110",
"Z@	c #C3120F",
"`@	c #C2130E",
" #	c #9A0F0B",
".#	c #640806",
"+#	c #2D0302",
"@#	c #0D0101",
"##	c #050100",
"$#	c #0A0100",
"%#	c #1E0201",
"&#	c #3E0604",
"*#	c #690908",
"=#	c #240201",
"-#	c #460303",
";#	c #36342F",
">#	c #5F6158",
",#	c #41423F",
"'#	c #888988",
")#	c #AEAEAE",
"!#	c #CDCDCD",
"~#	c #D8D8D8",
"{#	c #82837C",
"]#	c #5A5C53",
"^#	c #570725",
"/#	c #790837",
"(#	c #26030D",
"_#	c #550525",
":#	c #7C0837",
"<#	c #7C0836",
"[#	c #BD1111",
"}#	c #C41210",
"|#	c #C11210",
"1#	c #BB1513",
"2#	c #B81512",
"3#	c #BA1514",
"4#	c #BF1211",
"5#	c #950A09",
"6#	c #5F0000",
"7#	c #C30F0F",
"8#	c #C31010",
"9#	c #5E0404",
"0#	c #161616",
"a#	c #474747",
"b#	c #A3A3A3",
"c#	c #ACACAC",
"d#	c #D1D1D1",
"e#	c #B5B5B5",
"f#	c #7B7C7A",
"g#	c #9CA092",
"h#	c #54574E",
"i#	c #5B0628",
"j#	c #22030A",
"k#	c #5B0527",
"l#	c #7C0838",
"m#	c #7B0838",
"n#	c #B71015",
"o#	c #BE1011",
"p#	c #4C0101",
"q#	c #6A0000",
"r#	c #530101",
"s#	c #560303",
"t#	c #6F0505",
"u#	c #7B0707",
"v#	c #1E1E1E",
"w#	c #5C5C5C",
"x#	c #A9A9A9",
"y#	c #B8B8B8",
"z#	c #F5F5F5",
"A#	c #8A8A89",
"B#	c #94978A",
"C#	c #5C0629",
"D#	c #7A0836",
"E#	c #210409",
"F#	c #5D0629",
"G#	c #7B0839",
"H#	c #A80D1F",
"I#	c #A00C0C",
"J#	c #2E0000",
"K#	c #350000",
"L#	c #720000",
"M#	c #770000",
"N#	c #A20606",
"O#	c #C21111",
"P#	c #340202",
"Q#	c #5A5B55",
"R#	c #717171",
"S#	c #A6A6A6",
"T#	c #A4A4A4",
"U#	c #F3F3F3",
"V#	c #8F9287",
"W#	c #7A0937",
"X#	c #200409",
"Y#	c #8F0B2A",
"Z#	c #C2120E",
"`#	c #7E0707",
" $	c #7A0000",
".$	c #8C0000",
"+$	c #950303",
"@$	c #AA0909",
"#$	c #920303",
"$$	c #730606",
"%$	c #8F9385",
"&$	c #7D7F76",
"*$	c #909090",
"=$	c #E4E4E4",
"-$	c #7F7F7E",
";$	c #919488",
">$	c #5D0528",
",$	c #7A0936",
"'$	c #5D0628",
")$	c #B41019",
"!$	c #B20E0F",
"~$	c #340101",
"{$	c #9C0000",
"]$	c #8B0000",
"^$	c #B60C0C",
"/$	c #C61111",
"($	c #840808",
"_$	c #888B7E",
":$	c #777872",
"<$	c #A5A5A5",
"[$	c #737571",
"}$	c #989B8E",
"|$	c #A5A999",
"1$	c #5A5B52",
"2$	c #5B0626",
"3$	c #580626",
"4$	c #7B0837",
"5$	c #85082F",
"6$	c #B91015",
"7$	c #B40F0F",
"8$	c #280E0E",
"9$	c #1A1A1A",
"0$	c #7D0000",
"a$	c #8A0000",
"b$	c #B30B0B",
"c$	c #740606",
"d$	c #8E9284",
"e$	c #9DA192",
"f$	c #686A5F",
"g$	c #590726",
"h$	c #24030C",
"i$	c #550625",
"j$	c #810931",
"k$	c #AB0E1D",
"l$	c #C1110F",
"m$	c #B20E0D",
"n$	c #171413",
"o$	c #313131",
"p$	c #340505",
"q$	c #890000",
"r$	c #950404",
"s$	c #950A0A",
"t$	c #4A4841",
"u$	c #74766B",
"v$	c #510523",
"w$	c #28030E",
"x$	c #830831",
"y$	c #980B28",
"z$	c #A50D21",
"A$	c #AC0E1C",
"B$	c #AD0E1C",
"C$	c #AA0D1E",
"D$	c #9C0C26",
"E$	c #5D0422",
"F$	c #111111",
"G$	c #0E0E0E",
"H$	c #450000",
"I$	c #630000",
"J$	c #710404",
"K$	c #432723",
"L$	c #6E7166",
"M$	c #9B9F90",
"N$	c #828477",
"O$	c #3F051A",
"P$	c #2E0412",
"Q$	c #4E0622",
"R$	c #7C0738",
"S$	c #7B0836",
"T$	c #7A0738",
"U$	c #780835",
"V$	c #5B0428",
"W$	c #46031D",
"X$	c #600628",
"Y$	c #040001",
"Z$	c #76796E",
"`$	c #9C9F8F",
" %	c #150105",
".%	c #720832",
"+%	c #7A0838",
"@%	c #370415",
"#%	c #48061F",
"$%	c #7A0839",
"%%	c #6C0931",
"&%	c #010000",
"*%	c #95998B",
"=%	c #5B5C53",
"-%	c #360315",
";%	c #590526",
">%	c #5B0627",
",%	c #45051E",
"'%	c #6D0731",
")%	c #6D0931",
"!%	c #740935",
"~%	c #790737",
"{%	c #770835",
"]%	c #720933",
"^%	c #67072D",
"/%	c #63062C",
"(%	c #1C1D1A",
"_%	c #7C7E72",
":%	c #54564D",
"<%	c #43443D",
"[%	c #41051B",
"}%	c #60072A",
"|%	c #000100",
"1%	c #070101",
"2%	c #190207",
"3%	c #170206",
"4%	c #29030E",
"5%	c #590624",
"6%	c #770833",
"7%	c #560625",
"8%	c #454740",
"9%	c #A2A697",
"0%	c #A1A595",
"a%	c #ADB0A0",
"b%	c #8A8C7E",
"c%	c #380516",
"d%	c #7C0735",
"e%	c #560523",
"f%	c #494C44",
"g%	c #909486",
"h%	c #60082A",
"i%	c #44051C",
"j%	c #63665C",
"k%	c #ABAF9E",
"l%	c #A3A798",
"m%	c #818377",
"n%	c #2C0612",
"o%	c #7C0835",
"p%	c #780937",
"q%	c #4A051F",
"r%	c #5E6158",
"s%	c #999D8E",
"t%	c #000001",
"u%	c #6C082E",
"v%	c #790834",
"w%	c #29030F",
"x%	c #797C70",
"y%	c #949688",
"z%	c #20030A",
"A%	c #790838",
"B%	c #40061C",
"C%	c #686B60",
"D%	c #9A9E90",
"E%	c #6B082D",
"F%	c #770A33",
"G%	c #120104",
"H%	c #9FA293",
"I%	c #110103",
"J%	c #740A33",
"K%	c #340315",
"L%	c #717469",
"M%	c #31332E",
"N%	c #5D0627",
"O%	c #710831",
"P%	c #020101",
"Q%	c #9DA191",
"R%	c #A1A495",
"S%	c #070605",
"T%	c #6C092F",
"U%	c #760832",
"V%	c #84877B",
"W%	c #696C62",
"X%	c #290310",
"Y%	c #560623",
"Z%	c #580624",
"`%	c #33352F",
" &	c #595A51",
".&	c #320313",
"+&	c #60062B",
"@&	c #6D0730",
"#&	c #62072A",
"$&	c #350314",
"%&	c #373933",
"&&	c #4D4F47",
"*&	c #9B9D8E",
"=&	c #A9AC9B",
"-&	c #7D7F73",
";&	c #2B2C27",
">&	c #1B1C18",
",&	c #717368",
"'&	c #9FA393",
")&	c #ACAF9E",
"!&	c #A9AD9D",
"~&	c #A7AA9A",
"                                        . +                                       @ #                                           ",
"                                      # $ % &                                   * % = -                                         ",
"                                    # $ % % % &                               * % % % =                                         ",
"                                  # $ % % % % % &                           * % % % % % =                                       ",
"                                # $ % % % % % % % &                       * % % % % % % % =                                     ",
"                              # $ % % % % % % % % % &                   * % % % % % % % % % ;                                   ",
"                            # > % % % % % % % % % % % &               * % % % % % % % % % % % ;                                 ",
"                          # > % % % % % % % % % % % % % &           * % % % % % % % % % % % % % ;                               ",
"                        # $ % % % % % % % % % % % % % % % &       * % % % % % % % % % % % % % % % ;                             ",
"                      # $ % % % % % % % % % % % % % % % % % &   * % % % % % % % % % % % % % % % % % ; -                         ",
"                      ; % % % % % % % % % % % % % % % % % % % , % % % % % % % % % % % % % % % % % % % '                         ",
"                  # ; ) ! % % % % % % % % % % % % % % % % % + # ; % % % % % % % % % % % % % % % % % ~ { ] ^                     ",
"                # > % / ) ! % % % % % % % % % % % % % % % +     ^ ; % % % % % % % % % % % % % % % ~ { % % ; -                   ",
"              # > % % % ( ) ! % % % % % % % % % % % % % +         ^ ; % % % % % % % % % % % % % ~ { % % % % ; -                 ",
"            # > % % % % % ( ) ! % % % % % % % % % % % +             ^ ; % % % % % % % % % % % ~ { % % % % % % ;                 ",
"          # > % % % % % % % ( ) ! % % % % % % / _ : < [ } | 1 2 3 4   ^ ; % % % % % % % % % ~ { % % % % % % % % ;               ",
"        # > % % % % % % % % % ( ) ! % % % % 5 6 7 8 9 0 a b c d e f g h ^ ; % % % % % % % ~ { % % % % % % % % % % ;             ",
"      # > % % % % % % % % % % % / ) ! % % i j k l m n n o o o p q r s t u ^ ; % % % % % ~ v % % % % % % % w % % % % ; -         ",
"    # > % % % % % % % % % % % % % / ) ! % x y z A B n C C C C n D E F G H I ^ ; % % % ~ v % % % % % % % % J K % % % % ; ^       ",
"  # > % % % % % % % % % % % % % % % ( ) L M N C B B n O P Q R F S T U V W X   ^ ; % ~ v % % % % % % % % K Y Z w % % % % ; ^     ",
"# > % % % % % % % % % % % % % % % % % ( `  ...n o +.@.#.$.%.&.*.=.-.=.;.>.t ,.  - ' v % % % % % % % % % '.).!.~.% % % % % ; ^ {.",
"].^.% % % % % % % % % % % % % % % % % % /.(._.n C :.<.[.}.|.1.2.3.4.5.2.6.7.8.9.    ] % % % % % % % % 0.a.b.c.% % % % % % d.e.f.",
"  g.% % % % % % % % % % % % % % % % % h.i.j.k.n A l.m.n.o.p.q.r.s.t.u.v.w.x.y.z.h   - ; % % % % % d.A.B.C.D.E.% % % % % d.F.    ",
"    ].% % % % % % % % % % % % % % % + G.H.I.J.o C 9 K.L.M.N.N.O.P.P.Q.Q.P.R.S.T.U.    - ; % % % ; V.W.X.Y.Z.`.% % % % d.F.      ",
"      ].^.% % % % % % % % % % % %  +.+++@+#+$+n A %+&+*+=+q.N.-+;+>+r.,+'+)+!+~+{+      - ; %  +]+^+/+(+_+:+<+% % % d.F.        ",
"        ].^.% % % % % % % % % [+}+|+1+2+3+#+4+C 5+6+7+8+9+0+a+p.b+N.c+d+c+!+e+f+g+        - h+i+j+k+l+m+n+o+p+% % d.F.          ",
"          ].^.% % % % % % % q+r+s+t+u+v+w+x+y+n z+A+B+C+D+E+F+G+H+I+J+2.K+L+M+N+O+        P+Q+R+S+k+T+U+V+W+X+% d.F.            ",
"            ].^.% % % % % % Y+Z+`+ @ @.@+@x+@@C C #@$@%@&@*@&@=@-@;@*@*@*@>@*+,@'@    I )@!@~@{@]@j+^@/@(@_@~ d.F.              ",
"              ].:@% % % % * <@[@}@|@1@2@3@4@5@C o @.6@7@8@9@0@&@&@&@0@&@*@a@b@c@d@  h e@f@g@h@h@i@j+j@k@l@m@d.F.                ",
"                ].:@% % *   n@o@p@q@r@s@t@x+u@n o o q v@w@x@y@z@A@B@C@D@E@F@-.G@  H@I@J@K@L@M@h@W.k+N@O@^@P@F.                  ",
"                  ].:@*     Q@R@q@S@T@U@V@W@X@Y@Z@`@C `+ #.#+#@###$#%#&#*#=#-#;#>#,#'#)#g@m+l+h@!#k+/@~#{#F.                    ",
"                    e.      ]#^#S@S@/#(#_#:#<#[#C }#n +.C @.|#1#2#3#4#D 5#6#7#8#9#0#a#b#c#^@d#h@k@e#O@f#g#                      ",
"                    e.      h#i#S@S@/#j#k#l#m#n#n B B B B B B B B B B o#p#q#r#s#t#u#v#w#x#b#y#h@M@z#A#B#.                       ",
"                  ) ^.'     h#C#S@S@D#E#F#S@G#H#o B B B B B B B B B B I#J#K#L#M#N#O#P#Q#R#S#T#h@U#J@V#@ d.{.                    ",
"                ) % % % '   h#F#S@S@W#X#F#S@m#Y#Z#B B B B B B B B B B `# $.$+$@$#$o $$%$&$*$~@=$-$;$@ % % d.{.                  ",
"              ) % % % % % ' h#>$S@S@,$X#'$S@S@W@)$+.B B B B B B B B !$~${$]$^$/$/$/$($_$I :$<$[$}$@ % % % % d.{.                ",
"            |$% % % % % % % 1$2$S@S@D#j#3$l#S@4$5$6$C n o B B B B 7$8$9$0$a$b$/$/$/$c$d$  e$;$I ] % % % % % % d.{.              ",
"          |$% % % % % % % % f$g$S@S@T@h$i$l#S@S@D#j$k$l$@.C C C C m$n$o$p$q$r$/$O#s$t$I       ] % % % % % % % % d.{.            ",
"        |$% % % % % % % % % u$v$G#S@W#w$v$l#S@S@l#:##+x$y$z$A$B$C$D$E$F$G$H$I$J$K$L$M$      ] % % % % % % % % % % d.{.          ",
"      |$% % % % % % % % % % N$O$q@S@T@P$Q$R$S@S@S@S@<#S$x+D#/#T$U$T@S$V$W$X$Y$Z$h         ] % % % % % % % % % % % % d.{.        ",
"    |$% % % % % % % % % % % `$ %.%+%D#@%#%R$S@S@S@S@G#$%+%4$+%G#q@+%4$m#$%%%&%*%        ] % % % % % % % % % % % % % % d.{.      ",
"  |$% % % % % % % % % % % % % =%-%;%>%U@,%R$S@S@S@S@m#T@'%)%!%~%{%]%^%'%q@/%(%I       ] % % % % % % % % % % % % % % % % d.{.    ",
"].% % % % % % % % % % % % % % ' _%=%:%<%[%R$S@S@S@S@m#}%|%&%1%2%3%4%5%6%D#7%8%      @ % % % % % % % % % % % % % % % % % % d.9%* ",
"0%a%% % % % % % % % % % % % % % % % % b%c%d%S@S@S@S@q@e%f%*%g%-.h%U$r@D#D#i%j%    ' { :@% % % % % % % % % % % % % % % % % k%# l%",
"  0%a%% % % % % % % % % % % % % % % d.m%n%o%S@S@S@S@p%q%r%  s%t%u%m#S@m#v%w%x%  ] % ~ { ^.% % % % % % % % % % % % % % % k%#     ",
"    0%a%% % % % % % % % % % % % % d.) y%z%T@S@S@S@S@A%B%C%  D%t%E%4$S@m#F%G%d@] % % % ~ { % % % % % % % % % % % % % % k%#       ",
"      0%a%% % % % % % % % % % % d.) ! H%I%J%S@S@S@l#4$K%L%    M%N%D#4$D#O%P%Q%% % % % % ~ { ^.% % % % % % % % % % % k%#         ",
"        R%a%% % % % % % % % % d.) ! % ; S%T%G#S@S@D#U%2%V%    W%X%Y%i#Z%O$`%d.% % % % % % ~ |$:@% % % % % % % % % k%#           ",
"          R%a%% % % % % % % d.) ! % % %  &.&+&%%@&#&$&%&g#    M$L%< &&&&: *&% % % % % % % % ~ |$:@% % % % % % % k%#             ",
"            R%a%% % % % % d.) ! % % % % =&-&;&-.|%>&,&'&              ] % % % % % % % % % % % ~ |$:@% % % % % k%#               ",
"              R%a%% % % d.g.! % % % % % % % d.> > d.% % f.          ] % % % % % % % % % % % % % ~ |$:@% % % k%#                 ",
"                R%a%% d.g.! % % % % % % % % % % % % % % % f.      ] % % % % % % % % % % % % % % % ~ |$:@% ; #                   ",
"                  R%)&g.! % % % % % % % % % % % % % % % % % f.^ ] % % % % % % % % % % % % % % % % % $ |$; #                     ",
"                      ; % % % % % % % % % % % % % % % % % % % !&% % % % % % % % % % % % % % % % % % % *                         ",
"                      R%a%% % % % % % % % % % % % % % % % % ~&  , % % % % % % % % % % % % % % % % % ; #                         ",
"                        R%> % % % % % % % % % % % % % % % ~&      , % % % % % % % % % % % % % % % ; #                           ",
"                          R%> % % % % % % % % % % % % % ~&          , % % % % % % % % % % % % % ; #                             ",
"                            R%> % % % % % % % % % % % ~&              , % % % % % % % % % % % ; #                               ",
"                              R%> % % % % % % % % % ~&                  + % % % % % % % % % ; #                                 ",
"                                R%> % % % % % % % ~&                      + % % % % % % % ; #                                   ",
"                                  R%> % % % % % ~&                          + % % % % % ; #                                     ",
"                                    R%> % % % ~&                              + % % % ; #                                       ",
"                                      R%> % ~&                                  + % ; #                                         ",
"                                        . +                                       @ #                                           "};
