/* XPM */
static char * mcr_xpm[] = {
"64 64 667 2",
"  	c #1939EC",
". 	c #1838EB",
"+ 	c #1737EA",
"@ 	c #1636E9",
"# 	c #1736E8",
"$ 	c #102BBE",
"% 	c #081A82",
"& 	c #05156D",
"* 	c #04115E",
"= 	c #03083C",
"- 	c #05105C",
"; 	c #081979",
"> 	c #0F218F",
", 	c #132AB6",
"' 	c #1735E0",
") 	c #1533DA",
"! 	c #051266",
"~ 	c #450603",
"{ 	c #860D0A",
"] 	c #9E100D",
"^ 	c #A50E0B",
"/ 	c #A40E0B",
"( 	c #9B0F0E",
"_ 	c #8D0D0A",
": 	c #730B07",
"< 	c #3B0503",
"[ 	c #020426",
"} 	c #0D23A1",
"| 	c #1736E5",
"1 	c #1533D9",
"2 	c #030C4D",
"3 	c #730A10",
"4 	c #C0120C",
"5 	c #C5110F",
"6 	c #C41111",
"7 	c #C51111",
"8 	c #C4100E",
"9 	c #C0110F",
"0 	c #9F0F0C",
"a 	c #480504",
"b 	c #061777",
"c 	c #1636E5",
"d 	c #3D42E5",
"e 	c #08197C",
"f 	c #450517",
"g 	c #BB1016",
"h 	c #C31110",
"i 	c #C51112",
"j 	c #C41110",
"k 	c #C3110F",
"l 	c #C4100D",
"m 	c #BB120E",
"n 	c #5E0805",
"o 	c #07197D",
"p 	c #1636E7",
"q 	c #9477CB",
"r 	c #584FDF",
"s 	c #142FC8",
"t 	c #0D0104",
"u 	c #8C0B24",
"v 	c #C3120E",
"w 	c #C3110E",
"x 	c #C3110D",
"y 	c #C0120E",
"z 	c #B1110F",
"A 	c #AB1311",
"B 	c #AF120F",
"C 	c #AF110E",
"D 	c #2B0404",
"E 	c #102ABE",
"F 	c #E6CAC2",
"G 	c #D2AEB5",
"H 	c #3B41E5",
"I 	c #0C2094",
"J 	c #42051C",
"K 	c #A80E21",
"L 	c #C51110",
"M 	c #C4110F",
"N 	c #AB110E",
"O 	c #820B08",
"P 	c #5C0A07",
"Q 	c #2D0402",
"R 	c #080100",
"S 	c #010100",
"T 	c #000000",
"U 	c #070100",
"V 	c #080101",
"W 	c #061676",
"X 	c #1534E1",
"Y 	c #A681A2",
"Z 	c #F8E6D0",
"` 	c #EFD5C4",
" .	c #896BCE",
"..	c #1837EA",
"+.	c #060C41",
"@.	c #5E0629",
"#.	c #B60F18",
"$.	c #C5120E",
"%.	c #94100D",
"&.	c #0E0201",
"*.	c #3E5258",
"=.	c #5E7F89",
"-.	c #729BA5",
";.	c #7DACBA",
">.	c #85B4C2",
",.	c #8DBBC9",
"'.	c #89B6C3",
").	c #6E94A0",
"!.	c #41585D",
"~.	c #030A48",
"{.	c #1330D2",
"].	c #303DBB",
"^.	c #53535E",
"/.	c #F1DDC2",
"(.	c #886F9E",
"_.	c #1734DA",
":.	c #020000",
"<.	c #700730",
"[.	c #B91017",
"}.	c #BA1210",
"|.	c #280201",
"1.	c #314449",
"2.	c #8FC6D4",
"3.	c #92C9D9",
"4.	c #93C9D8",
"5.	c #B8D9E1",
"6.	c #EDF6F5",
"7.	c #F8FCF9",
"8.	c #F6FBF9",
"9.	c #E6F3F2",
"0.	c #C2DFE6",
"a.	c #93C7D5",
"b.	c #62838D",
"c.	c #030D54",
"d.	c #1535E5",
"e.	c #1736E7",
"f.	c #333CA3",
"g.	c #4D4E54",
"h.	c #68686A",
"i.	c #F8F2EA",
"j.	c #535691",
"k.	c #142EC6",
"l.	c #160105",
"m.	c #780734",
"n.	c #B91116",
"o.	c #020403",
"p.	c #446067",
"q.	c #8ABECC",
"r.	c #93CADA",
"s.	c #D5E8EB",
"t.	c #FBFEFA",
"u.	c #FBFEFB",
"v.	c #C6E1E7",
"w.	c #92C7D8",
"x.	c #4A646C",
"y.	c #0D25AA",
"z.	c #1A36E3",
"A.	c #353A8A",
"B.	c #B1B1B5",
"C.	c #656566",
"D.	c #6F6F6F",
"E.	c #F2F2F2",
"F.	c #555890",
"G.	c #1635E4",
"H.	c #1432D9",
"I.	c #0D24A6",
"J.	c #23030C",
"K.	c #7A0735",
"L.	c #B71016",
"M.	c #90120F",
"N.	c #121919",
"O.	c #476469",
"P.	c #6C949F",
"Q.	c #94C7D6",
"R.	c #A6D1DC",
"S.	c #B1D5E0",
"T.	c #C1DDE3",
"U.	c #C8E2E8",
"V.	c #A6D1DD",
"W.	c #92C8D7",
"X.	c #7AA3AF",
"Y.	c #040D53",
"Z.	c #1D36DA",
"`.	c #383B72",
" +	c #77777C",
".+	c #FEFEFE",
"++	c #7D7D7D",
"@+	c #858585",
"#+	c #EBEBEB",
"$+	c #54589B",
"%+	c #0E24A5",
"&+	c #0A0101",
"*+	c #280302",
"=+	c #1E0202",
"-+	c #2F0512",
";+	c #AF0E1D",
">+	c #C41112",
",+	c #97100E",
"'+	c #0B1112",
")+	c #476369",
"!+	c #46646A",
"~+	c #6E97A3",
"{+	c #90C4D2",
"]+	c #92C9DA",
"^+	c #92CAD9",
"/+	c #93C9D9",
"(+	c #86B9C5",
"_+	c #537077",
":+	c #020840",
"<+	c #2136CE",
"[+	c #3F4161",
"}+	c #7E7E82",
"|+	c #7F7F7F",
"1+	c #E8E8E8",
"2+	c #989898",
"3+	c #A1A1A1",
"4+	c #DADADA",
"5+	c #4D53AF",
"6+	c #1431D4",
"7+	c #150101",
"8+	c #9D110C",
"9+	c #BA1110",
"0+	c #C11211",
"a+	c #790A09",
"b+	c #3C0418",
"c+	c #7A0736",
"d+	c #A80D21",
"e+	c #C31210",
"f+	c #A5100E",
"g+	c #010101",
"h+	c #435E61",
"i+	c #4A636D",
"j+	c #476569",
"k+	c #4F6F77",
"l+	c #6F97A3",
"m+	c #7DADBA",
"n+	c #84B4C3",
"o+	c #83B3C1",
"p+	c #749DA9",
"q+	c #5E818B",
"r+	c #47656B",
"s+	c #3C5358",
"t+	c #030E59",
"u+	c #2636BC",
"v+	c #72727B",
"w+	c #CBCBCC",
"x+	c #8B8B8B",
"y+	c #C7C7C7",
"z+	c #AFAFAF",
"A+	c #C5C5C5",
"B+	c #BBBBBB",
"C+	c #3E49C9",
"D+	c #102ABC",
"E+	c #500806",
"F+	c #C1120D",
"G+	c #C2110E",
"H+	c #700906",
"I+	c #43051C",
"J+	c #9C0B27",
"K+	c #BE120F",
"L+	c #290302",
"M+	c #34494F",
"N+	c #48646B",
"O+	c #47646A",
"P+	c #48646A",
"Q+	c #47636B",
"R+	c #47636C",
"S+	c #48656A",
"T+	c #29383B",
"U+	c #091D8E",
"V+	c #2A35A5",
"W+	c #808084",
"X+	c #F7F7F8",
"Y+	c #F4F4F4",
"Z+	c #878787",
"`+	c #808080",
" @	c #9E9E9E",
".@	c #C0C0C0",
"+@	c #EAEAEA",
"@@	c #848489",
"#@	c #223AE3",
"$@	c #0E26AC",
"%@	c #6C0A07",
"&@	c #B81015",
"*@	c #A30D22",
"=@	c #A30E23",
"-@	c #56070A",
";@	c #46061E",
">@	c #790735",
",@	c #900B2B",
"'@	c #800D0B",
")@	c #0B1111",
"!@	c #3F575A",
"~@	c #47646B",
"{@	c #48646C",
"]@	c #456165",
"^@	c #2F3E44",
"/@	c #00000B",
"(@	c #132FCC",
"_@	c #1836E4",
":@	c #2E358B",
"<@	c #76767B",
"[@	c #ABABAB",
"}@	c #FFFFFF",
"|@	c #949494",
"1@	c #727272",
"2@	c #E3E3E3",
"3@	c #E2E2E2",
"4@	c #54589F",
"5@	c #1A3AED",
"6@	c #0C23A2",
"7@	c #640618",
"8@	c #7B0733",
"9@	c #7A0837",
"0@	c #790835",
"a@	c #310412",
"b@	c #4B0622",
"c@	c #850930",
"d@	c #680907",
"e@	c #030404",
"f@	c #263739",
"g@	c #354A50",
"h@	c #3C5458",
"i@	c #3E565C",
"j@	c #3E5459",
"k@	c #395055",
"l@	c #34464C",
"m@	c #263538",
"n@	c #070D0F",
"o@	c #14259C",
"p@	c #1C36DB",
"q@	c #343874",
"r@	c #8C8C90",
"s@	c #AAAAAA",
"t@	c #959595",
"u@	c #FBFBFB",
"v@	c #B3B3B3",
"w@	c #707070",
"x@	c #EEEEEE",
"y@	c #3645D3",
"z@	c #0A1F95",
"A@	c #530523",
"B@	c #7C0839",
"C@	c #790836",
"D@	c #2A030F",
"E@	c #520523",
"F@	c #7B0835",
"G@	c #7F0833",
"H@	c #C21110",
"I@	c #C3120F",
"J@	c #C2130E",
"K@	c #9A0F0B",
"L@	c #640806",
"M@	c #2D0302",
"N@	c #0D0101",
"O@	c #050100",
"P@	c #0A0100",
"Q@	c #1E0201",
"R@	c #3E0604",
"S@	c #690908",
"T@	c #240201",
"U@	c #460303",
"V@	c #100C4E",
"W@	c #091D8D",
"X@	c #2E3055",
"Y@	c #87878B",
"Z@	c #AEAEAE",
"`@	c #CDCDCD",
" #	c #D8D8D8",
".#	c #565A9E",
"+#	c #081B87",
"@#	c #570725",
"##	c #790837",
"$#	c #26030D",
"%#	c #550525",
"&#	c #7C0837",
"*#	c #7C0836",
"=#	c #BD1111",
"-#	c #C41210",
";#	c #C11210",
">#	c #BB1513",
",#	c #B81512",
"'#	c #BA1514",
")#	c #BF1211",
"!#	c #950A09",
"~#	c #5F0000",
"{#	c #C30F0F",
"]#	c #C31010",
"^#	c #5E0404",
"/#	c #161616",
"(#	c #474747",
"_#	c #A3A3A3",
":#	c #ACACAC",
"<#	c #D1D1D1",
"[#	c #B5B5B5",
"}#	c #727386",
"|#	c #273DE0",
"1#	c #07197F",
"2#	c #5B0628",
"3#	c #22030A",
"4#	c #5B0527",
"5#	c #7C0838",
"6#	c #7B0838",
"7#	c #B71015",
"8#	c #BE1011",
"9#	c #4C0101",
"0#	c #6A0000",
"a#	c #530101",
"b#	c #560303",
"c#	c #6F0505",
"d#	c #7B0707",
"e#	c #1E1E1E",
"f#	c #5C5C5C",
"g#	c #A9A9A9",
"h#	c #B8B8B8",
"i#	c #F5F5F5",
"j#	c #87888D",
"k#	c #3745D3",
"l#	c #5C0629",
"m#	c #7A0836",
"n#	c #210409",
"o#	c #5D0629",
"p#	c #7B0839",
"q#	c #A80D1F",
"r#	c #A00C0C",
"s#	c #2E0000",
"t#	c #350000",
"u#	c #720000",
"v#	c #770000",
"w#	c #A20606",
"x#	c #C21111",
"y#	c #340202",
"z#	c #2C327D",
"A#	c #717171",
"B#	c #A6A6A6",
"C#	c #A4A4A4",
"D#	c #F3F3F3",
"E#	c #3E49CA",
"F#	c #7A0937",
"G#	c #200409",
"H#	c #8F0B2A",
"I#	c #C2120E",
"J#	c #7E0707",
"K#	c #7A0000",
"L#	c #8C0000",
"M#	c #950303",
"N#	c #AA0909",
"O#	c #920303",
"P#	c #730606",
"Q#	c #4148AC",
"R#	c #909090",
"S#	c #F7F7F7",
"T#	c #E4E4E4",
"U#	c #7A7A86",
"V#	c #3A47CE",
"W#	c #5D0528",
"X#	c #7A0936",
"Y#	c #5D0628",
"Z#	c #B41019",
"`#	c #B20E0F",
" $	c #340101",
".$	c #9C0000",
"+$	c #8B0000",
"@$	c #B60C0C",
"#$	c #C61111",
"$$	c #840808",
"%$	c #112DC8",
"&$	c #1837E8",
"*$	c #51559A",
"=$	c #A5A5A5",
"-$	c #5E608A",
";$	c #2D40DB",
">$	c #5B0626",
",$	c #580626",
"'$	c #7B0837",
")$	c #85082F",
"!$	c #B91015",
"~$	c #B40F0F",
"{$	c #280E0E",
"]$	c #1A1A1A",
"^$	c #7D0000",
"/$	c #8A0000",
"($	c #B30B0B",
"_$	c #740606",
":$	c #122FD1",
"<$	c #1F39E5",
"[$	c #3946CE",
"}$	c #1B38E7",
"|$	c #091D8C",
"1$	c #590726",
"2$	c #24030C",
"3$	c #550625",
"4$	c #810931",
"5$	c #AB0E1D",
"6$	c #C1110F",
"7$	c #B20E0D",
"8$	c #171413",
"9$	c #313131",
"0$	c #340505",
"a$	c #890000",
"b$	c #950404",
"c$	c #950A0A",
"d$	c #16136A",
"e$	c #1635E7",
"f$	c #0B229C",
"g$	c #510523",
"h$	c #28030E",
"i$	c #830831",
"j$	c #980B28",
"k$	c #A50D21",
"l$	c #AC0E1C",
"m$	c #AD0E1C",
"n$	c #AA0D1E",
"o$	c #9C0C26",
"p$	c #5D0422",
"q$	c #111111",
"r$	c #0E0E0E",
"s$	c #450000",
"t$	c #630000",
"u$	c #710404",
"v$	c #37093C",
"w$	c #0C23A3",
"x$	c #1534E3",
"y$	c #0E26AE",
"z$	c #3F051A",
"A$	c #2E0412",
"B$	c #4E0622",
"C$	c #7C0738",
"D$	c #7B0836",
"E$	c #7A0738",
"F$	c #780835",
"G$	c #5B0428",
"H$	c #46031D",
"I$	c #600628",
"J$	c #040001",
"K$	c #0F26AE",
"L$	c #1330D0",
"M$	c #150105",
"N$	c #720832",
"O$	c #7A0838",
"P$	c #370415",
"Q$	c #48061F",
"R$	c #7A0839",
"S$	c #6C0931",
"T$	c #010000",
"U$	c #1733DA",
"V$	c #07187B",
"W$	c #360315",
"X$	c #590526",
"Y$	c #5B0627",
"Z$	c #45051E",
"`$	c #6D0731",
" %	c #6D0931",
".%	c #740935",
"+%	c #790737",
"@%	c #770835",
"#%	c #720933",
"$%	c #67072D",
"%%	c #63062C",
"&%	c #04072D",
"*%	c #1634E0",
"=%	c #071672",
"-%	c #04105C",
";%	c #41051B",
">%	c #60072A",
",%	c #000100",
"'%	c #070101",
")%	c #190207",
"!%	c #170206",
"~%	c #29030E",
"{%	c #590624",
"]%	c #770833",
"^%	c #560625",
"/%	c #0E1866",
"(%	c #1029B9",
"_%	c #380516",
":%	c #7C0735",
"<%	c #560523",
"[%	c #0B186E",
"}%	c #1732D3",
"|%	c #60082A",
"1%	c #44051C",
"2%	c #102293",
"3%	c #1029B8",
"4%	c #2C0612",
"5%	c #7C0835",
"6%	c #780937",
"7%	c #4A051F",
"8%	c #10208C",
"9%	c #1835E0",
"0%	c #000001",
"a%	c #6C082E",
"b%	c #790834",
"c%	c #29030F",
"d%	c #1028B3",
"e%	c #122DC8",
"f%	c #20030A",
"g%	c #790838",
"h%	c #40061C",
"i%	c #0C219A",
"j%	c #1C37E1",
"k%	c #6B082D",
"l%	c #770A33",
"m%	c #120104",
"n%	c #142FCC",
"o%	c #110103",
"p%	c #740A33",
"q%	c #340315",
"r%	c #1327A7",
"s%	c #1736E9",
"t%	c #070E4C",
"u%	c #5D0627",
"v%	c #710831",
"w%	c #020101",
"x%	c #1432D8",
"y%	c #01010B",
"z%	c #6C092F",
"A%	c #760832",
"B%	c #132CC2",
"C%	c #0D229C",
"D%	c #290310",
"E%	c #560623",
"F%	c #580624",
"G%	c #040C4A",
"H%	c #071878",
"I%	c #320313",
"J%	c #60062B",
"K%	c #6D0730",
"L%	c #62072A",
"M%	c #350314",
"N%	c #050F55",
"O%	c #0D24A7",
"P%	c #061673",
"Q%	c #101F85",
"R%	c #1530CD",
"S%	c #1735E1",
"T%	c #0D25A7",
"U%	c #03093C",
"V%	c #030627",
"W%	c #0E2298",
"X%	c #1834DC",
"Y%	c #1737E9",
"Z%	c #1635E5",
"`%	c #1636E8",
" &	c #1535E8",
".&	c #1637E8",
"+&	c #1437E9",
"@&	c #1736E6",
"#&	c #1637E6",
"$&	c #1437EB",
"%&	c #1338EB",
"&&	c #1336E8",
"*&	c #1636EB",
"=&	c #1635EF",
"-&	c #1636ED",
";&	c #1536E7",
">&	c #1635F0",
",&	c #1436F0",
"'&	c #1436EF",
")&	c #1536E5",
"!&	c #1436ED",
"~&	c #1438E8",
"{&	c #1536E3",
"]&	c #1636E3",
"^&	c #1338E8",
"/&	c #1636E1",
"(&	c #1735E5",
"                          . . . . . . . . . . . . . . . . . . . . . . + + + + . . . . + + + + + + + + + + + + + + + + + + + + + ",
"                          . . . . . . . . . . . . . . . . . . . . . . + + + + . . + + + + + + + + + + + + + + + + + + + + + + + ",
"                    . . . . . . . . . . . . . . . . . . . . . + + + + + + + + + + + . . + + + + + + + + + + + + + + + + + + + @ ",
"                    . . . . . . . . . . . . . . . . . . . . . + + + + + + + + + + + + + + + + + + + + + + + + + + + + + + + + @ ",
"                    . . . . . . . . . . . . . . . . . . . . . + + + + + + + + + + + + + + + + + + + + + + + + + + + + + + + + @ ",
"                    . . . . . . . . . . . . . . . . . . + + + + + + + + + + + + + + + + + + + + + + + + + + + + + + + + + + + + ",
"                    . . . . . . . . . . . . . . . . . + + + + + + + + + + + + + + + + + + + + + + + + + + + + + + + + + + + + + ",
"                    . . . . . . . . . . . . . . . . + + + + + + + + + + + + + + + @ @ @ @ + + + + + + + + + + + + + + + + + + + ",
"                    . . . . . . . . . . . . . . . . + + + + @ + + + + + + + + + + @ @ @ @ + + + + + + + + + + + + + + + + + + + ",
"                    . . . . . . . . . . . . . . . . + + + @ @ + + + + + + + + + + @ @ @ @ + + + + + + + + + + + + + + + + + + + ",
"              . . . . . . . . . . . . . . . . + + + + + + + + + + + + + + + + @ @ @ @ @ @ @ @ + + + + + + + + + + + + + + + + + ",
"              . . . . . . . . . . . . . . . . + + + + + + + + + + + + + + + + @ @ @ @ @ @ @ @ + + + + + + + + + + + + + + + + + ",
"              . . . . . . . . . . . . . . . . + + + + + + + + + + + + + + + + @ @ @ @ @ @ @ @ @ @ @ @ + + + + + + + + + + + + + ",
"              . . . . . . . . . . . . . . . . + + + + + + + + + + + + + + + + @ @ @ @ @ @ @ @ @ @ @ @ + + + + + + + + + + + + + ",
"              . . . . . . . . . . . . . . + + + + + + + + + + + + + + + + + + @ @ @ @ @ @ @ @ @ @ @ @ @ + + + + + + + + + + + + ",
"              . . . . . . . . . . . . . + + + # $ % & * = - ; > , ' + + + + + @ @ @ @ @ @ @ @ @ @ @ @ @ @ + + + + + + + + + + + ",
"              . . . . . . . . . . . . + + + ) ! ~ { ] ^ / ( _ : < [ } | + + + @ @ @ @ @ @ @ @ @ @ @ @ @ @ @ @ + + + + + + + + + ",
"              . . . . . . . . . . . . + + 1 2 3 4 5 6 6 7 7 7 8 9 0 a b c + + @ @ @ @ @ @ @ @ @ @ @ @ @ @ d @ + + + + + + + + + ",
"              . . . . . . . . + + + + + + e f g h i 6 j j j j 6 k l m n o p @ @ @ @ @ @ @ @ @ @ @ @ @ @ @ q r @ @ + + + + + + + ",
"            . . . . . . . . . + + + + + s t u j i i 6 v w x y m z A B C D E @ @ @ @ @ @ @ @ @ @ @ @ @ @ r F G H @ @ + + + + + + ",
"          . . . . . . . . . . + + + + + I J K 6 7 L M N O P Q R S T S U V W X @ @ @ @ @ @ @ @ @ @ @ @ @ Y Z `  .@ @ + + + + + + ",
"          . . . . . . . . . . + + + + ..+.@.#.6 j $.%.&.*.=.-.;.>.,.'.;.).!.~.{.@ @ @ @ @ @ @ @ @ @ @ ].^./.(.@ @ @ @ + + + + + ",
"        . . . . . . . . . + + + + + + _.:.<.[.6 h }.|.1.2.3.4.5.6.7.8.9.0.a.b.c.d.@ @ @ @ @ @ @ @ e.f.g.h.i.j.@ @ @ @ @ + + + + ",
".         . . . . . . . + + + + + + + k.l.m.n.7 j ] o.p.q.r.r.s.t.t.u.u.t.v.w.x.y.@ @ @ @ @ @ @ z.A.B.C.D.E.F.@ @ @ @ @ @ @ + + ",
". .           . . . . + + + + + + G.H.I.J.K.L.6 h M.N.O.P.4.r.Q.R.S.5.T.U.V.W.X.Y.@ @ @ @ @ @ Z.`. +.+++@+#+$+@ @ @ @ @ @ @ @ + ",
"+ . .         . . . . + + + + %+2 &+*+=+-+K.;+j >+,+'+)+!+~+{+3.]+r.^+/+^+W.(+_+:+@ @ @ @ @ <+[+}+|+1+2+3+4+5+@ @ @ @ @ @ @ @ + ",
". . . . . .   + + + + + + + 6+7+8+9+0+a+b+c+d+6 e+f+g+h+i+j+k+l+m+n+o+;.p+q+r+s+t+@ @ @ @ u+v+w+x+|+y+z+A+B+C+@ @ @ @ @ @ @ @ @ ",
". . . . . . . + + + + + + + D+E+F+G+G+H+I+c+J+j j K+L+M+N+O+N+P+Q+R+O+O+O+S+O.T+U+@ @ # V+W+X+Y+Z+`+ @.@+@@@#@@ @ @ @ @ @ @ @ @ ",
"      . . . . + + + + + + + $@%@&@*@=@-@;@>@,@j 7 M '@)@!@~@{@N+N+N+{@N+O+]@^@/@(@@ _@:@<@[@}@}@|@`+1@2@3@4@@ @ @ @ @ @ @ @ @ @ ",
"5@    . . . . + + + + + + + 6@7@8@9@0@a@b@c+c@6 7 7 9 d@e@f@g@h@i@j@k@l@m@n@T o@@ p@q@r@s@t@u@}@v@|+w@x@ @y@@ @ @ @ @ @ @ @ @ @ ",
"5@    . . + + + + + + + + + z@A@9@B@C@D@E@F@G@H@I@J@j F+K@L@M@N@O@P@Q@R@S@T@U@V@W@X@Y@Z@[@2+1+}@`@|+.@ #.#@ @ @ @ @ @ @ @ @ @ @ ",
"    . . . + + + + + + + + + +#@#B@B@##$#%#&#*#=#j -#6 L j M ;#>#,#'#)#k !#~#{#]#^#/#(#_#:# @<#}@2@[#x@}#|#@ @ @ @ @ @ @ @ @ @ @ ",
"  . . . + + + + + + + + + + 1#2#B@B@##3#4#5#6#7#6 i i i i i i i i i i 8#9#0#a#b#c#d#e#f#g#_#h#}@u@i#j#k#@ @ @ @ @ @ @ @ @ @ @ @ ",
". . . + + + + + + + + + + + 1#l#B@B@m#n#o#B@p#q#7 i i i i i i i i i i r#s#t#u#v#w#x#y#z#A#B#C#}@D#r@E#@ @ @ @ @ @ @ @ @ @ @ @ @ ",
". . . + + + + + + + + + + + 1#o#B@B@F#G#o#B@6#H#I#i i i i i i i i i i J#K#L#M#N#O#7 P#{.Q#R#S#T#U#V#@ @ @ @ @ @ @ @ @ @ @ @ @ @ ",
". . . + + + + + + + + + + + 1#W#B@B@X#G#Y#B@B@F@Z#L i i i i i i i i `# $.$+$@$#$#$#$$$%$&$*$=$-$;$@ @ @ @ @ @ @ @ @ @ @ @ @ @ @ ",
". . + + + + + + + + + + + + 1#>$B@B@m#3#,$5#B@'$)$!$j 6 7 i i i i ~${$]$^$/$($#$#$#$_$:$@ <$[$}$@ @ @ @ @ @ @ @ @ @ @ @ @ @ @ @ ",
". + + + + + + + + + + + + + |$1$B@B@C@2$3$5#B@B@m#4$5$6$M j j j j 7$8$9$0$a$b$#$x#c$d$e$@ @ @ @ @ @ @ @ @ @ @ @ @ @ @ @ @ @ @ @ ",
"+ + + + + + + + + + + + + + f$g$p#B@F#h$g$5#B@B@5#&#K.i$j$k$l$m$n$o$p$q$r$s$t$u$v$w$x$@ @ @ @ @ @ @ @ @ @ @ @ @ @ @ @ @ @ @ @ @ ",
"+ + + + + + + + + + + + + + y$z$9@B@C@A$B$C$B@B@B@B@*#D$c+m###E$F$C@D$G$H$I$J$K$d.@ @ @ @ @ @ @ @ @ @ @ @ @ @ @ @ @ @ @ @ @ @ @ ",
"+ + + + + + + + + + + + + + L$M$N$O$m#P$Q$C$B@B@B@B@p#R$O$'$O$p#9@O$'$6#R$S$T$U$@ @ @ @ @ @ @ @ @ @ @ @ @ @ @ @ @ @ @ @ @ @ @ @ ",
"+ + + + + + + + + + + + + + + V$W$X$Y$D@Z$C$B@B@B@B@6#C@`$ %.%+%@%#%$%`$9@%%&%# @ @ @ @ @ @ @ @ @ @ @ @ @ @ @ @ @ @ @ @ @ @ @ @ ",
"+ + + + + + + + + + + + + + + *%I.V$=%-%;%C$B@B@B@B@6#>%,%T$'%)%!%~%{%]%m#^%/%@ @ @ @ @ @ @ @ @ @ @ @ @ @ @ @ @ @ @ @ @ @ @ @ @ ",
"+ + + + + + + + + + + + + + + + + + + (%_%:%B@B@B@B@9@<%[%) }%T |%F$0@m#m#1%2%@ @ @ @ @ @ @ @ @ @ @ @ @ @ @ @ @ @ @ @ @ @ @ @ @ ",
"+ + + + + + + + + + + + + + + + + + + 3%4%5%B@B@B@B@6%7%8%@ 9%0%a%6#B@6#b%c%d%@ @ @ @ @ @ @ @ @ @ @ @ @ @ @ @ @ @ @ @ @ @ @ @ @ ",
"+ + + + + + + + + + + + + + + + + + + e%f%C@B@B@B@B@g%h%i%@ j%0%k%'$B@6#l%m%n%@ @ @ @ @ @ @ @ @ @ @ @ @ @ @ @ @ @ @ @ @ @ @ @ @ ",
"+ + + + + + + + + + + + + + + + + + + 6+o%p%B@B@B@5#'$q%r%@ s%t%u%m#'$m#v%w%x%@ @ @ @ @ @ @ @ @ @ @ @ @ @ @ @ @ @ @ @ @ @ @ @ @ ",
"+ + + + + + + + + + + + + + + + + + + G.y%z%p#B@B@m#A%)%B%@ @ C%D%E%2#F%z$G%p @ @ @ @ @ @ @ @ @ @ @ @ @ @ @ @ @ @ @ @ @ @ @ @ @ ",
"+ + + + + + + + + + + + + + + + + + + + H%I%J%S$K%L%M%N%| @ @ x$O%=%P%P%Q%R%@ @ @ @ @ @ @ @ @ @ @ @ @ @ @ @ @ @ @ @ @ @ @ @ @ @ ",
"+ + + + + + + + + + + + + + + + + + + + S%T%U%T ,%V%W%X%@ @ @ @ @ @ @ @ @ @ @ @ @ @ @ @ @ @ @ @ @ @ @ @ @ @ @ @ @ @ @ @ @ @ @ @ ",
"+ + + + + + + + + + + + + + + + + + + + + + Y%Z%Z%`%@ @ @ @ @ @ @ @ @ @ @ @ @ @ @ @ @ @ @ @ @ @ @ @ @ @ @ @ @ @ @ @ @ @ @ @ @  &",
"+ + + + + + + + + + + + + + + + + + + + + + + @ @ @ @ @ @ @ @ @ @ @ @ @ @ @ @ @ @ @ @ @ @ @ @ @ @ @ @ @ @ @ @ @ @ @ @ @ @ @ @  &",
"+ + + + + + + + + + + + + + + + + + + + + + + @ @ @ @ @ @ @ @ @ @ @ @ @ @ @ @ @ @ @ @ @ @ @ @ @ @ @ @ @ @ @ @ @ @ @ @ @ @ @ @  &",
"+ + + + + + + + + + + + + + + + + + + + + + + @ @ @ @ @ @ @ @ @ @ @ @ @ @ @ @ @ @ @ @ @ @ @ @ @ @ @ @ @ @ @ @ @ @ @ @ @ @ @ @  &",
"+ + + + + + + + + + + + + + + + + + + + + + + @ @ @ @ @ @ @ @ @ @ @ @ @ @ @ @ @ @ @ @ @ @ @ @ @ @ @ @ @ @ @ @ @ @ @ @ @ @ @ @  &",
"+ + + + + + + + + + + + + + + + + + + + + + + @ @ @ @ @ @ @ @ @ @ @ @ @ @ @ @ @ @ @ @ @ @ @ @ @ @ @ @ @ @ @ @ @ @ @ @ @ @ @ @  &",
"+ + + + + + + + + + + + + + + + + + + + + + + @ @ @ @ @ @ @ @ @ @ @ @ @ @ @ @ @ @ @ @ @ @ @ @ @ @ @ @ @ @ @ @ @ @ @ @ @ @ @ @  &",
"+ + + + + + + + + + + + + + + + + + + + + + + @ @ @ @ @ @ @ @ @ @ @ @ @ @ @ @ @ @ @ @ @ @ @ @ @ @ @ @ @ @ @ @ .&.&.&@ @ @ +&@  &",
"+ + + + + + + + + + + + + + + + + + + + + + + @ @ @ @ @ @ @ @ @ @ @ @ @ @ @ @ @ @ @ @ @ @ @ @ @ @ @ @ @ @ @ .&@&@&#&.&+&$&%&$&&&",
"+ + + + + + + + + + + + + + + + + + + + + + + @ @ @ @ @ @ @ @ @ @ @ @ @ @ @ @ @ @ @ @ @ @ @ @ @ @ @ @ @ @ @ @ # # .&+&+&%&%&$&&&",
"+ + + + + + + + + + + + + + + + + + + + + + + @ @ @ @ @ @ @ @ @ @ @ @ @ @ @ @ @ @ @ @ @ @ @ @ @ @ @ @ @ @ @ *&=&=&-&$&$&+&+& &;&",
"+ + + + + + + + + + + + + + + + + + + + + + @ @ @ @ @ @ @ @ @ @ @ @ @ @ @ @ @ @ @ @ @ @ @ @ @ @ @ @ @ @ @ @ *&>&,&'&$&+&;&)&Z%e$",
"+ + + + + + + + + + + + + + + + + + + + @ @ @ @ @ @ @ @ @ @ @ @ @ @ @ @ @ @ @ @ @ @ @ @ @ @ @ @ @ @ @ @ @ @ *&!&!&$&~&)&{&{&]&Z%",
"+ + + + + + + + + + + + + + + + + + + @ @ @ @ @ @ @ @ @ @ @ @ @ @ @ @ @ @ @ @ @ @ @ @ @ @ @ @ @ @ @ @ @ @ @ @ ^&^&~&)&{&]&/&]&(&"};
