/* XPM */
static char * wall_xpm[] = {
"64 64 177 2",
"  	c #54575C",
". 	c #53585B",
"+ 	c #53595B",
"@ 	c #52585A",
"# 	c #515759",
"$ 	c #646A6C",
"% 	c #747A7C",
"& 	c #6D7275",
"* 	c #555B5D",
"= 	c #66696E",
"- 	c #65686D",
"; 	c #5F6567",
"> 	c #555C5D",
", 	c #515859",
"' 	c #74787C",
") 	c #6F7277",
"! 	c #5E6266",
"~ 	c #54585C",
"{ 	c #5C6064",
"] 	c #64676C",
"^ 	c #66686E",
"/ 	c #7C7E84",
"( 	c #797C80",
"_ 	c #64696C",
": 	c #74777C",
"< 	c #707278",
"[ 	c #616469",
"} 	c #575A5F",
"| 	c #72747A",
"1 	c #747880",
"2 	c #70757F",
"3 	c #71757F",
"4 	c #72767F",
"5 	c #7B7D83",
"6 	c #84868C",
"7 	c #85868D",
"8 	c #83858B",
"9 	c #6B7073",
"0 	c #575E5F",
"a 	c #585A60",
"b 	c #7B7F88",
"c 	c #737984",
"d 	c #757B85",
"e 	c #82858B",
"f 	c #85878D",
"g 	c #585A5F",
"h 	c #7B7D82",
"i 	c #7A7F88",
"j 	c #82848B",
"k 	c #83868B",
"l 	c #82858A",
"m 	c #6B6F73",
"n 	c #575D5F",
"o 	c #64686C",
"p 	c #7A7F87",
"q 	c #737983",
"r 	c #757B84",
"s 	c #81848A",
"t 	c #808689",
"u 	c #81868A",
"v 	c #6B6E73",
"w 	c #64666C",
"x 	c #74767C",
"y 	c #7B8086",
"z 	c #747B81",
"A 	c #767C82",
"B 	c #7F8588",
"C 	c #818689",
"D 	c #7F8389",
"E 	c #7A8086",
"F 	c #7F8589",
"G 	c #83868C",
"H 	c #83878C",
"I 	c #82868A",
"J 	c #82878B",
"K 	c #82868B",
"L 	c #84878C",
"M 	c #81858A",
"N 	c #7C8187",
"O 	c #7C8287",
"P 	c #7E8489",
"Q 	c #80838A",
"R 	c #7F8289",
"S 	c #7D8188",
"T 	c #767B85",
"U 	c #767C85",
"V 	c #7C8288",
"W 	c #83858C",
"X 	c #7A7E87",
"Y 	c #7E8189",
"Z 	c #747984",
"` 	c #767C86",
" .	c #777C86",
"..	c #80828A",
"+.	c #797D87",
"@.	c #7D8388",
"#.	c #82858C",
"$.	c #797D86",
"%.	c #737A84",
"&.	c #747A84",
"*.	c #797E87",
"=.	c #7E8389",
"-.	c #7F8489",
";.	c #81868C",
">.	c #7C868C",
",.	c #7C868B",
"'.	c #777F84",
").	c #757C81",
"!.	c #757D81",
"~.	c #7D868B",
"{.	c #7C8186",
"].	c #767F83",
"^.	c #7B848B",
"/.	c #7B868C",
"(.	c #788186",
"_.	c #778084",
":.	c #81858B",
"<.	c #7B8185",
"[.	c #767E82",
"}.	c #7A848A",
"|.	c #7A858B",
"1.	c #7E858A",
"2.	c #798389",
"3.	c #7D8185",
"4.	c #788185",
"5.	c #798185",
"6.	c #7B7E84",
"7.	c #696C71",
"8.	c #75777D",
"9.	c #7A8186",
"0.	c #7C8185",
"a.	c #696E71",
"b.	c #696B71",
"c.	c #606368",
"d.	c #55585D",
"e.	c #5F6367",
"f.	c #6A6E71",
"g.	c #575B5F",
"h.	c #585B5F",
"i.	c #565A5E",
"j.	c #666B6E",
"k.	c #6F7577",
"l.	c #62666A",
"m.	c #585C60",
"n.	c #686A70",
"o.	c #686B70",
"p.	c #686D70",
"q.	c #6E7376",
"r.	c #73797B",
"s.	c #717679",
"t.	c #717379",
"u.	c #717479",
"v.	c #717779",
"w.	c #72787A",
"x.	c #63656B",
"y.	c #63666B",
"z.	c #63686B",
"A.	c #555A5D",
"B.	c #5D6365",
"C.	c #63696B",
"D.	c #696D70",
"E.	c #777B7F",
"F.	c #7A7D81",
"G.	c #797D81",
"H.	c #7C7F84",
"I.	c #7D8085",
"J.	c #81878A",
"K.	c #73767B",
"L.	c #777B80",
"M.	c #757C7F",
"N.	c #5B5F63",
"O.	c #5B6064",
"P.	c #5B6365",
"Q.	c #56595E",
"R.	c #52555A",
"S.	c #53575B",
"T.	c #535A5B",
"                                                  . + @ # $ % & * @ + .                                                         ",
"= = = = = = = = = = = = = = = = = = = = = = = = = - ; > , $ ' ) ! ~ { ] = ^ ^ ^ = = = = = = = = = = = = = = = = = = = = = = = = ",
"/ / / / / / / / / / / / / / / / / / / / / / / / / / ( $ > _ : < [ } | 1 2 3 2 4 5 / / / / / / / / / / / / / / / / / / / / / / / ",
"6 6 6 6 6 6 6 6 6 6 6 6 6 6 6 6 6 6 6 6 6 6 6 6 6 7 8 9 0 _ : ) [ a 5 b c c c d e f 6 6 6 6 6 6 6 6 6 6 6 6 6 6 6 6 6 6 6 6 6 6 ",
"6 6 6 6 6 6 6 6 6 6 6 6 6 6 6 6 6 6 6 6 6 6 6 6 6 6 8 9 0 _ : ) [ g h i c c c d j 6 6 6 6 6 6 6 6 6 6 6 6 6 6 6 6 6 6 6 6 6 6 6 ",
"k k k k k k k k k k k k k k k k k k k k k k k k k k l m n o : ) [ g h p q q q r s k k k k k k k k k k k k k k k k k k k k k k k ",
"t t t t t t t t t t t t t t t t t t t t t t t t t u l v } w x ) [ g h y z z z A B t t t t t t t t t t t t t t t t t t t t t t t ",
"t t t t t t t t t t t t t t t t t t t t t t t t t C l v } w x ) [ g h D E y y y F t t t t t t t t t t t t t t t t t t t t t t t ",
"t t t t t t t t t t t t t t t t t t t t t t t t t C l v } w x ) [ g 5 G e e e e t t t t t t t t t t t t t t t t t t t t t t t t ",
"t t t t t t t t t t t t t t t t t t t t t t t t t C l v } w x ) [ g 5 f 6 6 6 6 C t t t t t t t t t t t t t t t t t t t t t t t ",
"t t t t t t t t t t t t t t t t t t t t t t t t t C l v } w x ) [ g h H I I I I t t t t t t t t t t t t t t t t t t t t t t t t ",
"t t t t t t t t t t t t t t t t t t t t t t t t t C l v } w x ) [ g h J t t t t t t t t t t t t t t t t t t t t t t t t t t t t ",
"t t t t t t t t t t t t t t t t t t t t t t t t t C l v } w x ) [ g h J t t t t t t t t t t t t t t t t t t t t t t t t t t t t ",
"t t t t t t t t t t t t t t t t t t t t t t t t t C l v } w x ) [ g h J t t t t t t t t t t t t t t t t t t t t t t t t t t t t ",
"t t t t t t t t t t t t t t t t t t t t t t t t t C l v } w x ) [ g h J t t t t t t t t t t t t t t t t t t t t t t t t t t t t ",
"t t t t t t t t t t t t t t t t t t t t t t t t t C l v } w x ) [ g h J t t t t t t t t t t t t t t t t t t t t t t t t t t t t ",
"t t t t t t t t t t t t t t t t t t t t t t t t t C l v } w x ) [ g h J t t t t t t t t t t t t t t t t t t t t t t t t t t t t ",
"t t t t t t t t t t t t t t t t t t t t t t t t t C l v } w x ) [ g h J t t t t t t t t t t t t t t t t t t t t t t t t t t t t ",
"t t t t t t t t t t t t t t t t t t t t t t t t t C l v } w x ) [ g h J t t t t t t t t t t t t t t t t t t t t t t t t t t t t ",
"t t t t t t t t t t t t t t t t t t t t t t t t t C l v } w x ) [ g h J t t t t t t t t t t t t t t t t t t t t t t t t t t t t ",
"t t t t t t t t t t t t t t t t t t t t t t t t t C l v } w x ) [ g h J t t t t t t t t t t t t t t t t t t t t t t t t t t t t ",
"t t t t t t t t t t t t t t t t t t t t t t t t t C l v } w x ) [ g h J t t t t t t t t t t t t t t t t t t t t t t t t t t t t ",
"t t t t t t t t t t t t t t t t t t t t t t t t t C l v } w x ) [ g h J t t t t t t t t t t t t t t t t t t t t t t t t t t t t ",
"t t t t t t t t t t t t t t t t t t t t t t t t t C l v } w x ) [ g h J t t t t t t t t t t t t t t t t t t t t t t t t t t t t ",
"t t t t t t t t t t t t t t t t t t t t t t t t t C l v } w x ) [ g h J t t t t t t t t t t t t t t t t t t t t t t t t t t t t ",
"t t t t t t t t t t t t t t t t t t t t t t t t t C l v } w x ) [ g h J t t t t t t t t t t t t t t t t t t t t t t t t t t t t ",
"t t t t t t t t t t t t t t t t t t t t t t t t t C l v } w x ) [ g h J t t t t t t t t t t t t t t t t t t t t t t t t t t t t ",
"t t t t t t t t t t t t t t t t t t t t t t t t t C l v } w x ) [ g h J t t t t t t t t t t t t t t t t t t t t t t t t t t t t ",
"t t t t t t t t t t t t t t t t t t t t t t t t t C l v } w x ) [ g h J t t t t t t t t t t t t t t t t t t t t t t t t t t t t ",
"t t t t t t t t t t t t t t t t t t t t t t t t t C l v } w x ) [ g h J t t t t t t t t t t t t t t t t t t t t t t t t t t t t ",
"t t t t t t t t t t t t t t t t t t t t t t t t t C l v } w x ) [ g h J t t t t t t t t t t t t t t t t t t t t t t t t t t t t ",
"t t t t t t t t t t t t t t t t t t t t t t t t t C l v } w x ) [ g h J t t t t t t t t t t t t t t t t t t t t t t t t t t t t ",
"t t t t t t t t t t t t t t t t t t t t t t t t t C l v } w x ) [ g h J t t t t t t t t t t t t t t t t t t t t t t t t t t t t ",
"t t t t t t t t t t t t t t t t t t t t t t t t t C l v } w x ) [ g h J t t t t t t t t t t t t t t t t t t t t t t t t t t t t ",
"t t t t t t t t t t t t t t t t t t t t t t t t t C l v } w x ) [ g h J t t t t t t t t t t t t t t t t t t t t t t t t t t t t ",
"t t t t t t t t t t t t t t t t t t t t t t t t t C l v } w x ) [ g h J t t t t t t t t t t t t t t t t t t t t t t t t t t t t ",
"t t t t t t t t t t t t t t t t t t t t t t t t t C l v } w x ) [ g h J t t t t t t t t t t t t t t t t t t t t t t t t t t t t ",
"t t t t t t t t t t t t t t t t t t t t t t t t t C l v } w x ) [ g h J t t t t t t t t t t t t t t t t t t t t t t t t t t t t ",
"t t t t t t t t t t t t t t t t u K K K k k k k k k l v } w x ) [ g 5 L K k M N O P F F F t t t t t t t t t t t t t t t t t t t ",
"t t t t t t t t t t t t t t t t u 6 6 6 Q R R R Q 6 8 v } w x ) [ g 5 f 6 8 S T U V P P F t t t t t t t t t t t t t t t t t t t ",
"t t t t t t t t t t t t t t t t u 6 6 W X U U U X G 8 v } w x ) [ g 5 f G Y T Z ` V P P F t t t t t t t t t t t t t t t t t t t ",
"t t t t t t t t t t t t t t t t u 6 6 W  .c c c  .W 8 v } w x ) [ g 5 6 ..+.c d @.P P P F t t t t t t t t t t t t t t t t t t t ",
"t t t t t t t t t t t t t t t t u G G #. .q c q  .W e v } w x ) [ g h s $.%.&.*.=.-.-.-.F t t t t t t t t t t t t t t t t t t t ",
"G G G G G G G G G G G G G G G 6 ;.>.>.,.'.).!.).'.~.e v } w x ) [ g h {.!.).].^.K G G G G G G G G G G G G G G G G G G G G G G G ",
"6 6 6 6 6 6 6 6 6 6 6 6 6 6 6 6 ;./././.(._._._.(.>.:.v } w x ) [ g h <.[.(.}.>.G 6 6 6 6 6 6 6 6 6 6 6 6 6 6 6 6 6 6 6 6 6 6 6 ",
"6 6 6 6 6 6 6 6 6 6 6 6 6 6 6 6 ;./././.|.}.}.}.|.>.e v } w x ) [ g 5 1.2.|./.>.G 6 6 6 6 6 6 6 6 6 6 6 6 6 6 6 6 6 6 6 6 6 6 6 ",
"3.3.3.3.3.3.3.3.3.3.3.3.3.3.3.3.<.4.4.4.4.4.4.4.4.5.6.7.} w x ) [ } 8.9.4.4.4.5.0.3.3.3.3.3.3.3.3.3.3.3.3.3.3.3.3.3.3.3.3.3.3.3.",
"a.a.a.a.a.a.a.a.a.a.a.a.a.a.a.a.a.a.a.a.a.a.a.a.a.a.b.c.d.] : ) e.d.] f.a.a.a.a.a.a.a.a.a.a.a.a.a.a.a.a.a.a.a.a.a.a.a.a.a.a.a.a.",
"} } g.g.g.g.g.g.g.g.g.g.g.g.g.g.g.g.g.g.g.g.g.g.g.h.g.g.i.j.% k.l.m.g.h.g.g.g.g.g.g.g.g.g.g.g.g.g.g.g.g.g.g.g.g.g.g.g.g.g.g.g.g.",
"n.n.o.p.p.p.p.p.p.p.p.p.p.p.p.p.p.p.p.p.p.p.p.p.p.p.p.p.p.q.r.r.s.a.p.p.p.p.p.p.p.p.p.p.p.p.p.p.p.p.p.p.p.p.p.p.p.p.p.p.p.p.p.p.",
"t.t.u.v.v.v.v.v.v.v.v.v.v.v.v.v.v.v.v.v.v.v.v.v.v.v.v.v.v.v.w.w.w.v.v.v.v.v.v.v.v.v.v.v.v.v.v.v.v.v.v.v.v.v.v.v.v.v.v.v.v.v.v.v.",
"x.x.y.z.z.z.z.z.z.z.z.z.z.z.z.z.z.z.z.z.z.z.z.z.z.z.z.z.z.z.z.z.z.z.z.z.z.z.z.z.z.z.z.z.z.z.z.z.z.z.z.z.z.z.z.z.z.z.z.z.z.z.z.z.",
"A.A.* * * * * * * * * * * * * * * * * * * * * * * * * * * * * * * * * * * * * * * * * * * * * * * * * * * * * * * * * * * * * * ",
"B.C.z.z.z.z.z.z.z.z.z.z.z.z.z.z.z.z.z.z.z.z.z.z.z.z.z.z.z.z.z.z.z.z.z.z.z.z.z.z.z.z.z.z.z.z.z.z.z.z.z.z.z.z.z.z.z.z.z.z.z.z.z.z.",
"D.E.F.G.G.G.G.G.G.G.G.G.G.G.G.G.G.G.G.G.G.G.G.G.G.G.G.G.G.G.G.G.G.G.G.G.G.G.G.G.G.G.G.G.G.G.G.G.G.G.G.G.G.G.G.G.G.G.G.G.G.G.G.G.",
"p.H.6 6 6 6 6 6 6 6 6 6 6 6 6 6 6 6 6 6 6 6 6 6 6 6 6 6 6 6 6 6 6 6 6 6 6 6 6 6 6 6 6 6 6 6 6 6 6 6 6 6 6 6 6 6 6 6 6 6 6 6 6 6 ",
"p.H.6 6 6 6 6 6 6 6 6 6 6 6 6 6 6 6 6 6 6 6 6 6 6 6 6 6 6 6 6 6 6 6 6 6 6 6 6 6 6 6 6 6 6 6 6 6 6 6 6 6 6 6 6 6 6 6 6 6 6 6 6 6 ",
"p.H.k C C C C C C C C C C C C C C C C C C C C C C C C C C C C C C C C C C C C C C C C C C C C C C C C C C C C C C C C C C C C C ",
"p.H.k t t t t t t t t t t t t t t t t t t t t t t t t t t t t t t t t t t t t t t t t t t t t t t t t t t t t t t t t t t t t t ",
"p.H.k t t t t t t t t t t t t t t t t t t t t t t t t t t t t t t t t t t t t t t t t t t t t t t t t t t t t t t t t t t t t t ",
"p.I.H J.J.J.J.J.J.J.J.J.J.J.J.J.J.J.J.J.J.J.J.J.J.J.J.J.J.J.J.J.J.J.J.J.J.J.J.J.J.J.J.J.J.J.J.J.J.J.J.J.J.J.J.J.J.J.J.J.J.J.J.J.",
"z.K.L.M.M.M.M.M.M.M.M.M.M.M.M.M.M.M.M.M.M.M.M.M.M.M.M.M.M.M.M.M.M.M.M.M.M.M.M.M.M.M.M.M.M.M.M.M.M.M.M.M.M.M.M.M.M.M.M.M.M.M.M.M.",
"m.N.O.P.P.P.P.P.P.P.P.P.P.P.P.P.P.P.P.P.P.P.P.P.P.P.P.P.P.P.P.P.P.P.P.P.P.P.P.P.P.P.P.P.P.P.P.P.P.P.P.P.P.P.P.P.P.P.P.P.P.P.P.P.",
"Q.R.S.T.T.T.T.T.T.T.T.T.T.T.T.T.T.T.T.T.T.T.T.T.T.T.T.T.T.T.T.T.T.T.T.T.T.T.T.T.T.T.T.T.T.T.T.T.T.T.T.T.T.T.T.T.T.T.T.T.T.T.T.T."};
